M48
INCH
T1C0.0157
T2C0.0295
T3C0.0394
T4C0.0400
%
G90
G05
T1
X-5.5852Y0.4783
X-5.5557Y0.4783
X-5.5262Y0.4783
X-5.4966Y0.4783
X-5.4671Y0.4783
X-5.4376Y0.4783
X-5.4081Y0.4783
X-5.3907Y2.0054
X-5.3795Y1.3715
X-5.3795Y0.7786
X-4.9639Y2.2391
X-4.8752Y1.6329
X-4.8258Y0.7434
X-4.7616Y1.3353
X-4.6772Y2.0529
X-4.6772Y2.0127
X-4.6772Y1.8213
X-4.648Y2.258
X-4.4814Y1.1264
X-4.4814Y0.9329
X-4.3254Y0.4783
X-4.2958Y0.4783
X-4.2663Y0.4783
X-4.2368Y0.4783
X-4.2073Y0.4783
X-4.1777Y0.4783
X-4.1679Y2.7323
X-4.1482Y0.4783
X-4.1384Y2.7323
X-4.1187Y0.4783
X-4.1088Y2.7323
X-4.1048Y1.1264
X-4.0793Y2.7323
X-4.0498Y2.7323
X-4.0203Y2.7323
X-3.9929Y1.06
X-3.9907Y2.7323
X-3.9794Y1.5897
X-3.9794Y0.8948
X-3.9726Y2.1756
X-3.9612Y2.7323
X-3.9429Y1.6459
X-3.8387Y0.4532
X-3.8303Y2.5206
X-3.8303Y2.4673
X-3.8303Y1.7852
X-3.8303Y1.7055
X-3.4031Y2.2859
X-3.4031Y2.0303
X-3.3717Y1.6762
X-3.3717Y1.0069
X-3.3663Y1.796
X-3.3449Y1.0856
X-3.3327Y1.8323
X-3.2871Y1.2422
X-3.222Y2.5039
X-2.8096Y2.7421
X-2.7801Y2.7421
X-2.7563Y0.0582
X-2.7506Y2.7421
X-2.721Y2.7421
X-2.6915Y2.7421
X-2.6772Y1.8523
X-2.6752Y0.8948
X-2.6752Y-0.1476
X-2.6697Y2.2519
X-2.6697Y1.5897
X-2.662Y2.7421
X-2.6325Y2.7421
X-2.6029Y2.7421
X-2.2116Y1.4409
X-2.1744Y1.8822
X-2.1744Y1.8169
X-2.1744Y1.5044
X-2.1744Y0.8249
X-2.1693Y2.1559
X-2.0826Y0.3157
X-2.0826Y0.2155
X-1.8284Y2.2846
X-1.8284Y1.0197
X-1.8038Y1.7321
X-1.8038Y1.689
X-1.7306Y2.2157
X-1.7306Y2.086
X-1.7028Y2.3726
X-1.3868Y2.3378
X-1.2233Y0.6765
X-1.1069Y0.2776
X-1.0872Y1.7631
X-1.0835Y0.2264
X-1.0448Y1.6358
X-1.0448Y0.6765
X-0.3371Y0.165
X-0.3216Y0.3313
X-0.1701Y1.0217
X-0.0797Y1.7055
X-0.0541Y1.6668
X0.0864Y-0.1196
X0.1973Y-0.1546
X0.2581Y1.9525
X0.2581Y1.8643
X0.2856Y1.895
X0.2856Y1.8003
X0.373Y1.8928
X0.4784Y2.1689
X0.4785Y0.8088
X0.483Y1.4894
X0.7488Y1.9772
X0.8893Y0.076
X0.9436Y1.9626
X0.9849Y0.6631
X1.047Y1.9874
X1.1206Y1.607
X1.1275Y2.2496
X1.2455Y2.7421
X1.275Y2.7421
X1.2899Y1.8669
X1.3045Y2.7421
X1.3221Y1.8669
X1.3341Y2.7421
X1.3636Y2.7421
X1.3931Y2.7421
X1.4227Y2.7421
X1.4522Y2.7421
X1.6508Y2.0227
X1.6933Y2.1426
X1.7873Y0.5473
X1.7873Y0.1409
X1.7941Y1.0071
X1.7941Y0.6631
X1.8017Y2.0798
X1.8017Y1.678
X1.8021Y2.3435
X1.8416Y1.3318
X2.4198Y2.2088
X2.486Y1.5897
X2.486Y0.9136
X2.486Y0.5473
X2.6038Y2.7323
X2.6333Y2.7323
X2.6628Y2.7323
X2.6923Y2.7323
X2.7219Y2.7323
X2.7514Y2.7323
X2.7809Y2.7323
X2.7809Y0.4783
X2.8105Y2.7323
X2.8105Y0.4783
X2.84Y0.4783
X2.8695Y0.4783
X2.899Y0.4783
X2.9286Y0.4783
X2.9581Y0.4783
X2.9876Y0.4783
X3.2644Y2.0228
X3.2644Y1.3862
X3.2644Y0.7788
X3.7638Y1.0043
X3.8096Y0.7282
X3.9533Y2.0529
X3.9533Y1.9855
X3.9533Y1.7845
X3.9533Y1.4481
X4.0605Y0.4783
X4.09Y0.4783
X4.1195Y0.4783
X4.149Y0.4783
X4.1786Y0.4783
X4.2081Y0.4783
X4.2376Y0.4783
T2
X-0.9297Y1.6358
X-0.9297Y1.5571
X-0.4175Y1.6303
X-0.4175Y1.5516
T3
X-1.5118Y2.4674
X-1.5118Y2.3674
X-1.5118Y2.2674
X-1.5118Y2.1674
X-1.5118Y2.0674
X-1.5118Y1.9674
X-1.5118Y1.8674
X-0.9118Y2.4674
X-0.9118Y2.3674
X-0.9118Y2.2674
X-0.9118Y2.1674
X-0.9118Y2.0674
X-0.9118Y1.9674
X-0.9118Y1.8674
X-0.4372Y2.4643
X-0.4372Y2.3643
X-0.4372Y2.2643
X-0.4372Y2.1643
X-0.4372Y2.0643
X-0.4372Y1.9643
X-0.4372Y1.8643
X0.1628Y2.4643
X0.1628Y2.3643
X0.1628Y2.2643
X0.1628Y2.1643
X0.1628Y2.0643
X0.1628Y1.9643
X0.1628Y1.8643
T4
X-1.3868Y2.1799
X-1.0598Y1.8034
X-0.9848Y1.8034
X-0.3122Y2.1768
X0.0148Y1.8003
X0.0898Y1.8003
M30
