%TF.GenerationSoftware,KiCad,Pcbnew,8.0.7*%
%TF.CreationDate,2025-01-01T00:44:28+01:00*%
%TF.ProjectId,corne-xiao,636f726e-652d-4786-9961-6f2e6b696361,1.1*%
%TF.SameCoordinates,Original*%
%TF.FileFunction,Legend,Top*%
%TF.FilePolarity,Positive*%
%FSLAX46Y46*%
G04 Gerber Fmt 4.6, Leading zero omitted, Abs format (unit mm)*
G04 Created by KiCad (PCBNEW 8.0.7) date 2025-01-01 00:44:28*
%MOMM*%
%LPD*%
G01*
G04 APERTURE LIST*
G04 Aperture macros list*
%AMRoundRect*
0 Rectangle with rounded corners*
0 $1 Rounding radius*
0 $2 $3 $4 $5 $6 $7 $8 $9 X,Y pos of 4 corners*
0 Add a 4 corners polygon primitive as box body*
4,1,4,$2,$3,$4,$5,$6,$7,$8,$9,$2,$3,0*
0 Add four circle primitives for the rounded corners*
1,1,$1+$1,$2,$3*
1,1,$1+$1,$4,$5*
1,1,$1+$1,$6,$7*
1,1,$1+$1,$8,$9*
0 Add four rect primitives between the rounded corners*
20,1,$1+$1,$2,$3,$4,$5,0*
20,1,$1+$1,$4,$5,$6,$7,0*
20,1,$1+$1,$6,$7,$8,$9,0*
20,1,$1+$1,$8,$9,$2,$3,0*%
G04 Aperture macros list end*
%ADD10C,0.125000*%
%ADD11C,0.200000*%
%ADD12C,0.150000*%
%ADD13C,0.120000*%
%ADD14RoundRect,0.038000X0.700000X0.500000X-0.700000X0.500000X-0.700000X-0.500000X0.700000X-0.500000X0*%
%ADD15RoundRect,0.038000X0.805558X0.301790X-0.546739X0.664136X-0.805558X-0.301790X0.546739X-0.664136X0*%
%ADD16RoundRect,0.038000X-0.083013X0.856218X-0.783013X-0.356218X0.083013X-0.856218X0.783013X0.356218X0*%
%ADD17RoundRect,0.038000X-0.775000X-1.000000X0.775000X-1.000000X0.775000X1.000000X-0.775000X1.000000X0*%
%ADD18RoundRect,0.038000X-1.000000X-1.000000X1.000000X-1.000000X1.000000X1.000000X-1.000000X1.000000X0*%
%ADD19RoundRect,0.038000X-1.007412X-0.765341X0.489773X-1.166511X1.007412X0.765341X-0.489773X1.166511X0*%
%ADD20RoundRect,0.038000X-1.224745X-0.707107X0.707107X-1.224745X1.224745X0.707107X-0.707107X1.224745X0*%
%ADD21RoundRect,0.038000X0.478525X-1.171170X1.253525X0.171170X-0.478525X1.171170X-1.253525X-0.171170X0*%
%ADD22RoundRect,0.038000X0.366025X-1.366025X1.366025X0.366025X-0.366025X1.366025X-1.366025X-0.366025X0*%
%ADD23RoundRect,0.038000X-1.253525X0.171170X-0.478525X-1.171170X1.253525X-0.171170X0.478525X1.171170X0*%
%ADD24RoundRect,0.038000X-1.366025X0.366025X-0.366025X-1.366025X1.366025X-0.366025X0.366025X1.366025X0*%
%ADD25RoundRect,0.038000X-0.700000X-0.500000X0.700000X-0.500000X0.700000X0.500000X-0.700000X0.500000X0*%
%ADD26RoundRect,0.038000X-0.546739X-0.664136X0.805558X-0.301790X0.546739X0.664136X-0.805558X0.301790X0*%
%ADD27RoundRect,0.038000X-0.783013X0.356218X-0.083013X-0.856218X0.783013X-0.356218X0.083013X0.856218X0*%
%ADD28RoundRect,0.038000X-0.489773X-1.166511X1.007412X-0.765341X0.489773X1.166511X-1.007412X0.765341X0*%
%ADD29RoundRect,0.038000X-0.707107X-1.224745X1.224745X-0.707107X0.707107X1.224745X-1.224745X0.707107X0*%
%ADD30O,2.826000X1.876000*%
%ADD31C,1.473000*%
%ADD32C,0.976000*%
%ADD33RoundRect,0.038000X-0.258013X0.553109X-0.608013X-0.053109X0.258013X-0.553109X0.608013X0.053109X0*%
%ADD34RoundRect,0.038000X1.462436X-0.266987X-0.962436X1.133013X-1.462436X0.266987X0.962436X-1.133013X0*%
%ADD35C,2.276000*%
%ADD36O,1.826000X1.276000*%
%ADD37RoundRect,0.038000X0.608013X-0.053109X0.258013X0.553109X-0.608013X0.053109X-0.258013X-0.553109X0*%
%ADD38RoundRect,0.038000X-0.962436X-1.133013X1.462436X0.266987X0.962436X1.133013X-1.462436X-0.266987X0*%
G04 APERTURE END LIST*
D10*
X-4044169Y8943881D02*
X-4044169Y9943881D01*
X-4044169Y9562929D02*
X-3948931Y9610548D01*
X-3948931Y9610548D02*
X-3758455Y9610548D01*
X-3758455Y9610548D02*
X-3663217Y9562929D01*
X-3663217Y9562929D02*
X-3615598Y9515310D01*
X-3615598Y9515310D02*
X-3567979Y9420072D01*
X-3567979Y9420072D02*
X-3567979Y9134358D01*
X-3567979Y9134358D02*
X-3615598Y9039120D01*
X-3615598Y9039120D02*
X-3663217Y8991500D01*
X-3663217Y8991500D02*
X-3758455Y8943881D01*
X-3758455Y8943881D02*
X-3948931Y8943881D01*
X-3948931Y8943881D02*
X-4044169Y8991500D01*
X-2710836Y8943881D02*
X-2710836Y9467691D01*
X-2710836Y9467691D02*
X-2758455Y9562929D01*
X-2758455Y9562929D02*
X-2853693Y9610548D01*
X-2853693Y9610548D02*
X-3044169Y9610548D01*
X-3044169Y9610548D02*
X-3139407Y9562929D01*
X-2710836Y8991500D02*
X-2806074Y8943881D01*
X-2806074Y8943881D02*
X-3044169Y8943881D01*
X-3044169Y8943881D02*
X-3139407Y8991500D01*
X-3139407Y8991500D02*
X-3187026Y9086739D01*
X-3187026Y9086739D02*
X-3187026Y9181977D01*
X-3187026Y9181977D02*
X-3139407Y9277215D01*
X-3139407Y9277215D02*
X-3044169Y9324834D01*
X-3044169Y9324834D02*
X-2806074Y9324834D01*
X-2806074Y9324834D02*
X-2710836Y9372453D01*
X-2234645Y8943881D02*
X-2234645Y9943881D01*
X-2234645Y9562929D02*
X-2139407Y9610548D01*
X-2139407Y9610548D02*
X-1948931Y9610548D01*
X-1948931Y9610548D02*
X-1853693Y9562929D01*
X-1853693Y9562929D02*
X-1806074Y9515310D01*
X-1806074Y9515310D02*
X-1758455Y9420072D01*
X-1758455Y9420072D02*
X-1758455Y9134358D01*
X-1758455Y9134358D02*
X-1806074Y9039120D01*
X-1806074Y9039120D02*
X-1853693Y8991500D01*
X-1853693Y8991500D02*
X-1948931Y8943881D01*
X-1948931Y8943881D02*
X-2139407Y8943881D01*
X-2139407Y8943881D02*
X-2234645Y8991500D01*
X-1425121Y9610548D02*
X-1187026Y8943881D01*
X-948931Y9610548D02*
X-1187026Y8943881D01*
X-1187026Y8943881D02*
X-1282264Y8705786D01*
X-1282264Y8705786D02*
X-1329883Y8658167D01*
X-1329883Y8658167D02*
X-1425121Y8610548D01*
X622498Y8991500D02*
X527260Y8943881D01*
X527260Y8943881D02*
X336784Y8943881D01*
X336784Y8943881D02*
X241546Y8991500D01*
X241546Y8991500D02*
X193927Y9039120D01*
X193927Y9039120D02*
X146308Y9134358D01*
X146308Y9134358D02*
X146308Y9420072D01*
X146308Y9420072D02*
X193927Y9515310D01*
X193927Y9515310D02*
X241546Y9562929D01*
X241546Y9562929D02*
X336784Y9610548D01*
X336784Y9610548D02*
X527260Y9610548D01*
X527260Y9610548D02*
X622498Y9562929D01*
X1193927Y8943881D02*
X1098689Y8991500D01*
X1098689Y8991500D02*
X1051070Y9039120D01*
X1051070Y9039120D02*
X1003451Y9134358D01*
X1003451Y9134358D02*
X1003451Y9420072D01*
X1003451Y9420072D02*
X1051070Y9515310D01*
X1051070Y9515310D02*
X1098689Y9562929D01*
X1098689Y9562929D02*
X1193927Y9610548D01*
X1193927Y9610548D02*
X1336784Y9610548D01*
X1336784Y9610548D02*
X1432022Y9562929D01*
X1432022Y9562929D02*
X1479641Y9515310D01*
X1479641Y9515310D02*
X1527260Y9420072D01*
X1527260Y9420072D02*
X1527260Y9134358D01*
X1527260Y9134358D02*
X1479641Y9039120D01*
X1479641Y9039120D02*
X1432022Y8991500D01*
X1432022Y8991500D02*
X1336784Y8943881D01*
X1336784Y8943881D02*
X1193927Y8943881D01*
X1955832Y8943881D02*
X1955832Y9610548D01*
X1955832Y9420072D02*
X2003451Y9515310D01*
X2003451Y9515310D02*
X2051070Y9562929D01*
X2051070Y9562929D02*
X2146308Y9610548D01*
X2146308Y9610548D02*
X2241546Y9610548D01*
X2574880Y9610548D02*
X2574880Y8943881D01*
X2574880Y9515310D02*
X2622499Y9562929D01*
X2622499Y9562929D02*
X2717737Y9610548D01*
X2717737Y9610548D02*
X2860594Y9610548D01*
X2860594Y9610548D02*
X2955832Y9562929D01*
X2955832Y9562929D02*
X3003451Y9467691D01*
X3003451Y9467691D02*
X3003451Y8943881D01*
X3860594Y8991500D02*
X3765356Y8943881D01*
X3765356Y8943881D02*
X3574880Y8943881D01*
X3574880Y8943881D02*
X3479642Y8991500D01*
X3479642Y8991500D02*
X3432023Y9086739D01*
X3432023Y9086739D02*
X3432023Y9467691D01*
X3432023Y9467691D02*
X3479642Y9562929D01*
X3479642Y9562929D02*
X3574880Y9610548D01*
X3574880Y9610548D02*
X3765356Y9610548D01*
X3765356Y9610548D02*
X3860594Y9562929D01*
X3860594Y9562929D02*
X3908213Y9467691D01*
X3908213Y9467691D02*
X3908213Y9372453D01*
X3908213Y9372453D02*
X3432023Y9277215D01*
X-37144169Y8893881D02*
X-37144169Y9893881D01*
X-37144169Y9512929D02*
X-37048931Y9560548D01*
X-37048931Y9560548D02*
X-36858455Y9560548D01*
X-36858455Y9560548D02*
X-36763217Y9512929D01*
X-36763217Y9512929D02*
X-36715598Y9465310D01*
X-36715598Y9465310D02*
X-36667979Y9370072D01*
X-36667979Y9370072D02*
X-36667979Y9084358D01*
X-36667979Y9084358D02*
X-36715598Y8989120D01*
X-36715598Y8989120D02*
X-36763217Y8941500D01*
X-36763217Y8941500D02*
X-36858455Y8893881D01*
X-36858455Y8893881D02*
X-37048931Y8893881D01*
X-37048931Y8893881D02*
X-37144169Y8941500D01*
X-35810836Y8893881D02*
X-35810836Y9417691D01*
X-35810836Y9417691D02*
X-35858455Y9512929D01*
X-35858455Y9512929D02*
X-35953693Y9560548D01*
X-35953693Y9560548D02*
X-36144169Y9560548D01*
X-36144169Y9560548D02*
X-36239407Y9512929D01*
X-35810836Y8941500D02*
X-35906074Y8893881D01*
X-35906074Y8893881D02*
X-36144169Y8893881D01*
X-36144169Y8893881D02*
X-36239407Y8941500D01*
X-36239407Y8941500D02*
X-36287026Y9036739D01*
X-36287026Y9036739D02*
X-36287026Y9131977D01*
X-36287026Y9131977D02*
X-36239407Y9227215D01*
X-36239407Y9227215D02*
X-36144169Y9274834D01*
X-36144169Y9274834D02*
X-35906074Y9274834D01*
X-35906074Y9274834D02*
X-35810836Y9322453D01*
X-35334645Y8893881D02*
X-35334645Y9893881D01*
X-35334645Y9512929D02*
X-35239407Y9560548D01*
X-35239407Y9560548D02*
X-35048931Y9560548D01*
X-35048931Y9560548D02*
X-34953693Y9512929D01*
X-34953693Y9512929D02*
X-34906074Y9465310D01*
X-34906074Y9465310D02*
X-34858455Y9370072D01*
X-34858455Y9370072D02*
X-34858455Y9084358D01*
X-34858455Y9084358D02*
X-34906074Y8989120D01*
X-34906074Y8989120D02*
X-34953693Y8941500D01*
X-34953693Y8941500D02*
X-35048931Y8893881D01*
X-35048931Y8893881D02*
X-35239407Y8893881D01*
X-35239407Y8893881D02*
X-35334645Y8941500D01*
X-34525121Y9560548D02*
X-34287026Y8893881D01*
X-34048931Y9560548D02*
X-34287026Y8893881D01*
X-34287026Y8893881D02*
X-34382264Y8655786D01*
X-34382264Y8655786D02*
X-34429883Y8608167D01*
X-34429883Y8608167D02*
X-34525121Y8560548D01*
X-32477502Y8941500D02*
X-32572740Y8893881D01*
X-32572740Y8893881D02*
X-32763216Y8893881D01*
X-32763216Y8893881D02*
X-32858454Y8941500D01*
X-32858454Y8941500D02*
X-32906073Y8989120D01*
X-32906073Y8989120D02*
X-32953692Y9084358D01*
X-32953692Y9084358D02*
X-32953692Y9370072D01*
X-32953692Y9370072D02*
X-32906073Y9465310D01*
X-32906073Y9465310D02*
X-32858454Y9512929D01*
X-32858454Y9512929D02*
X-32763216Y9560548D01*
X-32763216Y9560548D02*
X-32572740Y9560548D01*
X-32572740Y9560548D02*
X-32477502Y9512929D01*
X-31906073Y8893881D02*
X-32001311Y8941500D01*
X-32001311Y8941500D02*
X-32048930Y8989120D01*
X-32048930Y8989120D02*
X-32096549Y9084358D01*
X-32096549Y9084358D02*
X-32096549Y9370072D01*
X-32096549Y9370072D02*
X-32048930Y9465310D01*
X-32048930Y9465310D02*
X-32001311Y9512929D01*
X-32001311Y9512929D02*
X-31906073Y9560548D01*
X-31906073Y9560548D02*
X-31763216Y9560548D01*
X-31763216Y9560548D02*
X-31667978Y9512929D01*
X-31667978Y9512929D02*
X-31620359Y9465310D01*
X-31620359Y9465310D02*
X-31572740Y9370072D01*
X-31572740Y9370072D02*
X-31572740Y9084358D01*
X-31572740Y9084358D02*
X-31620359Y8989120D01*
X-31620359Y8989120D02*
X-31667978Y8941500D01*
X-31667978Y8941500D02*
X-31763216Y8893881D01*
X-31763216Y8893881D02*
X-31906073Y8893881D01*
X-31144168Y8893881D02*
X-31144168Y9560548D01*
X-31144168Y9370072D02*
X-31096549Y9465310D01*
X-31096549Y9465310D02*
X-31048930Y9512929D01*
X-31048930Y9512929D02*
X-30953692Y9560548D01*
X-30953692Y9560548D02*
X-30858454Y9560548D01*
X-30525120Y9560548D02*
X-30525120Y8893881D01*
X-30525120Y9465310D02*
X-30477501Y9512929D01*
X-30477501Y9512929D02*
X-30382263Y9560548D01*
X-30382263Y9560548D02*
X-30239406Y9560548D01*
X-30239406Y9560548D02*
X-30144168Y9512929D01*
X-30144168Y9512929D02*
X-30096549Y9417691D01*
X-30096549Y9417691D02*
X-30096549Y8893881D01*
X-29239406Y8941500D02*
X-29334644Y8893881D01*
X-29334644Y8893881D02*
X-29525120Y8893881D01*
X-29525120Y8893881D02*
X-29620358Y8941500D01*
X-29620358Y8941500D02*
X-29667977Y9036739D01*
X-29667977Y9036739D02*
X-29667977Y9417691D01*
X-29667977Y9417691D02*
X-29620358Y9512929D01*
X-29620358Y9512929D02*
X-29525120Y9560548D01*
X-29525120Y9560548D02*
X-29334644Y9560548D01*
X-29334644Y9560548D02*
X-29239406Y9512929D01*
X-29239406Y9512929D02*
X-29191787Y9417691D01*
X-29191787Y9417691D02*
X-29191787Y9322453D01*
X-29191787Y9322453D02*
X-29667977Y9227215D01*
D11*
X-3856732Y38967067D02*
X-2332922Y38967067D01*
X-3094827Y38205162D02*
X-3094827Y39728972D01*
X-31756732Y42067067D02*
X-30232922Y42067067D01*
X-30994827Y41305162D02*
X-30994827Y42828972D01*
X-3856732Y42217067D02*
X-2332922Y42217067D01*
D12*
X-26808674Y36324753D02*
X-26694388Y36286658D01*
X-26694388Y36286658D02*
X-26656293Y36248562D01*
X-26656293Y36248562D02*
X-26618197Y36172372D01*
X-26618197Y36172372D02*
X-26618197Y36058086D01*
X-26618197Y36058086D02*
X-26656293Y35981896D01*
X-26656293Y35981896D02*
X-26694388Y35943800D01*
X-26694388Y35943800D02*
X-26770578Y35905705D01*
X-26770578Y35905705D02*
X-27075340Y35905705D01*
X-27075340Y35905705D02*
X-27075340Y36705705D01*
X-27075340Y36705705D02*
X-26808674Y36705705D01*
X-26808674Y36705705D02*
X-26732483Y36667610D01*
X-26732483Y36667610D02*
X-26694388Y36629515D01*
X-26694388Y36629515D02*
X-26656293Y36553324D01*
X-26656293Y36553324D02*
X-26656293Y36477134D01*
X-26656293Y36477134D02*
X-26694388Y36400943D01*
X-26694388Y36400943D02*
X-26732483Y36362848D01*
X-26732483Y36362848D02*
X-26808674Y36324753D01*
X-26808674Y36324753D02*
X-27075340Y36324753D01*
X-26313436Y36134277D02*
X-25932483Y36134277D01*
X-26389626Y35905705D02*
X-26122959Y36705705D01*
X-26122959Y36705705D02*
X-25856293Y35905705D01*
X-25703912Y36705705D02*
X-25246769Y36705705D01*
X-25475341Y35905705D02*
X-25475341Y36705705D01*
D11*
X-30222269Y38782934D02*
X-31746078Y38782934D01*
D12*
X-8408674Y36474753D02*
X-8294388Y36436658D01*
X-8294388Y36436658D02*
X-8256293Y36398562D01*
X-8256293Y36398562D02*
X-8218197Y36322372D01*
X-8218197Y36322372D02*
X-8218197Y36208086D01*
X-8218197Y36208086D02*
X-8256293Y36131896D01*
X-8256293Y36131896D02*
X-8294388Y36093800D01*
X-8294388Y36093800D02*
X-8370578Y36055705D01*
X-8370578Y36055705D02*
X-8675340Y36055705D01*
X-8675340Y36055705D02*
X-8675340Y36855705D01*
X-8675340Y36855705D02*
X-8408674Y36855705D01*
X-8408674Y36855705D02*
X-8332483Y36817610D01*
X-8332483Y36817610D02*
X-8294388Y36779515D01*
X-8294388Y36779515D02*
X-8256293Y36703324D01*
X-8256293Y36703324D02*
X-8256293Y36627134D01*
X-8256293Y36627134D02*
X-8294388Y36550943D01*
X-8294388Y36550943D02*
X-8332483Y36512848D01*
X-8332483Y36512848D02*
X-8408674Y36474753D01*
X-8408674Y36474753D02*
X-8675340Y36474753D01*
X-7913436Y36284277D02*
X-7532483Y36284277D01*
X-7989626Y36055705D02*
X-7722959Y36855705D01*
X-7722959Y36855705D02*
X-7456293Y36055705D01*
X-7303912Y36855705D02*
X-6846769Y36855705D01*
X-7075341Y36055705D02*
X-7075341Y36855705D01*
%TO.C,D1*%
X-131914500Y56900000D02*
X-137314500Y56900000D01*
X-131914500Y58400000D02*
X-131914500Y56900000D01*
X-134114500Y58150000D02*
X-134114500Y57150000D01*
X-134214500Y57650000D02*
X-135114500Y58150000D01*
X-135114500Y57150000D02*
X-134214500Y57650000D01*
X-135114500Y58150000D02*
X-135114500Y57150000D01*
X-137314500Y58400000D02*
X-131914500Y58400000D01*
X-137314500Y58400000D02*
X-137314500Y56900000D01*
%TO.C,D2*%
X-120314500Y58400000D02*
X-120314500Y56900000D01*
X-120314500Y58400000D02*
X-114914500Y58400000D01*
X-118114500Y58150000D02*
X-118114500Y57150000D01*
X-118114500Y57150000D02*
X-117214500Y57650000D01*
X-117214500Y57650000D02*
X-118114500Y58150000D01*
X-117114500Y58150000D02*
X-117114500Y57150000D01*
X-114914500Y58400000D02*
X-114914500Y56900000D01*
X-114914500Y56900000D02*
X-120314500Y56900000D01*
%TO.C,D3*%
X-103314500Y63150000D02*
X-103314500Y61650000D01*
X-103314500Y63150000D02*
X-97914500Y63150000D01*
X-101114500Y62900000D02*
X-101114500Y61900000D01*
X-101114500Y61900000D02*
X-100214500Y62400000D01*
X-100214500Y62400000D02*
X-101114500Y62900000D01*
X-100114500Y62900000D02*
X-100114500Y61900000D01*
X-97914500Y63150000D02*
X-97914500Y61650000D01*
X-97914500Y61650000D02*
X-103314500Y61650000D01*
%TO.C,D4*%
X-86314500Y65399800D02*
X-86314500Y63899800D01*
X-86314500Y65399800D02*
X-80914500Y65399800D01*
X-84114500Y65149800D02*
X-84114500Y64149800D01*
X-84114500Y64149800D02*
X-83214500Y64649800D01*
X-83214500Y64649800D02*
X-84114500Y65149800D01*
X-83114500Y65149800D02*
X-83114500Y64149800D01*
X-80914500Y65399800D02*
X-80914500Y63899800D01*
X-80914500Y63899800D02*
X-86314500Y63899800D01*
%TO.C,D5*%
X-69314500Y63149100D02*
X-69314500Y61649100D01*
X-69314500Y63149100D02*
X-63914500Y63149100D01*
X-67114500Y62899100D02*
X-67114500Y61899100D01*
X-67114500Y61899100D02*
X-66214500Y62399100D01*
X-66214500Y62399100D02*
X-67114500Y62899100D01*
X-66114500Y62899100D02*
X-66114500Y61899100D01*
X-63914500Y63149100D02*
X-63914500Y61649100D01*
X-63914500Y61649100D02*
X-69314500Y61649100D01*
%TO.C,D6*%
X-46914500Y59149500D02*
X-52314500Y59149500D01*
X-46914500Y60649500D02*
X-46914500Y59149500D01*
X-49114500Y60399500D02*
X-49114500Y59399500D01*
X-49214500Y59899500D02*
X-50114500Y60399500D01*
X-50114500Y59399500D02*
X-49214500Y59899500D01*
X-50114500Y60399500D02*
X-50114500Y59399500D01*
X-52314500Y60649500D02*
X-46914500Y60649500D01*
X-52314500Y60649500D02*
X-52314500Y59149500D01*
%TO.C,D7*%
X-131852000Y39900000D02*
X-137252000Y39900000D01*
X-131852000Y41400000D02*
X-131852000Y39900000D01*
X-134052000Y41150000D02*
X-134052000Y40150000D01*
X-134152000Y40650000D02*
X-135052000Y41150000D01*
X-135052000Y40150000D02*
X-134152000Y40650000D01*
X-135052000Y41150000D02*
X-135052000Y40150000D01*
X-137252000Y41400000D02*
X-131852000Y41400000D01*
X-137252000Y41400000D02*
X-137252000Y39900000D01*
%TO.C,D8*%
X-120314500Y41400000D02*
X-120314500Y39900000D01*
X-120314500Y41400000D02*
X-114914500Y41400000D01*
X-118114500Y41150000D02*
X-118114500Y40150000D01*
X-118114500Y40150000D02*
X-117214500Y40650000D01*
X-117214500Y40650000D02*
X-118114500Y41150000D01*
X-117114500Y41150000D02*
X-117114500Y40150000D01*
X-114914500Y41400000D02*
X-114914500Y39900000D01*
X-114914500Y39900000D02*
X-120314500Y39900000D01*
%TO.C,D9*%
X-103314500Y46150000D02*
X-103314500Y44650000D01*
X-103314500Y46150000D02*
X-97914500Y46150000D01*
X-101114500Y45900000D02*
X-101114500Y44900000D01*
X-101114500Y44900000D02*
X-100214500Y45400000D01*
X-100214500Y45400000D02*
X-101114500Y45900000D01*
X-100114500Y45900000D02*
X-100114500Y44900000D01*
X-97914500Y46150000D02*
X-97914500Y44650000D01*
X-97914500Y44650000D02*
X-103314500Y44650000D01*
%TO.C,D10*%
X-86314500Y48400100D02*
X-86314500Y46900100D01*
X-86314500Y48400100D02*
X-80914500Y48400100D01*
X-84114500Y48150100D02*
X-84114500Y47150100D01*
X-84114500Y47150100D02*
X-83214500Y47650100D01*
X-83214500Y47650100D02*
X-84114500Y48150100D01*
X-83114500Y48150100D02*
X-83114500Y47150100D01*
X-80914500Y48400100D02*
X-80914500Y46900100D01*
X-80914500Y46900100D02*
X-86314500Y46900100D01*
%TO.C,D11*%
X-63914500Y44649500D02*
X-69314500Y44649500D01*
X-63914500Y46149500D02*
X-63914500Y44649500D01*
X-66114500Y45899500D02*
X-66114500Y44899500D01*
X-66214500Y45399500D02*
X-67114500Y45899500D01*
X-67114500Y44899500D02*
X-66214500Y45399500D01*
X-67114500Y45899500D02*
X-67114500Y44899500D01*
X-69314500Y46149500D02*
X-63914500Y46149500D01*
X-69314500Y46149500D02*
X-69314500Y44649500D01*
%TO.C,D12*%
X-52314500Y43649900D02*
X-52314500Y42149900D01*
X-52314500Y43649900D02*
X-46914500Y43649900D01*
X-50114500Y43399900D02*
X-50114500Y42399900D01*
X-50114500Y42399900D02*
X-49214500Y42899900D01*
X-49214500Y42899900D02*
X-50114500Y43399900D01*
X-49114500Y43399900D02*
X-49114500Y42399900D01*
X-46914500Y43649900D02*
X-46914500Y42149900D01*
X-46914500Y42149900D02*
X-52314500Y42149900D01*
%TO.C,D13*%
X-131852000Y22946900D02*
X-137252000Y22946900D01*
X-131852000Y24446900D02*
X-131852000Y22946900D01*
X-134052000Y24196900D02*
X-134052000Y23196900D01*
X-134152000Y23696900D02*
X-135052000Y24196900D01*
X-135052000Y23196900D02*
X-134152000Y23696900D01*
X-135052000Y24196900D02*
X-135052000Y23196900D01*
X-137252000Y24446900D02*
X-131852000Y24446900D01*
X-137252000Y24446900D02*
X-137252000Y22946900D01*
%TO.C,D14*%
X-120314500Y24400000D02*
X-120314500Y22900000D01*
X-120314500Y24400000D02*
X-114914500Y24400000D01*
X-118114500Y24150000D02*
X-118114500Y23150000D01*
X-118114500Y23150000D02*
X-117214500Y23650000D01*
X-117214500Y23650000D02*
X-118114500Y24150000D01*
X-117114500Y24150000D02*
X-117114500Y23150000D01*
X-114914500Y24400000D02*
X-114914500Y22900000D01*
X-114914500Y22900000D02*
X-120314500Y22900000D01*
%TO.C,D15*%
X-103314500Y29150000D02*
X-103314500Y27650000D01*
X-103314500Y29150000D02*
X-97914500Y29150000D01*
X-101114500Y28900000D02*
X-101114500Y27900000D01*
X-101114500Y27900000D02*
X-100214500Y28400000D01*
X-100214500Y28400000D02*
X-101114500Y28900000D01*
X-100114500Y28900000D02*
X-100114500Y27900000D01*
X-97914500Y29150000D02*
X-97914500Y27650000D01*
X-97914500Y27650000D02*
X-103314500Y27650000D01*
%TO.C,D16*%
X-86314500Y31400000D02*
X-86314500Y29900000D01*
X-86314500Y31400000D02*
X-80914500Y31400000D01*
X-84114500Y31150000D02*
X-84114500Y30150000D01*
X-84114500Y30150000D02*
X-83214500Y30650000D01*
X-83214500Y30650000D02*
X-84114500Y31150000D01*
X-83114500Y31150000D02*
X-83114500Y30150000D01*
X-80914500Y31400000D02*
X-80914500Y29900000D01*
X-80914500Y29900000D02*
X-86314500Y29900000D01*
%TO.C,D17*%
X-69314500Y29150000D02*
X-69314500Y27650000D01*
X-69314500Y29150000D02*
X-63914500Y29150000D01*
X-67114500Y28900000D02*
X-67114500Y27900000D01*
X-67114500Y27900000D02*
X-66214500Y28400000D01*
X-66214500Y28400000D02*
X-67114500Y28900000D01*
X-66114500Y28900000D02*
X-66114500Y27900000D01*
X-63914500Y29150000D02*
X-63914500Y27650000D01*
X-63914500Y27650000D02*
X-69314500Y27650000D01*
%TO.C,D18*%
X-52314500Y26650000D02*
X-52314500Y25150000D01*
X-52314500Y26650000D02*
X-46914500Y26650000D01*
X-50114500Y26400000D02*
X-50114500Y25400000D01*
X-50114500Y25400000D02*
X-49214500Y25900000D01*
X-49214500Y25900000D02*
X-50114500Y26400000D01*
X-49114500Y26400000D02*
X-49114500Y25400000D01*
X-46914500Y26650000D02*
X-46914500Y25150000D01*
X-46914500Y25150000D02*
X-52314500Y25150000D01*
%TO.C,D19*%
X-80814500Y9400000D02*
X-80814500Y7900000D01*
X-80814500Y9400000D02*
X-75414500Y9400000D01*
X-78614500Y9150000D02*
X-78614500Y8150000D01*
X-78614500Y8150000D02*
X-77714500Y8650000D01*
X-77714500Y8650000D02*
X-78614500Y9150000D01*
X-77614500Y9150000D02*
X-77614500Y8150000D01*
X-75414500Y9400000D02*
X-75414500Y7900000D01*
X-75414500Y7900000D02*
X-80814500Y7900000D01*
%TO.C,D20*%
X-58878385Y7173256D02*
X-59266614Y5724367D01*
X-58878385Y7173256D02*
X-53662386Y5775633D01*
X-57076872Y5396447D02*
X-56078130Y5646472D01*
X-56818053Y6362372D02*
X-57076872Y5396447D01*
X-56078130Y5646472D02*
X-56818053Y6362372D01*
X-55852128Y6103553D02*
X-56110947Y5137628D01*
X-54050615Y4326744D02*
X-59266614Y5724367D01*
X-53662386Y5775633D02*
X-54050615Y4326744D01*
%TO.C,D21*%
X-41864019Y-4413269D02*
X-40564981Y-5163269D01*
X-41864019Y-4413269D02*
X-39164019Y263269D01*
X-40547513Y-2633013D02*
X-39681487Y-3133013D01*
X-40047513Y-1766987D02*
X-39181487Y-2266987D01*
X-39681487Y-3133013D02*
X-39664500Y-2103590D01*
X-39664500Y-2103590D02*
X-40547513Y-2633013D01*
X-39164019Y263269D02*
X-37864981Y-486731D01*
X-37864981Y-486731D02*
X-40564981Y-5163269D01*
%TO.C,D23*%
X82235500Y58300000D02*
X87635500Y58300000D01*
X82235500Y56800000D02*
X82235500Y58300000D01*
X84435500Y57050000D02*
X84435500Y58050000D01*
X84535500Y57550000D02*
X85435500Y57050000D01*
X85435500Y58050000D02*
X84535500Y57550000D01*
X85435500Y57050000D02*
X85435500Y58050000D01*
X87635500Y56800000D02*
X82235500Y56800000D01*
X87635500Y56800000D02*
X87635500Y58300000D01*
%TO.C,D24*%
X70635500Y61600000D02*
X70635500Y63100000D01*
X70635500Y61600000D02*
X65235500Y61600000D01*
X68435500Y61850000D02*
X68435500Y62850000D01*
X68435500Y62850000D02*
X67535500Y62350000D01*
X67535500Y62350000D02*
X68435500Y61850000D01*
X67435500Y61850000D02*
X67435500Y62850000D01*
X65235500Y61600000D02*
X65235500Y63100000D01*
X65235500Y63100000D02*
X70635500Y63100000D01*
%TO.C,D25*%
X53635500Y64000000D02*
X53635500Y65500000D01*
X53635500Y64000000D02*
X48235500Y64000000D01*
X51435500Y64250000D02*
X51435500Y65250000D01*
X51435500Y65250000D02*
X50535500Y64750000D01*
X50535500Y64750000D02*
X51435500Y64250000D01*
X50435500Y64250000D02*
X50435500Y65250000D01*
X48235500Y64000000D02*
X48235500Y65500000D01*
X48235500Y65500000D02*
X53635500Y65500000D01*
%TO.C,D27*%
X14235500Y60700000D02*
X19635500Y60700000D01*
X14235500Y59200000D02*
X14235500Y60700000D01*
X16435500Y59450000D02*
X16435500Y60450000D01*
X16535500Y59950000D02*
X17435500Y59450000D01*
X17435500Y60450000D02*
X16535500Y59950000D01*
X17435500Y59450000D02*
X17435500Y60450000D01*
X19635500Y59200000D02*
X14235500Y59200000D01*
X19635500Y59200000D02*
X19635500Y60700000D01*
%TO.C,D28*%
X99235500Y41300000D02*
X104635500Y41300000D01*
X99235500Y39800000D02*
X99235500Y41300000D01*
X101435500Y40050000D02*
X101435500Y41050000D01*
X101535500Y40550000D02*
X102435500Y40050000D01*
X102435500Y41050000D02*
X101535500Y40550000D01*
X102435500Y40050000D02*
X102435500Y41050000D01*
X104635500Y39800000D02*
X99235500Y39800000D01*
X104635500Y39800000D02*
X104635500Y41300000D01*
%TO.C,D29*%
X82235500Y41300000D02*
X87635500Y41300000D01*
X82235500Y39800000D02*
X82235500Y41300000D01*
X84435500Y40050000D02*
X84435500Y41050000D01*
X84535500Y40550000D02*
X85435500Y40050000D01*
X85435500Y41050000D02*
X84535500Y40550000D01*
X85435500Y40050000D02*
X85435500Y41050000D01*
X87635500Y39800000D02*
X82235500Y39800000D01*
X87635500Y39800000D02*
X87635500Y41300000D01*
%TO.C,D30*%
X70635500Y44600000D02*
X70635500Y46100000D01*
X70635500Y44600000D02*
X65235500Y44600000D01*
X68435500Y44850000D02*
X68435500Y45850000D01*
X68435500Y45850000D02*
X67535500Y45350000D01*
X67535500Y45350000D02*
X68435500Y44850000D01*
X67435500Y44850000D02*
X67435500Y45850000D01*
X65235500Y44600000D02*
X65235500Y46100000D01*
X65235500Y46100000D02*
X70635500Y46100000D01*
%TO.C,D31*%
X53635500Y47000000D02*
X53635500Y48500000D01*
X53635500Y47000000D02*
X48235500Y47000000D01*
X51435500Y47250000D02*
X51435500Y48250000D01*
X51435500Y48250000D02*
X50535500Y47750000D01*
X50535500Y47750000D02*
X51435500Y47250000D01*
X50435500Y47250000D02*
X50435500Y48250000D01*
X48235500Y47000000D02*
X48235500Y48500000D01*
X48235500Y48500000D02*
X53635500Y48500000D01*
%TO.C,D32*%
X36635500Y44600000D02*
X36635500Y46100000D01*
X36635500Y44600000D02*
X31235500Y44600000D01*
X34435500Y44850000D02*
X34435500Y45850000D01*
X34435500Y45850000D02*
X33535500Y45350000D01*
X33535500Y45350000D02*
X34435500Y44850000D01*
X33435500Y44850000D02*
X33435500Y45850000D01*
X31235500Y44600000D02*
X31235500Y46100000D01*
X31235500Y46100000D02*
X36635500Y46100000D01*
%TO.C,D33*%
X19635500Y42200000D02*
X19635500Y43700000D01*
X19635500Y42200000D02*
X14235500Y42200000D01*
X17435500Y42450000D02*
X17435500Y43450000D01*
X17435500Y43450000D02*
X16535500Y42950000D01*
X16535500Y42950000D02*
X17435500Y42450000D01*
X16435500Y42450000D02*
X16435500Y43450000D01*
X14235500Y42200000D02*
X14235500Y43700000D01*
X14235500Y43700000D02*
X19635500Y43700000D01*
%TO.C,D34*%
X99235500Y24300000D02*
X104635500Y24300000D01*
X99235500Y22800000D02*
X99235500Y24300000D01*
X101435500Y23050000D02*
X101435500Y24050000D01*
X101535500Y23550000D02*
X102435500Y23050000D01*
X102435500Y24050000D02*
X101535500Y23550000D01*
X102435500Y23050000D02*
X102435500Y24050000D01*
X104635500Y22800000D02*
X99235500Y22800000D01*
X104635500Y22800000D02*
X104635500Y24300000D01*
%TO.C,D35*%
X82235500Y24300000D02*
X87635500Y24300000D01*
X82235500Y22800000D02*
X82235500Y24300000D01*
X84435500Y23050000D02*
X84435500Y24050000D01*
X84535500Y23550000D02*
X85435500Y23050000D01*
X85435500Y24050000D02*
X84535500Y23550000D01*
X85435500Y23050000D02*
X85435500Y24050000D01*
X87635500Y22800000D02*
X82235500Y22800000D01*
X87635500Y22800000D02*
X87635500Y24300000D01*
%TO.C,D36*%
X65235500Y29100000D02*
X70635500Y29100000D01*
X65235500Y27600000D02*
X65235500Y29100000D01*
X67435500Y27850000D02*
X67435500Y28850000D01*
X67535500Y28350000D02*
X68435500Y27850000D01*
X68435500Y28850000D02*
X67535500Y28350000D01*
X68435500Y27850000D02*
X68435500Y28850000D01*
X70635500Y27600000D02*
X65235500Y27600000D01*
X70635500Y27600000D02*
X70635500Y29100000D01*
%TO.C,D37*%
X53635500Y30000000D02*
X53635500Y31500000D01*
X53635500Y30000000D02*
X48235500Y30000000D01*
X51435500Y30250000D02*
X51435500Y31250000D01*
X51435500Y31250000D02*
X50535500Y30750000D01*
X50535500Y30750000D02*
X51435500Y30250000D01*
X50435500Y30250000D02*
X50435500Y31250000D01*
X48235500Y30000000D02*
X48235500Y31500000D01*
X48235500Y31500000D02*
X53635500Y31500000D01*
%TO.C,D38*%
X36635500Y27600000D02*
X36635500Y29100000D01*
X36635500Y27600000D02*
X31235500Y27600000D01*
X34435500Y27850000D02*
X34435500Y28850000D01*
X34435500Y28850000D02*
X33535500Y28350000D01*
X33535500Y28350000D02*
X34435500Y27850000D01*
X33435500Y27850000D02*
X33435500Y28850000D01*
X31235500Y27600000D02*
X31235500Y29100000D01*
X31235500Y29100000D02*
X36635500Y29100000D01*
%TO.C,D39*%
X14235500Y26700000D02*
X19635500Y26700000D01*
X14235500Y25200000D02*
X14235500Y26700000D01*
X16435500Y25450000D02*
X16435500Y26450000D01*
X16535500Y25950000D02*
X17435500Y25450000D01*
X17435500Y26450000D02*
X16535500Y25950000D01*
X17435500Y25450000D02*
X17435500Y26450000D01*
X19635500Y25200000D02*
X14235500Y25200000D01*
X19635500Y25200000D02*
X19635500Y26700000D01*
%TO.C,D40*%
X42635500Y9500000D02*
X48035500Y9500000D01*
X42635500Y8000000D02*
X42635500Y9500000D01*
X44835500Y8250000D02*
X44835500Y9250000D01*
X44935500Y8750000D02*
X45835500Y8250000D01*
X45835500Y9250000D02*
X44935500Y8750000D01*
X45835500Y8250000D02*
X45835500Y9250000D01*
X48035500Y8000000D02*
X42635500Y8000000D01*
X48035500Y8000000D02*
X48035500Y9500000D01*
%TO.C,D41*%
X20933386Y6175633D02*
X26149385Y7573256D01*
X21321615Y4726744D02*
X20933386Y6175633D01*
X23349130Y6046472D02*
X24347872Y5796447D01*
X23381947Y5537628D02*
X23123128Y6503553D01*
X24089053Y6762372D02*
X23349130Y6046472D01*
X24347872Y5796447D02*
X24089053Y6762372D01*
X26537614Y6124367D02*
X21321615Y4726744D01*
X26537614Y6124367D02*
X26149385Y7573256D01*
%TO.C,D42*%
X4535981Y-1886731D02*
X5835019Y-1136731D01*
X5835019Y-1136731D02*
X8535019Y-5813269D01*
X5852487Y-3666987D02*
X6718513Y-3166987D01*
X6335500Y-3503590D02*
X6352487Y-4533013D01*
X6352487Y-4533013D02*
X7218513Y-4033013D01*
X7218513Y-4033013D02*
X6335500Y-3503590D01*
X7235981Y-6563269D02*
X4535981Y-1886731D01*
X7235981Y-6563269D02*
X8535019Y-5813269D01*
%TO.C,D22*%
X99235500Y58300000D02*
X104635500Y58300000D01*
X99235500Y56800000D02*
X99235500Y58300000D01*
X101435500Y57050000D02*
X101435500Y58050000D01*
X101535500Y57550000D02*
X102435500Y57050000D01*
X102435500Y58050000D02*
X101535500Y57550000D01*
X102435500Y57050000D02*
X102435500Y58050000D01*
X104635500Y56800000D02*
X99235500Y56800000D01*
X104635500Y56800000D02*
X104635500Y58300000D01*
%TO.C,D26*%
X36635500Y61600000D02*
X36635500Y63100000D01*
X36635500Y61600000D02*
X31235500Y61600000D01*
X34435500Y61850000D02*
X34435500Y62850000D01*
X34435500Y62850000D02*
X33535500Y62350000D01*
X33535500Y62350000D02*
X34435500Y61850000D01*
X33435500Y61850000D02*
X33435500Y62850000D01*
X31235500Y61600000D02*
X31235500Y63100000D01*
X31235500Y63100000D02*
X36635500Y63100000D01*
%TO.C,PSW1*%
X-27952769Y1533013D02*
X-24577769Y7378684D01*
X-25441295Y83013D02*
X-27952769Y1533013D01*
X-24577769Y7378684D02*
X-22109596Y5953684D01*
X-22109596Y5953684D02*
X-25441295Y83013D01*
D13*
%TO.C,B2*%
X-12064500Y43470000D02*
X-4244500Y43470000D01*
X-12064500Y42550000D02*
X-12064500Y43470000D01*
X-12064500Y38270000D02*
X-10464500Y38270000D01*
X-12064500Y37350000D02*
X-12064500Y38270000D01*
X-11679500Y38550000D02*
X-10464500Y38550000D01*
X-10464500Y42550000D02*
X-12064500Y42550000D01*
X-10464500Y42550000D02*
X-10464500Y43470000D01*
X-10464500Y42270000D02*
X-10464500Y42550000D01*
X-10464500Y38270000D02*
X-10464500Y38550000D01*
X-10464500Y38270000D02*
X-10464500Y37350000D01*
X-8604500Y40910000D02*
X-8604500Y39910000D01*
X-8604500Y39910000D02*
X-4244500Y39910000D01*
X-8104500Y42710000D02*
X-8104500Y41710000D01*
X-8104500Y41710000D02*
X-6504500Y41710000D01*
X-8104500Y39110000D02*
X-6504500Y39110000D01*
X-8104500Y38110000D02*
X-8104500Y39110000D01*
X-6504500Y42710000D02*
X-8104500Y42710000D01*
X-6504500Y41710000D02*
X-6504500Y42710000D01*
X-6504500Y39110000D02*
X-6504500Y38110000D01*
X-6504500Y38110000D02*
X-8104500Y38110000D01*
X-4244500Y43470000D02*
X-4244500Y37350000D01*
X-4244500Y40910000D02*
X-8604500Y40910000D01*
X-4244500Y39110000D02*
X-6504500Y39110000D01*
X-4244500Y38610000D02*
X-6504500Y38610000D01*
X-4244500Y37350000D02*
X-12064500Y37350000D01*
%TO.C,B1*%
X-29974500Y43610000D02*
X-22154500Y43610000D01*
X-29974500Y42350000D02*
X-27714500Y42350000D01*
X-29974500Y41850000D02*
X-27714500Y41850000D01*
X-29974500Y40050000D02*
X-25614500Y40050000D01*
X-29974500Y37490000D02*
X-29974500Y43610000D01*
X-27714500Y42850000D02*
X-26114500Y42850000D01*
X-27714500Y41850000D02*
X-27714500Y42850000D01*
X-27714500Y39250000D02*
X-27714500Y38250000D01*
X-27714500Y38250000D02*
X-26114500Y38250000D01*
X-26114500Y42850000D02*
X-26114500Y41850000D01*
X-26114500Y41850000D02*
X-27714500Y41850000D01*
X-26114500Y39250000D02*
X-27714500Y39250000D01*
X-26114500Y38250000D02*
X-26114500Y39250000D01*
X-25614500Y41050000D02*
X-29974500Y41050000D01*
X-25614500Y40050000D02*
X-25614500Y41050000D01*
X-23754500Y42690000D02*
X-23754500Y43610000D01*
X-23754500Y42690000D02*
X-23754500Y42410000D01*
X-23754500Y38690000D02*
X-23754500Y38410000D01*
X-23754500Y38410000D02*
X-23754500Y37490000D01*
X-23754500Y38410000D02*
X-22154500Y38410000D01*
X-22539500Y42410000D02*
X-23754500Y42410000D01*
X-22154500Y43610000D02*
X-22154500Y42690000D01*
X-22154500Y42690000D02*
X-23754500Y42690000D01*
X-22154500Y38410000D02*
X-22154500Y37490000D01*
X-22154500Y37490000D02*
X-29974500Y37490000D01*
D12*
%TO.C,PSW2*%
X-12387705Y6216987D02*
X-9876231Y7666987D01*
X-9876231Y7666987D02*
X-6501231Y1821316D01*
X-8969404Y396316D02*
X-12387705Y6216987D01*
X-6501231Y1821316D02*
X-8969404Y396316D01*
%TD*%
%LPC*%
D14*
%TO.C,D1*%
X-136389500Y57650000D03*
X-132839500Y57650000D03*
%TD*%
%TO.C,D2*%
X-115839500Y57650000D03*
X-119389500Y57650000D03*
%TD*%
%TO.C,D3*%
X-98839500Y62400000D03*
X-102389500Y62400000D03*
%TD*%
%TO.C,D4*%
X-81839500Y64649800D03*
X-85389500Y64649800D03*
%TD*%
%TO.C,D5*%
X-64839500Y62399100D03*
X-68389500Y62399100D03*
%TD*%
%TO.C,D6*%
X-51389500Y59899500D03*
X-47839500Y59899500D03*
%TD*%
%TO.C,D7*%
X-136327000Y40650000D03*
X-132777000Y40650000D03*
%TD*%
%TO.C,D8*%
X-115839500Y40650000D03*
X-119389500Y40650000D03*
%TD*%
%TO.C,D9*%
X-98839500Y45400000D03*
X-102389500Y45400000D03*
%TD*%
%TO.C,D10*%
X-81839500Y47650100D03*
X-85389500Y47650100D03*
%TD*%
%TO.C,D11*%
X-68389500Y45399500D03*
X-64839500Y45399500D03*
%TD*%
%TO.C,D12*%
X-47839500Y42899900D03*
X-51389500Y42899900D03*
%TD*%
%TO.C,D13*%
X-136327000Y23696900D03*
X-132777000Y23696900D03*
%TD*%
%TO.C,D14*%
X-115839500Y23650000D03*
X-119389500Y23650000D03*
%TD*%
%TO.C,D15*%
X-98839500Y28400000D03*
X-102389500Y28400000D03*
%TD*%
%TO.C,D16*%
X-81839500Y30650000D03*
X-85389500Y30650000D03*
%TD*%
%TO.C,D17*%
X-64839500Y28400000D03*
X-68389500Y28400000D03*
%TD*%
%TO.C,D18*%
X-47839500Y25900000D03*
X-51389500Y25900000D03*
%TD*%
%TO.C,D19*%
X-76339500Y8650000D03*
X-79889500Y8650000D03*
%TD*%
D15*
%TO.C,D20*%
X-54749982Y5290596D03*
X-58179018Y6209404D03*
%TD*%
D16*
%TO.C,D21*%
X-38977000Y-912805D03*
X-40752000Y-3987195D03*
%TD*%
D17*
%TO.C,SW2*%
X-120944600Y52450000D03*
X-115944600Y52450000D03*
D18*
X-124794600Y61100000D03*
X-124794600Y49100000D03*
X-112094600Y61100000D03*
X-112094600Y49100000D03*
%TD*%
D17*
%TO.C,SW3*%
X-103944600Y57200000D03*
X-98944600Y57200000D03*
D18*
X-107794600Y65850000D03*
X-107794600Y53850000D03*
X-95094600Y65850000D03*
X-95094600Y53850000D03*
%TD*%
D17*
%TO.C,SW4*%
X-86944600Y59574800D03*
X-81944600Y59574800D03*
D18*
X-90794600Y68224800D03*
X-90794600Y56224800D03*
X-78094600Y68224800D03*
X-78094600Y56224800D03*
%TD*%
D17*
%TO.C,SW5*%
X-69944600Y57199100D03*
X-64944600Y57199100D03*
D18*
X-73794600Y65849100D03*
X-73794600Y53849100D03*
X-61094600Y65849100D03*
X-61094600Y53849100D03*
%TD*%
%TO.C,SW7*%
X-129094600Y32100000D03*
X-129094600Y44100000D03*
X-141794600Y32100000D03*
X-141794600Y44100000D03*
D17*
X-132944600Y35450000D03*
X-137944600Y35450000D03*
%TD*%
%TO.C,SW8*%
X-120944600Y35450000D03*
X-115944600Y35450000D03*
D18*
X-124794600Y44100000D03*
X-124794600Y32100000D03*
X-112094600Y44100000D03*
X-112094600Y32100000D03*
%TD*%
D17*
%TO.C,SW9*%
X-103944600Y40200000D03*
X-98944600Y40200000D03*
D18*
X-107794600Y48850000D03*
X-107794600Y36850000D03*
X-95094600Y48850000D03*
X-95094600Y36850000D03*
%TD*%
D17*
%TO.C,SW10*%
X-86944600Y42575100D03*
X-81944600Y42575100D03*
D18*
X-90794600Y51225100D03*
X-90794600Y39225100D03*
X-78094600Y51225100D03*
X-78094600Y39225100D03*
%TD*%
%TO.C,SW11*%
X-61094600Y36849500D03*
X-61094600Y48849500D03*
X-73794600Y36849500D03*
X-73794600Y48849500D03*
D17*
X-64944600Y40199500D03*
X-69944600Y40199500D03*
%TD*%
%TO.C,SW12*%
X-52944600Y37824900D03*
X-47944600Y37824900D03*
D18*
X-56794600Y46474900D03*
X-56794600Y34474900D03*
X-44094600Y46474900D03*
X-44094600Y34474900D03*
%TD*%
%TO.C,SW13*%
X-129094600Y15100000D03*
X-129094600Y27100000D03*
X-141794600Y15100000D03*
X-141794600Y27100000D03*
D17*
X-132944600Y18450000D03*
X-137944600Y18450000D03*
%TD*%
%TO.C,SW14*%
X-120944600Y18450000D03*
X-115944600Y18450000D03*
D18*
X-124794600Y27100000D03*
X-124794600Y15100000D03*
X-112094600Y27100000D03*
X-112094600Y15100000D03*
%TD*%
D17*
%TO.C,SW15*%
X-103944600Y23200000D03*
X-98944600Y23200000D03*
D18*
X-107794600Y31850000D03*
X-107794600Y19850000D03*
X-95094600Y31850000D03*
X-95094600Y19850000D03*
%TD*%
D17*
%TO.C,SW16*%
X-86944600Y25575000D03*
X-81944600Y25575000D03*
D18*
X-90794600Y34225000D03*
X-90794600Y22225000D03*
X-78094600Y34225000D03*
X-78094600Y22225000D03*
%TD*%
D17*
%TO.C,SW17*%
X-69944600Y23200000D03*
X-64944600Y23200000D03*
D18*
X-73794600Y31850000D03*
X-73794600Y19850000D03*
X-61094600Y31850000D03*
X-61094600Y19850000D03*
%TD*%
D17*
%TO.C,SW18*%
X-52944600Y20825000D03*
X-47944600Y20825000D03*
D18*
X-56794600Y29475000D03*
X-56794600Y17475000D03*
X-44094600Y29475000D03*
X-44094600Y17475000D03*
%TD*%
D17*
%TO.C,SW19*%
X-81444600Y3575000D03*
X-76444600Y3575000D03*
D18*
X-85294600Y12225000D03*
X-85294600Y225000D03*
X-72594600Y12225000D03*
X-72594600Y225000D03*
%TD*%
D19*
%TO.C,SW20*%
X-61045285Y1562344D03*
X-56215656Y268249D03*
D20*
X-62525315Y10914056D03*
X-65631143Y-677054D03*
X-50258057Y7627054D03*
X-53363885Y-3964056D03*
%TD*%
D21*
%TO.C,SW21*%
X-37069533Y-7840064D03*
X-34569534Y-3509936D03*
D22*
X-46485652Y-6849261D03*
X-36093348Y-12849261D03*
X-40135652Y4149261D03*
X-29743348Y-1850739D03*
%TD*%
D23*
%TO.C,SW42*%
X340534Y-3509936D03*
X2840533Y-7840064D03*
D24*
X5906652Y4149261D03*
X-4485652Y-1850739D03*
X12256652Y-6849261D03*
X1864348Y-12849261D03*
%TD*%
D25*
%TO.C,D23*%
X83160500Y57550000D03*
X86710500Y57550000D03*
%TD*%
%TO.C,D24*%
X69710500Y62350000D03*
X66160500Y62350000D03*
%TD*%
%TO.C,D25*%
X52710500Y64750000D03*
X49160500Y64750000D03*
%TD*%
%TO.C,D27*%
X15160500Y59950000D03*
X18710500Y59950000D03*
%TD*%
%TO.C,D28*%
X100160500Y40550000D03*
X103710500Y40550000D03*
%TD*%
%TO.C,D29*%
X83160500Y40550000D03*
X86710500Y40550000D03*
%TD*%
%TO.C,D30*%
X69710500Y45350000D03*
X66160500Y45350000D03*
%TD*%
%TO.C,D31*%
X52710500Y47750000D03*
X49160500Y47750000D03*
%TD*%
%TO.C,D32*%
X35710500Y45350000D03*
X32160500Y45350000D03*
%TD*%
%TO.C,D33*%
X18710500Y42950000D03*
X15160500Y42950000D03*
%TD*%
%TO.C,D34*%
X100160500Y23550000D03*
X103710500Y23550000D03*
%TD*%
%TO.C,D35*%
X83160500Y23550000D03*
X86710500Y23550000D03*
%TD*%
%TO.C,D36*%
X66160500Y28350000D03*
X69710500Y28350000D03*
%TD*%
%TO.C,D37*%
X52710500Y30750000D03*
X49160500Y30750000D03*
%TD*%
%TO.C,D38*%
X35710500Y28350000D03*
X32160500Y28350000D03*
%TD*%
%TO.C,D39*%
X15160500Y25950000D03*
X18710500Y25950000D03*
%TD*%
%TO.C,D40*%
X43560500Y8750000D03*
X47110500Y8750000D03*
%TD*%
D26*
%TO.C,D41*%
X22020982Y5690596D03*
X25450018Y6609404D03*
%TD*%
D27*
%TO.C,D42*%
X5648000Y-2312805D03*
X7423000Y-5387195D03*
%TD*%
D25*
%TO.C,D22*%
X100160500Y57550000D03*
X103710500Y57550000D03*
%TD*%
D18*
%TO.C,SW37*%
X56412400Y22230000D03*
X56412400Y34230000D03*
X43712400Y22230000D03*
X43712400Y34230000D03*
D17*
X52562400Y25580000D03*
X47562400Y25580000D03*
%TD*%
D18*
%TO.C,SW38*%
X39412400Y19855000D03*
X39412400Y31855000D03*
X26712400Y19855000D03*
X26712400Y31855000D03*
D17*
X35562400Y23205000D03*
X30562400Y23205000D03*
%TD*%
%TO.C,SW39*%
X13562400Y20830000D03*
X18562400Y20830000D03*
D18*
X9712400Y29480000D03*
X9712400Y17480000D03*
X22412400Y29480000D03*
X22412400Y17480000D03*
%TD*%
D17*
%TO.C,SW40*%
X42062400Y3580000D03*
X47062400Y3580000D03*
D18*
X38212400Y12230000D03*
X38212400Y230000D03*
X50912400Y12230000D03*
X50912400Y230000D03*
%TD*%
D28*
%TO.C,SW41*%
X21833456Y273249D03*
X26663085Y1567344D03*
D29*
X15875857Y7632054D03*
X18981685Y-3959056D03*
X28143115Y10919056D03*
X31248943Y-672054D03*
%TD*%
D18*
%TO.C,SW25*%
X56412400Y56230000D03*
X56412400Y68230000D03*
X43712400Y56230000D03*
X43712400Y68230000D03*
D17*
X52562400Y59580000D03*
X47562400Y59580000D03*
%TD*%
D18*
%TO.C,SW26*%
X39412400Y53855000D03*
X39412400Y65855000D03*
X26712400Y53855000D03*
X26712400Y65855000D03*
D17*
X35562400Y57205000D03*
X30562400Y57205000D03*
%TD*%
%TO.C,SW28*%
X98562400Y35455000D03*
X103562400Y35455000D03*
D18*
X94712400Y44105000D03*
X94712400Y32105000D03*
X107412400Y44105000D03*
X107412400Y32105000D03*
%TD*%
%TO.C,SW24*%
X73412400Y53855000D03*
X73412400Y65855000D03*
X60712400Y53855000D03*
X60712400Y65855000D03*
D17*
X69562400Y57205000D03*
X64562400Y57205000D03*
%TD*%
%TO.C,SW29*%
X81562400Y35455000D03*
X86562400Y35455000D03*
D18*
X77712400Y44105000D03*
X77712400Y32105000D03*
X90412400Y44105000D03*
X90412400Y32105000D03*
%TD*%
D17*
%TO.C,SW35*%
X81562400Y18455000D03*
X86562400Y18455000D03*
D18*
X77712400Y27105000D03*
X77712400Y15105000D03*
X90412400Y27105000D03*
X90412400Y15105000D03*
%TD*%
D17*
%TO.C,SW36*%
X64562400Y23205000D03*
X69562400Y23205000D03*
D18*
X60712400Y31855000D03*
X60712400Y19855000D03*
X73412400Y31855000D03*
X73412400Y19855000D03*
%TD*%
D17*
%TO.C,SW22*%
X98562400Y52455000D03*
X103562400Y52455000D03*
D18*
X94712400Y61105000D03*
X94712400Y49105000D03*
X107412400Y61105000D03*
X107412400Y49105000D03*
%TD*%
D17*
%TO.C,SW23*%
X81562400Y52455000D03*
X86562400Y52455000D03*
D18*
X77712400Y61105000D03*
X77712400Y49105000D03*
X90412400Y61105000D03*
X90412400Y49105000D03*
%TD*%
%TO.C,SW30*%
X73412400Y36855000D03*
X73412400Y48855000D03*
X60712400Y36855000D03*
X60712400Y48855000D03*
D17*
X69562400Y40205000D03*
X64562400Y40205000D03*
%TD*%
D18*
%TO.C,SW31*%
X56412400Y39230000D03*
X56412400Y51230000D03*
X43712400Y39230000D03*
X43712400Y51230000D03*
D17*
X52562400Y42580000D03*
X47562400Y42580000D03*
%TD*%
D18*
%TO.C,SW32*%
X39412400Y36855000D03*
X39412400Y48855000D03*
X26712400Y36855000D03*
X26712400Y48855000D03*
D17*
X35562400Y40205000D03*
X30562400Y40205000D03*
%TD*%
D18*
%TO.C,SW33*%
X22412400Y34480000D03*
X22412400Y46480000D03*
X9712400Y34480000D03*
X9712400Y46480000D03*
D17*
X18562400Y37830000D03*
X13562400Y37830000D03*
%TD*%
%TO.C,SW34*%
X98562400Y18455000D03*
X103562400Y18455000D03*
D18*
X94712400Y27105000D03*
X94712400Y15105000D03*
X107412400Y27105000D03*
X107412400Y15105000D03*
%TD*%
D25*
%TO.C,D26*%
X35710500Y62350000D03*
X32160500Y62350000D03*
%TD*%
D18*
%TO.C,SW1*%
X-129094600Y49100000D03*
X-129094600Y61100000D03*
X-141794600Y49100000D03*
X-141794600Y61100000D03*
D17*
X-132944600Y52450000D03*
X-137944600Y52450000D03*
%TD*%
D18*
%TO.C,SW6*%
X-44094600Y51474500D03*
X-44094600Y63474500D03*
X-56794600Y51474500D03*
X-56794600Y63474500D03*
D17*
X-47944600Y54824500D03*
X-52944600Y54824500D03*
%TD*%
%TO.C,SW27*%
X13555400Y54825000D03*
X18555400Y54825000D03*
D18*
X9705400Y63475000D03*
X9705400Y51475000D03*
X22405400Y63475000D03*
X22405400Y51475000D03*
%TD*%
D30*
%TO.C,U1*%
X-38875200Y62673000D03*
X-38875200Y60133000D03*
X-38875200Y57593000D03*
X-38875200Y55053000D03*
X-38875200Y52513000D03*
X-38875200Y49973000D03*
X-38875200Y47433000D03*
X-22685200Y47433000D03*
X-22685200Y49973000D03*
X-22685200Y52513000D03*
X-22685200Y55053000D03*
X-22685200Y57593000D03*
X-22685200Y60133000D03*
X-22685200Y62673000D03*
D31*
X-35225200Y55370000D03*
X-26919400Y45807400D03*
X-25014400Y45807400D03*
%TD*%
D30*
%TO.C,U2*%
X-11580200Y62593000D03*
X-11580200Y60053000D03*
X-11580200Y57513000D03*
X-11580200Y54973000D03*
X-11580200Y52433000D03*
X-11580200Y49893000D03*
X-11580200Y47353000D03*
X4609800Y47353000D03*
X4609800Y49893000D03*
X4609800Y52433000D03*
X4609800Y54973000D03*
X4609800Y57513000D03*
X4609800Y60053000D03*
X4609800Y62593000D03*
D31*
X-7930200Y55290000D03*
X375600Y45727400D03*
X2280600Y45727400D03*
%TD*%
D32*
%TO.C,PSW1*%
X-24408634Y4971633D03*
X-25951936Y2398557D03*
D33*
X-27885781Y2649038D03*
X-26385781Y5247114D03*
X-25635781Y6546152D03*
D34*
X-27040333Y313397D03*
X-23065333Y7198299D03*
%TD*%
D35*
%TO.C,H7*%
X-23250600Y12105000D03*
%TD*%
%TO.C,H13*%
X3298400Y20616000D03*
%TD*%
D36*
%TO.C,B2*%
X-10604500Y39410000D03*
X-10604500Y41410000D03*
%TD*%
%TO.C,B1*%
X-23614500Y41550000D03*
X-23614500Y39550000D03*
%TD*%
D35*
%TO.C,H14*%
X-11133600Y12095000D03*
%TD*%
D32*
%TO.C,PSW2*%
X-8670366Y2878367D03*
X-10127064Y5501443D03*
D37*
X-8943219Y7050962D03*
X-7443219Y4452886D03*
X-6693219Y3153848D03*
D38*
X-11388667Y7486603D03*
X-7413667Y601701D03*
%TD*%
D35*
%TO.C,H6*%
X-37682600Y20626000D03*
%TD*%
%LPD*%
M02*
