%TF.GenerationSoftware,KiCad,Pcbnew,8.0.7*%
%TF.CreationDate,2025-01-01T00:44:28+01:00*%
%TF.ProjectId,corne-xiao,636f726e-652d-4786-9961-6f2e6b696361,1.1*%
%TF.SameCoordinates,Original*%
%TF.FileFunction,Profile,NP*%
%FSLAX46Y46*%
G04 Gerber Fmt 4.6, Leading zero omitted, Abs format (unit mm)*
G04 Created by KiCad (PCBNEW 8.0.7) date 2025-01-01 00:44:28*
%MOMM*%
%LPD*%
G01*
G04 APERTURE LIST*
%TA.AperFunction,Profile*%
%ADD10C,0.200000*%
%TD*%
%ADD11C,0.200000*%
%TA.AperFunction,Profile*%
%ADD12C,0.100000*%
%TD*%
G04 APERTURE END LIST*
D10*
X110385500Y78775000D02*
X110385500Y72665613D01*
X71681912Y69165650D02*
X71681912Y72650000D01*
X66369412Y72650000D02*
X66369412Y69165650D01*
X37150662Y69368683D02*
X37150662Y72660000D01*
X31838162Y72650000D02*
X31838162Y69370220D01*
X-65927000Y69323320D02*
X-65927000Y72603100D01*
X-71239500Y72650000D02*
X-71239500Y69321783D01*
X-100458250Y69118750D02*
X-100473875Y72645000D01*
X-105770750Y72650000D02*
X-105770750Y69118750D01*
X-144020750Y78954688D02*
X-144020750Y72650000D01*
X-144321032Y-22768947D02*
X110135500Y-22600000D01*
X71681912Y72650000D02*
X110385500Y72665613D01*
X37150662Y72660000D02*
X66369412Y72650000D01*
X-65927000Y72603100D02*
X31838162Y72650000D01*
X110197537Y10650000D02*
X110135500Y-22600000D01*
X64419362Y11760277D02*
X65041287Y12321900D01*
X70885037Y12321900D02*
X65041287Y12321900D01*
X75666287Y12321900D02*
X75666287Y10650000D01*
X103291287Y12321900D02*
X75666287Y12321900D01*
X109666287Y12321900D02*
X107541287Y12321900D01*
X75666287Y10650000D02*
X103291287Y10650000D01*
X107541287Y12321900D02*
X107541287Y10650000D01*
X77073590Y64415601D02*
X109697410Y64384400D01*
X110197537Y63884532D02*
X110166409Y12821773D01*
X-13474338Y66446900D02*
X-13477033Y8181678D01*
X107541287Y10650000D02*
X110197537Y10650000D01*
X103291287Y10650000D02*
X103291287Y12321900D01*
X70885037Y12321900D02*
X70903267Y10541906D01*
X76073595Y69165650D02*
X71681912Y69165650D01*
X70903267Y10541906D02*
X66153267Y10539924D01*
X41197587Y71118741D02*
X41197587Y69868809D01*
X58697663Y71618867D02*
X41697460Y71618867D01*
X76573468Y68665776D02*
X76573468Y64915475D01*
X59197537Y71118741D02*
X59197537Y69665523D01*
X24170632Y67371242D02*
X24170632Y68869840D01*
D11*
X53876338Y-2696883D02*
X53702783Y-2809713D01*
X53522773Y-2843181D01*
D10*
X24668977Y69368697D02*
X31838162Y69370220D01*
D11*
X16197767Y-7743094D02*
X16399461Y-7688866D01*
X16603981Y-7647089D01*
X16810750Y-7617878D01*
X16852323Y-7613554D01*
X-13474338Y66446900D02*
X-13425013Y66663594D01*
X-13292395Y66832592D01*
X-13099370Y66931013D01*
X-12974455Y66946773D01*
D10*
X16197767Y-7743094D02*
X1903684Y-16004178D01*
D11*
X109697410Y64384400D02*
X109914192Y64335151D01*
X110083280Y64202547D01*
X110181763Y64009485D01*
X110197537Y63884532D01*
D10*
X66153267Y10539924D02*
X66160399Y-18993094D01*
D11*
X110166409Y12821773D02*
X110117049Y12605014D01*
X109984359Y12435995D01*
X109791248Y12337610D01*
X109666287Y12321900D01*
D10*
X-12974455Y66946773D02*
X23668982Y66868828D01*
D11*
X-13249942Y7309189D02*
X-13339425Y7488058D01*
X-13414907Y7702675D01*
X-13461081Y7925317D01*
X-13477175Y8153010D01*
X-13477033Y8181678D01*
X77073590Y64415601D02*
X76856806Y64464853D01*
X76687721Y64597459D01*
X76589240Y64790522D01*
X76573468Y64915475D01*
X76073595Y69165650D02*
X76290287Y69116322D01*
X76459284Y68983709D01*
X76557706Y68790690D01*
X76573468Y68665776D01*
D10*
X53522773Y-2843181D02*
X16852323Y-7613554D01*
D11*
X59697658Y69165650D02*
X59480874Y69214901D01*
X59311789Y69347507D01*
X59213309Y69540571D01*
X59197537Y69665523D01*
X58697663Y71618867D02*
X58914422Y71569508D01*
X59083442Y71436819D01*
X59181827Y71243707D01*
X59197537Y71118746D01*
X41197587Y71118741D02*
X41246836Y71335524D01*
X41379441Y71504611D01*
X41572505Y71603095D01*
X41697460Y71618867D01*
X41197587Y69868809D02*
X41148336Y69652027D01*
X41015731Y69482940D01*
X40822667Y69384456D01*
X40697713Y69368683D01*
X24169104Y67368702D02*
X24119744Y67151945D01*
X23987056Y66982925D01*
X23793944Y66884539D01*
X23668982Y66868828D01*
D10*
X40697465Y69368683D02*
X37150662Y69368683D01*
X-24433Y-15624706D02*
X-13250457Y7307661D01*
D11*
X1903684Y-16004178D02*
X1719627Y-16108966D01*
X1526879Y-16182965D01*
X1328704Y-16226811D01*
X1128368Y-16241141D01*
X863537Y-16215432D01*
X608410Y-16139888D01*
X428089Y-16051432D01*
X260848Y-15936428D01*
X109950Y-15795512D01*
X-21337Y-15629320D01*
D10*
X64419362Y11760277D02*
X53876338Y-2696883D01*
D11*
X24169104Y68868823D02*
X24218431Y69085516D01*
X24351044Y69254513D01*
X24544063Y69352935D01*
X24668977Y69368697D01*
D10*
X66369412Y69165650D02*
X59697658Y69165650D01*
X-110162433Y69118750D02*
X-105770750Y69118750D01*
X-20614500Y66400000D02*
X-20611805Y8134778D01*
X-144286375Y10650000D02*
X-144321032Y-22768947D01*
X-141630125Y10650000D02*
X-144286375Y10650000D01*
X-98508200Y11713377D02*
X-99130125Y12275000D01*
X-104973875Y12275000D02*
X-104957522Y10494232D01*
X-104973875Y12275000D02*
X-99130125Y12275000D01*
X-109755125Y10650000D02*
X-137380125Y10650000D01*
X-109755125Y12275000D02*
X-109755125Y10650000D01*
X-137380125Y12275000D02*
X-109755125Y12275000D01*
X-137380125Y10650000D02*
X-137380125Y12275000D01*
X-141630125Y12275000D02*
X-141630125Y10650000D01*
X-143755125Y12275000D02*
X-141630125Y12275000D01*
X-144286375Y63837632D02*
X-144255247Y12774873D01*
X-111162428Y64368701D02*
X-143786248Y64337500D01*
X-144020750Y72650000D02*
X-105770750Y72650000D01*
X-100458250Y69118750D02*
X-93786496Y69118750D01*
X-74786303Y69321783D02*
X-71239500Y69321783D01*
X-98508200Y11713377D02*
X-87965176Y-2743783D01*
X-87611611Y-2890081D02*
X-50941161Y-7660454D01*
D11*
X-35992522Y-16051078D02*
X-35808466Y-16155866D01*
X-35615718Y-16229865D01*
X-35417543Y-16273711D01*
X-35217207Y-16288041D01*
X-34952376Y-16262332D01*
X-34697249Y-16186788D01*
X-34516928Y-16098332D01*
X-34349687Y-15983328D01*
X-34198789Y-15842412D01*
X-34067501Y-15676220D01*
D10*
X-34064405Y-15671606D02*
X-20838381Y7260761D01*
D11*
X-58257942Y67321802D02*
X-58208583Y67105045D01*
X-58075895Y66936025D01*
X-57882783Y66837639D01*
X-57757820Y66821928D01*
X-58257942Y68821923D02*
X-58307270Y69038616D01*
X-58439883Y69207613D01*
X-58632902Y69306035D01*
X-58757815Y69321797D01*
X-75286425Y69821909D02*
X-75237175Y69605127D01*
X-75104570Y69436040D01*
X-74911506Y69337556D01*
X-74786551Y69321783D01*
X-75286425Y71071841D02*
X-75335675Y71288624D01*
X-75468280Y71457711D01*
X-75661344Y71556195D01*
X-75786298Y71571967D01*
X-92786501Y71571967D02*
X-93003261Y71522608D01*
X-93172281Y71389919D01*
X-93270666Y71196807D01*
X-93286375Y71071846D01*
X-93786496Y69118750D02*
X-93569713Y69168001D01*
X-93400628Y69300607D01*
X-93302148Y69493671D01*
X-93286375Y69618623D01*
X-110162433Y69118750D02*
X-110379126Y69069422D01*
X-110548123Y68936809D01*
X-110646545Y68743790D01*
X-110662306Y68618876D01*
X-111162428Y64368701D02*
X-110945645Y64417953D01*
X-110776560Y64550559D01*
X-110678079Y64743622D01*
X-110662306Y64868575D01*
X-143786248Y64337500D02*
X-144003031Y64288251D01*
X-144172119Y64155647D01*
X-144270602Y63962585D01*
X-144286375Y63837632D01*
X-144255247Y12774873D02*
X-144205888Y12558114D01*
X-144073198Y12389095D01*
X-143880087Y12290710D01*
X-143755125Y12275000D01*
D10*
X-50286605Y-7789994D02*
X-35992522Y-16051078D01*
X-58757815Y69321797D02*
X-65927000Y69323320D01*
D11*
X-20614500Y66400000D02*
X-20663826Y66616694D01*
X-20796444Y66785692D01*
X-20989469Y66884113D01*
X-21114383Y66899873D01*
D10*
X-21114383Y66899873D02*
X-57757820Y66821928D01*
X-58259470Y67324342D02*
X-58259470Y68822940D01*
D11*
X-20838896Y7262289D02*
X-20749414Y7441158D01*
X-20673932Y7655775D01*
X-20627758Y7878417D01*
X-20611664Y8106110D01*
X-20611805Y8134778D01*
X-87965176Y-2743783D02*
X-87791622Y-2856613D01*
X-87611611Y-2890081D01*
X-50286605Y-7789994D02*
X-50488300Y-7735766D01*
X-50692820Y-7693989D01*
X-50899589Y-7664778D01*
X-50941161Y-7660454D01*
D10*
X-100242105Y10493024D02*
X-100249237Y-19039994D01*
X-144020750Y78954688D02*
X110385500Y78775000D01*
X-92786501Y71571967D02*
X-75786298Y71571967D01*
X-100249237Y-19039994D02*
X66160399Y-18993094D01*
X-100473875Y72645000D02*
X-71239500Y72650000D01*
X-110662306Y68618876D02*
X-110662306Y64868575D01*
X-75286425Y71071841D02*
X-75286425Y69821909D01*
X-104957522Y10494232D02*
X-100242105Y10493024D01*
X-93286375Y71071841D02*
X-93286375Y69618623D01*
D12*
%TO.C,SW2*%
X-123744600Y52350000D02*
G75*
G02*
X-124744600Y52350000I-500000J0D01*
G01*
X-124744600Y52350000D02*
G75*
G02*
X-123744600Y52350000I500000J0D01*
G01*
X-112044600Y57850000D02*
G75*
G02*
X-113244600Y57850000I-600000J0D01*
G01*
X-113244600Y57850000D02*
G75*
G02*
X-112044600Y57850000I600000J0D01*
G01*
%TO.C,SW3*%
X-106744600Y57100000D02*
G75*
G02*
X-107744600Y57100000I-500000J0D01*
G01*
X-107744600Y57100000D02*
G75*
G02*
X-106744600Y57100000I500000J0D01*
G01*
X-95044600Y62600000D02*
G75*
G02*
X-96244600Y62600000I-600000J0D01*
G01*
X-96244600Y62600000D02*
G75*
G02*
X-95044600Y62600000I600000J0D01*
G01*
%TO.C,SW4*%
X-89744600Y59474800D02*
G75*
G02*
X-90744600Y59474800I-500000J0D01*
G01*
X-90744600Y59474800D02*
G75*
G02*
X-89744600Y59474800I500000J0D01*
G01*
X-78044600Y64974800D02*
G75*
G02*
X-79244600Y64974800I-600000J0D01*
G01*
X-79244600Y64974800D02*
G75*
G02*
X-78044600Y64974800I600000J0D01*
G01*
%TO.C,SW5*%
X-72744600Y57099100D02*
G75*
G02*
X-73744600Y57099100I-500000J0D01*
G01*
X-73744600Y57099100D02*
G75*
G02*
X-72744600Y57099100I500000J0D01*
G01*
X-61044600Y62599100D02*
G75*
G02*
X-62244600Y62599100I-600000J0D01*
G01*
X-62244600Y62599100D02*
G75*
G02*
X-61044600Y62599100I600000J0D01*
G01*
%TO.C,SW7*%
X-129044600Y40850000D02*
G75*
G02*
X-130244600Y40850000I-600000J0D01*
G01*
X-130244600Y40850000D02*
G75*
G02*
X-129044600Y40850000I600000J0D01*
G01*
X-140744600Y35350000D02*
G75*
G02*
X-141744600Y35350000I-500000J0D01*
G01*
X-141744600Y35350000D02*
G75*
G02*
X-140744600Y35350000I500000J0D01*
G01*
%TO.C,SW8*%
X-123744600Y35350000D02*
G75*
G02*
X-124744600Y35350000I-500000J0D01*
G01*
X-124744600Y35350000D02*
G75*
G02*
X-123744600Y35350000I500000J0D01*
G01*
X-112044600Y40850000D02*
G75*
G02*
X-113244600Y40850000I-600000J0D01*
G01*
X-113244600Y40850000D02*
G75*
G02*
X-112044600Y40850000I600000J0D01*
G01*
%TO.C,SW9*%
X-106744600Y40100000D02*
G75*
G02*
X-107744600Y40100000I-500000J0D01*
G01*
X-107744600Y40100000D02*
G75*
G02*
X-106744600Y40100000I500000J0D01*
G01*
X-95044600Y45600000D02*
G75*
G02*
X-96244600Y45600000I-600000J0D01*
G01*
X-96244600Y45600000D02*
G75*
G02*
X-95044600Y45600000I600000J0D01*
G01*
%TO.C,SW10*%
X-89744600Y42475100D02*
G75*
G02*
X-90744600Y42475100I-500000J0D01*
G01*
X-90744600Y42475100D02*
G75*
G02*
X-89744600Y42475100I500000J0D01*
G01*
X-78044600Y47975100D02*
G75*
G02*
X-79244600Y47975100I-600000J0D01*
G01*
X-79244600Y47975100D02*
G75*
G02*
X-78044600Y47975100I600000J0D01*
G01*
%TO.C,SW11*%
X-61044600Y45599500D02*
G75*
G02*
X-62244600Y45599500I-600000J0D01*
G01*
X-62244600Y45599500D02*
G75*
G02*
X-61044600Y45599500I600000J0D01*
G01*
X-72744600Y40099500D02*
G75*
G02*
X-73744600Y40099500I-500000J0D01*
G01*
X-73744600Y40099500D02*
G75*
G02*
X-72744600Y40099500I500000J0D01*
G01*
%TO.C,SW12*%
X-55744600Y37724900D02*
G75*
G02*
X-56744600Y37724900I-500000J0D01*
G01*
X-56744600Y37724900D02*
G75*
G02*
X-55744600Y37724900I500000J0D01*
G01*
X-44044600Y43224900D02*
G75*
G02*
X-45244600Y43224900I-600000J0D01*
G01*
X-45244600Y43224900D02*
G75*
G02*
X-44044600Y43224900I600000J0D01*
G01*
%TO.C,SW13*%
X-129044600Y23850000D02*
G75*
G02*
X-130244600Y23850000I-600000J0D01*
G01*
X-130244600Y23850000D02*
G75*
G02*
X-129044600Y23850000I600000J0D01*
G01*
X-140744600Y18350000D02*
G75*
G02*
X-141744600Y18350000I-500000J0D01*
G01*
X-141744600Y18350000D02*
G75*
G02*
X-140744600Y18350000I500000J0D01*
G01*
%TO.C,SW14*%
X-123744600Y18350000D02*
G75*
G02*
X-124744600Y18350000I-500000J0D01*
G01*
X-124744600Y18350000D02*
G75*
G02*
X-123744600Y18350000I500000J0D01*
G01*
X-112044600Y23850000D02*
G75*
G02*
X-113244600Y23850000I-600000J0D01*
G01*
X-113244600Y23850000D02*
G75*
G02*
X-112044600Y23850000I600000J0D01*
G01*
%TO.C,SW15*%
X-106744600Y23100000D02*
G75*
G02*
X-107744600Y23100000I-500000J0D01*
G01*
X-107744600Y23100000D02*
G75*
G02*
X-106744600Y23100000I500000J0D01*
G01*
X-95044600Y28600000D02*
G75*
G02*
X-96244600Y28600000I-600000J0D01*
G01*
X-96244600Y28600000D02*
G75*
G02*
X-95044600Y28600000I600000J0D01*
G01*
%TO.C,SW16*%
X-89744600Y25475000D02*
G75*
G02*
X-90744600Y25475000I-500000J0D01*
G01*
X-90744600Y25475000D02*
G75*
G02*
X-89744600Y25475000I500000J0D01*
G01*
X-78044600Y30975000D02*
G75*
G02*
X-79244600Y30975000I-600000J0D01*
G01*
X-79244600Y30975000D02*
G75*
G02*
X-78044600Y30975000I600000J0D01*
G01*
%TO.C,SW17*%
X-72744600Y23100000D02*
G75*
G02*
X-73744600Y23100000I-500000J0D01*
G01*
X-73744600Y23100000D02*
G75*
G02*
X-72744600Y23100000I500000J0D01*
G01*
X-61044600Y28600000D02*
G75*
G02*
X-62244600Y28600000I-600000J0D01*
G01*
X-62244600Y28600000D02*
G75*
G02*
X-61044600Y28600000I600000J0D01*
G01*
%TO.C,SW18*%
X-55744600Y20725000D02*
G75*
G02*
X-56744600Y20725000I-500000J0D01*
G01*
X-56744600Y20725000D02*
G75*
G02*
X-55744600Y20725000I500000J0D01*
G01*
X-44044600Y26225000D02*
G75*
G02*
X-45244600Y26225000I-600000J0D01*
G01*
X-45244600Y26225000D02*
G75*
G02*
X-44044600Y26225000I600000J0D01*
G01*
%TO.C,SW19*%
X-84244600Y3475000D02*
G75*
G02*
X-85244600Y3475000I-500000J0D01*
G01*
X-85244600Y3475000D02*
G75*
G02*
X-84244600Y3475000I500000J0D01*
G01*
X-72544600Y8975000D02*
G75*
G02*
X-73744600Y8975000I-600000J0D01*
G01*
X-73744600Y8975000D02*
G75*
G02*
X-72544600Y8975000I600000J0D01*
G01*
%TO.C,SW20*%
X-63758722Y2319854D02*
G75*
G02*
X-64758722Y2319854I-500000J0D01*
G01*
X-64758722Y2319854D02*
G75*
G02*
X-63758722Y2319854I500000J0D01*
G01*
X-51030477Y4630146D02*
G75*
G02*
X-52230479Y4630146I-600001J0D01*
G01*
X-52230479Y4630146D02*
G75*
G02*
X-51030477Y4630146I600001J0D01*
G01*
%TO.C,SW21*%
X-38132931Y-10747947D02*
G75*
G02*
X-39132929Y-10747947I-499999J0D01*
G01*
X-39132929Y-10747947D02*
G75*
G02*
X-38132931Y-10747947I499999J0D01*
G01*
X-36996069Y2047947D02*
G75*
G02*
X-38196071Y2047947I-600001J0D01*
G01*
X-38196071Y2047947D02*
G75*
G02*
X-36996069Y2047947I600001J0D01*
G01*
%TO.C,SW42*%
X-896071Y-702053D02*
G75*
G02*
X-1896069Y-702053I-499999J0D01*
G01*
X-1896069Y-702053D02*
G75*
G02*
X-896071Y-702053I499999J0D01*
G01*
X9767071Y-7997947D02*
G75*
G02*
X8567069Y-7997947I-600001J0D01*
G01*
X8567069Y-7997947D02*
G75*
G02*
X9767071Y-7997947I600001J0D01*
G01*
%TO.C,SW37*%
X56462400Y30980000D02*
G75*
G02*
X55262400Y30980000I-600000J0D01*
G01*
X55262400Y30980000D02*
G75*
G02*
X56462400Y30980000I600000J0D01*
G01*
X44762400Y25480000D02*
G75*
G02*
X43762400Y25480000I-500000J0D01*
G01*
X43762400Y25480000D02*
G75*
G02*
X44762400Y25480000I500000J0D01*
G01*
%TO.C,SW38*%
X39462400Y28605000D02*
G75*
G02*
X38262400Y28605000I-600000J0D01*
G01*
X38262400Y28605000D02*
G75*
G02*
X39462400Y28605000I600000J0D01*
G01*
X27762400Y23105000D02*
G75*
G02*
X26762400Y23105000I-500000J0D01*
G01*
X26762400Y23105000D02*
G75*
G02*
X27762400Y23105000I500000J0D01*
G01*
%TO.C,SW39*%
X10762400Y20730000D02*
G75*
G02*
X9762400Y20730000I-500000J0D01*
G01*
X9762400Y20730000D02*
G75*
G02*
X10762400Y20730000I500000J0D01*
G01*
X22462400Y26230000D02*
G75*
G02*
X21262400Y26230000I-600000J0D01*
G01*
X21262400Y26230000D02*
G75*
G02*
X22462400Y26230000I600000J0D01*
G01*
%TO.C,SW40*%
X39262400Y3480000D02*
G75*
G02*
X38262400Y3480000I-500000J0D01*
G01*
X38262400Y3480000D02*
G75*
G02*
X39262400Y3480000I500000J0D01*
G01*
X50962400Y8980000D02*
G75*
G02*
X49762400Y8980000I-600000J0D01*
G01*
X49762400Y8980000D02*
G75*
G02*
X50962400Y8980000I600000J0D01*
G01*
%TO.C,SW41*%
X19171782Y-677446D02*
G75*
G02*
X18171786Y-677446I-499998J0D01*
G01*
X18171786Y-677446D02*
G75*
G02*
X19171782Y-677446I499998J0D01*
G01*
X29053018Y7637446D02*
G75*
G02*
X27853014Y7637446I-600002J0D01*
G01*
X27853014Y7637446D02*
G75*
G02*
X29053018Y7637446I600002J0D01*
G01*
%TO.C,SW25*%
X56462400Y64980000D02*
G75*
G02*
X55262400Y64980000I-600000J0D01*
G01*
X55262400Y64980000D02*
G75*
G02*
X56462400Y64980000I600000J0D01*
G01*
X44762400Y59480000D02*
G75*
G02*
X43762400Y59480000I-500000J0D01*
G01*
X43762400Y59480000D02*
G75*
G02*
X44762400Y59480000I500000J0D01*
G01*
%TO.C,SW26*%
X39462400Y62605000D02*
G75*
G02*
X38262400Y62605000I-600000J0D01*
G01*
X38262400Y62605000D02*
G75*
G02*
X39462400Y62605000I600000J0D01*
G01*
X27762400Y57105000D02*
G75*
G02*
X26762400Y57105000I-500000J0D01*
G01*
X26762400Y57105000D02*
G75*
G02*
X27762400Y57105000I500000J0D01*
G01*
%TO.C,SW28*%
X95762400Y35355000D02*
G75*
G02*
X94762400Y35355000I-500000J0D01*
G01*
X94762400Y35355000D02*
G75*
G02*
X95762400Y35355000I500000J0D01*
G01*
X107462400Y40855000D02*
G75*
G02*
X106262400Y40855000I-600000J0D01*
G01*
X106262400Y40855000D02*
G75*
G02*
X107462400Y40855000I600000J0D01*
G01*
%TO.C,SW24*%
X73462400Y62605000D02*
G75*
G02*
X72262400Y62605000I-600000J0D01*
G01*
X72262400Y62605000D02*
G75*
G02*
X73462400Y62605000I600000J0D01*
G01*
X61762400Y57105000D02*
G75*
G02*
X60762400Y57105000I-500000J0D01*
G01*
X60762400Y57105000D02*
G75*
G02*
X61762400Y57105000I500000J0D01*
G01*
%TO.C,SW29*%
X78762400Y35355000D02*
G75*
G02*
X77762400Y35355000I-500000J0D01*
G01*
X77762400Y35355000D02*
G75*
G02*
X78762400Y35355000I500000J0D01*
G01*
X90462400Y40855000D02*
G75*
G02*
X89262400Y40855000I-600000J0D01*
G01*
X89262400Y40855000D02*
G75*
G02*
X90462400Y40855000I600000J0D01*
G01*
%TO.C,SW35*%
X78762400Y18355000D02*
G75*
G02*
X77762400Y18355000I-500000J0D01*
G01*
X77762400Y18355000D02*
G75*
G02*
X78762400Y18355000I500000J0D01*
G01*
X90462400Y23855000D02*
G75*
G02*
X89262400Y23855000I-600000J0D01*
G01*
X89262400Y23855000D02*
G75*
G02*
X90462400Y23855000I600000J0D01*
G01*
%TO.C,SW36*%
X61762400Y23105000D02*
G75*
G02*
X60762400Y23105000I-500000J0D01*
G01*
X60762400Y23105000D02*
G75*
G02*
X61762400Y23105000I500000J0D01*
G01*
X73462400Y28605000D02*
G75*
G02*
X72262400Y28605000I-600000J0D01*
G01*
X72262400Y28605000D02*
G75*
G02*
X73462400Y28605000I600000J0D01*
G01*
%TO.C,SW22*%
X95762400Y52355000D02*
G75*
G02*
X94762400Y52355000I-500000J0D01*
G01*
X94762400Y52355000D02*
G75*
G02*
X95762400Y52355000I500000J0D01*
G01*
X107462400Y57855000D02*
G75*
G02*
X106262400Y57855000I-600000J0D01*
G01*
X106262400Y57855000D02*
G75*
G02*
X107462400Y57855000I600000J0D01*
G01*
%TO.C,SW23*%
X78762400Y52355000D02*
G75*
G02*
X77762400Y52355000I-500000J0D01*
G01*
X77762400Y52355000D02*
G75*
G02*
X78762400Y52355000I500000J0D01*
G01*
X90462400Y57855000D02*
G75*
G02*
X89262400Y57855000I-600000J0D01*
G01*
X89262400Y57855000D02*
G75*
G02*
X90462400Y57855000I600000J0D01*
G01*
%TO.C,SW30*%
X73462400Y45605000D02*
G75*
G02*
X72262400Y45605000I-600000J0D01*
G01*
X72262400Y45605000D02*
G75*
G02*
X73462400Y45605000I600000J0D01*
G01*
X61762400Y40105000D02*
G75*
G02*
X60762400Y40105000I-500000J0D01*
G01*
X60762400Y40105000D02*
G75*
G02*
X61762400Y40105000I500000J0D01*
G01*
%TO.C,SW31*%
X56462400Y47980000D02*
G75*
G02*
X55262400Y47980000I-600000J0D01*
G01*
X55262400Y47980000D02*
G75*
G02*
X56462400Y47980000I600000J0D01*
G01*
X44762400Y42480000D02*
G75*
G02*
X43762400Y42480000I-500000J0D01*
G01*
X43762400Y42480000D02*
G75*
G02*
X44762400Y42480000I500000J0D01*
G01*
%TO.C,SW32*%
X39462400Y45605000D02*
G75*
G02*
X38262400Y45605000I-600000J0D01*
G01*
X38262400Y45605000D02*
G75*
G02*
X39462400Y45605000I600000J0D01*
G01*
X27762400Y40105000D02*
G75*
G02*
X26762400Y40105000I-500000J0D01*
G01*
X26762400Y40105000D02*
G75*
G02*
X27762400Y40105000I500000J0D01*
G01*
%TO.C,SW33*%
X22462400Y43230000D02*
G75*
G02*
X21262400Y43230000I-600000J0D01*
G01*
X21262400Y43230000D02*
G75*
G02*
X22462400Y43230000I600000J0D01*
G01*
X10762400Y37730000D02*
G75*
G02*
X9762400Y37730000I-500000J0D01*
G01*
X9762400Y37730000D02*
G75*
G02*
X10762400Y37730000I500000J0D01*
G01*
%TO.C,SW34*%
X95762400Y18355000D02*
G75*
G02*
X94762400Y18355000I-500000J0D01*
G01*
X94762400Y18355000D02*
G75*
G02*
X95762400Y18355000I500000J0D01*
G01*
X107462400Y23855000D02*
G75*
G02*
X106262400Y23855000I-600000J0D01*
G01*
X106262400Y23855000D02*
G75*
G02*
X107462400Y23855000I600000J0D01*
G01*
%TO.C,SW1*%
X-129044600Y57850000D02*
G75*
G02*
X-130244600Y57850000I-600000J0D01*
G01*
X-130244600Y57850000D02*
G75*
G02*
X-129044600Y57850000I600000J0D01*
G01*
X-140744600Y52350000D02*
G75*
G02*
X-141744600Y52350000I-500000J0D01*
G01*
X-141744600Y52350000D02*
G75*
G02*
X-140744600Y52350000I500000J0D01*
G01*
%TO.C,SW6*%
X-44044600Y60224500D02*
G75*
G02*
X-45244600Y60224500I-600000J0D01*
G01*
X-45244600Y60224500D02*
G75*
G02*
X-44044600Y60224500I600000J0D01*
G01*
X-55744600Y54724500D02*
G75*
G02*
X-56744600Y54724500I-500000J0D01*
G01*
X-56744600Y54724500D02*
G75*
G02*
X-55744600Y54724500I500000J0D01*
G01*
%TO.C,SW27*%
X10755400Y54725000D02*
G75*
G02*
X9755400Y54725000I-500000J0D01*
G01*
X9755400Y54725000D02*
G75*
G02*
X10755400Y54725000I500000J0D01*
G01*
X22455400Y60225000D02*
G75*
G02*
X21255400Y60225000I-600000J0D01*
G01*
X21255400Y60225000D02*
G75*
G02*
X22455400Y60225000I600000J0D01*
G01*
%TD*%
M02*
