%TF.GenerationSoftware,KiCad,Pcbnew,8.0.7*%
%TF.CreationDate,2025-01-01T00:44:28+01:00*%
%TF.ProjectId,corne-xiao,636f726e-652d-4786-9961-6f2e6b696361,1.1*%
%TF.SameCoordinates,Original*%
%TF.FileFunction,Copper,L1,Top*%
%TF.FilePolarity,Positive*%
%FSLAX46Y46*%
G04 Gerber Fmt 4.6, Leading zero omitted, Abs format (unit mm)*
G04 Created by KiCad (PCBNEW 8.0.7) date 2025-01-01 00:44:28*
%MOMM*%
%LPD*%
G01*
G04 APERTURE LIST*
G04 Aperture macros list*
%AMRotRect*
0 Rectangle, with rotation*
0 The origin of the aperture is its center*
0 $1 length*
0 $2 width*
0 $3 Rotation angle, in degrees counterclockwise*
0 Add horizontal line*
21,1,$1,$2,0,0,$3*%
G04 Aperture macros list end*
%TA.AperFunction,SMDPad,CuDef*%
%ADD10R,1.400000X1.000000*%
%TD*%
%TA.AperFunction,SMDPad,CuDef*%
%ADD11RotRect,1.400000X1.000000X165.000000*%
%TD*%
%TA.AperFunction,SMDPad,CuDef*%
%ADD12RotRect,1.400000X1.000000X240.000000*%
%TD*%
%TA.AperFunction,SMDPad,CuDef*%
%ADD13R,1.550000X2.000000*%
%TD*%
%TA.AperFunction,SMDPad,CuDef*%
%ADD14R,2.000000X2.000000*%
%TD*%
%TA.AperFunction,SMDPad,CuDef*%
%ADD15RotRect,1.550000X2.000000X345.000000*%
%TD*%
%TA.AperFunction,SMDPad,CuDef*%
%ADD16RotRect,2.000000X2.000000X345.000000*%
%TD*%
%TA.AperFunction,SMDPad,CuDef*%
%ADD17RotRect,1.550000X2.000000X60.000000*%
%TD*%
%TA.AperFunction,SMDPad,CuDef*%
%ADD18RotRect,2.000000X2.000000X60.000000*%
%TD*%
%TA.AperFunction,SMDPad,CuDef*%
%ADD19RotRect,1.550000X2.000000X300.000000*%
%TD*%
%TA.AperFunction,SMDPad,CuDef*%
%ADD20RotRect,2.000000X2.000000X300.000000*%
%TD*%
%TA.AperFunction,SMDPad,CuDef*%
%ADD21RotRect,1.400000X1.000000X15.000000*%
%TD*%
%TA.AperFunction,SMDPad,CuDef*%
%ADD22RotRect,1.400000X1.000000X300.000000*%
%TD*%
%TA.AperFunction,SMDPad,CuDef*%
%ADD23RotRect,1.550000X2.000000X15.000000*%
%TD*%
%TA.AperFunction,SMDPad,CuDef*%
%ADD24RotRect,2.000000X2.000000X15.000000*%
%TD*%
%TA.AperFunction,ComponentPad*%
%ADD25O,2.750000X1.800000*%
%TD*%
%TA.AperFunction,ComponentPad*%
%ADD26C,1.397000*%
%TD*%
%TA.AperFunction,WasherPad*%
%ADD27C,0.900000*%
%TD*%
%TA.AperFunction,SMDPad,CuDef*%
%ADD28RotRect,0.700000X1.000000X240.000000*%
%TD*%
%TA.AperFunction,SMDPad,CuDef*%
%ADD29RotRect,2.800000X1.000000X150.000000*%
%TD*%
%TA.AperFunction,ComponentPad*%
%ADD30O,1.750000X1.200000*%
%TD*%
%TA.AperFunction,SMDPad,CuDef*%
%ADD31RotRect,0.700000X1.000000X120.000000*%
%TD*%
%TA.AperFunction,SMDPad,CuDef*%
%ADD32RotRect,2.800000X1.000000X30.000000*%
%TD*%
%TA.AperFunction,ViaPad*%
%ADD33C,0.600000*%
%TD*%
%TA.AperFunction,Conductor*%
%ADD34C,0.250000*%
%TD*%
G04 APERTURE END LIST*
D10*
%TO.P,D1,2,A*%
%TO.N,Net-(D1-A)*%
X-136389500Y57650000D03*
%TO.P,D1,1,K*%
%TO.N,ROW0_L*%
X-132839500Y57650000D03*
%TD*%
%TO.P,D2,1,K*%
%TO.N,ROW0_L*%
X-115839500Y57650000D03*
%TO.P,D2,2,A*%
%TO.N,Net-(D2-A)*%
X-119389500Y57650000D03*
%TD*%
%TO.P,D3,1,K*%
%TO.N,ROW0_L*%
X-98839500Y62400000D03*
%TO.P,D3,2,A*%
%TO.N,Net-(D3-A)*%
X-102389500Y62400000D03*
%TD*%
%TO.P,D4,1,K*%
%TO.N,ROW0_L*%
X-81839500Y64649800D03*
%TO.P,D4,2,A*%
%TO.N,Net-(D4-A)*%
X-85389500Y64649800D03*
%TD*%
%TO.P,D5,1,K*%
%TO.N,ROW0_L*%
X-64839500Y62399100D03*
%TO.P,D5,2,A*%
%TO.N,Net-(D5-A)*%
X-68389500Y62399100D03*
%TD*%
%TO.P,D6,2,A*%
%TO.N,Net-(D6-A)*%
X-51389500Y59899500D03*
%TO.P,D6,1,K*%
%TO.N,ROW0_L*%
X-47839500Y59899500D03*
%TD*%
%TO.P,D7,2,A*%
%TO.N,Net-(D7-A)*%
X-136327000Y40650000D03*
%TO.P,D7,1,K*%
%TO.N,ROW1_L*%
X-132777000Y40650000D03*
%TD*%
%TO.P,D8,1,K*%
%TO.N,ROW1_L*%
X-115839500Y40650000D03*
%TO.P,D8,2,A*%
%TO.N,Net-(D8-A)*%
X-119389500Y40650000D03*
%TD*%
%TO.P,D9,1,K*%
%TO.N,ROW1_L*%
X-98839500Y45400000D03*
%TO.P,D9,2,A*%
%TO.N,Net-(D9-A)*%
X-102389500Y45400000D03*
%TD*%
%TO.P,D10,1,K*%
%TO.N,ROW1_L*%
X-81839500Y47650100D03*
%TO.P,D10,2,A*%
%TO.N,Net-(D10-A)*%
X-85389500Y47650100D03*
%TD*%
%TO.P,D11,2,A*%
%TO.N,Net-(D11-A)*%
X-68389500Y45399500D03*
%TO.P,D11,1,K*%
%TO.N,ROW1_L*%
X-64839500Y45399500D03*
%TD*%
%TO.P,D12,1,K*%
%TO.N,ROW1_L*%
X-47839500Y42899900D03*
%TO.P,D12,2,A*%
%TO.N,Net-(D12-A)*%
X-51389500Y42899900D03*
%TD*%
%TO.P,D13,2,A*%
%TO.N,Net-(D13-A)*%
X-136327000Y23696900D03*
%TO.P,D13,1,K*%
%TO.N,ROW2_L*%
X-132777000Y23696900D03*
%TD*%
%TO.P,D14,1,K*%
%TO.N,ROW2_L*%
X-115839500Y23650000D03*
%TO.P,D14,2,A*%
%TO.N,Net-(D14-A)*%
X-119389500Y23650000D03*
%TD*%
%TO.P,D15,1,K*%
%TO.N,ROW2_L*%
X-98839500Y28400000D03*
%TO.P,D15,2,A*%
%TO.N,Net-(D15-A)*%
X-102389500Y28400000D03*
%TD*%
%TO.P,D16,1,K*%
%TO.N,ROW2_L*%
X-81839500Y30650000D03*
%TO.P,D16,2,A*%
%TO.N,Net-(D16-A)*%
X-85389500Y30650000D03*
%TD*%
%TO.P,D17,1,K*%
%TO.N,ROW2_L*%
X-64839500Y28400000D03*
%TO.P,D17,2,A*%
%TO.N,Net-(D17-A)*%
X-68389500Y28400000D03*
%TD*%
%TO.P,D18,1,K*%
%TO.N,ROW2_L*%
X-47839500Y25900000D03*
%TO.P,D18,2,A*%
%TO.N,Net-(D18-A)*%
X-51389500Y25900000D03*
%TD*%
%TO.P,D19,1,K*%
%TO.N,ROW3_L*%
X-76339500Y8650000D03*
%TO.P,D19,2,A*%
%TO.N,Net-(D19-A)*%
X-79889500Y8650000D03*
%TD*%
D11*
%TO.P,D20,1,K*%
%TO.N,ROW3_L*%
X-54749982Y5290596D03*
%TO.P,D20,2,A*%
%TO.N,Net-(D20-A)*%
X-58179018Y6209404D03*
%TD*%
D12*
%TO.P,D21,1,K*%
%TO.N,ROW3_L*%
X-38977000Y-912805D03*
%TO.P,D21,2,A*%
%TO.N,Net-(D21-A)*%
X-40752000Y-3987195D03*
%TD*%
D13*
%TO.P,SW2,1,1*%
%TO.N,COL1_L*%
X-120944600Y52450000D03*
%TO.P,SW2,2,2*%
%TO.N,Net-(D2-A)*%
X-115944600Y52450000D03*
D14*
%TO.P,SW2,3*%
%TO.N,N/C*%
X-124794600Y61100000D03*
X-124794600Y49100000D03*
X-112094600Y61100000D03*
X-112094600Y49100000D03*
%TD*%
D13*
%TO.P,SW3,1,1*%
%TO.N,COL2_L*%
X-103944600Y57200000D03*
%TO.P,SW3,2,2*%
%TO.N,Net-(D3-A)*%
X-98944600Y57200000D03*
D14*
%TO.P,SW3,3*%
%TO.N,N/C*%
X-107794600Y65850000D03*
X-107794600Y53850000D03*
X-95094600Y65850000D03*
X-95094600Y53850000D03*
%TD*%
D13*
%TO.P,SW4,1,1*%
%TO.N,COL3_L*%
X-86944600Y59574800D03*
%TO.P,SW4,2,2*%
%TO.N,Net-(D4-A)*%
X-81944600Y59574800D03*
D14*
%TO.P,SW4,3*%
%TO.N,N/C*%
X-90794600Y68224800D03*
X-90794600Y56224800D03*
X-78094600Y68224800D03*
X-78094600Y56224800D03*
%TD*%
D13*
%TO.P,SW5,1,1*%
%TO.N,COL4_L*%
X-69944600Y57199100D03*
%TO.P,SW5,2,2*%
%TO.N,Net-(D5-A)*%
X-64944600Y57199100D03*
D14*
%TO.P,SW5,3*%
%TO.N,N/C*%
X-73794600Y65849100D03*
X-73794600Y53849100D03*
X-61094600Y65849100D03*
X-61094600Y53849100D03*
%TD*%
%TO.P,SW7,3*%
%TO.N,N/C*%
X-129094600Y32100000D03*
X-129094600Y44100000D03*
X-141794600Y32100000D03*
X-141794600Y44100000D03*
D13*
%TO.P,SW7,2,2*%
%TO.N,Net-(D7-A)*%
X-132944600Y35450000D03*
%TO.P,SW7,1,1*%
%TO.N,COL0_L*%
X-137944600Y35450000D03*
%TD*%
%TO.P,SW8,1,1*%
%TO.N,COL1_L*%
X-120944600Y35450000D03*
%TO.P,SW8,2,2*%
%TO.N,Net-(D8-A)*%
X-115944600Y35450000D03*
D14*
%TO.P,SW8,3*%
%TO.N,N/C*%
X-124794600Y44100000D03*
X-124794600Y32100000D03*
X-112094600Y44100000D03*
X-112094600Y32100000D03*
%TD*%
D13*
%TO.P,SW9,1,1*%
%TO.N,COL2_L*%
X-103944600Y40200000D03*
%TO.P,SW9,2,2*%
%TO.N,Net-(D9-A)*%
X-98944600Y40200000D03*
D14*
%TO.P,SW9,3*%
%TO.N,N/C*%
X-107794600Y48850000D03*
X-107794600Y36850000D03*
X-95094600Y48850000D03*
X-95094600Y36850000D03*
%TD*%
D13*
%TO.P,SW10,1,1*%
%TO.N,COL3_L*%
X-86944600Y42575100D03*
%TO.P,SW10,2,2*%
%TO.N,Net-(D10-A)*%
X-81944600Y42575100D03*
D14*
%TO.P,SW10,3*%
%TO.N,N/C*%
X-90794600Y51225100D03*
X-90794600Y39225100D03*
X-78094600Y51225100D03*
X-78094600Y39225100D03*
%TD*%
%TO.P,SW11,3*%
%TO.N,N/C*%
X-61094600Y36849500D03*
X-61094600Y48849500D03*
X-73794600Y36849500D03*
X-73794600Y48849500D03*
D13*
%TO.P,SW11,2,2*%
%TO.N,Net-(D11-A)*%
X-64944600Y40199500D03*
%TO.P,SW11,1,1*%
%TO.N,COL4_L*%
X-69944600Y40199500D03*
%TD*%
%TO.P,SW12,1,1*%
%TO.N,COL5_L*%
X-52944600Y37824900D03*
%TO.P,SW12,2,2*%
%TO.N,Net-(D12-A)*%
X-47944600Y37824900D03*
D14*
%TO.P,SW12,3*%
%TO.N,N/C*%
X-56794600Y46474900D03*
X-56794600Y34474900D03*
X-44094600Y46474900D03*
X-44094600Y34474900D03*
%TD*%
%TO.P,SW13,3*%
%TO.N,N/C*%
X-129094600Y15100000D03*
X-129094600Y27100000D03*
X-141794600Y15100000D03*
X-141794600Y27100000D03*
D13*
%TO.P,SW13,2,2*%
%TO.N,Net-(D13-A)*%
X-132944600Y18450000D03*
%TO.P,SW13,1,1*%
%TO.N,COL0_L*%
X-137944600Y18450000D03*
%TD*%
%TO.P,SW14,1,1*%
%TO.N,COL1_L*%
X-120944600Y18450000D03*
%TO.P,SW14,2,2*%
%TO.N,Net-(D14-A)*%
X-115944600Y18450000D03*
D14*
%TO.P,SW14,3*%
%TO.N,N/C*%
X-124794600Y27100000D03*
X-124794600Y15100000D03*
X-112094600Y27100000D03*
X-112094600Y15100000D03*
%TD*%
D13*
%TO.P,SW15,1,1*%
%TO.N,COL2_L*%
X-103944600Y23200000D03*
%TO.P,SW15,2,2*%
%TO.N,Net-(D15-A)*%
X-98944600Y23200000D03*
D14*
%TO.P,SW15,3*%
%TO.N,N/C*%
X-107794600Y31850000D03*
X-107794600Y19850000D03*
X-95094600Y31850000D03*
X-95094600Y19850000D03*
%TD*%
D13*
%TO.P,SW16,1,1*%
%TO.N,COL3_L*%
X-86944600Y25575000D03*
%TO.P,SW16,2,2*%
%TO.N,Net-(D16-A)*%
X-81944600Y25575000D03*
D14*
%TO.P,SW16,3*%
%TO.N,N/C*%
X-90794600Y34225000D03*
X-90794600Y22225000D03*
X-78094600Y34225000D03*
X-78094600Y22225000D03*
%TD*%
D13*
%TO.P,SW17,1,1*%
%TO.N,COL4_L*%
X-69944600Y23200000D03*
%TO.P,SW17,2,2*%
%TO.N,Net-(D17-A)*%
X-64944600Y23200000D03*
D14*
%TO.P,SW17,3*%
%TO.N,N/C*%
X-73794600Y31850000D03*
X-73794600Y19850000D03*
X-61094600Y31850000D03*
X-61094600Y19850000D03*
%TD*%
D13*
%TO.P,SW18,1,1*%
%TO.N,COL5_L*%
X-52944600Y20825000D03*
%TO.P,SW18,2,2*%
%TO.N,Net-(D18-A)*%
X-47944600Y20825000D03*
D14*
%TO.P,SW18,3*%
%TO.N,N/C*%
X-56794600Y29475000D03*
X-56794600Y17475000D03*
X-44094600Y29475000D03*
X-44094600Y17475000D03*
%TD*%
D13*
%TO.P,SW19,1,1*%
%TO.N,COL2_L*%
X-81444600Y3575000D03*
%TO.P,SW19,2,2*%
%TO.N,Net-(D19-A)*%
X-76444600Y3575000D03*
D14*
%TO.P,SW19,3*%
%TO.N,N/C*%
X-85294600Y12225000D03*
X-85294600Y225000D03*
X-72594600Y12225000D03*
X-72594600Y225000D03*
%TD*%
D15*
%TO.P,SW20,1,1*%
%TO.N,COL3_L*%
X-61045285Y1562344D03*
%TO.P,SW20,2,2*%
%TO.N,Net-(D20-A)*%
X-56215656Y268249D03*
D16*
%TO.P,SW20,3*%
%TO.N,N/C*%
X-62525315Y10914056D03*
X-65631143Y-677054D03*
X-50258057Y7627054D03*
X-53363885Y-3964056D03*
%TD*%
D17*
%TO.P,SW21,1,1*%
%TO.N,COL4_L*%
X-37069533Y-7840064D03*
%TO.P,SW21,2,2*%
%TO.N,Net-(D21-A)*%
X-34569534Y-3509936D03*
D18*
%TO.P,SW21,3*%
%TO.N,N/C*%
X-46485652Y-6849261D03*
X-36093348Y-12849261D03*
X-40135652Y4149261D03*
X-29743348Y-1850739D03*
%TD*%
D19*
%TO.P,SW42,1,1*%
%TO.N,COL4_R*%
X340534Y-3509936D03*
%TO.P,SW42,2,2*%
%TO.N,Net-(D42-A)*%
X2840533Y-7840064D03*
D20*
%TO.P,SW42,3*%
%TO.N,N/C*%
X5906652Y4149261D03*
X-4485652Y-1850739D03*
X12256652Y-6849261D03*
X1864348Y-12849261D03*
%TD*%
D10*
%TO.P,D23,1,K*%
%TO.N,ROW0_R*%
X83160500Y57550000D03*
%TO.P,D23,2,A*%
%TO.N,Net-(D23-A)*%
X86710500Y57550000D03*
%TD*%
%TO.P,D24,2,A*%
%TO.N,Net-(D24-A)*%
X69710500Y62350000D03*
%TO.P,D24,1,K*%
%TO.N,ROW0_R*%
X66160500Y62350000D03*
%TD*%
%TO.P,D25,2,A*%
%TO.N,Net-(D25-A)*%
X52710500Y64750000D03*
%TO.P,D25,1,K*%
%TO.N,ROW0_R*%
X49160500Y64750000D03*
%TD*%
%TO.P,D27,1,K*%
%TO.N,ROW0_R*%
X15160500Y59950000D03*
%TO.P,D27,2,A*%
%TO.N,Net-(D27-A)*%
X18710500Y59950000D03*
%TD*%
%TO.P,D28,1,K*%
%TO.N,ROW1_R*%
X100160500Y40550000D03*
%TO.P,D28,2,A*%
%TO.N,Net-(D28-A)*%
X103710500Y40550000D03*
%TD*%
%TO.P,D29,1,K*%
%TO.N,ROW1_R*%
X83160500Y40550000D03*
%TO.P,D29,2,A*%
%TO.N,Net-(D29-A)*%
X86710500Y40550000D03*
%TD*%
%TO.P,D30,2,A*%
%TO.N,Net-(D30-A)*%
X69710500Y45350000D03*
%TO.P,D30,1,K*%
%TO.N,ROW1_R*%
X66160500Y45350000D03*
%TD*%
%TO.P,D31,2,A*%
%TO.N,Net-(D31-A)*%
X52710500Y47750000D03*
%TO.P,D31,1,K*%
%TO.N,ROW1_R*%
X49160500Y47750000D03*
%TD*%
%TO.P,D32,2,A*%
%TO.N,Net-(D32-A)*%
X35710500Y45350000D03*
%TO.P,D32,1,K*%
%TO.N,ROW1_R*%
X32160500Y45350000D03*
%TD*%
%TO.P,D33,2,A*%
%TO.N,Net-(D33-A)*%
X18710500Y42950000D03*
%TO.P,D33,1,K*%
%TO.N,ROW1_R*%
X15160500Y42950000D03*
%TD*%
%TO.P,D34,1,K*%
%TO.N,ROW2_R*%
X100160500Y23550000D03*
%TO.P,D34,2,A*%
%TO.N,Net-(D34-A)*%
X103710500Y23550000D03*
%TD*%
%TO.P,D35,1,K*%
%TO.N,ROW2_R*%
X83160500Y23550000D03*
%TO.P,D35,2,A*%
%TO.N,Net-(D35-A)*%
X86710500Y23550000D03*
%TD*%
%TO.P,D36,1,K*%
%TO.N,ROW2_R*%
X66160500Y28350000D03*
%TO.P,D36,2,A*%
%TO.N,Net-(D36-A)*%
X69710500Y28350000D03*
%TD*%
%TO.P,D37,2,A*%
%TO.N,Net-(D37-A)*%
X52710500Y30750000D03*
%TO.P,D37,1,K*%
%TO.N,ROW2_R*%
X49160500Y30750000D03*
%TD*%
%TO.P,D38,2,A*%
%TO.N,Net-(D38-A)*%
X35710500Y28350000D03*
%TO.P,D38,1,K*%
%TO.N,ROW2_R*%
X32160500Y28350000D03*
%TD*%
%TO.P,D39,1,K*%
%TO.N,ROW2_R*%
X15160500Y25950000D03*
%TO.P,D39,2,A*%
%TO.N,Net-(D39-A)*%
X18710500Y25950000D03*
%TD*%
%TO.P,D40,1,K*%
%TO.N,ROW3_R*%
X43560500Y8750000D03*
%TO.P,D40,2,A*%
%TO.N,Net-(D40-A)*%
X47110500Y8750000D03*
%TD*%
D21*
%TO.P,D41,1,K*%
%TO.N,ROW3_R*%
X22020982Y5690596D03*
%TO.P,D41,2,A*%
%TO.N,Net-(D41-A)*%
X25450018Y6609404D03*
%TD*%
D22*
%TO.P,D42,1,K*%
%TO.N,ROW3_R*%
X5648000Y-2312805D03*
%TO.P,D42,2,A*%
%TO.N,Net-(D42-A)*%
X7423000Y-5387195D03*
%TD*%
D10*
%TO.P,D22,1,K*%
%TO.N,ROW0_R*%
X100160500Y57550000D03*
%TO.P,D22,2,A*%
%TO.N,Net-(D22-A)*%
X103710500Y57550000D03*
%TD*%
D14*
%TO.P,SW37,3*%
%TO.N,N/C*%
X56412400Y22230000D03*
X56412400Y34230000D03*
X43712400Y22230000D03*
X43712400Y34230000D03*
D13*
%TO.P,SW37,2,2*%
%TO.N,Net-(D37-A)*%
X52562400Y25580000D03*
%TO.P,SW37,1,1*%
%TO.N,COL3_R*%
X47562400Y25580000D03*
%TD*%
D14*
%TO.P,SW38,3*%
%TO.N,N/C*%
X39412400Y19855000D03*
X39412400Y31855000D03*
X26712400Y19855000D03*
X26712400Y31855000D03*
D13*
%TO.P,SW38,2,2*%
%TO.N,Net-(D38-A)*%
X35562400Y23205000D03*
%TO.P,SW38,1,1*%
%TO.N,COL4_R*%
X30562400Y23205000D03*
%TD*%
%TO.P,SW39,1,1*%
%TO.N,COL5_R*%
X13562400Y20830000D03*
%TO.P,SW39,2,2*%
%TO.N,Net-(D39-A)*%
X18562400Y20830000D03*
D14*
%TO.P,SW39,3*%
%TO.N,N/C*%
X9712400Y29480000D03*
X9712400Y17480000D03*
X22412400Y29480000D03*
X22412400Y17480000D03*
%TD*%
D13*
%TO.P,SW40,1,1*%
%TO.N,COL2_R*%
X42062400Y3580000D03*
%TO.P,SW40,2,2*%
%TO.N,Net-(D40-A)*%
X47062400Y3580000D03*
D14*
%TO.P,SW40,3*%
%TO.N,N/C*%
X38212400Y12230000D03*
X38212400Y230000D03*
X50912400Y12230000D03*
X50912400Y230000D03*
%TD*%
D23*
%TO.P,SW41,1,1*%
%TO.N,COL3_R*%
X21833456Y273249D03*
%TO.P,SW41,2,2*%
%TO.N,Net-(D41-A)*%
X26663085Y1567344D03*
D24*
%TO.P,SW41,3*%
%TO.N,N/C*%
X15875857Y7632054D03*
X18981685Y-3959056D03*
X28143115Y10919056D03*
X31248943Y-672054D03*
%TD*%
D14*
%TO.P,SW25,3*%
%TO.N,N/C*%
X56412400Y56230000D03*
X56412400Y68230000D03*
X43712400Y56230000D03*
X43712400Y68230000D03*
D13*
%TO.P,SW25,2,2*%
%TO.N,Net-(D25-A)*%
X52562400Y59580000D03*
%TO.P,SW25,1,1*%
%TO.N,COL3_R*%
X47562400Y59580000D03*
%TD*%
D14*
%TO.P,SW26,3*%
%TO.N,N/C*%
X39412400Y53855000D03*
X39412400Y65855000D03*
X26712400Y53855000D03*
X26712400Y65855000D03*
D13*
%TO.P,SW26,2,2*%
%TO.N,Net-(D26-A)*%
X35562400Y57205000D03*
%TO.P,SW26,1,1*%
%TO.N,COL4_R*%
X30562400Y57205000D03*
%TD*%
%TO.P,SW28,1,1*%
%TO.N,COL0_R*%
X98562400Y35455000D03*
%TO.P,SW28,2,2*%
%TO.N,Net-(D28-A)*%
X103562400Y35455000D03*
D14*
%TO.P,SW28,3*%
%TO.N,N/C*%
X94712400Y44105000D03*
X94712400Y32105000D03*
X107412400Y44105000D03*
X107412400Y32105000D03*
%TD*%
%TO.P,SW24,3*%
%TO.N,N/C*%
X73412400Y53855000D03*
X73412400Y65855000D03*
X60712400Y53855000D03*
X60712400Y65855000D03*
D13*
%TO.P,SW24,2,2*%
%TO.N,Net-(D24-A)*%
X69562400Y57205000D03*
%TO.P,SW24,1,1*%
%TO.N,COL2_R*%
X64562400Y57205000D03*
%TD*%
%TO.P,SW29,1,1*%
%TO.N,COL1_R*%
X81562400Y35455000D03*
%TO.P,SW29,2,2*%
%TO.N,Net-(D29-A)*%
X86562400Y35455000D03*
D14*
%TO.P,SW29,3*%
%TO.N,N/C*%
X77712400Y44105000D03*
X77712400Y32105000D03*
X90412400Y44105000D03*
X90412400Y32105000D03*
%TD*%
D13*
%TO.P,SW35,1,1*%
%TO.N,COL1_R*%
X81562400Y18455000D03*
%TO.P,SW35,2,2*%
%TO.N,Net-(D35-A)*%
X86562400Y18455000D03*
D14*
%TO.P,SW35,3*%
%TO.N,N/C*%
X77712400Y27105000D03*
X77712400Y15105000D03*
X90412400Y27105000D03*
X90412400Y15105000D03*
%TD*%
D13*
%TO.P,SW36,1,1*%
%TO.N,COL2_R*%
X64562400Y23205000D03*
%TO.P,SW36,2,2*%
%TO.N,Net-(D36-A)*%
X69562400Y23205000D03*
D14*
%TO.P,SW36,3*%
%TO.N,N/C*%
X60712400Y31855000D03*
X60712400Y19855000D03*
X73412400Y31855000D03*
X73412400Y19855000D03*
%TD*%
D13*
%TO.P,SW22,1,1*%
%TO.N,COL0_R*%
X98562400Y52455000D03*
%TO.P,SW22,2,2*%
%TO.N,Net-(D22-A)*%
X103562400Y52455000D03*
D14*
%TO.P,SW22,3*%
%TO.N,N/C*%
X94712400Y61105000D03*
X94712400Y49105000D03*
X107412400Y61105000D03*
X107412400Y49105000D03*
%TD*%
D13*
%TO.P,SW23,1,1*%
%TO.N,COL1_R*%
X81562400Y52455000D03*
%TO.P,SW23,2,2*%
%TO.N,Net-(D23-A)*%
X86562400Y52455000D03*
D14*
%TO.P,SW23,3*%
%TO.N,N/C*%
X77712400Y61105000D03*
X77712400Y49105000D03*
X90412400Y61105000D03*
X90412400Y49105000D03*
%TD*%
%TO.P,SW30,3*%
%TO.N,N/C*%
X73412400Y36855000D03*
X73412400Y48855000D03*
X60712400Y36855000D03*
X60712400Y48855000D03*
D13*
%TO.P,SW30,2,2*%
%TO.N,Net-(D30-A)*%
X69562400Y40205000D03*
%TO.P,SW30,1,1*%
%TO.N,COL2_R*%
X64562400Y40205000D03*
%TD*%
D14*
%TO.P,SW31,3*%
%TO.N,N/C*%
X56412400Y39230000D03*
X56412400Y51230000D03*
X43712400Y39230000D03*
X43712400Y51230000D03*
D13*
%TO.P,SW31,2,2*%
%TO.N,Net-(D31-A)*%
X52562400Y42580000D03*
%TO.P,SW31,1,1*%
%TO.N,COL3_R*%
X47562400Y42580000D03*
%TD*%
D14*
%TO.P,SW32,3*%
%TO.N,N/C*%
X39412400Y36855000D03*
X39412400Y48855000D03*
X26712400Y36855000D03*
X26712400Y48855000D03*
D13*
%TO.P,SW32,2,2*%
%TO.N,Net-(D32-A)*%
X35562400Y40205000D03*
%TO.P,SW32,1,1*%
%TO.N,COL4_R*%
X30562400Y40205000D03*
%TD*%
D14*
%TO.P,SW33,3*%
%TO.N,N/C*%
X22412400Y34480000D03*
X22412400Y46480000D03*
X9712400Y34480000D03*
X9712400Y46480000D03*
D13*
%TO.P,SW33,2,2*%
%TO.N,Net-(D33-A)*%
X18562400Y37830000D03*
%TO.P,SW33,1,1*%
%TO.N,COL5_R*%
X13562400Y37830000D03*
%TD*%
%TO.P,SW34,1,1*%
%TO.N,COL0_R*%
X98562400Y18455000D03*
%TO.P,SW34,2,2*%
%TO.N,Net-(D34-A)*%
X103562400Y18455000D03*
D14*
%TO.P,SW34,3*%
%TO.N,N/C*%
X94712400Y27105000D03*
X94712400Y15105000D03*
X107412400Y27105000D03*
X107412400Y15105000D03*
%TD*%
D10*
%TO.P,D26,2,A*%
%TO.N,Net-(D26-A)*%
X35710500Y62350000D03*
%TO.P,D26,1,K*%
%TO.N,ROW0_R*%
X32160500Y62350000D03*
%TD*%
D14*
%TO.P,SW1,3*%
%TO.N,N/C*%
X-129094600Y49100000D03*
X-129094600Y61100000D03*
X-141794600Y49100000D03*
X-141794600Y61100000D03*
D13*
%TO.P,SW1,2,2*%
%TO.N,Net-(D1-A)*%
X-132944600Y52450000D03*
%TO.P,SW1,1,1*%
%TO.N,COL0_L*%
X-137944600Y52450000D03*
%TD*%
D14*
%TO.P,SW6,3*%
%TO.N,N/C*%
X-44094600Y51474500D03*
X-44094600Y63474500D03*
X-56794600Y51474500D03*
X-56794600Y63474500D03*
D13*
%TO.P,SW6,2,2*%
%TO.N,Net-(D6-A)*%
X-47944600Y54824500D03*
%TO.P,SW6,1,1*%
%TO.N,COL5_L*%
X-52944600Y54824500D03*
%TD*%
%TO.P,SW27,1,1*%
%TO.N,COL5_R*%
X13555400Y54825000D03*
%TO.P,SW27,2,2*%
%TO.N,Net-(D27-A)*%
X18555400Y54825000D03*
D14*
%TO.P,SW27,3*%
%TO.N,N/C*%
X9705400Y63475000D03*
X9705400Y51475000D03*
X22405400Y63475000D03*
X22405400Y51475000D03*
%TD*%
D25*
%TO.P,U1,1,A2/0.02_H*%
%TO.N,ROW0_L*%
X-38875200Y62673000D03*
%TO.P,U1,2,A4/0.03_H*%
%TO.N,ROW1_L*%
X-38875200Y60133000D03*
%TO.P,U1,3,A10/0.28*%
%TO.N,ROW2_L*%
X-38875200Y57593000D03*
%TO.P,U1,4,A11/0.29*%
%TO.N,ROW3_L*%
X-38875200Y55053000D03*
%TO.P,U1,5,A8_SDA/0.04_H*%
%TO.N,SDA_L*%
X-38875200Y52513000D03*
%TO.P,U1,6,A9_SCL/0.05_H*%
%TO.N,SCL_L*%
X-38875200Y49973000D03*
%TO.P,U1,7,B8_TX/1.11*%
%TO.N,COL0_L*%
X-38875200Y47433000D03*
%TO.P,U1,8,B9_RX/1.12*%
%TO.N,COL4_L*%
X-22685200Y47433000D03*
%TO.P,U1,9,A7_SCK/1.13*%
%TO.N,COL3_L*%
X-22685200Y49973000D03*
%TO.P,U1,10,A5_MISO/1.14*%
%TO.N,COL2_L*%
X-22685200Y52513000D03*
%TO.P,U1,11,A6_MOSI/1.15*%
%TO.N,COL1_L*%
X-22685200Y55053000D03*
%TO.P,U1,12,3V3*%
%TO.N,VCC*%
X-22685200Y57593000D03*
%TO.P,U1,13,GND*%
%TO.N,GND*%
X-22685200Y60133000D03*
%TO.P,U1,14,5V*%
%TO.N,unconnected-(U1-5V-Pad14)*%
X-22685200Y62673000D03*
D26*
%TO.P,U1,15,BAT*%
%TO.N,BAT+_L*%
X-35225200Y55370000D03*
%TO.P,U1,16,NFC1/0.09_H*%
%TO.N,CS_L*%
X-26919400Y45807400D03*
%TO.P,U1,17,NFC2/0.10_H*%
%TO.N,COL5_L*%
X-25014400Y45807400D03*
%TD*%
D25*
%TO.P,U2,1,A2/0.02_H*%
%TO.N,ROW0_R*%
X-11580200Y62593000D03*
%TO.P,U2,2,A4/0.03_H*%
%TO.N,ROW1_R*%
X-11580200Y60053000D03*
%TO.P,U2,3,A10/0.28*%
%TO.N,ROW2_R*%
X-11580200Y57513000D03*
%TO.P,U2,4,A11/0.29*%
%TO.N,ROW3_R*%
X-11580200Y54973000D03*
%TO.P,U2,5,A8_SDA/0.04_H*%
%TO.N,SDA_R*%
X-11580200Y52433000D03*
%TO.P,U2,6,A9_SCL/0.05_H*%
%TO.N,SCL_R*%
X-11580200Y49893000D03*
%TO.P,U2,7,B8_TX/1.11*%
%TO.N,COL0_R*%
X-11580200Y47353000D03*
%TO.P,U2,8,B9_RX/1.12*%
%TO.N,COL4_R*%
X4609800Y47353000D03*
%TO.P,U2,9,A7_SCK/1.13*%
%TO.N,COL3_R*%
X4609800Y49893000D03*
%TO.P,U2,10,A5_MISO/1.14*%
%TO.N,COL2_R*%
X4609800Y52433000D03*
%TO.P,U2,11,A6_MOSI/1.15*%
%TO.N,COL1_R*%
X4609800Y54973000D03*
%TO.P,U2,12,3V3*%
%TO.N,VCCQ*%
X4609800Y57513000D03*
%TO.P,U2,13,GND*%
%TO.N,GND1*%
X4609800Y60053000D03*
%TO.P,U2,14,5V*%
%TO.N,unconnected-(U2-5V-Pad14)*%
X4609800Y62593000D03*
D26*
%TO.P,U2,15,BAT*%
%TO.N,BAT+_R*%
X-7930200Y55290000D03*
%TO.P,U2,16,NFC1/0.09_H*%
%TO.N,CS_R*%
X375600Y45727400D03*
%TO.P,U2,17,NFC2/0.10_H*%
%TO.N,COL5_R*%
X2280600Y45727400D03*
%TD*%
D27*
%TO.P,PSW1,*%
%TO.N,*%
X-24408634Y4971633D03*
X-25951936Y2398557D03*
D28*
%TO.P,PSW1,1,A*%
%TO.N,unconnected-(PSW1-A-Pad1)_1*%
X-27885781Y2649038D03*
%TO.P,PSW1,2,B*%
%TO.N,BAT+_L*%
X-26385781Y5247114D03*
%TO.P,PSW1,3,C*%
%TO.N,VBAT_L*%
X-25635781Y6546152D03*
D29*
%TO.P,PSW1,NC*%
%TO.N,N/C*%
X-27040333Y313397D03*
X-23065333Y7198299D03*
%TD*%
D30*
%TO.P,B2,1,Pin_1*%
%TO.N,VBAT_R*%
X-10604500Y39410000D03*
%TO.P,B2,2,Pin_2*%
%TO.N,GND1*%
X-10604500Y41410000D03*
%TD*%
%TO.P,B1,1,Pin_1*%
%TO.N,VBAT_L*%
X-23614500Y41550000D03*
%TO.P,B1,2,Pin_2*%
%TO.N,GND*%
X-23614500Y39550000D03*
%TD*%
D27*
%TO.P,PSW2,*%
%TO.N,*%
X-8670366Y2878367D03*
X-10127064Y5501443D03*
D31*
%TO.P,PSW2,1,A*%
%TO.N,unconnected-(PSW2-A-Pad1)_1*%
X-8943219Y7050962D03*
%TO.P,PSW2,2,B*%
%TO.N,BAT+_R*%
X-7443219Y4452886D03*
%TO.P,PSW2,3,C*%
%TO.N,VBAT_R*%
X-6693219Y3153848D03*
D32*
%TO.P,PSW2,NC*%
%TO.N,N/C*%
X-11388667Y7486603D03*
X-7413667Y601701D03*
%TD*%
D33*
%TO.N,*%
X71385500Y69400000D03*
X70635500Y69400000D03*
X69885500Y69400000D03*
X69135500Y69400000D03*
X68385500Y69400000D03*
X67635500Y69400000D03*
X66885500Y69400000D03*
X66135500Y69400000D03*
X36885500Y69650000D03*
X36135500Y69650000D03*
X35385500Y69650000D03*
X34635500Y69650000D03*
X33885500Y69650000D03*
X33135500Y69650000D03*
X32385500Y69650000D03*
X31635500Y69650000D03*
X-66114500Y69650000D03*
X-66864500Y69650000D03*
X-67614500Y69650000D03*
X-68364500Y69650000D03*
X-69114500Y69650000D03*
X-69864500Y69650000D03*
X-70614500Y69650000D03*
X-71364500Y69650000D03*
X-100614500Y69400000D03*
X-101364500Y69400000D03*
X-102114500Y69400000D03*
X-102864500Y69400000D03*
X-103614500Y69400000D03*
X-104364500Y69400000D03*
X-105114500Y69400000D03*
X-105864500Y69400000D03*
X-137364500Y12150000D03*
X-138114500Y12150000D03*
X-138864500Y12150000D03*
X-139614500Y12150000D03*
X-140364500Y12150000D03*
X-141114500Y12150000D03*
X-141864500Y12150000D03*
X-104614500Y12150000D03*
X-105364500Y12150000D03*
X-106114500Y12150000D03*
X-106864500Y12150000D03*
X-107614500Y12150000D03*
X-108364500Y12150000D03*
X-109114500Y12150000D03*
X-109864500Y12150000D03*
X75885500Y12150000D03*
X75135500Y12150000D03*
X74385500Y12150000D03*
X73635500Y12150000D03*
X72885500Y12150000D03*
X72135500Y12150000D03*
X71385500Y12150000D03*
X70635500Y12150000D03*
X107635500Y12150000D03*
X106885500Y12150000D03*
X106135500Y12150000D03*
X105385500Y12150000D03*
X104635500Y12150000D03*
X103885500Y12150000D03*
X103135500Y12150000D03*
%TO.N,COL1_R*%
X82916400Y51379800D03*
X82916400Y35210000D03*
X82916400Y19781700D03*
%TO.N,COL4_L*%
X-67949000Y-3747900D03*
X-67949000Y22727400D03*
X-67809600Y40377600D03*
X-67809600Y57199100D03*
X-68000500Y47048500D03*
%TO.N,COL3_L*%
X-85641700Y25575000D03*
X-85641700Y42575100D03*
X-86438000Y58061600D03*
X-70011000Y1478800D03*
X-86438000Y51569300D03*
%TO.N,COL2_L*%
X-97502400Y11512400D03*
X-101078000Y22727400D03*
X-101078000Y40377600D03*
X-100903500Y55260600D03*
%TO.N,COL0_L*%
X-136923700Y50937600D03*
X-136638100Y34835500D03*
X-136638100Y19776700D03*
%TO.N,BAT+_R*%
X-8563300Y4190800D03*
%TO.N,ROW3_R*%
X2194200Y-3039100D03*
%TO.N,ROW2_R*%
X-4320200Y25950000D03*
%TO.N,ROW1_R*%
X-2025100Y43319300D03*
%TO.N,GND1*%
X-1375300Y42336700D03*
%TO.N,VBAT_R*%
X-8169100Y8415700D03*
%TO.N,ROW2_L*%
X-46442000Y25900000D03*
X-46442000Y58027800D03*
X-84960400Y27573300D03*
X-83491200Y31552500D03*
X-101419100Y26923800D03*
X-104262400Y28610800D03*
X-113826800Y28610800D03*
X-113826800Y23695400D03*
%TO.N,ROW3_L*%
X-52898300Y5474900D03*
X-52898300Y8018900D03*
%TO.N,ROW1_L*%
X-45815300Y42899900D03*
X-43252200Y60263900D03*
X-45815300Y43995000D03*
X-84650600Y46540100D03*
X-85502800Y45619500D03*
X-97289000Y43319300D03*
X-97289000Y45345100D03*
X-123829000Y41476700D03*
X-100149600Y41806300D03*
%TO.N,ROW0_L*%
X-81839500Y63597800D03*
X-97289000Y64023700D03*
X-97289000Y62670200D03*
X-118060200Y57353500D03*
X-126082000Y56873900D03*
%TO.N,COL2_R*%
X43010300Y54422600D03*
X41931300Y51377500D03*
X61461900Y56103300D03*
X63145300Y40377600D03*
X63145300Y23205000D03*
X45398600Y3580000D03*
X45398600Y13902300D03*
X63145300Y13902300D03*
%TO.N,COL3_R*%
X45571300Y25580000D03*
X45571300Y16844000D03*
X25016900Y16844000D03*
X22587700Y1931600D03*
X45763500Y52827100D03*
X45763500Y42620200D03*
X45774000Y59525100D03*
X46777600Y33827100D03*
X19019100Y50221300D03*
%TO.N,COL5_R*%
X7253900Y48134200D03*
X7253900Y45727400D03*
X9474100Y48077100D03*
X12269400Y37830000D03*
X12151100Y55090100D03*
X12154600Y20543300D03*
%TO.N,COL1_L*%
X-120944600Y33916300D03*
X-118800200Y52144400D03*
X-118800200Y51123300D03*
X-43957800Y52984000D03*
X-43957800Y56279700D03*
X-122574100Y18882400D03*
X-118800200Y46261000D03*
%TO.N,COL0_R*%
X95601700Y25509600D03*
X96763500Y18495200D03*
X100413100Y45327100D03*
X100413100Y52144400D03*
X100413100Y36781700D03*
X100413100Y50431700D03*
X33580600Y47418100D03*
X32764500Y47418100D03*
%TO.N,COL5_L*%
X-56174000Y36598800D03*
X-55229500Y20951900D03*
X-55229500Y47808300D03*
X-55229500Y38211900D03*
X-55229500Y46149200D03*
X-27614700Y44783700D03*
X-55100000Y54760300D03*
%TO.N,VBAT_L*%
X-28115800Y7050200D03*
X-31072500Y17183700D03*
X-26537400Y17183700D03*
X-26537400Y41550000D03*
%TO.N,BAT+_L*%
X-27520200Y5751000D03*
X-35225200Y59379400D03*
%TO.N,COL4_R*%
X6556900Y49594600D03*
X6556900Y47353000D03*
X5012000Y-3926100D03*
X23968300Y49849400D03*
X28462400Y40816700D03*
X26594600Y50479400D03*
X28638100Y57140800D03*
%TD*%
D34*
%TO.N,COL1_R*%
X4134800Y54973000D02*
X6311500Y54973000D01*
X81562400Y52455000D02*
X80460700Y52455000D01*
X82909100Y35210000D02*
X82664100Y35455000D01*
X82916400Y35210000D02*
X82909100Y35210000D01*
X81562400Y35455000D02*
X82664100Y35455000D01*
X81535900Y51379800D02*
X82916400Y51379800D01*
X80460700Y52455000D02*
X81535900Y51379800D01*
X81562400Y18455000D02*
X81562400Y19781700D01*
X81562400Y19781700D02*
X82916400Y19781700D01*
X7786200Y53498300D02*
X6311500Y54973000D01*
X24607000Y53498300D02*
X7786200Y53498300D01*
X25615900Y52489400D02*
X24607000Y53498300D01*
X33612600Y52489400D02*
X25615900Y52489400D01*
X33754100Y52630900D02*
X33612600Y52489400D01*
X34273200Y52630900D02*
X33754100Y52630900D01*
X34413200Y52490900D02*
X34273200Y52630900D01*
X40609300Y52490900D02*
X34413200Y52490900D01*
X41578300Y53459900D02*
X40609300Y52490900D01*
X57579100Y53459900D02*
X41578300Y53459900D01*
X59528100Y51510900D02*
X57579100Y53459900D01*
X79516600Y51510900D02*
X59528100Y51510900D01*
X80460700Y52455000D02*
X79516600Y51510900D01*
%TO.N,COL4_L*%
X-64952000Y-3747900D02*
X-67949000Y-3747900D01*
X-63145100Y-5554800D02*
X-64952000Y-3747900D01*
X-51102100Y-5554800D02*
X-63145100Y-5554800D01*
X-50703800Y-5156500D02*
X-51102100Y-5554800D01*
X-45984200Y-5156500D02*
X-50703800Y-5156500D01*
X-44111500Y-7029200D02*
X-45984200Y-5156500D01*
X-38474200Y-7029200D02*
X-44111500Y-7029200D01*
X-38474100Y-7029100D02*
X-38474200Y-7029200D01*
X-69944600Y23200000D02*
X-68842900Y23200000D01*
X-68370300Y22727400D02*
X-67949000Y22727400D01*
X-68842900Y23200000D02*
X-68370300Y22727400D01*
X-37069500Y-7840100D02*
X-38474100Y-7029100D01*
X-68664800Y40377600D02*
X-68842900Y40199500D01*
X-67809600Y40377600D02*
X-68664800Y40377600D01*
X-69944600Y40199500D02*
X-68842900Y40199500D01*
X-69944600Y57199100D02*
X-68842900Y57199100D01*
X-68842900Y57199100D02*
X-67809600Y57199100D01*
X-31774900Y47433000D02*
X-23160200Y47433000D01*
X-33077200Y46130700D02*
X-31774900Y47433000D01*
X-41189800Y46130700D02*
X-33077200Y46130700D01*
X-42911900Y47852800D02*
X-41189800Y46130700D01*
X-54338300Y47852800D02*
X-42911900Y47852800D01*
X-54942000Y48456500D02*
X-54338300Y47852800D01*
X-57704700Y48456500D02*
X-54942000Y48456500D01*
X-59112700Y47048500D02*
X-57704700Y48456500D01*
X-68000500Y47048500D02*
X-59112700Y47048500D01*
%TO.N,COL3_L*%
X-86944600Y42575100D02*
X-85842900Y42575100D01*
X-85842900Y42575100D02*
X-85641700Y42575100D01*
X-86944600Y25575000D02*
X-85641700Y25575000D01*
X-86944600Y59574800D02*
X-86944600Y58248100D01*
X-86624500Y58248100D02*
X-86438000Y58061600D01*
X-86944600Y58248100D02*
X-86624500Y58248100D01*
X-61045300Y1562300D02*
X-62452800Y1939400D01*
X-62913400Y1478800D02*
X-62452800Y1939400D01*
X-70011000Y1478800D02*
X-62913400Y1478800D01*
X-80900900Y51569300D02*
X-86438000Y51569300D01*
X-79216700Y49885100D02*
X-80900900Y51569300D01*
X-76622400Y49885100D02*
X-79216700Y49885100D01*
X-76251800Y50255700D02*
X-76622400Y49885100D01*
X-58037900Y50255700D02*
X-76251800Y50255700D01*
X-57609500Y49827300D02*
X-58037900Y50255700D01*
X-42971100Y49827300D02*
X-57609500Y49827300D01*
X-41846800Y48703000D02*
X-42971100Y49827300D01*
X-25656900Y48703000D02*
X-41846800Y48703000D01*
X-24386900Y49973000D02*
X-25656900Y48703000D01*
X-23160200Y49973000D02*
X-24386900Y49973000D01*
%TO.N,COL2_L*%
X-23160200Y52513000D02*
X-24386900Y52513000D01*
X-103944600Y57200000D02*
X-102842900Y57200000D01*
X-90483700Y11512400D02*
X-97502400Y11512400D01*
X-82546300Y3575000D02*
X-90483700Y11512400D01*
X-102370300Y22727400D02*
X-102842900Y23200000D01*
X-101078000Y22727400D02*
X-102370300Y22727400D01*
X-103944600Y23200000D02*
X-102842900Y23200000D01*
X-81444600Y3575000D02*
X-82546300Y3575000D01*
X-102665300Y40377600D02*
X-102842900Y40200000D01*
X-101078000Y40377600D02*
X-102665300Y40377600D01*
X-103944600Y40200000D02*
X-102842900Y40200000D01*
X-94043100Y55260600D02*
X-100903500Y55260600D01*
X-93680600Y54898100D02*
X-94043100Y55260600D01*
X-76959200Y54898100D02*
X-93680600Y54898100D01*
X-76681500Y55175800D02*
X-76959200Y54898100D01*
X-59959200Y55175800D02*
X-76681500Y55175800D01*
X-58231300Y53447900D02*
X-59959200Y55175800D01*
X-47084100Y53447900D02*
X-58231300Y53447900D01*
X-46756600Y53775400D02*
X-47084100Y53447900D01*
X-25649300Y53775400D02*
X-46756600Y53775400D01*
X-24386900Y52513000D02*
X-25649300Y53775400D01*
X-100903500Y55260600D02*
X-102842900Y57200000D01*
%TO.N,COL0_L*%
X-38400200Y47433000D02*
X-40576900Y47433000D01*
X-137944600Y52450000D02*
X-136842900Y52450000D01*
X-136184900Y51792100D02*
X-136842900Y52450000D01*
X-137944600Y35450000D02*
X-136842900Y35450000D01*
X-136842900Y35040300D02*
X-136638100Y34835500D01*
X-136842900Y35450000D02*
X-136842900Y35040300D01*
X-136923700Y51053300D02*
X-136923700Y50937600D01*
X-136184900Y51792100D02*
X-136923700Y51053300D01*
X-137944600Y18450000D02*
X-137944600Y19776700D01*
X-137944600Y19776700D02*
X-136638100Y19776700D01*
X-134819500Y50426700D02*
X-136184900Y51792100D01*
X-93174200Y50426700D02*
X-134819500Y50426700D01*
X-92576300Y49828800D02*
X-93174200Y50426700D01*
X-84840700Y49828800D02*
X-92576300Y49828800D01*
X-84839200Y49827300D02*
X-84840700Y49828800D01*
X-79832100Y49827300D02*
X-84839200Y49827300D01*
X-79438200Y49433400D02*
X-79832100Y49827300D01*
X-76840600Y49433400D02*
X-79438200Y49433400D01*
X-74930000Y47522800D02*
X-76840600Y49433400D01*
X-68661600Y47522800D02*
X-74930000Y47522800D01*
X-68505700Y47678700D02*
X-68661600Y47522800D01*
X-67744400Y47678700D02*
X-68505700Y47678700D01*
X-67588500Y47522800D02*
X-67744400Y47678700D01*
X-59959200Y47522800D02*
X-67588500Y47522800D01*
X-59025500Y48456500D02*
X-59959200Y47522800D01*
X-58633900Y48456500D02*
X-59025500Y48456500D01*
X-58605400Y48485000D02*
X-58633900Y48456500D01*
X-58563000Y48485000D02*
X-58605400Y48485000D01*
X-58139800Y48908200D02*
X-58563000Y48485000D01*
X-54642200Y48908200D02*
X-58139800Y48908200D01*
X-54192000Y48458000D02*
X-54642200Y48908200D01*
X-42579500Y48458000D02*
X-54192000Y48458000D01*
X-42578000Y48456500D02*
X-42579500Y48458000D01*
X-42239200Y48456500D02*
X-42578000Y48456500D01*
X-42027100Y48244400D02*
X-42239200Y48456500D01*
X-41388300Y48244400D02*
X-42027100Y48244400D01*
X-40576900Y47433000D02*
X-41388300Y48244400D01*
%TO.N,BAT+_R*%
X-7443200Y4452900D02*
X-8316100Y3948900D01*
X-8558000Y4190800D02*
X-8563300Y4190800D01*
X-8316100Y3948900D02*
X-8558000Y4190800D01*
%TO.N,Net-(D42-A)*%
X5336200Y-5938000D02*
X4245100Y-7029100D01*
X6468800Y-5938000D02*
X5336200Y-5938000D01*
X6468900Y-5938100D02*
X6468800Y-5938000D01*
X7423000Y-5387200D02*
X6468900Y-5938100D01*
X2840500Y-7840100D02*
X4245100Y-7029100D01*
%TO.N,Net-(D41-A)*%
X25735100Y3642200D02*
X25735100Y5545200D01*
X26243200Y3134100D02*
X25735100Y3642200D01*
X26243300Y3134100D02*
X26243200Y3134100D01*
X26663100Y1567300D02*
X26243300Y3134100D01*
X25450000Y6609400D02*
X25735100Y5545200D01*
%TO.N,Net-(D40-A)*%
X47110500Y4954800D02*
X47062400Y4906700D01*
X47110500Y8750000D02*
X47110500Y4954800D01*
X47062400Y3580000D02*
X47062400Y4906700D01*
%TO.N,ROW3_R*%
X20815300Y5367600D02*
X20815300Y5367500D01*
X13731600Y5367600D02*
X20815300Y5367600D01*
X6602100Y-1761900D02*
X13731600Y5367600D01*
X5648000Y-2312800D02*
X6602100Y-1761900D01*
X22021000Y5690600D02*
X20815300Y5367500D01*
X23226600Y6013700D02*
X23226600Y6013600D01*
X25962900Y8750000D02*
X23226600Y6013700D01*
X43560500Y8750000D02*
X25962900Y8750000D01*
X22021000Y5690600D02*
X23226600Y6013600D01*
X4518500Y-3039100D02*
X4693900Y-2863700D01*
X2194200Y-3039100D02*
X4518500Y-3039100D01*
X5648000Y-2312800D02*
X4693900Y-2863700D01*
%TO.N,Net-(D39-A)*%
X18710500Y22304800D02*
X18562400Y22156700D01*
X18710500Y25950000D02*
X18710500Y22304800D01*
X18562400Y20830000D02*
X18562400Y22156700D01*
%TO.N,Net-(D38-A)*%
X35710500Y24679800D02*
X35562400Y24531700D01*
X35710500Y28350000D02*
X35710500Y24679800D01*
X35562400Y23205000D02*
X35562400Y24531700D01*
%TO.N,Net-(D37-A)*%
X52710500Y27054800D02*
X52562400Y26906700D01*
X52710500Y30750000D02*
X52710500Y27054800D01*
X52562400Y25580000D02*
X52562400Y26906700D01*
%TO.N,Net-(D36-A)*%
X69710500Y24679800D02*
X69562400Y24531700D01*
X69710500Y28350000D02*
X69710500Y24679800D01*
X69562400Y23205000D02*
X69562400Y24531700D01*
%TO.N,Net-(D35-A)*%
X86710500Y19929800D02*
X86562400Y19781700D01*
X86710500Y23550000D02*
X86710500Y19929800D01*
X86562400Y18455000D02*
X86562400Y19781700D01*
%TO.N,Net-(D34-A)*%
X103710500Y19929800D02*
X103562400Y19781700D01*
X103710500Y23550000D02*
X103710500Y19929800D01*
X103562400Y18455000D02*
X103562400Y19781700D01*
%TO.N,ROW2_R*%
X-4320200Y25950000D02*
X15160500Y25950000D01*
X16196800Y27813000D02*
X15160500Y26776700D01*
X30596800Y27813000D02*
X16196800Y27813000D01*
X31133800Y28350000D02*
X30596800Y27813000D01*
X32160500Y28350000D02*
X31133800Y28350000D01*
X15160500Y25950000D02*
X15160500Y26776700D01*
X33171800Y30188000D02*
X32160500Y29176700D01*
X47571800Y30188000D02*
X33171800Y30188000D01*
X48133800Y30750000D02*
X47571800Y30188000D01*
X32160500Y28350000D02*
X32160500Y29176700D01*
X49160500Y30750000D02*
X48647200Y30750000D01*
X48647200Y30750000D02*
X48133800Y30750000D01*
X56822600Y28350000D02*
X66160500Y28350000D01*
X53595900Y31576700D02*
X56822600Y28350000D01*
X49473900Y31576700D02*
X53595900Y31576700D01*
X48647200Y30750000D02*
X49473900Y31576700D01*
X66160500Y28350000D02*
X66160500Y29176700D01*
X100160500Y23550000D02*
X100160500Y24376700D01*
X83160500Y23550000D02*
X83160500Y24376700D01*
X83160500Y24376700D02*
X83160500Y24789000D01*
X74933600Y24789000D02*
X83160500Y24789000D01*
X70545900Y29176700D02*
X74933600Y24789000D01*
X66160500Y29176700D02*
X70545900Y29176700D01*
X99748200Y24789000D02*
X100160500Y24376700D01*
X83160500Y24789000D02*
X99748200Y24789000D01*
%TO.N,Net-(D33-A)*%
X18710500Y39304800D02*
X18562400Y39156700D01*
X18710500Y42950000D02*
X18710500Y39304800D01*
X18562400Y37830000D02*
X18562400Y39156700D01*
%TO.N,Net-(D32-A)*%
X35710500Y41679800D02*
X35562400Y41531700D01*
X35710500Y45350000D02*
X35710500Y41679800D01*
X35562400Y40205000D02*
X35562400Y41531700D01*
%TO.N,Net-(D31-A)*%
X52710500Y44054800D02*
X52562400Y43906700D01*
X52710500Y47750000D02*
X52710500Y44054800D01*
X52562400Y42580000D02*
X52562400Y43906700D01*
%TO.N,Net-(D30-A)*%
X69710500Y41679800D02*
X69710500Y45350000D01*
X69562400Y41531700D02*
X69710500Y41679800D01*
X69562400Y40205000D02*
X69562400Y41531700D01*
%TO.N,Net-(D29-A)*%
X86710500Y36929800D02*
X86562400Y36781700D01*
X86710500Y40550000D02*
X86710500Y36929800D01*
X86562400Y35455000D02*
X86562400Y36781700D01*
%TO.N,Net-(D28-A)*%
X103710500Y36929800D02*
X103562400Y36781700D01*
X103710500Y40550000D02*
X103710500Y36929800D01*
X103562400Y35455000D02*
X103562400Y36781700D01*
%TO.N,ROW1_R*%
X15160500Y42950000D02*
X14133800Y42950000D01*
X13764500Y43319300D02*
X-2025100Y43319300D01*
X14133800Y42950000D02*
X13764500Y43319300D01*
X30596800Y44813000D02*
X31133800Y45350000D01*
X15996800Y44813000D02*
X30596800Y44813000D01*
X14133800Y42950000D02*
X15996800Y44813000D01*
X31647200Y45350000D02*
X31133800Y45350000D01*
X31647200Y45350000D02*
X32160500Y45350000D01*
X32160500Y45350000D02*
X32160500Y46176700D01*
X83160500Y40550000D02*
X83160500Y41376700D01*
X100160500Y40550000D02*
X100160500Y41376700D01*
X47175200Y46791400D02*
X48133800Y47750000D01*
X32775200Y46791400D02*
X47175200Y46791400D01*
X32160500Y46176700D02*
X32775200Y46791400D01*
X48647200Y47750000D02*
X49130800Y47750000D01*
X48647200Y47750000D02*
X48133800Y47750000D01*
X49160500Y47750000D02*
X49130800Y47750000D01*
X56822600Y45350000D02*
X66160500Y45350000D01*
X53595900Y48576700D02*
X56822600Y45350000D01*
X49957500Y48576700D02*
X53595900Y48576700D01*
X49130800Y47750000D02*
X49957500Y48576700D01*
X83160500Y41552400D02*
X83160500Y41376700D01*
X75539100Y41552400D02*
X83160500Y41552400D01*
X70914800Y46176700D02*
X75539100Y41552400D01*
X66160500Y46176700D02*
X70914800Y46176700D01*
X99748200Y41789000D02*
X100160500Y41376700D01*
X83397100Y41789000D02*
X99748200Y41789000D01*
X83160500Y41552400D02*
X83397100Y41789000D01*
X66160500Y45350000D02*
X66160500Y46176700D01*
%TO.N,Net-(D27-A)*%
X18710500Y56306800D02*
X18555400Y56151700D01*
X18710500Y59950000D02*
X18710500Y56306800D01*
X18555400Y54825000D02*
X18555400Y56151700D01*
%TO.N,Net-(D26-A)*%
X35710500Y58679800D02*
X35562400Y58531700D01*
X35710500Y62350000D02*
X35710500Y58679800D01*
X35562400Y57205000D02*
X35562400Y58531700D01*
%TO.N,Net-(D25-A)*%
X52710500Y61054800D02*
X52562400Y60906700D01*
X52710500Y64750000D02*
X52710500Y61054800D01*
X52562400Y59580000D02*
X52562400Y60906700D01*
%TO.N,Net-(D24-A)*%
X69710500Y58679800D02*
X69562400Y58531700D01*
X69710500Y62350000D02*
X69710500Y58679800D01*
X69562400Y57205000D02*
X69562400Y58531700D01*
%TO.N,Net-(D23-A)*%
X86710500Y53929800D02*
X86562400Y53781700D01*
X86710500Y57550000D02*
X86710500Y53929800D01*
X86562400Y52455000D02*
X86562400Y53781700D01*
%TO.N,Net-(D22-A)*%
X103710500Y53929800D02*
X103562400Y53781700D01*
X103710500Y57550000D02*
X103710500Y53929800D01*
X103562400Y52455000D02*
X103562400Y53781700D01*
%TO.N,ROW0_R*%
X14570900Y61366300D02*
X15160500Y60776700D01*
X-8651800Y61366300D02*
X14570900Y61366300D01*
X-9878500Y62593000D02*
X-8651800Y61366300D01*
X-11105200Y62593000D02*
X-9878500Y62593000D01*
X15160500Y59950000D02*
X15160500Y60776700D01*
X16191800Y61808000D02*
X15160500Y60776700D01*
X30591800Y61808000D02*
X16191800Y61808000D01*
X31133800Y62350000D02*
X30591800Y61808000D01*
X32160500Y62350000D02*
X31133800Y62350000D01*
X33171800Y64188000D02*
X32160500Y63176700D01*
X47571800Y64188000D02*
X33171800Y64188000D01*
X48133800Y64750000D02*
X47571800Y64188000D01*
X49160500Y64750000D02*
X48133800Y64750000D01*
X32160500Y62350000D02*
X32160500Y63176700D01*
X49160500Y64750000D02*
X49160500Y65576700D01*
X99748200Y58789000D02*
X100160500Y58376700D01*
X83572800Y58789000D02*
X99748200Y58789000D01*
X83160500Y58376700D02*
X83572800Y58789000D01*
X83160500Y57550000D02*
X83160500Y58376700D01*
X100160500Y57550000D02*
X100160500Y58376700D01*
X55995900Y63176700D02*
X65079900Y63176700D01*
X53595900Y65576700D02*
X55995900Y63176700D01*
X49160500Y65576700D02*
X53595900Y65576700D01*
X65133800Y63122800D02*
X65079900Y63176700D01*
X65133800Y62350000D02*
X65133800Y63122800D01*
X75345900Y58376700D02*
X83160500Y58376700D01*
X70545900Y63176700D02*
X75345900Y58376700D01*
X65079900Y63176700D02*
X70545900Y63176700D01*
X66160500Y62350000D02*
X65133800Y62350000D01*
%TO.N,Net-(D21-A)*%
X-36181400Y-2906300D02*
X-40127900Y-2906300D01*
X-35974100Y-2699000D02*
X-36181400Y-2906300D01*
X-34569500Y-3509900D02*
X-35974100Y-2699000D01*
X-40752000Y-3987200D02*
X-40127900Y-2906300D01*
%TO.N,Net-(D20-A)*%
X-56973400Y5003800D02*
X-56973400Y5886400D01*
X-56215700Y4246100D02*
X-56973400Y5003800D01*
X-56215700Y2254600D02*
X-56215700Y4246100D01*
X-55796000Y1834900D02*
X-56215700Y2254600D01*
X-55795900Y1834900D02*
X-55796000Y1834900D01*
X-56215700Y268200D02*
X-55795900Y1834900D01*
X-58179000Y6209400D02*
X-56973400Y5886400D01*
%TO.N,Net-(D19-A)*%
X-76967900Y4901700D02*
X-79889500Y7823300D01*
X-76444600Y4901700D02*
X-76967900Y4901700D01*
X-79889500Y8650000D02*
X-79889500Y7823300D01*
X-76444600Y3575000D02*
X-76444600Y4901700D01*
%TO.N,Net-(D18-A)*%
X-49046300Y22730100D02*
X-51389500Y25073300D01*
X-49046300Y20825000D02*
X-49046300Y22730100D01*
X-47944600Y20825000D02*
X-49046300Y20825000D01*
X-51389500Y25900000D02*
X-51389500Y25073300D01*
%TO.N,Net-(D17-A)*%
X-65342900Y24526700D02*
X-68389500Y27573300D01*
X-64944600Y24526700D02*
X-65342900Y24526700D01*
X-68389500Y28400000D02*
X-68389500Y27573300D01*
X-64944600Y23200000D02*
X-64944600Y24526700D01*
%TO.N,Net-(D16-A)*%
X-83046300Y27480100D02*
X-85389500Y29823300D01*
X-83046300Y25575000D02*
X-83046300Y27480100D01*
X-81944600Y25575000D02*
X-83046300Y25575000D01*
X-85389500Y30650000D02*
X-85389500Y29823300D01*
%TO.N,Net-(D15-A)*%
X-102389500Y28400000D02*
X-102389500Y27573300D01*
X-98944600Y23200000D02*
X-98944600Y24526700D01*
X-99908200Y24526700D02*
X-98944600Y24526700D01*
X-102389500Y27008000D02*
X-99908200Y24526700D01*
X-102389500Y27573300D02*
X-102389500Y27008000D01*
%TO.N,Net-(D14-A)*%
X-116342900Y19776700D02*
X-119389500Y22823300D01*
X-115944600Y19776700D02*
X-116342900Y19776700D01*
X-119389500Y23650000D02*
X-119389500Y22823300D01*
X-115944600Y18450000D02*
X-115944600Y19776700D01*
%TO.N,Net-(D13-A)*%
X-133233500Y19776700D02*
X-136327000Y22870200D01*
X-132944600Y19776700D02*
X-133233500Y19776700D01*
X-136327000Y23696900D02*
X-136327000Y22870200D01*
X-132944600Y18450000D02*
X-132944600Y19776700D01*
%TO.N,Net-(D12-A)*%
X-49046300Y39730000D02*
X-51389500Y42073200D01*
X-49046300Y37824900D02*
X-49046300Y39730000D01*
X-47944600Y37824900D02*
X-49046300Y37824900D01*
X-51389500Y42899900D02*
X-51389500Y42073200D01*
%TO.N,Net-(D11-A)*%
X-66046300Y42229600D02*
X-68389500Y44572800D01*
X-66046300Y40199500D02*
X-66046300Y42229600D01*
X-64944600Y40199500D02*
X-66046300Y40199500D01*
X-68389500Y45399500D02*
X-68389500Y44572800D01*
%TO.N,Net-(D10-A)*%
X-85389500Y47650100D02*
X-85389500Y46823400D01*
X-81944600Y42575100D02*
X-81944600Y43901800D01*
X-85311500Y46745400D02*
X-85389500Y46823400D01*
X-85311500Y46314400D02*
X-85311500Y46745400D01*
X-85311400Y46314400D02*
X-85311500Y46314400D01*
X-82898900Y43901900D02*
X-85311400Y46314400D01*
X-82898900Y43901800D02*
X-82898900Y43901900D01*
X-81944600Y43901800D02*
X-82898900Y43901800D01*
%TO.N,Net-(D9-A)*%
X-102389500Y45400000D02*
X-102389500Y44573300D01*
X-98944600Y40200000D02*
X-98944600Y41526700D01*
X-101991200Y44573300D02*
X-102389500Y44573300D01*
X-98944600Y41526700D02*
X-101991200Y44573300D01*
%TO.N,Net-(D8-A)*%
X-116342900Y36776700D02*
X-119389500Y39823300D01*
X-115944600Y36776700D02*
X-116342900Y36776700D01*
X-119389500Y40650000D02*
X-119389500Y39823300D01*
X-115944600Y35450000D02*
X-115944600Y36776700D01*
%TO.N,Net-(D7-A)*%
X-133280400Y36776700D02*
X-136327000Y39823300D01*
X-132944600Y36776700D02*
X-133280400Y36776700D01*
X-136327000Y40650000D02*
X-136327000Y39823300D01*
X-132944600Y35450000D02*
X-132944600Y36776700D01*
%TO.N,Net-(D6-A)*%
X-49046300Y56729600D02*
X-51389500Y59072800D01*
X-49046300Y54824500D02*
X-49046300Y56729600D01*
X-47944600Y54824500D02*
X-49046300Y54824500D01*
X-51389500Y59899500D02*
X-51389500Y59072800D01*
%TO.N,Net-(D5-A)*%
X-65342900Y58525800D02*
X-68389500Y61572400D01*
X-64944600Y58525800D02*
X-65342900Y58525800D01*
X-68389500Y62399100D02*
X-68389500Y61572400D01*
X-64944600Y57199100D02*
X-64944600Y58525800D01*
%TO.N,Net-(D4-A)*%
X-83046300Y61479900D02*
X-85389500Y63823100D01*
X-83046300Y59574800D02*
X-83046300Y61479900D01*
X-81944600Y59574800D02*
X-83046300Y59574800D01*
X-85389500Y64649800D02*
X-85389500Y63823100D01*
%TO.N,Net-(D3-A)*%
X-99342900Y58526700D02*
X-102389500Y61573300D01*
X-98944600Y58526700D02*
X-99342900Y58526700D01*
X-102389500Y62400000D02*
X-102389500Y61573300D01*
X-98944600Y57200000D02*
X-98944600Y58526700D01*
%TO.N,Net-(D2-A)*%
X-116342900Y53776700D02*
X-119389500Y56823300D01*
X-115944600Y53776700D02*
X-116342900Y53776700D01*
X-119389500Y57650000D02*
X-119389500Y56823300D01*
X-115944600Y52450000D02*
X-115944600Y53776700D01*
%TO.N,Net-(D1-A)*%
X-133342900Y53776700D02*
X-136389500Y56823300D01*
X-132944600Y53776700D02*
X-133342900Y53776700D01*
X-136389500Y57650000D02*
X-136389500Y56823300D01*
X-132944600Y52450000D02*
X-132944600Y53776700D01*
%TO.N,GND1*%
X-10604500Y41410000D02*
X-10604500Y42336700D01*
X-10604500Y42336700D02*
X-1375300Y42336700D01*
%TO.N,VBAT_R*%
X-6492100Y6738700D02*
X-8169100Y8415700D01*
X-6492100Y3354900D02*
X-6492100Y6738700D01*
X-6693200Y3153800D02*
X-6492100Y3354900D01*
%TO.N,ROW2_L*%
X-38400200Y57593000D02*
X-40576900Y57593000D01*
X-41011700Y58027800D02*
X-46442000Y58027800D01*
X-40576900Y57593000D02*
X-41011700Y58027800D01*
X-47839500Y25900000D02*
X-46442000Y25900000D01*
X-48686100Y27573300D02*
X-47839500Y26726700D01*
X-64839500Y27573300D02*
X-48686100Y27573300D01*
X-64839500Y28400000D02*
X-64839500Y27573300D01*
X-47839500Y25900000D02*
X-47839500Y26726700D01*
X-79389500Y29226700D02*
X-64839500Y29226700D01*
X-80812800Y30650000D02*
X-79389500Y29226700D01*
X-81839500Y30650000D02*
X-80812800Y30650000D01*
X-64839500Y28400000D02*
X-64839500Y29226700D01*
X-81915300Y31552500D02*
X-81839500Y31476700D01*
X-83491200Y31552500D02*
X-81915300Y31552500D01*
X-81839500Y30650000D02*
X-81839500Y31476700D01*
X-98839500Y28400000D02*
X-98839500Y27573300D01*
X-98839500Y27573300D02*
X-84960400Y27573300D01*
X-100769600Y27573300D02*
X-98839500Y27573300D01*
X-101419100Y26923800D02*
X-100769600Y27573300D01*
X-114767400Y23695400D02*
X-114812800Y23650000D01*
X-113826800Y23695400D02*
X-114767400Y23695400D01*
X-104262400Y28610800D02*
X-113826800Y28610800D01*
X-115326100Y23650000D02*
X-114812800Y23650000D01*
X-115326100Y23650000D02*
X-115839500Y23650000D01*
X-132526100Y24774500D02*
X-132777000Y24523600D01*
X-116137300Y24774500D02*
X-132526100Y24774500D01*
X-115839500Y24476700D02*
X-116137300Y24774500D01*
X-115839500Y23650000D02*
X-115839500Y24476700D01*
X-132777000Y23696900D02*
X-132777000Y24523600D01*
%TO.N,ROW3_L*%
X-53544300Y4967600D02*
X-53544300Y4967500D01*
X-53037000Y5474900D02*
X-53544300Y4967600D01*
X-52898300Y5474900D02*
X-53037000Y5474900D01*
X-38977000Y-912800D02*
X-38907600Y-952900D01*
X-54750000Y5290600D02*
X-53544300Y4967500D01*
X-76339500Y8650000D02*
X-75312800Y8650000D01*
X-74681700Y8018900D02*
X-52898300Y8018900D01*
X-75312800Y8650000D02*
X-74681700Y8018900D01*
%TO.N,ROW1_L*%
X-40707800Y60263900D02*
X-40576900Y60133000D01*
X-43252200Y60263900D02*
X-40707800Y60263900D01*
X-38400200Y60133000D02*
X-40576900Y60133000D01*
X-47839500Y42899900D02*
X-45815300Y42899900D01*
X-46393100Y44572800D02*
X-45815300Y43995000D01*
X-64839500Y44572800D02*
X-46393100Y44572800D01*
X-64839500Y45399500D02*
X-64839500Y44986200D01*
X-64839500Y44986200D02*
X-64839500Y44572800D01*
X-81839500Y47650100D02*
X-81839500Y47236800D01*
X-81839500Y47236800D02*
X-81839500Y46823400D01*
X-82536200Y46540100D02*
X-84650600Y46540100D01*
X-81839500Y47236800D02*
X-82536200Y46540100D01*
X-97757900Y45345100D02*
X-97812800Y45400000D01*
X-97289000Y45345100D02*
X-97757900Y45345100D01*
X-98839500Y45400000D02*
X-97812800Y45400000D01*
X-95009100Y43319300D02*
X-97289000Y43319300D01*
X-92708900Y45619500D02*
X-95009100Y43319300D01*
X-85502800Y45619500D02*
X-92708900Y45619500D01*
X-115839500Y40650000D02*
X-115839500Y41476700D01*
X-123829000Y41476700D02*
X-115839500Y41476700D01*
X-115509900Y41806300D02*
X-100149600Y41806300D01*
X-115839500Y41476700D02*
X-115509900Y41806300D01*
X-132478100Y41775600D02*
X-132777000Y41476700D01*
X-124127900Y41775600D02*
X-132478100Y41775600D01*
X-123829000Y41476700D02*
X-124127900Y41775600D01*
X-132777000Y40650000D02*
X-132777000Y41476700D01*
X-66225000Y46371700D02*
X-64839500Y44986200D01*
X-81387800Y46371700D02*
X-66225000Y46371700D01*
X-81839500Y46823400D02*
X-81387800Y46371700D01*
%TO.N,ROW0_L*%
X-47839500Y59899500D02*
X-47839500Y60726200D01*
X-38400200Y62673000D02*
X-40576900Y62673000D01*
X-64839500Y62399100D02*
X-63812800Y62399100D01*
X-47839500Y60726200D02*
X-47839500Y61624100D01*
X-41625800Y61624100D02*
X-47839500Y61624100D01*
X-40576900Y62673000D02*
X-41625800Y61624100D01*
X-63037800Y61624100D02*
X-63812800Y62399100D01*
X-47839500Y61624100D02*
X-63037800Y61624100D01*
X-97542600Y62670200D02*
X-97812800Y62400000D01*
X-97289000Y62670200D02*
X-97542600Y62670200D01*
X-98839500Y62400000D02*
X-97812800Y62400000D01*
X-91568400Y64023700D02*
X-97289000Y64023700D01*
X-90115600Y65476500D02*
X-91568400Y64023700D01*
X-81839500Y65476500D02*
X-90115600Y65476500D01*
X-81839500Y64649800D02*
X-81839500Y65476500D01*
X-117162700Y57353500D02*
X-116866200Y57650000D01*
X-118060200Y57353500D02*
X-117162700Y57353500D01*
X-115839500Y57650000D02*
X-116866200Y57650000D01*
X-81839500Y64649800D02*
X-81839500Y63597800D01*
X-65211500Y63597800D02*
X-64839500Y63225800D01*
X-81839500Y63597800D02*
X-65211500Y63597800D01*
X-64839500Y62399100D02*
X-64839500Y63225800D01*
X-132839500Y57650000D02*
X-131812800Y57650000D01*
X-131036700Y56873900D02*
X-131812800Y57650000D01*
X-126082000Y56873900D02*
X-131036700Y56873900D01*
%TO.N,COL2_R*%
X4134800Y52433000D02*
X6311500Y52433000D01*
X64562400Y57205000D02*
X63460700Y57205000D01*
X62359000Y56103300D02*
X61461900Y56103300D01*
X63460700Y57205000D02*
X62359000Y56103300D01*
X58102100Y54422600D02*
X43010300Y54422600D01*
X59782800Y56103300D02*
X58102100Y54422600D01*
X61461900Y56103300D02*
X59782800Y56103300D01*
X63288100Y40377600D02*
X63460700Y40205000D01*
X63145300Y40377600D02*
X63288100Y40377600D01*
X64562400Y40205000D02*
X63460700Y40205000D01*
X64562400Y23205000D02*
X63460700Y23205000D01*
X63460700Y23205000D02*
X63145300Y23205000D01*
X63145300Y13902300D02*
X45398600Y13902300D01*
X42062400Y3580000D02*
X45398600Y3580000D01*
X26063700Y51377500D02*
X41931300Y51377500D01*
X24587800Y52853400D02*
X26063700Y51377500D01*
X6731900Y52853400D02*
X24587800Y52853400D01*
X6311500Y52433000D02*
X6731900Y52853400D01*
%TO.N,COL3_R*%
X21833500Y273200D02*
X21413700Y1839900D01*
X22496000Y1839900D02*
X21413700Y1839900D01*
X22587700Y1931600D02*
X22496000Y1839900D01*
X25016900Y16844000D02*
X45571300Y16844000D01*
X47562400Y25580000D02*
X45571300Y25580000D01*
X46420500Y42620200D02*
X46460700Y42580000D01*
X45763500Y42620200D02*
X46420500Y42620200D01*
X47562400Y42580000D02*
X46460700Y42580000D01*
X46405800Y59525100D02*
X46460700Y59580000D01*
X45774000Y59525100D02*
X46405800Y59525100D01*
X47562400Y59580000D02*
X46460700Y59580000D01*
X46900900Y52827100D02*
X45763500Y52827100D01*
X4522600Y50280800D02*
X4134800Y49893000D01*
X6858700Y50280800D02*
X4522600Y50280800D01*
X6991200Y50148300D02*
X6858700Y50280800D01*
X18946100Y50148300D02*
X6991200Y50148300D01*
X19019100Y50221300D02*
X18946100Y50148300D01*
%TO.N,COL5_R*%
X2280600Y45727400D02*
X7253900Y45727400D01*
X13562400Y37830000D02*
X12460700Y37830000D01*
X12460700Y37830000D02*
X12269400Y37830000D01*
X8900900Y48077100D02*
X9474100Y48077100D01*
X12188600Y55090100D02*
X12453700Y54825000D01*
X12151100Y55090100D02*
X12188600Y55090100D01*
X13555400Y54825000D02*
X12453700Y54825000D01*
X12174000Y20543300D02*
X12460700Y20830000D01*
X12154600Y20543300D02*
X12174000Y20543300D01*
X13562400Y20830000D02*
X12460700Y20830000D01*
X8843200Y48134200D02*
X7253900Y48134200D01*
%TO.N,COL1_L*%
X-120944600Y33916300D02*
X-120944600Y35450000D01*
X-119537300Y52144400D02*
X-119842900Y52450000D01*
X-118800200Y52144400D02*
X-119537300Y52144400D01*
X-120944600Y52450000D02*
X-119842900Y52450000D01*
X-23160200Y55053000D02*
X-24386900Y55053000D01*
X-35912500Y56279700D02*
X-43957800Y56279700D01*
X-35758800Y56433400D02*
X-35912500Y56279700D01*
X-25767300Y56433400D02*
X-35758800Y56433400D01*
X-24386900Y55053000D02*
X-25767300Y56433400D01*
X-93358500Y51123300D02*
X-118800200Y51123300D01*
X-91891700Y52590100D02*
X-93358500Y51123300D01*
X-74997700Y52590100D02*
X-91891700Y52590100D01*
X-74930000Y52522400D02*
X-74997700Y52590100D01*
X-59243800Y52522400D02*
X-74930000Y52522400D01*
X-58782200Y52984000D02*
X-59243800Y52522400D01*
X-43957800Y52984000D02*
X-58782200Y52984000D01*
X-122478700Y18882400D02*
X-122046300Y18450000D01*
X-122574100Y18882400D02*
X-122478700Y18882400D01*
X-120944600Y18450000D02*
X-122046300Y18450000D01*
X-119544500Y45516700D02*
X-118800200Y46261000D01*
X-133349200Y45516700D02*
X-119544500Y45516700D01*
%TO.N,COL0_R*%
X97420500Y18495200D02*
X97460700Y18455000D01*
X96763500Y18495200D02*
X97420500Y18495200D01*
X98562400Y18455000D02*
X97460700Y18455000D01*
X102833400Y25509600D02*
X95601700Y25509600D01*
X103900900Y26577100D02*
X102833400Y25509600D01*
X99974700Y52144400D02*
X99664100Y52455000D01*
X100413100Y52144400D02*
X99974700Y52144400D01*
X98562400Y52455000D02*
X99664100Y52455000D01*
X103900900Y45327100D02*
X100413100Y45327100D01*
X98562400Y35455000D02*
X98562400Y36781700D01*
X98562400Y36781700D02*
X100413100Y36781700D01*
X-8651800Y48579700D02*
X-9878500Y47353000D01*
X6385000Y48579700D02*
X-8651800Y48579700D01*
X6608600Y48803300D02*
X6385000Y48579700D01*
X22551200Y48803300D02*
X6608600Y48803300D01*
X23936400Y47418100D02*
X22551200Y48803300D01*
X32764500Y47418100D02*
X23936400Y47418100D01*
X-11105200Y47353000D02*
X-9878500Y47353000D01*
X59265900Y50431700D02*
X100413100Y50431700D01*
X58564000Y49729800D02*
X59265900Y50431700D01*
X42749300Y49729800D02*
X58564000Y49729800D01*
X40437600Y47418100D02*
X42749300Y49729800D01*
X33580600Y47418100D02*
X40437600Y47418100D01*
%TO.N,COL5_L*%
X-55272400Y36598800D02*
X-56174000Y36598800D01*
X-54046300Y37824900D02*
X-55272400Y36598800D01*
X-54173200Y20951900D02*
X-54046300Y20825000D01*
X-55229500Y20951900D02*
X-54173200Y20951900D01*
X-52944600Y20825000D02*
X-54046300Y20825000D01*
X-52944600Y37824900D02*
X-54046300Y37824900D01*
X-54433300Y38211900D02*
X-54046300Y37824900D01*
X-55229500Y38211900D02*
X-54433300Y38211900D01*
X-46263900Y46149200D02*
X-55229500Y46149200D01*
X-44898400Y44783700D02*
X-46263900Y46149200D01*
X-27614700Y44783700D02*
X-44898400Y44783700D01*
X-57613000Y47808300D02*
X-55229500Y47808300D01*
X-54110500Y54760300D02*
X-54046300Y54824500D01*
X-55100000Y54760300D02*
X-54110500Y54760300D01*
X-52944600Y54824500D02*
X-54046300Y54824500D01*
%TO.N,VBAT_L*%
X-25635800Y6546200D02*
X-26508800Y7050200D01*
X-26508800Y7050200D02*
X-28115800Y7050200D01*
X-23614500Y41550000D02*
X-26537400Y41550000D01*
X-31072500Y17183700D02*
X-26537400Y17183700D01*
%TO.N,BAT+_L*%
X-26385800Y5247100D02*
X-27258700Y5751100D01*
X-27258800Y5751000D02*
X-27520200Y5751000D01*
X-27258700Y5751100D02*
X-27258800Y5751000D01*
X-28934600Y59379400D02*
X-35225200Y59379400D01*
%TO.N,COL4_R*%
X4134800Y47353000D02*
X6311500Y47353000D01*
X6311500Y47353000D02*
X6556900Y47353000D01*
X340500Y-3509900D02*
X1069200Y-4771900D01*
X1915000Y-3926100D02*
X5012000Y-3926100D01*
X1069200Y-4771900D02*
X1915000Y-3926100D01*
X28849000Y40816700D02*
X29460700Y40205000D01*
X28462400Y40816700D02*
X28849000Y40816700D01*
X30562400Y40205000D02*
X29460700Y40205000D01*
X24336400Y50217500D02*
X23968300Y49849400D01*
X28386200Y50217500D02*
X24336400Y50217500D01*
X29396500Y57140800D02*
X29460700Y57205000D01*
X28638100Y57140800D02*
X29396500Y57140800D01*
X30562400Y57205000D02*
X29460700Y57205000D01*
X28387000Y50479400D02*
X26594600Y50479400D01*
X23713500Y49594600D02*
X6556900Y49594600D01*
X23968300Y49849400D02*
X23713500Y49594600D01*
%TD*%
%TA.AperFunction,Conductor*%
%TO.N,COL1_R*%
G36*
X5660575Y55646328D02*
G01*
X6783518Y54676461D01*
X6787539Y54668460D01*
X6784725Y54659958D01*
X6784143Y54659333D01*
X6618369Y54493559D01*
X6613415Y54490613D01*
X5266170Y54092006D01*
X5257265Y54092945D01*
X5255633Y54094017D01*
X4149377Y54961719D01*
X4144984Y54969520D01*
X4147393Y54978145D01*
X4151836Y54981612D01*
X5648165Y55648162D01*
X5657117Y55648397D01*
X5660575Y55646328D01*
G37*
%TD.AperFunction*%
%TD*%
%TA.AperFunction,Conductor*%
%TO.N,COL4_L*%
G36*
X-23654544Y48172855D02*
G01*
X-23163558Y47439509D01*
X-23161803Y47430728D01*
X-23163558Y47426491D01*
X-23654544Y46693146D01*
X-23661994Y46688178D01*
X-23669380Y46689132D01*
X-24936321Y47304800D01*
X-24942264Y47311498D01*
X-24942907Y47315323D01*
X-24942907Y47550678D01*
X-24939480Y47558951D01*
X-24936324Y47561200D01*
X-23669379Y48176870D01*
X-23660441Y48177403D01*
X-23654544Y48172855D01*
G37*
%TD.AperFunction*%
%TD*%
%TA.AperFunction,Conductor*%
%TO.N,COL3_L*%
G36*
X-23653722Y50711461D02*
G01*
X-23652821Y50710285D01*
X-23162197Y49977744D01*
X-23160440Y49968963D01*
X-23160444Y49968943D01*
X-23333274Y49102857D01*
X-23338254Y49095415D01*
X-23347038Y49093673D01*
X-23348067Y49093928D01*
X-24688816Y49490613D01*
X-24693770Y49493559D01*
X-24859585Y49659374D01*
X-24863012Y49667647D01*
X-24859585Y49675920D01*
X-24859028Y49676441D01*
X-23670228Y50712595D01*
X-23661741Y50715447D01*
X-23653722Y50711461D01*
G37*
%TD.AperFunction*%
%TD*%
%TA.AperFunction,Conductor*%
%TO.N,COL2_L*%
G36*
X-23339162Y53391134D02*
G01*
X-23333529Y53384173D01*
X-23333274Y53383144D01*
X-23160444Y52517058D01*
X-23162186Y52508274D01*
X-23162197Y52508257D01*
X-23652821Y51775716D01*
X-23660272Y51770749D01*
X-23669053Y51772506D01*
X-23670229Y51773407D01*
X-23792993Y51880408D01*
X-24859000Y52809536D01*
X-24862985Y52817553D01*
X-24860132Y52826041D01*
X-24859600Y52826612D01*
X-24693768Y52992444D01*
X-24688818Y52995388D01*
X-23348065Y53392073D01*
X-23339162Y53391134D01*
G37*
%TD.AperFunction*%
%TD*%
%TA.AperFunction,Conductor*%
%TO.N,COL0_L*%
G36*
X-39522666Y48313056D02*
G01*
X-39521037Y48311986D01*
X-38778461Y47729540D01*
X-38414779Y47444283D01*
X-38410385Y47436481D01*
X-38412794Y47427856D01*
X-38417239Y47424389D01*
X-39913567Y46757841D01*
X-39922519Y46757605D01*
X-39925976Y46759674D01*
X-40699619Y47427856D01*
X-41048920Y47729541D01*
X-41052940Y47737541D01*
X-41050126Y47746043D01*
X-41049558Y47746654D01*
X-40883768Y47912444D01*
X-40878818Y47915388D01*
X-39531569Y48313995D01*
X-39522666Y48313056D01*
G37*
%TD.AperFunction*%
%TD*%
%TA.AperFunction,Conductor*%
%TO.N,BAT+_R*%
G36*
X-7459038Y4454828D02*
G01*
X-7451092Y4450701D01*
X-7448389Y4442164D01*
X-7449448Y4438215D01*
X-7697910Y3906882D01*
X-7704518Y3900839D01*
X-7709066Y3900151D01*
X-8110449Y3919314D01*
X-8118549Y3923132D01*
X-8120023Y3925151D01*
X-8238640Y4130589D01*
X-8239809Y4139467D01*
X-8238908Y4141799D01*
X-8054820Y4499013D01*
X-8047984Y4504797D01*
X-8043413Y4505310D01*
X-7459038Y4454828D01*
G37*
%TD.AperFunction*%
%TD*%
%TA.AperFunction,Conductor*%
%TO.N,Net-(D42-A)*%
G36*
X7412539Y-5383672D02*
G01*
X7419649Y-5389116D01*
X7420826Y-5397993D01*
X7420820Y-5398015D01*
X7242631Y-6060437D01*
X7237173Y-6067536D01*
X7229934Y-6069014D01*
X6625308Y-5996182D01*
X6617504Y-5991790D01*
X6616575Y-5990416D01*
X6497417Y-5784048D01*
X6496248Y-5775170D01*
X6496784Y-5773613D01*
X6736017Y-5213520D01*
X6742417Y-5207260D01*
X6749790Y-5206814D01*
X7412539Y-5383672D01*
G37*
%TD.AperFunction*%
%TD*%
%TA.AperFunction,Conductor*%
%TO.N,Net-(D41-A)*%
G36*
X25459883Y6604511D02*
G01*
X25876356Y6363487D01*
X26053584Y6260920D01*
X26059028Y6253811D01*
X26058582Y6246435D01*
X25831695Y5681238D01*
X25825433Y5674837D01*
X25823865Y5674296D01*
X25593683Y5612629D01*
X25584805Y5613798D01*
X25583436Y5614724D01*
X25104406Y5990766D01*
X25100015Y5998569D01*
X25101492Y6005805D01*
X25443909Y6600214D01*
X25451007Y6605670D01*
X25459883Y6604511D01*
G37*
%TD.AperFunction*%
%TD*%
%TA.AperFunction,Conductor*%
%TO.N,Net-(D40-A)*%
G36*
X47118764Y8742720D02*
G01*
X47426141Y8434728D01*
X47603338Y8257176D01*
X47606757Y8248899D01*
X47604417Y8241891D01*
X47239010Y7754680D01*
X47231305Y7750118D01*
X47229650Y7750000D01*
X46991350Y7750000D01*
X46983077Y7753427D01*
X46981990Y7754680D01*
X46616582Y8241891D01*
X46614360Y8250566D01*
X46617660Y8257175D01*
X47102219Y8742704D01*
X47110488Y8746138D01*
X47118764Y8742720D01*
G37*
%TD.AperFunction*%
%TD*%
%TA.AperFunction,Conductor*%
%TO.N,ROW3_R*%
G36*
X6445691Y-1703817D02*
G01*
X6453495Y-1708209D01*
X6454424Y-1709583D01*
X6573582Y-1915951D01*
X6574751Y-1924829D01*
X6574210Y-1926397D01*
X6334983Y-2486477D01*
X6328582Y-2492739D01*
X6321206Y-2493185D01*
X5658460Y-2316327D01*
X5651350Y-2310883D01*
X5650173Y-2302006D01*
X5650179Y-2301984D01*
X5828369Y-1639560D01*
X5833826Y-1632463D01*
X5841064Y-1630985D01*
X6445691Y-1703817D01*
G37*
%TD.AperFunction*%
%TD*%
%TA.AperFunction,Conductor*%
%TO.N,ROW3_R*%
G36*
X21223441Y5989373D02*
G01*
X22006583Y5696598D01*
X22013131Y5690492D01*
X22013444Y5681543D01*
X22011513Y5678198D01*
X21479686Y5033064D01*
X21471779Y5028860D01*
X21466300Y5029648D01*
X20899663Y5257065D01*
X20893262Y5263327D01*
X20892720Y5264895D01*
X20831038Y5495073D01*
X20832206Y5503951D01*
X20833136Y5505325D01*
X20978762Y5690854D01*
X21210145Y5985638D01*
X21217947Y5990029D01*
X21223441Y5989373D01*
G37*
%TD.AperFunction*%
%TD*%
%TA.AperFunction,Conductor*%
%TO.N,ROW3_R*%
G36*
X42867467Y9245031D02*
G01*
X43548145Y8759525D01*
X43552891Y8751931D01*
X43550876Y8743206D01*
X43548145Y8740475D01*
X42867467Y8254970D01*
X42858742Y8252955D01*
X42853653Y8255135D01*
X42365180Y8621490D01*
X42360618Y8629195D01*
X42360500Y8630850D01*
X42360500Y8869150D01*
X42363927Y8877423D01*
X42365180Y8878510D01*
X42853655Y9244867D01*
X42862328Y9247088D01*
X42867467Y9245031D01*
G37*
%TD.AperFunction*%
%TD*%
%TA.AperFunction,Conductor*%
%TO.N,ROW3_R*%
G36*
X22575664Y6351525D02*
G01*
X23142324Y6124064D01*
X23148726Y6117802D01*
X23149267Y6116234D01*
X23210936Y5886052D01*
X23209767Y5877174D01*
X23208838Y5875799D01*
X22831823Y5395537D01*
X22824019Y5391146D01*
X22818524Y5391803D01*
X22516759Y5504623D01*
X22035382Y5684594D01*
X22028833Y5690701D01*
X22028520Y5699650D01*
X22030451Y5702995D01*
X22562283Y6348110D01*
X22570188Y6352312D01*
X22575664Y6351525D01*
G37*
%TD.AperFunction*%
%TD*%
%TA.AperFunction,Conductor*%
%TO.N,ROW3_R*%
G36*
X5637539Y-2309282D02*
G01*
X5644649Y-2314726D01*
X5645826Y-2323603D01*
X5645820Y-2323625D01*
X5467628Y-2986043D01*
X5462170Y-2993142D01*
X5454931Y-2994620D01*
X4850304Y-2921784D01*
X4842500Y-2917392D01*
X4841571Y-2916018D01*
X4722413Y-2709650D01*
X4721244Y-2700772D01*
X4721780Y-2699215D01*
X4961014Y-2139126D01*
X4967415Y-2132866D01*
X4974787Y-2132420D01*
X5637539Y-2309282D01*
G37*
%TD.AperFunction*%
%TD*%
%TA.AperFunction,Conductor*%
%TO.N,Net-(D39-A)*%
G36*
X18718764Y25942720D02*
G01*
X19026141Y25634728D01*
X19203338Y25457176D01*
X19206757Y25448899D01*
X19204417Y25441891D01*
X18839010Y24954680D01*
X18831305Y24950118D01*
X18829650Y24950000D01*
X18591350Y24950000D01*
X18583077Y24953427D01*
X18581990Y24954680D01*
X18216582Y25441891D01*
X18214360Y25450566D01*
X18217660Y25457175D01*
X18702219Y25942704D01*
X18710488Y25946138D01*
X18718764Y25942720D01*
G37*
%TD.AperFunction*%
%TD*%
%TA.AperFunction,Conductor*%
%TO.N,Net-(D38-A)*%
G36*
X35718764Y28342720D02*
G01*
X36026141Y28034728D01*
X36203338Y27857176D01*
X36206757Y27848899D01*
X36204417Y27841891D01*
X35839010Y27354680D01*
X35831305Y27350118D01*
X35829650Y27350000D01*
X35591350Y27350000D01*
X35583077Y27353427D01*
X35581990Y27354680D01*
X35216582Y27841891D01*
X35214360Y27850566D01*
X35217660Y27857175D01*
X35702219Y28342704D01*
X35710488Y28346138D01*
X35718764Y28342720D01*
G37*
%TD.AperFunction*%
%TD*%
%TA.AperFunction,Conductor*%
%TO.N,Net-(D37-A)*%
G36*
X52718764Y30742720D02*
G01*
X53026141Y30434728D01*
X53203338Y30257176D01*
X53206757Y30248899D01*
X53204417Y30241891D01*
X52839010Y29754680D01*
X52831305Y29750118D01*
X52829650Y29750000D01*
X52591350Y29750000D01*
X52583077Y29753427D01*
X52581990Y29754680D01*
X52216582Y30241891D01*
X52214360Y30250566D01*
X52217660Y30257175D01*
X52702219Y30742704D01*
X52710488Y30746138D01*
X52718764Y30742720D01*
G37*
%TD.AperFunction*%
%TD*%
%TA.AperFunction,Conductor*%
%TO.N,Net-(D36-A)*%
G36*
X69718764Y28342720D02*
G01*
X70026141Y28034728D01*
X70203338Y27857176D01*
X70206757Y27848899D01*
X70204417Y27841891D01*
X69839010Y27354680D01*
X69831305Y27350118D01*
X69829650Y27350000D01*
X69591350Y27350000D01*
X69583077Y27353427D01*
X69581990Y27354680D01*
X69216582Y27841891D01*
X69214360Y27850566D01*
X69217660Y27857175D01*
X69702219Y28342704D01*
X69710488Y28346138D01*
X69718764Y28342720D01*
G37*
%TD.AperFunction*%
%TD*%
%TA.AperFunction,Conductor*%
%TO.N,Net-(D35-A)*%
G36*
X86718764Y23542720D02*
G01*
X87026141Y23234728D01*
X87203338Y23057176D01*
X87206757Y23048899D01*
X87204417Y23041891D01*
X86839010Y22554680D01*
X86831305Y22550118D01*
X86829650Y22550000D01*
X86591350Y22550000D01*
X86583077Y22553427D01*
X86581990Y22554680D01*
X86216582Y23041891D01*
X86214360Y23050566D01*
X86217660Y23057175D01*
X86702219Y23542704D01*
X86710488Y23546138D01*
X86718764Y23542720D01*
G37*
%TD.AperFunction*%
%TD*%
%TA.AperFunction,Conductor*%
%TO.N,Net-(D34-A)*%
G36*
X103718764Y23542720D02*
G01*
X104026141Y23234728D01*
X104203338Y23057176D01*
X104206757Y23048899D01*
X104204417Y23041891D01*
X103839010Y22554680D01*
X103831305Y22550118D01*
X103829650Y22550000D01*
X103591350Y22550000D01*
X103583077Y22553427D01*
X103581990Y22554680D01*
X103216582Y23041891D01*
X103214360Y23050566D01*
X103217660Y23057175D01*
X103702219Y23542704D01*
X103710488Y23546138D01*
X103718764Y23542720D01*
G37*
%TD.AperFunction*%
%TD*%
%TA.AperFunction,Conductor*%
%TO.N,ROW2_R*%
G36*
X14467467Y26445031D02*
G01*
X15148145Y25959525D01*
X15152891Y25951931D01*
X15150876Y25943206D01*
X15148145Y25940475D01*
X14467467Y25454970D01*
X14458742Y25452955D01*
X14453653Y25455135D01*
X13965180Y25821490D01*
X13960618Y25829195D01*
X13960500Y25830850D01*
X13960500Y26069150D01*
X13963927Y26077423D01*
X13965180Y26078510D01*
X14453655Y26444867D01*
X14462328Y26447088D01*
X14467467Y26445031D01*
G37*
%TD.AperFunction*%
%TD*%
%TA.AperFunction,Conductor*%
%TO.N,ROW2_R*%
G36*
X31467769Y28774035D02*
G01*
X31469599Y28772917D01*
X32146106Y28359926D01*
X32151382Y28352691D01*
X32149996Y28343844D01*
X32146812Y28340421D01*
X31467705Y27855149D01*
X31458982Y27853127D01*
X31453588Y27855537D01*
X31100149Y28138669D01*
X31099191Y28139527D01*
X30931787Y28306931D01*
X30928360Y28315204D01*
X30931787Y28323477D01*
X30932407Y28324054D01*
X31454045Y28772918D01*
X31462549Y28775715D01*
X31467769Y28774035D01*
G37*
%TD.AperFunction*%
%TD*%
%TA.AperFunction,Conductor*%
%TO.N,ROW2_R*%
G36*
X15202926Y26979323D02*
G01*
X15203461Y26978821D01*
X15371467Y26810815D01*
X15720208Y26458820D01*
X15723597Y26450531D01*
X15720132Y26442274D01*
X15719625Y26441801D01*
X15168590Y25957033D01*
X15160115Y25954141D01*
X15152078Y25958089D01*
X15152067Y25958101D01*
X14727350Y26442265D01*
X14724470Y26450745D01*
X14727368Y26457716D01*
X15186415Y26978288D01*
X15194455Y26982225D01*
X15202926Y26979323D01*
G37*
%TD.AperFunction*%
%TD*%
%TA.AperFunction,Conductor*%
%TO.N,ROW2_R*%
G36*
X32202926Y29379323D02*
G01*
X32203461Y29378821D01*
X32371467Y29210815D01*
X32720208Y28858820D01*
X32723597Y28850531D01*
X32720132Y28842274D01*
X32719625Y28841801D01*
X32168590Y28357033D01*
X32160115Y28354141D01*
X32152078Y28358089D01*
X32152067Y28358101D01*
X31727350Y28842265D01*
X31724470Y28850745D01*
X31727368Y28857716D01*
X32186415Y29378288D01*
X32194455Y29382225D01*
X32202926Y29379323D01*
G37*
%TD.AperFunction*%
%TD*%
%TA.AperFunction,Conductor*%
%TO.N,ROW2_R*%
G36*
X48467769Y31174035D02*
G01*
X48469599Y31172917D01*
X49146106Y30759926D01*
X49151382Y30752691D01*
X49149996Y30743844D01*
X49146812Y30740421D01*
X48467705Y30255149D01*
X48458982Y30253127D01*
X48453588Y30255537D01*
X48100149Y30538669D01*
X48099191Y30539527D01*
X47931787Y30706931D01*
X47928360Y30715204D01*
X47931787Y30723477D01*
X47932407Y30724054D01*
X48454045Y31172918D01*
X48462549Y31175715D01*
X48467769Y31174035D01*
G37*
%TD.AperFunction*%
%TD*%
%TA.AperFunction,Conductor*%
%TO.N,ROW2_R*%
G36*
X65467467Y28845031D02*
G01*
X66148145Y28359525D01*
X66152891Y28351931D01*
X66150876Y28343206D01*
X66148145Y28340475D01*
X65467467Y27854970D01*
X65458742Y27852955D01*
X65453653Y27855135D01*
X64965180Y28221490D01*
X64960618Y28229195D01*
X64960500Y28230850D01*
X64960500Y28469150D01*
X64963927Y28477423D01*
X64965180Y28478510D01*
X65453655Y28844867D01*
X65462328Y28847088D01*
X65467467Y28845031D01*
G37*
%TD.AperFunction*%
%TD*%
%TA.AperFunction,Conductor*%
%TO.N,ROW2_R*%
G36*
X49509935Y31686387D02*
G01*
X49511877Y31679932D01*
X49511877Y31451700D01*
X49511876Y31451700D01*
X49651667Y31370823D01*
X49844772Y31259100D01*
X49850216Y31251992D01*
X49849039Y31243115D01*
X49845706Y31239449D01*
X49169370Y30757041D01*
X49160645Y30755026D01*
X49153051Y30759772D01*
X49152815Y30760116D01*
X48835542Y31240245D01*
X48833840Y31249036D01*
X48838846Y31256451D01*
X49493723Y31689691D01*
X49502512Y31691397D01*
X49509935Y31686387D01*
G37*
%TD.AperFunction*%
%TD*%
%TA.AperFunction,Conductor*%
%TO.N,ROW2_R*%
G36*
X66331330Y29284946D02*
G01*
X66333800Y29277756D01*
X66333800Y29051700D01*
X66758732Y28857837D01*
X66764837Y28851286D01*
X66764521Y28842337D01*
X66761247Y28838106D01*
X66168587Y28357371D01*
X66160003Y28354821D01*
X66152129Y28359087D01*
X65761444Y28840733D01*
X65758894Y28849317D01*
X65763160Y28857191D01*
X65763265Y28857275D01*
X66314911Y29286987D01*
X66323543Y29289367D01*
X66331330Y29284946D01*
G37*
%TD.AperFunction*%
%TD*%
%TA.AperFunction,Conductor*%
%TO.N,ROW2_R*%
G36*
X100134084Y24578821D02*
G01*
X100134582Y24578290D01*
X100593629Y24057718D01*
X100596531Y24049248D01*
X100593649Y24042265D01*
X100168932Y23558101D01*
X100160901Y23554142D01*
X100152421Y23557022D01*
X100152409Y23557033D01*
X99601374Y24041801D01*
X99597426Y24049838D01*
X99600318Y24058313D01*
X99600767Y24058795D01*
X99949571Y24410853D01*
X100117539Y24578822D01*
X100125811Y24582248D01*
X100134084Y24578821D01*
G37*
%TD.AperFunction*%
%TD*%
%TA.AperFunction,Conductor*%
%TO.N,ROW2_R*%
G36*
X83287923Y24546573D02*
G01*
X83289010Y24545320D01*
X83654417Y24058110D01*
X83656639Y24049435D01*
X83653338Y24042825D01*
X83168781Y23557298D01*
X83160512Y23553863D01*
X83152235Y23557282D01*
X83152219Y23557298D01*
X82667661Y24042825D01*
X82664242Y24051102D01*
X82666582Y24058110D01*
X83031990Y24545320D01*
X83039695Y24549882D01*
X83041350Y24550000D01*
X83279650Y24550000D01*
X83287923Y24546573D01*
G37*
%TD.AperFunction*%
%TD*%
%TA.AperFunction,Conductor*%
%TO.N,Net-(D33-A)*%
G36*
X18718764Y42942720D02*
G01*
X19026141Y42634728D01*
X19203338Y42457176D01*
X19206757Y42448899D01*
X19204417Y42441891D01*
X18839010Y41954680D01*
X18831305Y41950118D01*
X18829650Y41950000D01*
X18591350Y41950000D01*
X18583077Y41953427D01*
X18581990Y41954680D01*
X18216582Y42441891D01*
X18214360Y42450566D01*
X18217660Y42457175D01*
X18702219Y42942704D01*
X18710488Y42946138D01*
X18718764Y42942720D01*
G37*
%TD.AperFunction*%
%TD*%
%TA.AperFunction,Conductor*%
%TO.N,Net-(D32-A)*%
G36*
X35718764Y45342720D02*
G01*
X36026141Y45034728D01*
X36203338Y44857176D01*
X36206757Y44848899D01*
X36204417Y44841891D01*
X35839010Y44354680D01*
X35831305Y44350118D01*
X35829650Y44350000D01*
X35591350Y44350000D01*
X35583077Y44353427D01*
X35581990Y44354680D01*
X35216582Y44841891D01*
X35214360Y44850566D01*
X35217660Y44857175D01*
X35702219Y45342704D01*
X35710488Y45346138D01*
X35718764Y45342720D01*
G37*
%TD.AperFunction*%
%TD*%
%TA.AperFunction,Conductor*%
%TO.N,Net-(D31-A)*%
G36*
X52718764Y47742720D02*
G01*
X53026141Y47434728D01*
X53203338Y47257176D01*
X53206757Y47248899D01*
X53204417Y47241891D01*
X52839010Y46754680D01*
X52831305Y46750118D01*
X52829650Y46750000D01*
X52591350Y46750000D01*
X52583077Y46753427D01*
X52581990Y46754680D01*
X52216582Y47241891D01*
X52214360Y47250566D01*
X52217660Y47257175D01*
X52702219Y47742704D01*
X52710488Y47746138D01*
X52718764Y47742720D01*
G37*
%TD.AperFunction*%
%TD*%
%TA.AperFunction,Conductor*%
%TO.N,Net-(D30-A)*%
G36*
X69718764Y45342720D02*
G01*
X70026141Y45034728D01*
X70203338Y44857176D01*
X70206757Y44848899D01*
X70204417Y44841891D01*
X69839010Y44354680D01*
X69831305Y44350118D01*
X69829650Y44350000D01*
X69591350Y44350000D01*
X69583077Y44353427D01*
X69581990Y44354680D01*
X69216582Y44841891D01*
X69214360Y44850566D01*
X69217660Y44857175D01*
X69702219Y45342704D01*
X69710488Y45346138D01*
X69718764Y45342720D01*
G37*
%TD.AperFunction*%
%TD*%
%TA.AperFunction,Conductor*%
%TO.N,Net-(D29-A)*%
G36*
X86718764Y40542720D02*
G01*
X87026141Y40234728D01*
X87203338Y40057176D01*
X87206757Y40048899D01*
X87204417Y40041891D01*
X86839010Y39554680D01*
X86831305Y39550118D01*
X86829650Y39550000D01*
X86591350Y39550000D01*
X86583077Y39553427D01*
X86581990Y39554680D01*
X86216582Y40041891D01*
X86214360Y40050566D01*
X86217660Y40057175D01*
X86702219Y40542704D01*
X86710488Y40546138D01*
X86718764Y40542720D01*
G37*
%TD.AperFunction*%
%TD*%
%TA.AperFunction,Conductor*%
%TO.N,Net-(D28-A)*%
G36*
X103718764Y40542720D02*
G01*
X104026141Y40234728D01*
X104203338Y40057176D01*
X104206757Y40048899D01*
X104204417Y40041891D01*
X103839010Y39554680D01*
X103831305Y39550118D01*
X103829650Y39550000D01*
X103591350Y39550000D01*
X103583077Y39553427D01*
X103581990Y39554680D01*
X103216582Y40041891D01*
X103214360Y40050566D01*
X103217660Y40057175D01*
X103702219Y40542704D01*
X103710488Y40546138D01*
X103718764Y40542720D01*
G37*
%TD.AperFunction*%
%TD*%
%TA.AperFunction,Conductor*%
%TO.N,ROW1_R*%
G36*
X14468518Y43444259D02*
G01*
X15145127Y42959794D01*
X15149859Y42952191D01*
X15147829Y42943470D01*
X15144225Y42940183D01*
X14473833Y42547863D01*
X14464962Y42546642D01*
X14457826Y42552052D01*
X14456603Y42555006D01*
X14344729Y42984153D01*
X14344728Y42984154D01*
X14344727Y42984156D01*
X14176275Y43152607D01*
X14172848Y43160880D01*
X14176274Y43169152D01*
X14453485Y43443070D01*
X14461777Y43446446D01*
X14468518Y43444259D01*
G37*
%TD.AperFunction*%
%TD*%
%TA.AperFunction,Conductor*%
%TO.N,ROW1_R*%
G36*
X14468509Y43444293D02*
G01*
X14663511Y43305344D01*
X15080719Y43008059D01*
X15146142Y42961442D01*
X15150891Y42953851D01*
X15148880Y42945124D01*
X15145052Y42941696D01*
X14474453Y42567616D01*
X14465558Y42566579D01*
X14458535Y42572134D01*
X14457292Y42575480D01*
X14368635Y43008059D01*
X14200186Y43176508D01*
X14196759Y43184781D01*
X14200186Y43193054D01*
X14200240Y43193108D01*
X14453502Y43443093D01*
X14461795Y43446465D01*
X14468509Y43444293D01*
G37*
%TD.AperFunction*%
%TD*%
%TA.AperFunction,Conductor*%
%TO.N,ROW1_R*%
G36*
X31467769Y45774035D02*
G01*
X31469599Y45772917D01*
X32146106Y45359926D01*
X32151382Y45352691D01*
X32149996Y45343844D01*
X32146812Y45340421D01*
X31467705Y44855149D01*
X31458982Y44853127D01*
X31453588Y44855537D01*
X31100149Y45138669D01*
X31099191Y45139527D01*
X30931787Y45306931D01*
X30928360Y45315204D01*
X30931787Y45323477D01*
X30932407Y45324054D01*
X31454045Y45772918D01*
X31462549Y45775715D01*
X31467769Y45774035D01*
G37*
%TD.AperFunction*%
%TD*%
%TA.AperFunction,Conductor*%
%TO.N,ROW1_R*%
G36*
X32202926Y46379323D02*
G01*
X32203461Y46378821D01*
X32371467Y46210815D01*
X32720208Y45858820D01*
X32723597Y45850531D01*
X32720132Y45842274D01*
X32719625Y45841801D01*
X32168590Y45357033D01*
X32160115Y45354141D01*
X32152078Y45358089D01*
X32152067Y45358101D01*
X31727350Y45842265D01*
X31724470Y45850745D01*
X31727368Y45857716D01*
X32186415Y46378288D01*
X32194455Y46382225D01*
X32202926Y46379323D01*
G37*
%TD.AperFunction*%
%TD*%
%TA.AperFunction,Conductor*%
%TO.N,ROW1_R*%
G36*
X83287923Y41546573D02*
G01*
X83289010Y41545320D01*
X83654417Y41058110D01*
X83656639Y41049435D01*
X83653338Y41042825D01*
X83168781Y40557298D01*
X83160512Y40553863D01*
X83152235Y40557282D01*
X83152219Y40557298D01*
X82667661Y41042825D01*
X82664242Y41051102D01*
X82666582Y41058110D01*
X83031990Y41545320D01*
X83039695Y41549882D01*
X83041350Y41550000D01*
X83279650Y41550000D01*
X83287923Y41546573D01*
G37*
%TD.AperFunction*%
%TD*%
%TA.AperFunction,Conductor*%
%TO.N,ROW1_R*%
G36*
X100134084Y41578821D02*
G01*
X100134582Y41578290D01*
X100593629Y41057718D01*
X100596531Y41049248D01*
X100593649Y41042265D01*
X100168932Y40558101D01*
X100160901Y40554142D01*
X100152421Y40557022D01*
X100152409Y40557033D01*
X99601374Y41041801D01*
X99597426Y41049838D01*
X99600318Y41058313D01*
X99600767Y41058795D01*
X99949571Y41410853D01*
X100117539Y41578822D01*
X100125811Y41582248D01*
X100134084Y41578821D01*
G37*
%TD.AperFunction*%
%TD*%
%TA.AperFunction,Conductor*%
%TO.N,ROW1_R*%
G36*
X48467769Y48174035D02*
G01*
X48469599Y48172917D01*
X49146106Y47759926D01*
X49151382Y47752691D01*
X49149996Y47743844D01*
X49146812Y47740421D01*
X48467705Y47255149D01*
X48458982Y47253127D01*
X48453588Y47255537D01*
X48100149Y47538669D01*
X48099191Y47539527D01*
X47931787Y47706931D01*
X47928360Y47715204D01*
X47931787Y47723477D01*
X47932407Y47724054D01*
X48454045Y48172918D01*
X48462549Y48175715D01*
X48467769Y48174035D01*
G37*
%TD.AperFunction*%
%TD*%
%TA.AperFunction,Conductor*%
%TO.N,ROW1_R*%
G36*
X65467467Y45845031D02*
G01*
X66148145Y45359525D01*
X66152891Y45351931D01*
X66150876Y45343206D01*
X66148145Y45340475D01*
X65467467Y44854970D01*
X65458742Y44852955D01*
X65453653Y44855135D01*
X64965180Y45221490D01*
X64960618Y45229195D01*
X64960500Y45230850D01*
X64960500Y45469150D01*
X64963927Y45477423D01*
X64965180Y45478510D01*
X65453655Y45844867D01*
X65462328Y45847088D01*
X65467467Y45845031D01*
G37*
%TD.AperFunction*%
%TD*%
%TA.AperFunction,Conductor*%
%TO.N,ROW1_R*%
G36*
X49994511Y48688529D02*
G01*
X49995477Y48683873D01*
X49995477Y48452800D01*
X49995272Y48450620D01*
X49862331Y47749686D01*
X49857423Y47742196D01*
X49850670Y47740167D01*
X49167220Y47749891D01*
X49158996Y47753435D01*
X49156565Y47757141D01*
X48958387Y48239386D01*
X48958412Y48248341D01*
X48964551Y48254566D01*
X49979123Y48694608D01*
X49988075Y48694755D01*
X49994511Y48688529D01*
G37*
%TD.AperFunction*%
%TD*%
%TA.AperFunction,Conductor*%
%TO.N,ROW1_R*%
G36*
X66331330Y46284946D02*
G01*
X66333800Y46277756D01*
X66333800Y46051700D01*
X66758732Y45857837D01*
X66764837Y45851286D01*
X66764521Y45842337D01*
X66761247Y45838106D01*
X66168587Y45357371D01*
X66160003Y45354821D01*
X66152129Y45359087D01*
X65761444Y45840733D01*
X65758894Y45849317D01*
X65763160Y45857191D01*
X65763265Y45857275D01*
X66314911Y46286987D01*
X66323543Y46289367D01*
X66331330Y46284946D01*
G37*
%TD.AperFunction*%
%TD*%
%TA.AperFunction,Conductor*%
%TO.N,Net-(D27-A)*%
G36*
X18718764Y59942720D02*
G01*
X19026141Y59634728D01*
X19203338Y59457176D01*
X19206757Y59448899D01*
X19204417Y59441891D01*
X18839010Y58954680D01*
X18831305Y58950118D01*
X18829650Y58950000D01*
X18591350Y58950000D01*
X18583077Y58953427D01*
X18581990Y58954680D01*
X18216582Y59441891D01*
X18214360Y59450566D01*
X18217660Y59457175D01*
X18702219Y59942704D01*
X18710488Y59946138D01*
X18718764Y59942720D01*
G37*
%TD.AperFunction*%
%TD*%
%TA.AperFunction,Conductor*%
%TO.N,Net-(D26-A)*%
G36*
X35718764Y62342720D02*
G01*
X36026141Y62034728D01*
X36203338Y61857176D01*
X36206757Y61848899D01*
X36204417Y61841891D01*
X35839010Y61354680D01*
X35831305Y61350118D01*
X35829650Y61350000D01*
X35591350Y61350000D01*
X35583077Y61353427D01*
X35581990Y61354680D01*
X35216582Y61841891D01*
X35214360Y61850566D01*
X35217660Y61857175D01*
X35702219Y62342704D01*
X35710488Y62346138D01*
X35718764Y62342720D01*
G37*
%TD.AperFunction*%
%TD*%
%TA.AperFunction,Conductor*%
%TO.N,Net-(D25-A)*%
G36*
X52718764Y64742720D02*
G01*
X53026141Y64434728D01*
X53203338Y64257176D01*
X53206757Y64248899D01*
X53204417Y64241891D01*
X52839010Y63754680D01*
X52831305Y63750118D01*
X52829650Y63750000D01*
X52591350Y63750000D01*
X52583077Y63753427D01*
X52581990Y63754680D01*
X52216582Y64241891D01*
X52214360Y64250566D01*
X52217660Y64257175D01*
X52702219Y64742704D01*
X52710488Y64746138D01*
X52718764Y64742720D01*
G37*
%TD.AperFunction*%
%TD*%
%TA.AperFunction,Conductor*%
%TO.N,Net-(D24-A)*%
G36*
X69718764Y62342720D02*
G01*
X70026141Y62034728D01*
X70203338Y61857176D01*
X70206757Y61848899D01*
X70204417Y61841891D01*
X69839010Y61354680D01*
X69831305Y61350118D01*
X69829650Y61350000D01*
X69591350Y61350000D01*
X69583077Y61353427D01*
X69581990Y61354680D01*
X69216582Y61841891D01*
X69214360Y61850566D01*
X69217660Y61857175D01*
X69702219Y62342704D01*
X69710488Y62346138D01*
X69718764Y62342720D01*
G37*
%TD.AperFunction*%
%TD*%
%TA.AperFunction,Conductor*%
%TO.N,Net-(D23-A)*%
G36*
X86718764Y57542720D02*
G01*
X87026141Y57234728D01*
X87203338Y57057176D01*
X87206757Y57048899D01*
X87204417Y57041891D01*
X86839010Y56554680D01*
X86831305Y56550118D01*
X86829650Y56550000D01*
X86591350Y56550000D01*
X86583077Y56553427D01*
X86581990Y56554680D01*
X86216582Y57041891D01*
X86214360Y57050566D01*
X86217660Y57057175D01*
X86702219Y57542704D01*
X86710488Y57546138D01*
X86718764Y57542720D01*
G37*
%TD.AperFunction*%
%TD*%
%TA.AperFunction,Conductor*%
%TO.N,Net-(D22-A)*%
G36*
X103718764Y57542720D02*
G01*
X104026141Y57234728D01*
X104203338Y57057176D01*
X104206757Y57048899D01*
X104204417Y57041891D01*
X103839010Y56554680D01*
X103831305Y56550118D01*
X103829650Y56550000D01*
X103591350Y56550000D01*
X103583077Y56553427D01*
X103581990Y56554680D01*
X103216582Y57041891D01*
X103214360Y57050566D01*
X103217660Y57057175D01*
X103702219Y57542704D01*
X103710488Y57546138D01*
X103718764Y57542720D01*
G37*
%TD.AperFunction*%
%TD*%
%TA.AperFunction,Conductor*%
%TO.N,ROW0_R*%
G36*
X-10596348Y63333495D02*
G01*
X-10595173Y63332595D01*
X-9406402Y62296466D01*
X-9402416Y62288448D01*
X-9405269Y62279960D01*
X-9405816Y62279374D01*
X-9571631Y62113559D01*
X-9576585Y62110613D01*
X-10917334Y61713928D01*
X-10926239Y61714867D01*
X-10931872Y61721828D01*
X-10932123Y61722841D01*
X-11104957Y62588945D01*
X-11103215Y62597727D01*
X-10612580Y63330286D01*
X-10605129Y63335252D01*
X-10596348Y63333495D01*
G37*
%TD.AperFunction*%
%TD*%
%TA.AperFunction,Conductor*%
%TO.N,ROW0_R*%
G36*
X15202926Y60979323D02*
G01*
X15203461Y60978821D01*
X15371467Y60810815D01*
X15720208Y60458820D01*
X15723597Y60450531D01*
X15720132Y60442274D01*
X15719625Y60441801D01*
X15168590Y59957033D01*
X15160115Y59954141D01*
X15152078Y59958089D01*
X15152067Y59958101D01*
X14727350Y60442265D01*
X14724470Y60450745D01*
X14727368Y60457716D01*
X15186415Y60978288D01*
X15194455Y60982225D01*
X15202926Y60979323D01*
G37*
%TD.AperFunction*%
%TD*%
%TA.AperFunction,Conductor*%
%TO.N,ROW0_R*%
G36*
X31467769Y62774035D02*
G01*
X31469599Y62772917D01*
X32146106Y62359926D01*
X32151382Y62352691D01*
X32149996Y62343844D01*
X32146812Y62340421D01*
X31467705Y61855149D01*
X31458982Y61853127D01*
X31453588Y61855537D01*
X31100149Y62138669D01*
X31099191Y62139527D01*
X30931787Y62306931D01*
X30928360Y62315204D01*
X30931787Y62323477D01*
X30932407Y62324054D01*
X31454045Y62772918D01*
X31462549Y62775715D01*
X31467769Y62774035D01*
G37*
%TD.AperFunction*%
%TD*%
%TA.AperFunction,Conductor*%
%TO.N,ROW0_R*%
G36*
X48467769Y65174035D02*
G01*
X48469599Y65172917D01*
X49146106Y64759926D01*
X49151382Y64752691D01*
X49149996Y64743844D01*
X49146812Y64740421D01*
X48467705Y64255149D01*
X48458982Y64253127D01*
X48453588Y64255537D01*
X48100149Y64538669D01*
X48099191Y64539527D01*
X47931787Y64706931D01*
X47928360Y64715204D01*
X47931787Y64723477D01*
X47932407Y64724054D01*
X48454045Y65172918D01*
X48462549Y65175715D01*
X48467769Y65174035D01*
G37*
%TD.AperFunction*%
%TD*%
%TA.AperFunction,Conductor*%
%TO.N,ROW0_R*%
G36*
X32202926Y63379323D02*
G01*
X32203461Y63378821D01*
X32371467Y63210815D01*
X32720208Y62858820D01*
X32723597Y62850531D01*
X32720132Y62842274D01*
X32719625Y62841801D01*
X32168590Y62357033D01*
X32160115Y62354141D01*
X32152078Y62358089D01*
X32152067Y62358101D01*
X31727350Y62842265D01*
X31724470Y62850745D01*
X31727368Y62857716D01*
X32186415Y63378288D01*
X32194455Y63382225D01*
X32202926Y63379323D01*
G37*
%TD.AperFunction*%
%TD*%
%TA.AperFunction,Conductor*%
%TO.N,ROW0_R*%
G36*
X49331330Y65684946D02*
G01*
X49333800Y65677756D01*
X49333800Y65451700D01*
X49758732Y65257837D01*
X49764837Y65251286D01*
X49764521Y65242337D01*
X49761247Y65238106D01*
X49168587Y64757371D01*
X49160003Y64754821D01*
X49152129Y64759087D01*
X48761444Y65240733D01*
X48758894Y65249317D01*
X48763160Y65257191D01*
X48763265Y65257275D01*
X49314911Y65686987D01*
X49323543Y65689367D01*
X49331330Y65684946D01*
G37*
%TD.AperFunction*%
%TD*%
%TA.AperFunction,Conductor*%
%TO.N,ROW0_R*%
G36*
X83006088Y58486987D02*
G01*
X83557011Y58057838D01*
X83557658Y58057334D01*
X83562079Y58049547D01*
X83559698Y58040914D01*
X83559555Y58040733D01*
X83168870Y57559087D01*
X83160996Y57554821D01*
X83152413Y57557371D01*
X82559751Y58038107D01*
X82555486Y58045980D01*
X82558036Y58054564D01*
X82562263Y58057836D01*
X82987200Y58251700D01*
X82987200Y58477756D01*
X82990627Y58486029D01*
X82998900Y58489456D01*
X83006088Y58486987D01*
G37*
%TD.AperFunction*%
%TD*%
%TA.AperFunction,Conductor*%
%TO.N,ROW0_R*%
G36*
X100134084Y58578821D02*
G01*
X100134582Y58578290D01*
X100593629Y58057718D01*
X100596531Y58049248D01*
X100593649Y58042265D01*
X100168932Y57558101D01*
X100160901Y57554142D01*
X100152421Y57557022D01*
X100152409Y57557033D01*
X99601374Y58041801D01*
X99597426Y58049838D01*
X99600318Y58058313D01*
X99600767Y58058795D01*
X99949571Y58410853D01*
X100117539Y58578822D01*
X100125811Y58582248D01*
X100134084Y58578821D01*
G37*
%TD.AperFunction*%
%TD*%
%TA.AperFunction,Conductor*%
%TO.N,ROW0_R*%
G36*
X65470021Y62843153D02*
G01*
X65470684Y62842711D01*
X66145453Y62359769D01*
X66150187Y62352169D01*
X66148158Y62343447D01*
X66144320Y62340025D01*
X65469124Y61965468D01*
X65460227Y61964451D01*
X65454325Y61968374D01*
X65153196Y62343447D01*
X65024073Y62504276D01*
X65021566Y62512872D01*
X65025872Y62520723D01*
X65033197Y62523300D01*
X65258799Y62523300D01*
X65258800Y62523300D01*
X65453921Y62839345D01*
X65461182Y62844583D01*
X65470021Y62843153D01*
G37*
%TD.AperFunction*%
%TD*%
%TA.AperFunction,Conductor*%
%TO.N,Net-(D21-A)*%
G36*
X-40255154Y-2888405D02*
G01*
X-40048784Y-3007561D01*
X-40043333Y-3014665D01*
X-40043018Y-3016294D01*
X-39970011Y-3622481D01*
X-39972424Y-3631105D01*
X-39976775Y-3634526D01*
X-40737574Y-3981258D01*
X-40746523Y-3981571D01*
X-40753072Y-3975464D01*
X-40754072Y-3971733D01*
X-40786529Y-3634526D01*
X-40834175Y-3139506D01*
X-40831557Y-3130943D01*
X-40827127Y-3127626D01*
X-40265597Y-2887777D01*
X-40256645Y-2887680D01*
X-40255154Y-2888405D01*
G37*
%TD.AperFunction*%
%TD*%
%TA.AperFunction,Conductor*%
%TO.N,Net-(D20-A)*%
G36*
X-57372528Y6507885D02*
G01*
X-57368177Y6504464D01*
X-56991162Y6024202D01*
X-56988749Y6015578D01*
X-56989064Y6013949D01*
X-57050733Y5783767D01*
X-57056184Y5776663D01*
X-57057676Y5775937D01*
X-57624333Y5548478D01*
X-57633287Y5548576D01*
X-57637718Y5551893D01*
X-58023296Y6019600D01*
X-58169549Y6197006D01*
X-58172167Y6205569D01*
X-58167963Y6213476D01*
X-58164621Y6215406D01*
X-57381474Y6508198D01*
X-57372528Y6507885D01*
G37*
%TD.AperFunction*%
%TD*%
%TA.AperFunction,Conductor*%
%TO.N,Net-(D19-A)*%
G36*
X-79881423Y8642980D02*
G01*
X-79881410Y8642968D01*
X-79330375Y8158200D01*
X-79326427Y8150163D01*
X-79329319Y8141688D01*
X-79329792Y8141181D01*
X-79678533Y7789185D01*
X-79678571Y7789147D01*
X-79846539Y7621180D01*
X-79854812Y7617753D01*
X-79863085Y7621180D01*
X-79863587Y7621715D01*
X-80322631Y8142284D01*
X-80325532Y8150753D01*
X-80322652Y8157734D01*
X-79897933Y8641901D01*
X-79889902Y8645859D01*
X-79881423Y8642980D01*
G37*
%TD.AperFunction*%
%TD*%
%TA.AperFunction,Conductor*%
%TO.N,Net-(D18-A)*%
G36*
X-51381423Y25892980D02*
G01*
X-51381410Y25892968D01*
X-50830375Y25408200D01*
X-50826427Y25400163D01*
X-50829319Y25391688D01*
X-50829792Y25391181D01*
X-51178533Y25039185D01*
X-51178571Y25039147D01*
X-51346539Y24871180D01*
X-51354812Y24867753D01*
X-51363085Y24871180D01*
X-51363587Y24871715D01*
X-51822631Y25392284D01*
X-51825532Y25400753D01*
X-51822652Y25407734D01*
X-51397933Y25891901D01*
X-51389902Y25895859D01*
X-51381423Y25892980D01*
G37*
%TD.AperFunction*%
%TD*%
%TA.AperFunction,Conductor*%
%TO.N,Net-(D17-A)*%
G36*
X-68381423Y28392980D02*
G01*
X-68381410Y28392968D01*
X-67830375Y27908200D01*
X-67826427Y27900163D01*
X-67829319Y27891688D01*
X-67829792Y27891181D01*
X-68178533Y27539185D01*
X-68178571Y27539147D01*
X-68346539Y27371180D01*
X-68354812Y27367753D01*
X-68363085Y27371180D01*
X-68363587Y27371715D01*
X-68822631Y27892284D01*
X-68825532Y27900753D01*
X-68822652Y27907734D01*
X-68397933Y28391901D01*
X-68389902Y28395859D01*
X-68381423Y28392980D01*
G37*
%TD.AperFunction*%
%TD*%
%TA.AperFunction,Conductor*%
%TO.N,Net-(D16-A)*%
G36*
X-85381423Y30642980D02*
G01*
X-85381410Y30642968D01*
X-84830375Y30158200D01*
X-84826427Y30150163D01*
X-84829319Y30141688D01*
X-84829792Y30141181D01*
X-85178533Y29789185D01*
X-85178571Y29789147D01*
X-85346539Y29621180D01*
X-85354812Y29617753D01*
X-85363085Y29621180D01*
X-85363587Y29621715D01*
X-85822631Y30142284D01*
X-85825532Y30150753D01*
X-85822652Y30157734D01*
X-85397933Y30641901D01*
X-85389902Y30645859D01*
X-85381423Y30642980D01*
G37*
%TD.AperFunction*%
%TD*%
%TA.AperFunction,Conductor*%
%TO.N,Net-(D15-A)*%
G36*
X-102381236Y28392720D02*
G01*
X-102073859Y28084728D01*
X-101896662Y27907176D01*
X-101893243Y27898899D01*
X-101895583Y27891891D01*
X-102260990Y27404680D01*
X-102268695Y27400118D01*
X-102270350Y27400000D01*
X-102508650Y27400000D01*
X-102516923Y27403427D01*
X-102518010Y27404680D01*
X-102883418Y27891891D01*
X-102885640Y27900566D01*
X-102882340Y27907175D01*
X-102397781Y28392704D01*
X-102389512Y28396138D01*
X-102381236Y28392720D01*
G37*
%TD.AperFunction*%
%TD*%
%TA.AperFunction,Conductor*%
%TO.N,Net-(D14-A)*%
G36*
X-119381423Y23642980D02*
G01*
X-119381410Y23642968D01*
X-118830375Y23158200D01*
X-118826427Y23150163D01*
X-118829319Y23141688D01*
X-118829792Y23141181D01*
X-119178533Y22789185D01*
X-119178571Y22789147D01*
X-119346539Y22621180D01*
X-119354812Y22617753D01*
X-119363085Y22621180D01*
X-119363587Y22621715D01*
X-119822631Y23142284D01*
X-119825532Y23150753D01*
X-119822652Y23157734D01*
X-119397933Y23641901D01*
X-119389902Y23645859D01*
X-119381423Y23642980D01*
G37*
%TD.AperFunction*%
%TD*%
%TA.AperFunction,Conductor*%
%TO.N,Net-(D13-A)*%
G36*
X-136318923Y23689880D02*
G01*
X-136318910Y23689868D01*
X-135767875Y23205100D01*
X-135763927Y23197063D01*
X-135766819Y23188588D01*
X-135767292Y23188081D01*
X-136116033Y22836085D01*
X-136116071Y22836047D01*
X-136284039Y22668080D01*
X-136292312Y22664653D01*
X-136300585Y22668080D01*
X-136301087Y22668615D01*
X-136760131Y23189184D01*
X-136763032Y23197653D01*
X-136760152Y23204634D01*
X-136335433Y23688801D01*
X-136327402Y23692759D01*
X-136318923Y23689880D01*
G37*
%TD.AperFunction*%
%TD*%
%TA.AperFunction,Conductor*%
%TO.N,Net-(D12-A)*%
G36*
X-51381423Y42892880D02*
G01*
X-51381410Y42892868D01*
X-50830375Y42408100D01*
X-50826427Y42400063D01*
X-50829319Y42391588D01*
X-50829792Y42391081D01*
X-51178533Y42039085D01*
X-51178571Y42039047D01*
X-51346539Y41871080D01*
X-51354812Y41867653D01*
X-51363085Y41871080D01*
X-51363587Y41871615D01*
X-51822631Y42392184D01*
X-51825532Y42400653D01*
X-51822652Y42407634D01*
X-51397933Y42891801D01*
X-51389902Y42895759D01*
X-51381423Y42892880D01*
G37*
%TD.AperFunction*%
%TD*%
%TA.AperFunction,Conductor*%
%TO.N,Net-(D11-A)*%
G36*
X-68381423Y45392480D02*
G01*
X-68381410Y45392468D01*
X-67830375Y44907700D01*
X-67826427Y44899663D01*
X-67829319Y44891188D01*
X-67829792Y44890681D01*
X-68178533Y44538685D01*
X-68178571Y44538647D01*
X-68346539Y44370680D01*
X-68354812Y44367253D01*
X-68363085Y44370680D01*
X-68363587Y44371215D01*
X-68822631Y44891784D01*
X-68825532Y44900253D01*
X-68822652Y44907234D01*
X-68397933Y45391401D01*
X-68389902Y45395359D01*
X-68381423Y45392480D01*
G37*
%TD.AperFunction*%
%TD*%
%TA.AperFunction,Conductor*%
%TO.N,Net-(D10-A)*%
G36*
X-85381589Y47642895D02*
G01*
X-85381577Y47642884D01*
X-84854632Y47159131D01*
X-84850855Y47151012D01*
X-84853925Y47142600D01*
X-84855039Y47141536D01*
X-85223108Y46833794D01*
X-85391216Y46665686D01*
X-85399489Y46662259D01*
X-85407762Y46665686D01*
X-85408143Y46666085D01*
X-85841380Y47142203D01*
X-85844413Y47150628D01*
X-85841357Y47157976D01*
X-85398118Y47642166D01*
X-85390005Y47645954D01*
X-85381589Y47642895D01*
G37*
%TD.AperFunction*%
%TD*%
%TA.AperFunction,Conductor*%
%TO.N,Net-(D9-A)*%
G36*
X-102381415Y45392631D02*
G01*
X-101788753Y44911895D01*
X-101784487Y44904021D01*
X-101787037Y44895437D01*
X-101791268Y44892163D01*
X-102216200Y44698300D01*
X-102216200Y44472245D01*
X-102219627Y44463972D01*
X-102227900Y44460545D01*
X-102235090Y44463015D01*
X-102786659Y44892667D01*
X-102791080Y44900454D01*
X-102788699Y44909087D01*
X-102788583Y44909235D01*
X-102397870Y45390915D01*
X-102389997Y45395180D01*
X-102381415Y45392631D01*
G37*
%TD.AperFunction*%
%TD*%
%TA.AperFunction,Conductor*%
%TO.N,Net-(D8-A)*%
G36*
X-119381423Y40642980D02*
G01*
X-119381410Y40642968D01*
X-118830375Y40158200D01*
X-118826427Y40150163D01*
X-118829319Y40141688D01*
X-118829792Y40141181D01*
X-119178533Y39789185D01*
X-119178571Y39789147D01*
X-119346539Y39621180D01*
X-119354812Y39617753D01*
X-119363085Y39621180D01*
X-119363587Y39621715D01*
X-119822631Y40142284D01*
X-119825532Y40150753D01*
X-119822652Y40157734D01*
X-119397933Y40641901D01*
X-119389902Y40645859D01*
X-119381423Y40642980D01*
G37*
%TD.AperFunction*%
%TD*%
%TA.AperFunction,Conductor*%
%TO.N,Net-(D7-A)*%
G36*
X-136318923Y40642980D02*
G01*
X-136318910Y40642968D01*
X-135767875Y40158200D01*
X-135763927Y40150163D01*
X-135766819Y40141688D01*
X-135767292Y40141181D01*
X-136116033Y39789185D01*
X-136116071Y39789147D01*
X-136284039Y39621180D01*
X-136292312Y39617753D01*
X-136300585Y39621180D01*
X-136301087Y39621715D01*
X-136760131Y40142284D01*
X-136763032Y40150753D01*
X-136760152Y40157734D01*
X-136335433Y40641901D01*
X-136327402Y40645859D01*
X-136318923Y40642980D01*
G37*
%TD.AperFunction*%
%TD*%
%TA.AperFunction,Conductor*%
%TO.N,Net-(D6-A)*%
G36*
X-51381423Y59892480D02*
G01*
X-51381410Y59892468D01*
X-50830375Y59407700D01*
X-50826427Y59399663D01*
X-50829319Y59391188D01*
X-50829792Y59390681D01*
X-51178533Y59038685D01*
X-51178571Y59038647D01*
X-51346539Y58870680D01*
X-51354812Y58867253D01*
X-51363085Y58870680D01*
X-51363587Y58871215D01*
X-51822631Y59391784D01*
X-51825532Y59400253D01*
X-51822652Y59407234D01*
X-51397933Y59891401D01*
X-51389902Y59895359D01*
X-51381423Y59892480D01*
G37*
%TD.AperFunction*%
%TD*%
%TA.AperFunction,Conductor*%
%TO.N,Net-(D5-A)*%
G36*
X-68381423Y62392080D02*
G01*
X-68381410Y62392068D01*
X-67830375Y61907300D01*
X-67826427Y61899263D01*
X-67829319Y61890788D01*
X-67829792Y61890281D01*
X-68178533Y61538285D01*
X-68178571Y61538247D01*
X-68346539Y61370280D01*
X-68354812Y61366853D01*
X-68363085Y61370280D01*
X-68363587Y61370815D01*
X-68822631Y61891384D01*
X-68825532Y61899853D01*
X-68822652Y61906834D01*
X-68397933Y62391001D01*
X-68389902Y62394959D01*
X-68381423Y62392080D01*
G37*
%TD.AperFunction*%
%TD*%
%TA.AperFunction,Conductor*%
%TO.N,Net-(D4-A)*%
G36*
X-85381423Y64642780D02*
G01*
X-85381410Y64642768D01*
X-84830375Y64158000D01*
X-84826427Y64149963D01*
X-84829319Y64141488D01*
X-84829792Y64140981D01*
X-85178533Y63788985D01*
X-85178571Y63788947D01*
X-85346539Y63620980D01*
X-85354812Y63617553D01*
X-85363085Y63620980D01*
X-85363587Y63621515D01*
X-85822631Y64142084D01*
X-85825532Y64150553D01*
X-85822652Y64157534D01*
X-85397933Y64641701D01*
X-85389902Y64645659D01*
X-85381423Y64642780D01*
G37*
%TD.AperFunction*%
%TD*%
%TA.AperFunction,Conductor*%
%TO.N,Net-(D3-A)*%
G36*
X-102381423Y62392980D02*
G01*
X-102381410Y62392968D01*
X-101830375Y61908200D01*
X-101826427Y61900163D01*
X-101829319Y61891688D01*
X-101829792Y61891181D01*
X-102178533Y61539185D01*
X-102178571Y61539147D01*
X-102346539Y61371180D01*
X-102354812Y61367753D01*
X-102363085Y61371180D01*
X-102363587Y61371715D01*
X-102822631Y61892284D01*
X-102825532Y61900753D01*
X-102822652Y61907734D01*
X-102397933Y62391901D01*
X-102389902Y62395859D01*
X-102381423Y62392980D01*
G37*
%TD.AperFunction*%
%TD*%
%TA.AperFunction,Conductor*%
%TO.N,Net-(D2-A)*%
G36*
X-119381423Y57642980D02*
G01*
X-119381410Y57642968D01*
X-118830375Y57158200D01*
X-118826427Y57150163D01*
X-118829319Y57141688D01*
X-118829792Y57141181D01*
X-119178533Y56789185D01*
X-119178571Y56789147D01*
X-119346539Y56621180D01*
X-119354812Y56617753D01*
X-119363085Y56621180D01*
X-119363587Y56621715D01*
X-119822631Y57142284D01*
X-119825532Y57150753D01*
X-119822652Y57157734D01*
X-119397933Y57641901D01*
X-119389902Y57645859D01*
X-119381423Y57642980D01*
G37*
%TD.AperFunction*%
%TD*%
%TA.AperFunction,Conductor*%
%TO.N,Net-(D1-A)*%
G36*
X-136381423Y57642980D02*
G01*
X-136381410Y57642968D01*
X-135830375Y57158200D01*
X-135826427Y57150163D01*
X-135829319Y57141688D01*
X-135829792Y57141181D01*
X-136178533Y56789185D01*
X-136178571Y56789147D01*
X-136346539Y56621180D01*
X-136354812Y56617753D01*
X-136363085Y56621180D01*
X-136363587Y56621715D01*
X-136822631Y57142284D01*
X-136825532Y57150753D01*
X-136822652Y57157734D01*
X-136397933Y57641901D01*
X-136389902Y57645859D01*
X-136381423Y57642980D01*
G37*
%TD.AperFunction*%
%TD*%
%TA.AperFunction,Conductor*%
%TO.N,GND1*%
G36*
X-10333179Y42446294D02*
G01*
X-10331200Y42439783D01*
X-10331200Y42211700D01*
X-10069762Y41968512D01*
X-9881859Y41793725D01*
X-9878136Y41785581D01*
X-9881261Y41777189D01*
X-9884547Y41774718D01*
X-10597133Y41414234D01*
X-10606062Y41413557D01*
X-10611454Y41417247D01*
X-11057311Y41959944D01*
X-11059915Y41968512D01*
X-11055698Y41976411D01*
X-11054782Y41977092D01*
X-10349410Y42449505D01*
X-10340630Y42451261D01*
X-10333179Y42446294D01*
G37*
%TD.AperFunction*%
%TD*%
%TA.AperFunction,Conductor*%
%TO.N,VBAT_R*%
G36*
X-6368813Y4020682D02*
G01*
X-6365531Y4014247D01*
X-6272745Y3431037D01*
X-6274830Y3422328D01*
X-6277980Y3419353D01*
X-6686407Y3157221D01*
X-6695221Y3155636D01*
X-6699713Y3157682D01*
X-6991290Y3374716D01*
X-6995880Y3382404D01*
X-6994360Y3390083D01*
X-6620502Y4018393D01*
X-6613326Y4023749D01*
X-6610447Y4024109D01*
X-6377086Y4024109D01*
X-6368813Y4020682D01*
G37*
%TD.AperFunction*%
%TD*%
%TA.AperFunction,Conductor*%
%TO.N,ROW2_L*%
G36*
X-39522666Y58473056D02*
G01*
X-39521037Y58471986D01*
X-38778461Y57889540D01*
X-38414779Y57604283D01*
X-38410385Y57596481D01*
X-38412794Y57587856D01*
X-38417239Y57584389D01*
X-39913567Y56917841D01*
X-39922519Y56917605D01*
X-39925976Y56919674D01*
X-40699619Y57587856D01*
X-41048920Y57889541D01*
X-41052940Y57897541D01*
X-41050126Y57906043D01*
X-41049558Y57906654D01*
X-40883768Y58072444D01*
X-40878818Y58075388D01*
X-39531569Y58473995D01*
X-39522666Y58473056D01*
G37*
%TD.AperFunction*%
%TD*%
%TA.AperFunction,Conductor*%
%TO.N,ROW2_L*%
G36*
X-47132656Y26394867D02*
G01*
X-46644180Y26028510D01*
X-46639618Y26020805D01*
X-46639500Y26019150D01*
X-46639500Y25780850D01*
X-46642927Y25772577D01*
X-46644180Y25771490D01*
X-47132654Y25405135D01*
X-47141329Y25402913D01*
X-47146468Y25404970D01*
X-47827146Y25890475D01*
X-47831892Y25898069D01*
X-47829877Y25906794D01*
X-47827146Y25909525D01*
X-47673452Y26019150D01*
X-47146466Y26395032D01*
X-47137743Y26397046D01*
X-47132656Y26394867D01*
G37*
%TD.AperFunction*%
%TD*%
%TA.AperFunction,Conductor*%
%TO.N,ROW2_L*%
G36*
X-64831415Y28392631D02*
G01*
X-64238753Y27911895D01*
X-64234487Y27904021D01*
X-64237037Y27895437D01*
X-64241268Y27892163D01*
X-64666200Y27698300D01*
X-64666200Y27472245D01*
X-64669627Y27463972D01*
X-64677900Y27460545D01*
X-64685090Y27463015D01*
X-65236659Y27892667D01*
X-65241080Y27900454D01*
X-65238699Y27909087D01*
X-65238583Y27909235D01*
X-64847870Y28390915D01*
X-64839997Y28395180D01*
X-64831415Y28392631D01*
G37*
%TD.AperFunction*%
%TD*%
%TA.AperFunction,Conductor*%
%TO.N,ROW2_L*%
G36*
X-47865916Y26928821D02*
G01*
X-47865418Y26928290D01*
X-47406371Y26407718D01*
X-47403469Y26399248D01*
X-47406351Y26392265D01*
X-47831068Y25908101D01*
X-47839099Y25904142D01*
X-47847579Y25907022D01*
X-47847591Y25907033D01*
X-48398626Y26391801D01*
X-48402574Y26399838D01*
X-48399682Y26408313D01*
X-48399233Y26408795D01*
X-48050429Y26760853D01*
X-47882461Y26928822D01*
X-47874189Y26932248D01*
X-47865916Y26928821D01*
G37*
%TD.AperFunction*%
%TD*%
%TA.AperFunction,Conductor*%
%TO.N,ROW2_L*%
G36*
X-81133045Y31072918D02*
G01*
X-80611430Y30624073D01*
X-80607394Y30616079D01*
X-80610192Y30607573D01*
X-80610788Y30606931D01*
X-80778192Y30439527D01*
X-80779150Y30438669D01*
X-81132589Y30155537D01*
X-81141188Y30153039D01*
X-81146706Y30155149D01*
X-81543474Y30438669D01*
X-81825814Y30640422D01*
X-81830552Y30648019D01*
X-81828530Y30656742D01*
X-81825110Y30659924D01*
X-81146770Y31074035D01*
X-81137924Y31075420D01*
X-81133045Y31072918D01*
G37*
%TD.AperFunction*%
%TD*%
%TA.AperFunction,Conductor*%
%TO.N,ROW2_L*%
G36*
X-64993912Y29336987D02*
G01*
X-64442989Y28907838D01*
X-64442342Y28907334D01*
X-64437921Y28899547D01*
X-64440302Y28890914D01*
X-64440445Y28890733D01*
X-64831130Y28409087D01*
X-64839004Y28404821D01*
X-64847587Y28407371D01*
X-65440249Y28888107D01*
X-65444514Y28895980D01*
X-65441964Y28904564D01*
X-65437737Y28907836D01*
X-65012800Y29101700D01*
X-65012800Y29327756D01*
X-65009373Y29336029D01*
X-65001100Y29339456D01*
X-64993912Y29336987D01*
G37*
%TD.AperFunction*%
%TD*%
%TA.AperFunction,Conductor*%
%TO.N,ROW2_L*%
G36*
X-81819031Y31632224D02*
G01*
X-81818658Y31631833D01*
X-81386624Y31157908D01*
X-81383582Y31149486D01*
X-81386649Y31142116D01*
X-81830873Y30657927D01*
X-81838991Y30654148D01*
X-81847404Y30657216D01*
X-81847416Y30657227D01*
X-82373136Y31140927D01*
X-82376904Y31149050D01*
X-82373824Y31157459D01*
X-82372685Y31158541D01*
X-82003688Y31464112D01*
X-81835576Y31632225D01*
X-81827304Y31635651D01*
X-81819031Y31632224D01*
G37*
%TD.AperFunction*%
%TD*%
%TA.AperFunction,Conductor*%
%TO.N,ROW2_L*%
G36*
X-98831415Y28392631D02*
G01*
X-98238753Y27911895D01*
X-98234487Y27904021D01*
X-98237037Y27895437D01*
X-98241268Y27892163D01*
X-98666200Y27698300D01*
X-98666200Y27472245D01*
X-98669627Y27463972D01*
X-98677900Y27460545D01*
X-98685090Y27463015D01*
X-99236659Y27892667D01*
X-99241080Y27900454D01*
X-99238699Y27909087D01*
X-99238583Y27909235D01*
X-98847870Y28390915D01*
X-98839997Y28395180D01*
X-98831415Y28392631D01*
G37*
%TD.AperFunction*%
%TD*%
%TA.AperFunction,Conductor*%
%TO.N,ROW2_L*%
G36*
X-115132607Y24141103D02*
G01*
X-114855801Y23783803D01*
X-114855784Y23783784D01*
X-114687593Y23615593D01*
X-114684166Y23607320D01*
X-114687593Y23599047D01*
X-114687900Y23598751D01*
X-115132711Y23185259D01*
X-115141104Y23182136D01*
X-115147198Y23184114D01*
X-115148904Y23185259D01*
X-115826185Y23639881D01*
X-115831143Y23647336D01*
X-115829377Y23656115D01*
X-115826465Y23659113D01*
X-115651996Y23783784D01*
X-115148656Y24143458D01*
X-115139935Y24145479D01*
X-115132607Y24141103D01*
G37*
%TD.AperFunction*%
%TD*%
%TA.AperFunction,Conductor*%
%TO.N,ROW2_L*%
G36*
X-115865916Y24678821D02*
G01*
X-115865418Y24678290D01*
X-115406371Y24157718D01*
X-115403469Y24149248D01*
X-115406351Y24142265D01*
X-115831068Y23658101D01*
X-115839099Y23654142D01*
X-115847579Y23657022D01*
X-115847591Y23657033D01*
X-116398626Y24141801D01*
X-116402574Y24149838D01*
X-116399682Y24158313D01*
X-116399233Y24158795D01*
X-116050429Y24510853D01*
X-115882461Y24678822D01*
X-115874189Y24682248D01*
X-115865916Y24678821D01*
G37*
%TD.AperFunction*%
%TD*%
%TA.AperFunction,Conductor*%
%TO.N,ROW2_L*%
G36*
X-132734574Y24726223D02*
G01*
X-132734039Y24725721D01*
X-132566033Y24557715D01*
X-132217292Y24205720D01*
X-132213903Y24197431D01*
X-132217368Y24189174D01*
X-132217875Y24188701D01*
X-132768910Y23703933D01*
X-132777385Y23701041D01*
X-132785422Y23704989D01*
X-132785433Y23705001D01*
X-133210150Y24189165D01*
X-133213030Y24197645D01*
X-133210132Y24204616D01*
X-132751085Y24725188D01*
X-132743045Y24729125D01*
X-132734574Y24726223D01*
G37*
%TD.AperFunction*%
%TD*%
%TA.AperFunction,Conductor*%
%TO.N,ROW3_L*%
G36*
X-53943497Y5589059D02*
G01*
X-53939146Y5585637D01*
X-53562137Y5105325D01*
X-53559724Y5096701D01*
X-53560039Y5095073D01*
X-53621721Y4864895D01*
X-53627172Y4857790D01*
X-53628664Y4857065D01*
X-54195301Y4629648D01*
X-54204255Y4629747D01*
X-54208687Y4633064D01*
X-54590894Y5096701D01*
X-54740515Y5278199D01*
X-54743132Y5286761D01*
X-54738928Y5294668D01*
X-54735590Y5296596D01*
X-53952444Y5589372D01*
X-53943497Y5589059D01*
G37*
%TD.AperFunction*%
%TD*%
%TA.AperFunction,Conductor*%
%TO.N,ROW3_L*%
G36*
X-75633045Y9072918D02*
G01*
X-75111430Y8624073D01*
X-75107394Y8616079D01*
X-75110192Y8607573D01*
X-75110788Y8606931D01*
X-75278192Y8439527D01*
X-75279150Y8438669D01*
X-75632589Y8155537D01*
X-75641188Y8153039D01*
X-75646706Y8155149D01*
X-76043474Y8438669D01*
X-76325814Y8640422D01*
X-76330552Y8648019D01*
X-76328530Y8656742D01*
X-76325110Y8659924D01*
X-75646770Y9074035D01*
X-75637924Y9075420D01*
X-75633045Y9072918D01*
G37*
%TD.AperFunction*%
%TD*%
%TA.AperFunction,Conductor*%
%TO.N,ROW1_L*%
G36*
X-39843989Y60878110D02*
G01*
X-38482677Y60175242D01*
X-38419647Y60142699D01*
X-38413868Y60135859D01*
X-38414619Y60126935D01*
X-38419655Y60121903D01*
X-39843309Y59388236D01*
X-39852233Y59387492D01*
X-39856173Y59389660D01*
X-40744491Y60132293D01*
X-40786375Y60167308D01*
X-40790524Y60175242D01*
X-40787846Y60183787D01*
X-40787154Y60184545D01*
X-40620166Y60351533D01*
X-40618533Y60352891D01*
X-39855985Y60877354D01*
X-39847228Y60879218D01*
X-39843989Y60878110D01*
G37*
%TD.AperFunction*%
%TD*%
%TA.AperFunction,Conductor*%
%TO.N,ROW1_L*%
G36*
X-47132656Y43394767D02*
G01*
X-46644180Y43028410D01*
X-46639618Y43020705D01*
X-46639500Y43019050D01*
X-46639500Y42780750D01*
X-46642927Y42772477D01*
X-46644180Y42771390D01*
X-47132654Y42405035D01*
X-47141329Y42402813D01*
X-47146468Y42404870D01*
X-47827146Y42890375D01*
X-47831892Y42897969D01*
X-47829877Y42906694D01*
X-47827146Y42909425D01*
X-47673452Y43019050D01*
X-47146466Y43394932D01*
X-47137743Y43396946D01*
X-47132656Y43394767D01*
G37*
%TD.AperFunction*%
%TD*%
%TA.AperFunction,Conductor*%
%TO.N,ROW1_L*%
G36*
X-64831415Y45392131D02*
G01*
X-64238753Y44911395D01*
X-64234487Y44903521D01*
X-64237037Y44894937D01*
X-64241268Y44891663D01*
X-64666200Y44697800D01*
X-64666200Y44471745D01*
X-64669627Y44463472D01*
X-64677900Y44460045D01*
X-64685090Y44462515D01*
X-65236659Y44892167D01*
X-65241080Y44899954D01*
X-65238699Y44908587D01*
X-65238583Y44908735D01*
X-64847870Y45390415D01*
X-64839997Y45394680D01*
X-64831415Y45392131D01*
G37*
%TD.AperFunction*%
%TD*%
%TA.AperFunction,Conductor*%
%TO.N,ROW1_L*%
G36*
X-81831423Y47643080D02*
G01*
X-81831410Y47643068D01*
X-81280375Y47158300D01*
X-81276427Y47150263D01*
X-81279319Y47141788D01*
X-81279792Y47141281D01*
X-81628533Y46789285D01*
X-81628571Y46789247D01*
X-81796539Y46621280D01*
X-81804812Y46617853D01*
X-81813085Y46621280D01*
X-81813587Y46621815D01*
X-82272631Y47142384D01*
X-82275532Y47150853D01*
X-82272652Y47157834D01*
X-81847933Y47642001D01*
X-81839902Y47645959D01*
X-81831423Y47643080D01*
G37*
%TD.AperFunction*%
%TD*%
%TA.AperFunction,Conductor*%
%TO.N,ROW1_L*%
G36*
X-81832728Y47640762D02*
G01*
X-81832248Y47640035D01*
X-81540370Y47159647D01*
X-81539003Y47150797D01*
X-81543837Y47143865D01*
X-82183373Y46713538D01*
X-82192150Y46711762D01*
X-82198178Y46714972D01*
X-82367262Y46884056D01*
X-82368816Y46885979D01*
X-82533442Y47140725D01*
X-82535053Y47149531D01*
X-82530418Y47156591D01*
X-81849048Y47643480D01*
X-81840326Y47645501D01*
X-81832728Y47640762D01*
G37*
%TD.AperFunction*%
%TD*%
%TA.AperFunction,Conductor*%
%TO.N,ROW1_L*%
G36*
X-98132754Y45859167D02*
G01*
X-97678499Y45441746D01*
X-97674725Y45433626D01*
X-97677800Y45425216D01*
X-97678142Y45424859D01*
X-97846280Y45256721D01*
X-97846294Y45256706D01*
X-98132557Y44908448D01*
X-98140457Y44904232D01*
X-98148397Y44906358D01*
X-98826382Y45390828D01*
X-98831121Y45398426D01*
X-98829099Y45407149D01*
X-98826048Y45410097D01*
X-98147135Y45860304D01*
X-98138347Y45862019D01*
X-98132754Y45859167D01*
G37*
%TD.AperFunction*%
%TD*%
%TA.AperFunction,Conductor*%
%TO.N,ROW1_L*%
G36*
X-115993912Y41586987D02*
G01*
X-115442989Y41157838D01*
X-115442342Y41157334D01*
X-115437921Y41149547D01*
X-115440302Y41140914D01*
X-115440445Y41140733D01*
X-115831130Y40659087D01*
X-115839004Y40654821D01*
X-115847587Y40657371D01*
X-116440249Y41138107D01*
X-116444514Y41145980D01*
X-116441964Y41154564D01*
X-116437737Y41157836D01*
X-116012800Y41351700D01*
X-116012800Y41577756D01*
X-116009373Y41586029D01*
X-116001100Y41589456D01*
X-115993912Y41586987D01*
G37*
%TD.AperFunction*%
%TD*%
%TA.AperFunction,Conductor*%
%TO.N,ROW1_L*%
G36*
X-132734574Y41679323D02*
G01*
X-132734039Y41678821D01*
X-132566033Y41510815D01*
X-132217292Y41158820D01*
X-132213903Y41150531D01*
X-132217368Y41142274D01*
X-132217875Y41141801D01*
X-132768910Y40657033D01*
X-132777385Y40654141D01*
X-132785422Y40658089D01*
X-132785433Y40658101D01*
X-133210150Y41142265D01*
X-133213030Y41150745D01*
X-133210132Y41157716D01*
X-132751085Y41678288D01*
X-132743045Y41682225D01*
X-132734574Y41679323D01*
G37*
%TD.AperFunction*%
%TD*%
%TA.AperFunction,Conductor*%
%TO.N,ROW1_L*%
G36*
X-65798485Y46126862D02*
G01*
X-64712137Y45902035D01*
X-64704730Y45897003D01*
X-64703051Y45888207D01*
X-64703234Y45887450D01*
X-64836926Y45405527D01*
X-64842439Y45398471D01*
X-64845609Y45397246D01*
X-65531368Y45241495D01*
X-65540194Y45243004D01*
X-65543899Y45246732D01*
X-65637361Y45397246D01*
X-65976548Y45943485D01*
X-65978000Y45952318D01*
X-65974882Y45957925D01*
X-65809128Y46123679D01*
X-65800856Y46127105D01*
X-65798485Y46126862D01*
G37*
%TD.AperFunction*%
%TD*%
%TA.AperFunction,Conductor*%
%TO.N,ROW0_L*%
G36*
X-47712077Y60896073D02*
G01*
X-47710990Y60894820D01*
X-47345583Y60407610D01*
X-47343361Y60398935D01*
X-47346662Y60392325D01*
X-47831219Y59906798D01*
X-47839488Y59903363D01*
X-47847765Y59906782D01*
X-47847781Y59906798D01*
X-48332339Y60392325D01*
X-48335758Y60400602D01*
X-48333418Y60407610D01*
X-47968010Y60894820D01*
X-47960305Y60899382D01*
X-47958650Y60899500D01*
X-47720350Y60899500D01*
X-47712077Y60896073D01*
G37*
%TD.AperFunction*%
%TD*%
%TA.AperFunction,Conductor*%
%TO.N,ROW0_L*%
G36*
X-39913567Y63348161D02*
G01*
X-38417239Y62681612D01*
X-38411076Y62675115D01*
X-38411312Y62666163D01*
X-38414779Y62661718D01*
X-39521031Y61794019D01*
X-39529656Y61791610D01*
X-39531571Y61792006D01*
X-39538375Y61794019D01*
X-39700720Y61842052D01*
X-40878816Y62190613D01*
X-40883770Y62193559D01*
X-41049544Y62359333D01*
X-41052971Y62367606D01*
X-41049544Y62375879D01*
X-41048940Y62376442D01*
X-39925976Y63346329D01*
X-39917474Y63349142D01*
X-39913567Y63348161D01*
G37*
%TD.AperFunction*%
%TD*%
%TA.AperFunction,Conductor*%
%TO.N,ROW0_L*%
G36*
X-64133045Y62822018D02*
G01*
X-63611430Y62373173D01*
X-63607394Y62365179D01*
X-63610192Y62356673D01*
X-63610788Y62356031D01*
X-63778192Y62188627D01*
X-63779150Y62187769D01*
X-64132589Y61904637D01*
X-64141188Y61902139D01*
X-64146706Y61904249D01*
X-64543474Y62187769D01*
X-64825814Y62389522D01*
X-64830552Y62397119D01*
X-64828530Y62405842D01*
X-64825110Y62409024D01*
X-64146770Y62823135D01*
X-64137924Y62824520D01*
X-64133045Y62822018D01*
G37*
%TD.AperFunction*%
%TD*%
%TA.AperFunction,Conductor*%
%TO.N,ROW0_L*%
G36*
X-98132589Y62894464D02*
G01*
X-97779150Y62611332D01*
X-97778192Y62610474D01*
X-97610788Y62443070D01*
X-97607361Y62434797D01*
X-97610788Y62426524D01*
X-97611430Y62425928D01*
X-98133044Y61977085D01*
X-98141550Y61974287D01*
X-98146771Y61975968D01*
X-98825107Y62390075D01*
X-98830383Y62397310D01*
X-98828997Y62406157D01*
X-98825817Y62409576D01*
X-98146704Y62894853D01*
X-98137983Y62896874D01*
X-98132589Y62894464D01*
G37*
%TD.AperFunction*%
%TD*%
%TA.AperFunction,Conductor*%
%TO.N,ROW0_L*%
G36*
X-81993912Y65586787D02*
G01*
X-81442989Y65157638D01*
X-81442342Y65157134D01*
X-81437921Y65149347D01*
X-81440302Y65140714D01*
X-81440445Y65140533D01*
X-81831130Y64658887D01*
X-81839004Y64654621D01*
X-81847587Y64657171D01*
X-82440249Y65137907D01*
X-82444514Y65145780D01*
X-82441964Y65154364D01*
X-82437737Y65157636D01*
X-82012800Y65351500D01*
X-82012800Y65577556D01*
X-82009373Y65585829D01*
X-82001100Y65589256D01*
X-81993912Y65586787D01*
G37*
%TD.AperFunction*%
%TD*%
%TA.AperFunction,Conductor*%
%TO.N,ROW0_L*%
G36*
X-116532231Y58074035D02*
G01*
X-116530401Y58072917D01*
X-115853894Y57659926D01*
X-115848618Y57652691D01*
X-115850004Y57643844D01*
X-115853188Y57640421D01*
X-116532295Y57155149D01*
X-116541018Y57153127D01*
X-116546412Y57155537D01*
X-116899851Y57438669D01*
X-116900809Y57439527D01*
X-117068213Y57606931D01*
X-117071640Y57615204D01*
X-117068213Y57623477D01*
X-117067593Y57624054D01*
X-116545955Y58072918D01*
X-116537451Y58075715D01*
X-116532231Y58074035D01*
G37*
%TD.AperFunction*%
%TD*%
%TA.AperFunction,Conductor*%
%TO.N,ROW0_L*%
G36*
X-81831236Y64642520D02*
G01*
X-81523859Y64334528D01*
X-81346662Y64156976D01*
X-81343243Y64148699D01*
X-81345583Y64141691D01*
X-81710990Y63654480D01*
X-81718695Y63649918D01*
X-81720350Y63649800D01*
X-81958650Y63649800D01*
X-81966923Y63653227D01*
X-81968010Y63654480D01*
X-82333418Y64141691D01*
X-82335640Y64150366D01*
X-82332340Y64156975D01*
X-81847781Y64642504D01*
X-81839512Y64645938D01*
X-81831236Y64642520D01*
G37*
%TD.AperFunction*%
%TD*%
%TA.AperFunction,Conductor*%
%TO.N,ROW0_L*%
G36*
X-64865916Y63427921D02*
G01*
X-64865418Y63427390D01*
X-64406371Y62906818D01*
X-64403469Y62898348D01*
X-64406351Y62891365D01*
X-64831068Y62407201D01*
X-64839099Y62403242D01*
X-64847579Y62406122D01*
X-64847591Y62406133D01*
X-65398626Y62890901D01*
X-65402574Y62898938D01*
X-65399682Y62907413D01*
X-65399233Y62907895D01*
X-65050429Y63259953D01*
X-64882461Y63427922D01*
X-64874189Y63431348D01*
X-64865916Y63427921D01*
G37*
%TD.AperFunction*%
%TD*%
%TA.AperFunction,Conductor*%
%TO.N,ROW0_L*%
G36*
X-132133045Y58072918D02*
G01*
X-131611430Y57624073D01*
X-131607394Y57616079D01*
X-131610192Y57607573D01*
X-131610788Y57606931D01*
X-131778192Y57439527D01*
X-131779150Y57438669D01*
X-132132589Y57155537D01*
X-132141188Y57153039D01*
X-132146706Y57155149D01*
X-132543474Y57438669D01*
X-132825814Y57640422D01*
X-132830552Y57648019D01*
X-132828530Y57656742D01*
X-132825110Y57659924D01*
X-132146770Y58074035D01*
X-132137924Y58075420D01*
X-132133045Y58072918D01*
G37*
%TD.AperFunction*%
%TD*%
%TA.AperFunction,Conductor*%
%TO.N,COL2_R*%
G36*
X5266161Y53313997D02*
G01*
X6613415Y52915388D01*
X6618369Y52912442D01*
X6784143Y52746668D01*
X6787570Y52738395D01*
X6784143Y52730122D01*
X6783518Y52729540D01*
X5660574Y51759674D01*
X5652072Y51756860D01*
X5648165Y51757841D01*
X4151838Y52424389D01*
X4145675Y52430886D01*
X4145911Y52439838D01*
X4149375Y52444281D01*
X5255632Y53311983D01*
X5264255Y53314391D01*
X5266161Y53313997D01*
G37*
%TD.AperFunction*%
%TD*%
%TA.AperFunction,Conductor*%
%TO.N,COL3_R*%
G36*
X5265882Y50774368D02*
G01*
X6770671Y50407975D01*
X6777899Y50402688D01*
X6779603Y50396607D01*
X6779603Y50161260D01*
X6776176Y50152987D01*
X6775418Y50152293D01*
X6691659Y50082095D01*
X6683117Y50079407D01*
X6680848Y50079836D01*
X6628862Y50095100D01*
X6628861Y50095100D01*
X6484939Y50095100D01*
X6484938Y50095100D01*
X6346847Y50054553D01*
X6225772Y49976743D01*
X6225770Y49976742D01*
X6225770Y49976741D01*
X6131522Y49867972D01*
X6071734Y49737056D01*
X6051253Y49594600D01*
X6056644Y49557101D01*
X6054429Y49548424D01*
X6052578Y49546469D01*
X5650672Y49209623D01*
X5642131Y49206935D01*
X5638309Y49207942D01*
X5634617Y49209623D01*
X4151326Y49885020D01*
X4145216Y49891567D01*
X4145526Y49900516D01*
X4148955Y49904875D01*
X5255915Y50772208D01*
X5264538Y50774612D01*
X5265882Y50774368D01*
G37*
%TD.AperFunction*%
%TD*%
%TA.AperFunction,Conductor*%
%TO.N,COL5_R*%
G36*
X2558535Y46367824D02*
G01*
X2558930Y46367652D01*
X3670796Y45855534D01*
X3676875Y45848961D01*
X3677600Y45844908D01*
X3677600Y45609893D01*
X3674173Y45601620D01*
X3670795Y45599266D01*
X2558938Y45087153D01*
X2549990Y45086805D01*
X2543416Y45092885D01*
X2543240Y45093288D01*
X2332873Y45599266D01*
X2281466Y45722910D01*
X2281455Y45731862D01*
X2543240Y46361514D01*
X2549580Y46367836D01*
X2558535Y46367824D01*
G37*
%TD.AperFunction*%
%TD*%
%TA.AperFunction,Conductor*%
%TO.N,COL1_L*%
G36*
X-23339162Y55931134D02*
G01*
X-23333529Y55924173D01*
X-23333274Y55923144D01*
X-23160444Y55057058D01*
X-23162186Y55048274D01*
X-23162197Y55048257D01*
X-23652821Y54315716D01*
X-23660272Y54310749D01*
X-23669053Y54312506D01*
X-23670229Y54313407D01*
X-23792993Y54420408D01*
X-24859000Y55349536D01*
X-24862985Y55357553D01*
X-24860132Y55366041D01*
X-24859600Y55366612D01*
X-24693768Y55532444D01*
X-24688818Y55535388D01*
X-23348065Y55932073D01*
X-23339162Y55931134D01*
G37*
%TD.AperFunction*%
%TD*%
%TA.AperFunction,Conductor*%
%TO.N,COL0_R*%
G36*
X-10917350Y48232077D02*
G01*
X-9576585Y47835388D01*
X-9571631Y47832442D01*
X-9405816Y47666627D01*
X-9402389Y47658354D01*
X-9405816Y47650081D01*
X-9406402Y47649534D01*
X-10595172Y46613407D01*
X-10603660Y46610554D01*
X-10611679Y46614540D01*
X-10612580Y46615716D01*
X-11103204Y47348257D01*
X-11104961Y47357036D01*
X-10932126Y48223147D01*
X-10927147Y48230586D01*
X-10918363Y48232328D01*
X-10917350Y48232077D01*
G37*
%TD.AperFunction*%
%TD*%
%TA.AperFunction,Conductor*%
%TO.N,VBAT_L*%
G36*
X-25893201Y7095858D02*
G01*
X-25890472Y7092156D01*
X-25642010Y6560825D01*
X-25641609Y6551879D01*
X-25647652Y6545271D01*
X-25651601Y6544212D01*
X-26235977Y6493726D01*
X-26244514Y6496428D01*
X-26247384Y6500023D01*
X-26431468Y6857230D01*
X-26432212Y6866154D01*
X-26431204Y6868435D01*
X-26312593Y7073886D01*
X-26305488Y7079336D01*
X-26303021Y7079722D01*
X-25901628Y7098887D01*
X-25893201Y7095858D01*
G37*
%TD.AperFunction*%
%TD*%
%TA.AperFunction,Conductor*%
%TO.N,VBAT_L*%
G36*
X-24217303Y42044347D02*
G01*
X-23624558Y41559053D01*
X-23620328Y41551160D01*
X-23622917Y41542588D01*
X-23624558Y41540947D01*
X-24217303Y41055654D01*
X-24225875Y41053065D01*
X-24229402Y41053987D01*
X-25070958Y41421934D01*
X-25077166Y41428388D01*
X-25077971Y41432654D01*
X-25077971Y41667347D01*
X-25074544Y41675620D01*
X-25070962Y41678065D01*
X-24229402Y42046015D01*
X-24220449Y42046189D01*
X-24217303Y42044347D01*
G37*
%TD.AperFunction*%
%TD*%
%TA.AperFunction,Conductor*%
%TO.N,BAT+_L*%
G36*
X-26643201Y5796821D02*
G01*
X-26640472Y5793118D01*
X-26392010Y5261786D01*
X-26391609Y5252840D01*
X-26397652Y5246232D01*
X-26401601Y5245173D01*
X-26985981Y5194681D01*
X-26994518Y5197383D01*
X-26997388Y5200978D01*
X-27024116Y5252840D01*
X-27181479Y5558186D01*
X-27182223Y5567110D01*
X-27181214Y5569391D01*
X-27062593Y5774836D01*
X-27055490Y5780285D01*
X-27053023Y5780671D01*
X-26651628Y5799849D01*
X-26643201Y5796821D01*
G37*
%TD.AperFunction*%
%TD*%
%TA.AperFunction,Conductor*%
%TO.N,COL4_R*%
G36*
X5590489Y48097684D02*
G01*
X6551515Y47481453D01*
X6556630Y47474103D01*
X6556900Y47471604D01*
X6556900Y47234397D01*
X6553473Y47226124D01*
X6551515Y47224548D01*
X5590494Y46608320D01*
X5581680Y46606739D01*
X5578816Y46607770D01*
X5137892Y46835165D01*
X4153962Y47342602D01*
X4148181Y47349439D01*
X4148927Y47358363D01*
X4153962Y47363399D01*
X5578817Y48098232D01*
X5587740Y48098977D01*
X5590489Y48097684D01*
G37*
%TD.AperFunction*%
%TD*%
M02*
