%TF.GenerationSoftware,KiCad,Pcbnew,8.0.7*%
%TF.CreationDate,2025-01-01T00:44:28+01:00*%
%TF.ProjectId,corne-xiao,636f726e-652d-4786-9961-6f2e6b696361,1.1*%
%TF.SameCoordinates,Original*%
%TF.FileFunction,Legend,Bot*%
%TF.FilePolarity,Positive*%
%FSLAX46Y46*%
G04 Gerber Fmt 4.6, Leading zero omitted, Abs format (unit mm)*
G04 Created by KiCad (PCBNEW 8.0.7) date 2025-01-01 00:44:28*
%MOMM*%
%LPD*%
G01*
G04 APERTURE LIST*
G04 Aperture macros list*
%AMRoundRect*
0 Rectangle with rounded corners*
0 $1 Rounding radius*
0 $2 $3 $4 $5 $6 $7 $8 $9 X,Y pos of 4 corners*
0 Add a 4 corners polygon primitive as box body*
4,1,4,$2,$3,$4,$5,$6,$7,$8,$9,$2,$3,0*
0 Add four circle primitives for the rounded corners*
1,1,$1+$1,$2,$3*
1,1,$1+$1,$4,$5*
1,1,$1+$1,$6,$7*
1,1,$1+$1,$8,$9*
0 Add four rect primitives between the rounded corners*
20,1,$1+$1,$2,$3,$4,$5,0*
20,1,$1+$1,$4,$5,$6,$7,0*
20,1,$1+$1,$6,$7,$8,$9,0*
20,1,$1+$1,$8,$9,$2,$3,0*%
G04 Aperture macros list end*
%ADD10C,0.125000*%
%ADD11C,0.150000*%
%ADD12O,2.826000X1.876000*%
%ADD13C,1.473000*%
%ADD14C,0.976000*%
%ADD15RoundRect,0.038000X0.258013X-0.553109X0.608013X0.053109X-0.258013X0.553109X-0.608013X-0.053109X0*%
%ADD16RoundRect,0.038000X1.462436X-0.266987X-0.962436X1.133013X-1.462436X0.266987X0.962436X-1.133013X0*%
%ADD17C,2.276000*%
%ADD18O,1.826000X1.276000*%
%ADD19RoundRect,0.038000X-0.608013X0.053109X-0.258013X-0.553109X0.608013X-0.053109X0.258013X0.553109X0*%
%ADD20RoundRect,0.038000X-0.962436X-1.133013X1.462436X0.266987X0.962436X1.133013X-1.462436X-0.266987X0*%
G04 APERTURE END LIST*
D10*
X-26693865Y43537396D02*
X-26646246Y43489776D01*
X-26646246Y43489776D02*
X-26503389Y43442157D01*
X-26503389Y43442157D02*
X-26408151Y43442157D01*
X-26408151Y43442157D02*
X-26265294Y43489776D01*
X-26265294Y43489776D02*
X-26170056Y43585015D01*
X-26170056Y43585015D02*
X-26122437Y43680253D01*
X-26122437Y43680253D02*
X-26074818Y43870729D01*
X-26074818Y43870729D02*
X-26074818Y44013586D01*
X-26074818Y44013586D02*
X-26122437Y44204062D01*
X-26122437Y44204062D02*
X-26170056Y44299300D01*
X-26170056Y44299300D02*
X-26265294Y44394538D01*
X-26265294Y44394538D02*
X-26408151Y44442157D01*
X-26408151Y44442157D02*
X-26503389Y44442157D01*
X-26503389Y44442157D02*
X-26646246Y44394538D01*
X-26646246Y44394538D02*
X-26693865Y44346919D01*
X-27074818Y43489776D02*
X-27217675Y43442157D01*
X-27217675Y43442157D02*
X-27455770Y43442157D01*
X-27455770Y43442157D02*
X-27551008Y43489776D01*
X-27551008Y43489776D02*
X-27598627Y43537396D01*
X-27598627Y43537396D02*
X-27646246Y43632634D01*
X-27646246Y43632634D02*
X-27646246Y43727872D01*
X-27646246Y43727872D02*
X-27598627Y43823110D01*
X-27598627Y43823110D02*
X-27551008Y43870729D01*
X-27551008Y43870729D02*
X-27455770Y43918348D01*
X-27455770Y43918348D02*
X-27265294Y43965967D01*
X-27265294Y43965967D02*
X-27170056Y44013586D01*
X-27170056Y44013586D02*
X-27122437Y44061205D01*
X-27122437Y44061205D02*
X-27074818Y44156443D01*
X-27074818Y44156443D02*
X-27074818Y44251681D01*
X-27074818Y44251681D02*
X-27122437Y44346919D01*
X-27122437Y44346919D02*
X-27170056Y44394538D01*
X-27170056Y44394538D02*
X-27265294Y44442157D01*
X-27265294Y44442157D02*
X-27503389Y44442157D01*
X-27503389Y44442157D02*
X-27646246Y44394538D01*
X556135Y43487396D02*
X603754Y43439776D01*
X603754Y43439776D02*
X746611Y43392157D01*
X746611Y43392157D02*
X841849Y43392157D01*
X841849Y43392157D02*
X984706Y43439776D01*
X984706Y43439776D02*
X1079944Y43535015D01*
X1079944Y43535015D02*
X1127563Y43630253D01*
X1127563Y43630253D02*
X1175182Y43820729D01*
X1175182Y43820729D02*
X1175182Y43963586D01*
X1175182Y43963586D02*
X1127563Y44154062D01*
X1127563Y44154062D02*
X1079944Y44249300D01*
X1079944Y44249300D02*
X984706Y44344538D01*
X984706Y44344538D02*
X841849Y44392157D01*
X841849Y44392157D02*
X746611Y44392157D01*
X746611Y44392157D02*
X603754Y44344538D01*
X603754Y44344538D02*
X556135Y44296919D01*
X175182Y43439776D02*
X32325Y43392157D01*
X32325Y43392157D02*
X-205770Y43392157D01*
X-205770Y43392157D02*
X-301008Y43439776D01*
X-301008Y43439776D02*
X-348627Y43487396D01*
X-348627Y43487396D02*
X-396246Y43582634D01*
X-396246Y43582634D02*
X-396246Y43677872D01*
X-396246Y43677872D02*
X-348627Y43773110D01*
X-348627Y43773110D02*
X-301008Y43820729D01*
X-301008Y43820729D02*
X-205770Y43868348D01*
X-205770Y43868348D02*
X-15294Y43915967D01*
X-15294Y43915967D02*
X79944Y43963586D01*
X79944Y43963586D02*
X127563Y44011205D01*
X127563Y44011205D02*
X175182Y44106443D01*
X175182Y44106443D02*
X175182Y44201681D01*
X175182Y44201681D02*
X127563Y44296919D01*
X127563Y44296919D02*
X79944Y44344538D01*
X79944Y44344538D02*
X-15294Y44392157D01*
X-15294Y44392157D02*
X-253389Y44392157D01*
X-253389Y44392157D02*
X-396246Y44344538D01*
D11*
%TO.C,PSW1*%
X-27970089Y1543013D02*
X-25458615Y93013D01*
X-25458615Y93013D02*
X-22083615Y5938684D01*
X-24551788Y7363684D02*
X-27970089Y1543013D01*
X-22083615Y5938684D02*
X-24551788Y7363684D01*
%TO.C,PSW2*%
X-12370385Y6226987D02*
X-8995385Y381316D01*
X-9858911Y7676987D02*
X-12370385Y6226987D01*
X-8995385Y381316D02*
X-6527212Y1806316D01*
X-6527212Y1806316D02*
X-9858911Y7676987D01*
%TD*%
%LPC*%
D12*
%TO.C,U1*%
X-38875200Y62673000D03*
X-38875200Y60133000D03*
X-38875200Y57593000D03*
X-38875200Y55053000D03*
X-38875200Y52513000D03*
X-38875200Y49973000D03*
X-38875200Y47433000D03*
X-22685200Y47433000D03*
X-22685200Y49973000D03*
X-22685200Y52513000D03*
X-22685200Y55053000D03*
X-22685200Y57593000D03*
X-22685200Y60133000D03*
X-22685200Y62673000D03*
D13*
X-35225200Y55370000D03*
X-26919400Y45807400D03*
X-25014400Y45807400D03*
%TD*%
D12*
%TO.C,U2*%
X-11580200Y62593000D03*
X-11580200Y60053000D03*
X-11580200Y57513000D03*
X-11580200Y54973000D03*
X-11580200Y52433000D03*
X-11580200Y49893000D03*
X-11580200Y47353000D03*
X4609800Y47353000D03*
X4609800Y49893000D03*
X4609800Y52433000D03*
X4609800Y54973000D03*
X4609800Y57513000D03*
X4609800Y60053000D03*
X4609800Y62593000D03*
D13*
X-7930200Y55290000D03*
X375600Y45727400D03*
X2280600Y45727400D03*
%TD*%
D14*
%TO.C,PSW1*%
X-24408634Y4971633D03*
X-25951936Y2398557D03*
D15*
X-25635781Y6546152D03*
X-27135781Y3948076D03*
X-27885781Y2649038D03*
D16*
X-27040333Y313397D03*
X-23065333Y7198299D03*
%TD*%
D17*
%TO.C,H7*%
X-23250600Y12105000D03*
%TD*%
%TO.C,H13*%
X3298400Y20616000D03*
%TD*%
D18*
%TO.C,B2*%
X-10604500Y39410000D03*
X-10604500Y41410000D03*
%TD*%
%TO.C,B1*%
X-23614500Y41550000D03*
X-23614500Y39550000D03*
%TD*%
D17*
%TO.C,H14*%
X-11133600Y12095000D03*
%TD*%
D14*
%TO.C,PSW2*%
X-8670366Y2878367D03*
X-10127064Y5501443D03*
D19*
X-6693219Y3153848D03*
X-8193219Y5751924D03*
X-8943219Y7050962D03*
D20*
X-11388667Y7486603D03*
X-7413667Y601701D03*
%TD*%
D17*
%TO.C,H6*%
X-37682600Y20626000D03*
%TD*%
%LPD*%
M02*
