%TF.GenerationSoftware,KiCad,Pcbnew,8.0.7*%
%TF.CreationDate,2025-01-01T00:44:28+01:00*%
%TF.ProjectId,corne-xiao,636f726e-652d-4786-9961-6f2e6b696361,1.1*%
%TF.SameCoordinates,Original*%
%TF.FileFunction,Soldermask,Bot*%
%TF.FilePolarity,Negative*%
%FSLAX46Y46*%
G04 Gerber Fmt 4.6, Leading zero omitted, Abs format (unit mm)*
G04 Created by KiCad (PCBNEW 8.0.7) date 2025-01-01 00:44:28*
%MOMM*%
%LPD*%
G01*
G04 APERTURE LIST*
G04 Aperture macros list*
%AMRoundRect*
0 Rectangle with rounded corners*
0 $1 Rounding radius*
0 $2 $3 $4 $5 $6 $7 $8 $9 X,Y pos of 4 corners*
0 Add a 4 corners polygon primitive as box body*
4,1,4,$2,$3,$4,$5,$6,$7,$8,$9,$2,$3,0*
0 Add four circle primitives for the rounded corners*
1,1,$1+$1,$2,$3*
1,1,$1+$1,$4,$5*
1,1,$1+$1,$6,$7*
1,1,$1+$1,$8,$9*
0 Add four rect primitives between the rounded corners*
20,1,$1+$1,$2,$3,$4,$5,0*
20,1,$1+$1,$4,$5,$6,$7,0*
20,1,$1+$1,$6,$7,$8,$9,0*
20,1,$1+$1,$8,$9,$2,$3,0*%
G04 Aperture macros list end*
%ADD10O,2.826000X1.876000*%
%ADD11C,1.473000*%
%ADD12C,0.976000*%
%ADD13RoundRect,0.038000X0.258013X-0.553109X0.608013X0.053109X-0.258013X0.553109X-0.608013X-0.053109X0*%
%ADD14RoundRect,0.038000X1.462436X-0.266987X-0.962436X1.133013X-1.462436X0.266987X0.962436X-1.133013X0*%
%ADD15C,2.276000*%
%ADD16O,1.826000X1.276000*%
%ADD17RoundRect,0.038000X-0.608013X0.053109X-0.258013X-0.553109X0.608013X-0.053109X0.258013X0.553109X0*%
%ADD18RoundRect,0.038000X-0.962436X-1.133013X1.462436X0.266987X0.962436X1.133013X-1.462436X-0.266987X0*%
G04 APERTURE END LIST*
D10*
%TO.C,U1*%
X-38875200Y62673000D03*
X-38875200Y60133000D03*
X-38875200Y57593000D03*
X-38875200Y55053000D03*
X-38875200Y52513000D03*
X-38875200Y49973000D03*
X-38875200Y47433000D03*
X-22685200Y47433000D03*
X-22685200Y49973000D03*
X-22685200Y52513000D03*
X-22685200Y55053000D03*
X-22685200Y57593000D03*
X-22685200Y60133000D03*
X-22685200Y62673000D03*
D11*
X-35225200Y55370000D03*
X-26919400Y45807400D03*
X-25014400Y45807400D03*
%TD*%
D10*
%TO.C,U2*%
X-11580200Y62593000D03*
X-11580200Y60053000D03*
X-11580200Y57513000D03*
X-11580200Y54973000D03*
X-11580200Y52433000D03*
X-11580200Y49893000D03*
X-11580200Y47353000D03*
X4609800Y47353000D03*
X4609800Y49893000D03*
X4609800Y52433000D03*
X4609800Y54973000D03*
X4609800Y57513000D03*
X4609800Y60053000D03*
X4609800Y62593000D03*
D11*
X-7930200Y55290000D03*
X375600Y45727400D03*
X2280600Y45727400D03*
%TD*%
D12*
%TO.C,PSW1*%
X-24408634Y4971633D03*
X-25951936Y2398557D03*
D13*
X-25635781Y6546152D03*
X-27135781Y3948076D03*
X-27885781Y2649038D03*
D14*
X-27040333Y313397D03*
X-23065333Y7198299D03*
%TD*%
D15*
%TO.C,H7*%
X-23250600Y12105000D03*
%TD*%
%TO.C,H13*%
X3298400Y20616000D03*
%TD*%
D16*
%TO.C,B2*%
X-10604500Y39410000D03*
X-10604500Y41410000D03*
%TD*%
%TO.C,B1*%
X-23614500Y41550000D03*
X-23614500Y39550000D03*
%TD*%
D15*
%TO.C,H14*%
X-11133600Y12095000D03*
%TD*%
D12*
%TO.C,PSW2*%
X-8670366Y2878367D03*
X-10127064Y5501443D03*
D17*
X-6693219Y3153848D03*
X-8193219Y5751924D03*
X-8943219Y7050962D03*
D18*
X-11388667Y7486603D03*
X-7413667Y601701D03*
%TD*%
D15*
%TO.C,H6*%
X-37682600Y20626000D03*
%TD*%
M02*
