%TF.GenerationSoftware,KiCad,Pcbnew,8.0.7*%
%TF.CreationDate,2025-01-03T21:23:36+01:00*%
%TF.ProjectId,_autosave-corne-xiao,5f617574-6f73-4617-9665-2d636f726e65,1.1*%
%TF.SameCoordinates,Original*%
%TF.FileFunction,Paste,Top*%
%TF.FilePolarity,Positive*%
%FSLAX46Y46*%
G04 Gerber Fmt 4.6, Leading zero omitted, Abs format (unit mm)*
G04 Created by KiCad (PCBNEW 8.0.7) date 2025-01-03 21:23:36*
%MOMM*%
%LPD*%
G01*
G04 APERTURE LIST*
G04 Aperture macros list*
%AMRotRect*
0 Rectangle, with rotation*
0 The origin of the aperture is its center*
0 $1 length*
0 $2 width*
0 $3 Rotation angle, in degrees counterclockwise*
0 Add horizontal line*
21,1,$1,$2,0,0,$3*%
G04 Aperture macros list end*
%ADD10R,1.400000X1.000000*%
%ADD11RotRect,1.400000X1.000000X165.000000*%
%ADD12RotRect,1.400000X1.000000X240.000000*%
%ADD13R,1.550000X2.000000*%
%ADD14R,2.000000X2.000000*%
%ADD15RotRect,1.550000X2.000000X345.000000*%
%ADD16RotRect,2.000000X2.000000X345.000000*%
%ADD17RotRect,1.550000X2.000000X60.000000*%
%ADD18RotRect,2.000000X2.000000X60.000000*%
%ADD19RotRect,1.550000X2.000000X300.000000*%
%ADD20RotRect,2.000000X2.000000X300.000000*%
%ADD21RotRect,1.400000X1.000000X15.000000*%
%ADD22RotRect,1.400000X1.000000X300.000000*%
%ADD23RotRect,1.550000X2.000000X15.000000*%
%ADD24RotRect,2.000000X2.000000X15.000000*%
%ADD25RotRect,0.700000X1.000000X240.000000*%
%ADD26RotRect,2.800000X1.000000X150.000000*%
%ADD27RotRect,0.700000X1.000000X120.000000*%
%ADD28RotRect,2.800000X1.000000X30.000000*%
G04 APERTURE END LIST*
D10*
%TO.C,D1*%
X-132839500Y57650000D03*
X-136389500Y57650000D03*
%TD*%
%TO.C,D2*%
X-115839500Y57650000D03*
X-119389500Y57650000D03*
%TD*%
%TO.C,D3*%
X-98839500Y62400000D03*
X-102389500Y62400000D03*
%TD*%
%TO.C,D4*%
X-81839500Y64649800D03*
X-85389500Y64649800D03*
%TD*%
%TO.C,D5*%
X-64839500Y62399100D03*
X-68389500Y62399100D03*
%TD*%
%TO.C,D6*%
X-47839500Y59899500D03*
X-51389500Y59899500D03*
%TD*%
%TO.C,D7*%
X-132777000Y40650000D03*
X-136327000Y40650000D03*
%TD*%
%TO.C,D8*%
X-115839500Y40650000D03*
X-119389500Y40650000D03*
%TD*%
%TO.C,D9*%
X-98839500Y45400000D03*
X-102389500Y45400000D03*
%TD*%
%TO.C,D10*%
X-81839500Y47650100D03*
X-85389500Y47650100D03*
%TD*%
%TO.C,D11*%
X-64839500Y45399500D03*
X-68389500Y45399500D03*
%TD*%
%TO.C,D12*%
X-47839500Y42899900D03*
X-51389500Y42899900D03*
%TD*%
%TO.C,D13*%
X-132777000Y23696900D03*
X-136327000Y23696900D03*
%TD*%
%TO.C,D14*%
X-115839500Y23650000D03*
X-119389500Y23650000D03*
%TD*%
%TO.C,D15*%
X-98839500Y28400000D03*
X-102389500Y28400000D03*
%TD*%
%TO.C,D16*%
X-81839500Y30650000D03*
X-85389500Y30650000D03*
%TD*%
%TO.C,D17*%
X-64839500Y28400000D03*
X-68389500Y28400000D03*
%TD*%
%TO.C,D18*%
X-47839500Y25900000D03*
X-51389500Y25900000D03*
%TD*%
%TO.C,D19*%
X-76339500Y8650000D03*
X-79889500Y8650000D03*
%TD*%
D11*
%TO.C,D20*%
X-54749982Y5290596D03*
X-58179018Y6209404D03*
%TD*%
D12*
%TO.C,D21*%
X-38977000Y-912805D03*
X-40752000Y-3987195D03*
%TD*%
D13*
%TO.C,SW2*%
X-120944600Y52450000D03*
X-115944600Y52450000D03*
D14*
X-124794600Y61100000D03*
X-124794600Y49100000D03*
X-112094600Y61100000D03*
X-112094600Y49100000D03*
%TD*%
D13*
%TO.C,SW3*%
X-103944600Y57200000D03*
X-98944600Y57200000D03*
D14*
X-107794600Y65850000D03*
X-107794600Y53850000D03*
X-95094600Y65850000D03*
X-95094600Y53850000D03*
%TD*%
D13*
%TO.C,SW4*%
X-86944600Y59574800D03*
X-81944600Y59574800D03*
D14*
X-90794600Y68224800D03*
X-90794600Y56224800D03*
X-78094600Y68224800D03*
X-78094600Y56224800D03*
%TD*%
D13*
%TO.C,SW5*%
X-69944600Y57199100D03*
X-64944600Y57199100D03*
D14*
X-73794600Y65849100D03*
X-73794600Y53849100D03*
X-61094600Y65849100D03*
X-61094600Y53849100D03*
%TD*%
D13*
%TO.C,SW7*%
X-137944600Y35450000D03*
X-132944600Y35450000D03*
D14*
X-141794600Y44100000D03*
X-141794600Y32100000D03*
X-129094600Y44100000D03*
X-129094600Y32100000D03*
%TD*%
D13*
%TO.C,SW8*%
X-120944600Y35450000D03*
X-115944600Y35450000D03*
D14*
X-124794600Y44100000D03*
X-124794600Y32100000D03*
X-112094600Y44100000D03*
X-112094600Y32100000D03*
%TD*%
D13*
%TO.C,SW9*%
X-103944600Y40200000D03*
X-98944600Y40200000D03*
D14*
X-107794600Y48850000D03*
X-107794600Y36850000D03*
X-95094600Y48850000D03*
X-95094600Y36850000D03*
%TD*%
D13*
%TO.C,SW10*%
X-86944600Y42575100D03*
X-81944600Y42575100D03*
D14*
X-90794600Y51225100D03*
X-90794600Y39225100D03*
X-78094600Y51225100D03*
X-78094600Y39225100D03*
%TD*%
D13*
%TO.C,SW11*%
X-69944600Y40199500D03*
X-64944600Y40199500D03*
D14*
X-73794600Y48849500D03*
X-73794600Y36849500D03*
X-61094600Y48849500D03*
X-61094600Y36849500D03*
%TD*%
D13*
%TO.C,SW12*%
X-52944600Y37824900D03*
X-47944600Y37824900D03*
D14*
X-56794600Y46474900D03*
X-56794600Y34474900D03*
X-44094600Y46474900D03*
X-44094600Y34474900D03*
%TD*%
D13*
%TO.C,SW13*%
X-137944600Y18450000D03*
X-132944600Y18450000D03*
D14*
X-141794600Y27100000D03*
X-141794600Y15100000D03*
X-129094600Y27100000D03*
X-129094600Y15100000D03*
%TD*%
D13*
%TO.C,SW14*%
X-120944600Y18450000D03*
X-115944600Y18450000D03*
D14*
X-124794600Y27100000D03*
X-124794600Y15100000D03*
X-112094600Y27100000D03*
X-112094600Y15100000D03*
%TD*%
D13*
%TO.C,SW15*%
X-103944600Y23200000D03*
X-98944600Y23200000D03*
D14*
X-107794600Y31850000D03*
X-107794600Y19850000D03*
X-95094600Y31850000D03*
X-95094600Y19850000D03*
%TD*%
D13*
%TO.C,SW16*%
X-86944600Y25575000D03*
X-81944600Y25575000D03*
D14*
X-90794600Y34225000D03*
X-90794600Y22225000D03*
X-78094600Y34225000D03*
X-78094600Y22225000D03*
%TD*%
D13*
%TO.C,SW17*%
X-69944600Y23200000D03*
X-64944600Y23200000D03*
D14*
X-73794600Y31850000D03*
X-73794600Y19850000D03*
X-61094600Y31850000D03*
X-61094600Y19850000D03*
%TD*%
D13*
%TO.C,SW18*%
X-52944600Y20825000D03*
X-47944600Y20825000D03*
D14*
X-56794600Y29475000D03*
X-56794600Y17475000D03*
X-44094600Y29475000D03*
X-44094600Y17475000D03*
%TD*%
D13*
%TO.C,SW19*%
X-81444600Y3575000D03*
X-76444600Y3575000D03*
D14*
X-85294600Y12225000D03*
X-85294600Y225000D03*
X-72594600Y12225000D03*
X-72594600Y225000D03*
%TD*%
D15*
%TO.C,SW20*%
X-61045285Y1562344D03*
X-56215656Y268249D03*
D16*
X-62525315Y10914056D03*
X-65631143Y-677054D03*
X-50258057Y7627054D03*
X-53363885Y-3964056D03*
%TD*%
D17*
%TO.C,SW21*%
X-37069533Y-7840064D03*
X-34569534Y-3509936D03*
D18*
X-46485652Y-6849261D03*
X-36093348Y-12849261D03*
X-40135652Y4149261D03*
X-29743348Y-1850739D03*
%TD*%
D19*
%TO.C,SW42*%
X340534Y-3509936D03*
X2840533Y-7840064D03*
D20*
X5906652Y4149261D03*
X-4485652Y-1850739D03*
X12256652Y-6849261D03*
X1864348Y-12849261D03*
%TD*%
D10*
%TO.C,D23*%
X83160500Y57550000D03*
X86710500Y57550000D03*
%TD*%
%TO.C,D24*%
X66160500Y62350000D03*
X69710500Y62350000D03*
%TD*%
%TO.C,D25*%
X49160500Y64750000D03*
X52710500Y64750000D03*
%TD*%
%TO.C,D27*%
X15160500Y59950000D03*
X18710500Y59950000D03*
%TD*%
%TO.C,D28*%
X100160500Y40550000D03*
X103710500Y40550000D03*
%TD*%
%TO.C,D29*%
X83160500Y40550000D03*
X86710500Y40550000D03*
%TD*%
%TO.C,D30*%
X66160500Y45350000D03*
X69710500Y45350000D03*
%TD*%
%TO.C,D31*%
X49160500Y47750000D03*
X52710500Y47750000D03*
%TD*%
%TO.C,D32*%
X32160500Y45350000D03*
X35710500Y45350000D03*
%TD*%
%TO.C,D33*%
X15160500Y42950000D03*
X18710500Y42950000D03*
%TD*%
%TO.C,D34*%
X100160500Y23550000D03*
X103710500Y23550000D03*
%TD*%
%TO.C,D35*%
X83160500Y23550000D03*
X86710500Y23550000D03*
%TD*%
%TO.C,D36*%
X66160500Y28350000D03*
X69710500Y28350000D03*
%TD*%
%TO.C,D37*%
X49160500Y30750000D03*
X52710500Y30750000D03*
%TD*%
%TO.C,D38*%
X32160500Y28350000D03*
X35710500Y28350000D03*
%TD*%
%TO.C,D39*%
X15160500Y25950000D03*
X18710500Y25950000D03*
%TD*%
%TO.C,D40*%
X43560500Y8750000D03*
X47110500Y8750000D03*
%TD*%
D21*
%TO.C,D41*%
X22020982Y5690596D03*
X25450018Y6609404D03*
%TD*%
D22*
%TO.C,D42*%
X5648000Y-2312805D03*
X7423000Y-5387195D03*
%TD*%
D10*
%TO.C,D22*%
X100160500Y57550000D03*
X103710500Y57550000D03*
%TD*%
D13*
%TO.C,SW37*%
X47562400Y25580000D03*
X52562400Y25580000D03*
D14*
X43712400Y34230000D03*
X43712400Y22230000D03*
X56412400Y34230000D03*
X56412400Y22230000D03*
%TD*%
D13*
%TO.C,SW38*%
X30562400Y23205000D03*
X35562400Y23205000D03*
D14*
X26712400Y31855000D03*
X26712400Y19855000D03*
X39412400Y31855000D03*
X39412400Y19855000D03*
%TD*%
D13*
%TO.C,SW39*%
X13562400Y20830000D03*
X18562400Y20830000D03*
D14*
X9712400Y29480000D03*
X9712400Y17480000D03*
X22412400Y29480000D03*
X22412400Y17480000D03*
%TD*%
D13*
%TO.C,SW40*%
X42062400Y3580000D03*
X47062400Y3580000D03*
D14*
X38212400Y12230000D03*
X38212400Y230000D03*
X50912400Y12230000D03*
X50912400Y230000D03*
%TD*%
D23*
%TO.C,SW41*%
X21833456Y273249D03*
X26663085Y1567344D03*
D24*
X15875857Y7632054D03*
X18981685Y-3959056D03*
X28143115Y10919056D03*
X31248943Y-672054D03*
%TD*%
D13*
%TO.C,SW25*%
X47562400Y59580000D03*
X52562400Y59580000D03*
D14*
X43712400Y68230000D03*
X43712400Y56230000D03*
X56412400Y68230000D03*
X56412400Y56230000D03*
%TD*%
D13*
%TO.C,SW26*%
X30562400Y57205000D03*
X35562400Y57205000D03*
D14*
X26712400Y65855000D03*
X26712400Y53855000D03*
X39412400Y65855000D03*
X39412400Y53855000D03*
%TD*%
D13*
%TO.C,SW28*%
X98562400Y35455000D03*
X103562400Y35455000D03*
D14*
X94712400Y44105000D03*
X94712400Y32105000D03*
X107412400Y44105000D03*
X107412400Y32105000D03*
%TD*%
D13*
%TO.C,SW24*%
X64562400Y57205000D03*
X69562400Y57205000D03*
D14*
X60712400Y65855000D03*
X60712400Y53855000D03*
X73412400Y65855000D03*
X73412400Y53855000D03*
%TD*%
D13*
%TO.C,SW29*%
X81562400Y35455000D03*
X86562400Y35455000D03*
D14*
X77712400Y44105000D03*
X77712400Y32105000D03*
X90412400Y44105000D03*
X90412400Y32105000D03*
%TD*%
D13*
%TO.C,SW35*%
X81562400Y18455000D03*
X86562400Y18455000D03*
D14*
X77712400Y27105000D03*
X77712400Y15105000D03*
X90412400Y27105000D03*
X90412400Y15105000D03*
%TD*%
D13*
%TO.C,SW36*%
X64562400Y23205000D03*
X69562400Y23205000D03*
D14*
X60712400Y31855000D03*
X60712400Y19855000D03*
X73412400Y31855000D03*
X73412400Y19855000D03*
%TD*%
D13*
%TO.C,SW22*%
X98562400Y52455000D03*
X103562400Y52455000D03*
D14*
X94712400Y61105000D03*
X94712400Y49105000D03*
X107412400Y61105000D03*
X107412400Y49105000D03*
%TD*%
D13*
%TO.C,SW23*%
X81562400Y52455000D03*
X86562400Y52455000D03*
D14*
X77712400Y61105000D03*
X77712400Y49105000D03*
X90412400Y61105000D03*
X90412400Y49105000D03*
%TD*%
D13*
%TO.C,SW30*%
X64562400Y40205000D03*
X69562400Y40205000D03*
D14*
X60712400Y48855000D03*
X60712400Y36855000D03*
X73412400Y48855000D03*
X73412400Y36855000D03*
%TD*%
D13*
%TO.C,SW31*%
X47562400Y42580000D03*
X52562400Y42580000D03*
D14*
X43712400Y51230000D03*
X43712400Y39230000D03*
X56412400Y51230000D03*
X56412400Y39230000D03*
%TD*%
D13*
%TO.C,SW32*%
X30562400Y40205000D03*
X35562400Y40205000D03*
D14*
X26712400Y48855000D03*
X26712400Y36855000D03*
X39412400Y48855000D03*
X39412400Y36855000D03*
%TD*%
D13*
%TO.C,SW33*%
X13562400Y37830000D03*
X18562400Y37830000D03*
D14*
X9712400Y46480000D03*
X9712400Y34480000D03*
X22412400Y46480000D03*
X22412400Y34480000D03*
%TD*%
D13*
%TO.C,SW34*%
X98562400Y18455000D03*
X103562400Y18455000D03*
D14*
X94712400Y27105000D03*
X94712400Y15105000D03*
X107412400Y27105000D03*
X107412400Y15105000D03*
%TD*%
D10*
%TO.C,D26*%
X32160500Y62350000D03*
X35710500Y62350000D03*
%TD*%
D13*
%TO.C,SW1*%
X-137944600Y52450000D03*
X-132944600Y52450000D03*
D14*
X-141794600Y61100000D03*
X-141794600Y49100000D03*
X-129094600Y61100000D03*
X-129094600Y49100000D03*
%TD*%
D13*
%TO.C,SW6*%
X-52944600Y54824500D03*
X-47944600Y54824500D03*
D14*
X-56794600Y63474500D03*
X-56794600Y51474500D03*
X-44094600Y63474500D03*
X-44094600Y51474500D03*
%TD*%
D13*
%TO.C,SW27*%
X13555400Y54825000D03*
X18555400Y54825000D03*
D14*
X9705400Y63475000D03*
X9705400Y51475000D03*
X22405400Y63475000D03*
X22405400Y51475000D03*
%TD*%
D25*
%TO.C,PSW1*%
X-27885781Y2649038D03*
X-26385781Y5247114D03*
X-25635781Y6546152D03*
D26*
X-27040333Y313397D03*
X-23065333Y7198299D03*
%TD*%
D27*
%TO.C,PSW2*%
X-8943219Y7050962D03*
X-7443219Y4452886D03*
X-6693219Y3153848D03*
D28*
X-11388667Y7486603D03*
X-7413667Y601701D03*
%TD*%
M02*
