%TF.GenerationSoftware,KiCad,Pcbnew,8.0.7*%
%TF.CreationDate,2025-01-03T21:23:36+01:00*%
%TF.ProjectId,_autosave-corne-xiao,5f617574-6f73-4617-9665-2d636f726e65,1.1*%
%TF.SameCoordinates,Original*%
%TF.FileFunction,Copper,L1,Top*%
%TF.FilePolarity,Positive*%
%FSLAX46Y46*%
G04 Gerber Fmt 4.6, Leading zero omitted, Abs format (unit mm)*
G04 Created by KiCad (PCBNEW 8.0.7) date 2025-01-03 21:23:36*
%MOMM*%
%LPD*%
G01*
G04 APERTURE LIST*
G04 Aperture macros list*
%AMRotRect*
0 Rectangle, with rotation*
0 The origin of the aperture is its center*
0 $1 length*
0 $2 width*
0 $3 Rotation angle, in degrees counterclockwise*
0 Add horizontal line*
21,1,$1,$2,0,0,$3*%
G04 Aperture macros list end*
%TA.AperFunction,SMDPad,CuDef*%
%ADD10R,1.400000X1.000000*%
%TD*%
%TA.AperFunction,SMDPad,CuDef*%
%ADD11RotRect,1.400000X1.000000X165.000000*%
%TD*%
%TA.AperFunction,SMDPad,CuDef*%
%ADD12RotRect,1.400000X1.000000X240.000000*%
%TD*%
%TA.AperFunction,SMDPad,CuDef*%
%ADD13R,1.550000X2.000000*%
%TD*%
%TA.AperFunction,SMDPad,CuDef*%
%ADD14R,2.000000X2.000000*%
%TD*%
%TA.AperFunction,SMDPad,CuDef*%
%ADD15RotRect,1.550000X2.000000X345.000000*%
%TD*%
%TA.AperFunction,SMDPad,CuDef*%
%ADD16RotRect,2.000000X2.000000X345.000000*%
%TD*%
%TA.AperFunction,SMDPad,CuDef*%
%ADD17RotRect,1.550000X2.000000X60.000000*%
%TD*%
%TA.AperFunction,SMDPad,CuDef*%
%ADD18RotRect,2.000000X2.000000X60.000000*%
%TD*%
%TA.AperFunction,SMDPad,CuDef*%
%ADD19RotRect,1.550000X2.000000X300.000000*%
%TD*%
%TA.AperFunction,SMDPad,CuDef*%
%ADD20RotRect,2.000000X2.000000X300.000000*%
%TD*%
%TA.AperFunction,SMDPad,CuDef*%
%ADD21RotRect,1.400000X1.000000X15.000000*%
%TD*%
%TA.AperFunction,SMDPad,CuDef*%
%ADD22RotRect,1.400000X1.000000X300.000000*%
%TD*%
%TA.AperFunction,SMDPad,CuDef*%
%ADD23RotRect,1.550000X2.000000X15.000000*%
%TD*%
%TA.AperFunction,SMDPad,CuDef*%
%ADD24RotRect,2.000000X2.000000X15.000000*%
%TD*%
%TA.AperFunction,ComponentPad*%
%ADD25O,2.750000X1.800000*%
%TD*%
%TA.AperFunction,ComponentPad*%
%ADD26C,1.397000*%
%TD*%
%TA.AperFunction,WasherPad*%
%ADD27C,0.900000*%
%TD*%
%TA.AperFunction,SMDPad,CuDef*%
%ADD28RotRect,0.700000X1.000000X240.000000*%
%TD*%
%TA.AperFunction,SMDPad,CuDef*%
%ADD29RotRect,2.800000X1.000000X150.000000*%
%TD*%
%TA.AperFunction,ComponentPad*%
%ADD30O,1.750000X1.200000*%
%TD*%
%TA.AperFunction,SMDPad,CuDef*%
%ADD31RotRect,0.700000X1.000000X120.000000*%
%TD*%
%TA.AperFunction,SMDPad,CuDef*%
%ADD32RotRect,2.800000X1.000000X30.000000*%
%TD*%
%TA.AperFunction,ViaPad*%
%ADD33C,0.600000*%
%TD*%
%TA.AperFunction,Conductor*%
%ADD34C,0.200000*%
%TD*%
G04 APERTURE END LIST*
D10*
%TO.P,D1,1,K*%
%TO.N,ROW0_L*%
X-132839500Y57650000D03*
%TO.P,D1,2,A*%
%TO.N,Net-(D1-A)*%
X-136389500Y57650000D03*
%TD*%
%TO.P,D2,1,K*%
%TO.N,ROW0_L*%
X-115839500Y57650000D03*
%TO.P,D2,2,A*%
%TO.N,Net-(D2-A)*%
X-119389500Y57650000D03*
%TD*%
%TO.P,D3,1,K*%
%TO.N,ROW0_L*%
X-98839500Y62400000D03*
%TO.P,D3,2,A*%
%TO.N,Net-(D3-A)*%
X-102389500Y62400000D03*
%TD*%
%TO.P,D4,1,K*%
%TO.N,ROW0_L*%
X-81839500Y64649800D03*
%TO.P,D4,2,A*%
%TO.N,Net-(D4-A)*%
X-85389500Y64649800D03*
%TD*%
%TO.P,D5,1,K*%
%TO.N,ROW0_L*%
X-64839500Y62399100D03*
%TO.P,D5,2,A*%
%TO.N,Net-(D5-A)*%
X-68389500Y62399100D03*
%TD*%
%TO.P,D6,1,K*%
%TO.N,ROW0_L*%
X-47839500Y59899500D03*
%TO.P,D6,2,A*%
%TO.N,Net-(D6-A)*%
X-51389500Y59899500D03*
%TD*%
%TO.P,D7,1,K*%
%TO.N,ROW1_L*%
X-132777000Y40650000D03*
%TO.P,D7,2,A*%
%TO.N,Net-(D7-A)*%
X-136327000Y40650000D03*
%TD*%
%TO.P,D8,1,K*%
%TO.N,ROW1_L*%
X-115839500Y40650000D03*
%TO.P,D8,2,A*%
%TO.N,Net-(D8-A)*%
X-119389500Y40650000D03*
%TD*%
%TO.P,D9,1,K*%
%TO.N,ROW1_L*%
X-98839500Y45400000D03*
%TO.P,D9,2,A*%
%TO.N,Net-(D9-A)*%
X-102389500Y45400000D03*
%TD*%
%TO.P,D10,1,K*%
%TO.N,ROW1_L*%
X-81839500Y47650100D03*
%TO.P,D10,2,A*%
%TO.N,Net-(D10-A)*%
X-85389500Y47650100D03*
%TD*%
%TO.P,D11,1,K*%
%TO.N,ROW1_L*%
X-64839500Y45399500D03*
%TO.P,D11,2,A*%
%TO.N,Net-(D11-A)*%
X-68389500Y45399500D03*
%TD*%
%TO.P,D12,1,K*%
%TO.N,ROW1_L*%
X-47839500Y42899900D03*
%TO.P,D12,2,A*%
%TO.N,Net-(D12-A)*%
X-51389500Y42899900D03*
%TD*%
%TO.P,D13,1,K*%
%TO.N,ROW2_L*%
X-132777000Y23696900D03*
%TO.P,D13,2,A*%
%TO.N,Net-(D13-A)*%
X-136327000Y23696900D03*
%TD*%
%TO.P,D14,1,K*%
%TO.N,ROW2_L*%
X-115839500Y23650000D03*
%TO.P,D14,2,A*%
%TO.N,Net-(D14-A)*%
X-119389500Y23650000D03*
%TD*%
%TO.P,D15,1,K*%
%TO.N,ROW2_L*%
X-98839500Y28400000D03*
%TO.P,D15,2,A*%
%TO.N,Net-(D15-A)*%
X-102389500Y28400000D03*
%TD*%
%TO.P,D16,1,K*%
%TO.N,ROW2_L*%
X-81839500Y30650000D03*
%TO.P,D16,2,A*%
%TO.N,Net-(D16-A)*%
X-85389500Y30650000D03*
%TD*%
%TO.P,D17,1,K*%
%TO.N,ROW2_L*%
X-64839500Y28400000D03*
%TO.P,D17,2,A*%
%TO.N,Net-(D17-A)*%
X-68389500Y28400000D03*
%TD*%
%TO.P,D18,1,K*%
%TO.N,ROW2_L*%
X-47839500Y25900000D03*
%TO.P,D18,2,A*%
%TO.N,Net-(D18-A)*%
X-51389500Y25900000D03*
%TD*%
%TO.P,D19,1,K*%
%TO.N,ROW3_L*%
X-76339500Y8650000D03*
%TO.P,D19,2,A*%
%TO.N,Net-(D19-A)*%
X-79889500Y8650000D03*
%TD*%
D11*
%TO.P,D20,1,K*%
%TO.N,ROW3_L*%
X-54749982Y5290596D03*
%TO.P,D20,2,A*%
%TO.N,Net-(D20-A)*%
X-58179018Y6209404D03*
%TD*%
D12*
%TO.P,D21,1,K*%
%TO.N,ROW3_L*%
X-38977000Y-912805D03*
%TO.P,D21,2,A*%
%TO.N,Net-(D21-A)*%
X-40752000Y-3987195D03*
%TD*%
D13*
%TO.P,SW2,1,1*%
%TO.N,COL1_L*%
X-120944600Y52450000D03*
%TO.P,SW2,2,2*%
%TO.N,Net-(D2-A)*%
X-115944600Y52450000D03*
D14*
%TO.P,SW2,3*%
%TO.N,N/C*%
X-124794600Y61100000D03*
X-124794600Y49100000D03*
X-112094600Y61100000D03*
X-112094600Y49100000D03*
%TD*%
D13*
%TO.P,SW3,1,1*%
%TO.N,COL2_L*%
X-103944600Y57200000D03*
%TO.P,SW3,2,2*%
%TO.N,Net-(D3-A)*%
X-98944600Y57200000D03*
D14*
%TO.P,SW3,3*%
%TO.N,N/C*%
X-107794600Y65850000D03*
X-107794600Y53850000D03*
X-95094600Y65850000D03*
X-95094600Y53850000D03*
%TD*%
D13*
%TO.P,SW4,1,1*%
%TO.N,COL3_L*%
X-86944600Y59574800D03*
%TO.P,SW4,2,2*%
%TO.N,Net-(D4-A)*%
X-81944600Y59574800D03*
D14*
%TO.P,SW4,3*%
%TO.N,N/C*%
X-90794600Y68224800D03*
X-90794600Y56224800D03*
X-78094600Y68224800D03*
X-78094600Y56224800D03*
%TD*%
D13*
%TO.P,SW5,1,1*%
%TO.N,COL4_L*%
X-69944600Y57199100D03*
%TO.P,SW5,2,2*%
%TO.N,Net-(D5-A)*%
X-64944600Y57199100D03*
D14*
%TO.P,SW5,3*%
%TO.N,N/C*%
X-73794600Y65849100D03*
X-73794600Y53849100D03*
X-61094600Y65849100D03*
X-61094600Y53849100D03*
%TD*%
D13*
%TO.P,SW7,1,1*%
%TO.N,COL0_L*%
X-137944600Y35450000D03*
%TO.P,SW7,2,2*%
%TO.N,Net-(D7-A)*%
X-132944600Y35450000D03*
D14*
%TO.P,SW7,3*%
%TO.N,N/C*%
X-141794600Y44100000D03*
X-141794600Y32100000D03*
X-129094600Y44100000D03*
X-129094600Y32100000D03*
%TD*%
D13*
%TO.P,SW8,1,1*%
%TO.N,COL1_L*%
X-120944600Y35450000D03*
%TO.P,SW8,2,2*%
%TO.N,Net-(D8-A)*%
X-115944600Y35450000D03*
D14*
%TO.P,SW8,3*%
%TO.N,N/C*%
X-124794600Y44100000D03*
X-124794600Y32100000D03*
X-112094600Y44100000D03*
X-112094600Y32100000D03*
%TD*%
D13*
%TO.P,SW9,1,1*%
%TO.N,COL2_L*%
X-103944600Y40200000D03*
%TO.P,SW9,2,2*%
%TO.N,Net-(D9-A)*%
X-98944600Y40200000D03*
D14*
%TO.P,SW9,3*%
%TO.N,N/C*%
X-107794600Y48850000D03*
X-107794600Y36850000D03*
X-95094600Y48850000D03*
X-95094600Y36850000D03*
%TD*%
D13*
%TO.P,SW10,1,1*%
%TO.N,COL3_L*%
X-86944600Y42575100D03*
%TO.P,SW10,2,2*%
%TO.N,Net-(D10-A)*%
X-81944600Y42575100D03*
D14*
%TO.P,SW10,3*%
%TO.N,N/C*%
X-90794600Y51225100D03*
X-90794600Y39225100D03*
X-78094600Y51225100D03*
X-78094600Y39225100D03*
%TD*%
D13*
%TO.P,SW11,1,1*%
%TO.N,COL4_L*%
X-69944600Y40199500D03*
%TO.P,SW11,2,2*%
%TO.N,Net-(D11-A)*%
X-64944600Y40199500D03*
D14*
%TO.P,SW11,3*%
%TO.N,N/C*%
X-73794600Y48849500D03*
X-73794600Y36849500D03*
X-61094600Y48849500D03*
X-61094600Y36849500D03*
%TD*%
D13*
%TO.P,SW12,1,1*%
%TO.N,COL5_L*%
X-52944600Y37824900D03*
%TO.P,SW12,2,2*%
%TO.N,Net-(D12-A)*%
X-47944600Y37824900D03*
D14*
%TO.P,SW12,3*%
%TO.N,N/C*%
X-56794600Y46474900D03*
X-56794600Y34474900D03*
X-44094600Y46474900D03*
X-44094600Y34474900D03*
%TD*%
D13*
%TO.P,SW13,1,1*%
%TO.N,COL0_L*%
X-137944600Y18450000D03*
%TO.P,SW13,2,2*%
%TO.N,Net-(D13-A)*%
X-132944600Y18450000D03*
D14*
%TO.P,SW13,3*%
%TO.N,N/C*%
X-141794600Y27100000D03*
X-141794600Y15100000D03*
X-129094600Y27100000D03*
X-129094600Y15100000D03*
%TD*%
D13*
%TO.P,SW14,1,1*%
%TO.N,COL1_L*%
X-120944600Y18450000D03*
%TO.P,SW14,2,2*%
%TO.N,Net-(D14-A)*%
X-115944600Y18450000D03*
D14*
%TO.P,SW14,3*%
%TO.N,N/C*%
X-124794600Y27100000D03*
X-124794600Y15100000D03*
X-112094600Y27100000D03*
X-112094600Y15100000D03*
%TD*%
D13*
%TO.P,SW15,1,1*%
%TO.N,COL2_L*%
X-103944600Y23200000D03*
%TO.P,SW15,2,2*%
%TO.N,Net-(D15-A)*%
X-98944600Y23200000D03*
D14*
%TO.P,SW15,3*%
%TO.N,N/C*%
X-107794600Y31850000D03*
X-107794600Y19850000D03*
X-95094600Y31850000D03*
X-95094600Y19850000D03*
%TD*%
D13*
%TO.P,SW16,1,1*%
%TO.N,COL3_L*%
X-86944600Y25575000D03*
%TO.P,SW16,2,2*%
%TO.N,Net-(D16-A)*%
X-81944600Y25575000D03*
D14*
%TO.P,SW16,3*%
%TO.N,N/C*%
X-90794600Y34225000D03*
X-90794600Y22225000D03*
X-78094600Y34225000D03*
X-78094600Y22225000D03*
%TD*%
D13*
%TO.P,SW17,1,1*%
%TO.N,COL4_L*%
X-69944600Y23200000D03*
%TO.P,SW17,2,2*%
%TO.N,Net-(D17-A)*%
X-64944600Y23200000D03*
D14*
%TO.P,SW17,3*%
%TO.N,N/C*%
X-73794600Y31850000D03*
X-73794600Y19850000D03*
X-61094600Y31850000D03*
X-61094600Y19850000D03*
%TD*%
D13*
%TO.P,SW18,1,1*%
%TO.N,COL5_L*%
X-52944600Y20825000D03*
%TO.P,SW18,2,2*%
%TO.N,Net-(D18-A)*%
X-47944600Y20825000D03*
D14*
%TO.P,SW18,3*%
%TO.N,N/C*%
X-56794600Y29475000D03*
X-56794600Y17475000D03*
X-44094600Y29475000D03*
X-44094600Y17475000D03*
%TD*%
D13*
%TO.P,SW19,1,1*%
%TO.N,COL2_L*%
X-81444600Y3575000D03*
%TO.P,SW19,2,2*%
%TO.N,Net-(D19-A)*%
X-76444600Y3575000D03*
D14*
%TO.P,SW19,3*%
%TO.N,N/C*%
X-85294600Y12225000D03*
X-85294600Y225000D03*
X-72594600Y12225000D03*
X-72594600Y225000D03*
%TD*%
D15*
%TO.P,SW20,1,1*%
%TO.N,COL3_L*%
X-61045285Y1562344D03*
%TO.P,SW20,2,2*%
%TO.N,Net-(D20-A)*%
X-56215656Y268249D03*
D16*
%TO.P,SW20,3*%
%TO.N,N/C*%
X-62525315Y10914056D03*
X-65631143Y-677054D03*
X-50258057Y7627054D03*
X-53363885Y-3964056D03*
%TD*%
D17*
%TO.P,SW21,1,1*%
%TO.N,COL4_L*%
X-37069533Y-7840064D03*
%TO.P,SW21,2,2*%
%TO.N,Net-(D21-A)*%
X-34569534Y-3509936D03*
D18*
%TO.P,SW21,3*%
%TO.N,N/C*%
X-46485652Y-6849261D03*
X-36093348Y-12849261D03*
X-40135652Y4149261D03*
X-29743348Y-1850739D03*
%TD*%
D19*
%TO.P,SW42,1,1*%
%TO.N,COL4_R*%
X340534Y-3509936D03*
%TO.P,SW42,2,2*%
%TO.N,Net-(D42-A)*%
X2840533Y-7840064D03*
D20*
%TO.P,SW42,3*%
%TO.N,N/C*%
X5906652Y4149261D03*
X-4485652Y-1850739D03*
X12256652Y-6849261D03*
X1864348Y-12849261D03*
%TD*%
D10*
%TO.P,D23,1,K*%
%TO.N,ROW0_R*%
X83160500Y57550000D03*
%TO.P,D23,2,A*%
%TO.N,Net-(D23-A)*%
X86710500Y57550000D03*
%TD*%
%TO.P,D24,1,K*%
%TO.N,ROW0_R*%
X66160500Y62350000D03*
%TO.P,D24,2,A*%
%TO.N,Net-(D24-A)*%
X69710500Y62350000D03*
%TD*%
%TO.P,D25,1,K*%
%TO.N,ROW0_R*%
X49160500Y64750000D03*
%TO.P,D25,2,A*%
%TO.N,Net-(D25-A)*%
X52710500Y64750000D03*
%TD*%
%TO.P,D27,1,K*%
%TO.N,ROW0_R*%
X15160500Y59950000D03*
%TO.P,D27,2,A*%
%TO.N,Net-(D27-A)*%
X18710500Y59950000D03*
%TD*%
%TO.P,D28,1,K*%
%TO.N,ROW1_R*%
X100160500Y40550000D03*
%TO.P,D28,2,A*%
%TO.N,Net-(D28-A)*%
X103710500Y40550000D03*
%TD*%
%TO.P,D29,1,K*%
%TO.N,ROW1_R*%
X83160500Y40550000D03*
%TO.P,D29,2,A*%
%TO.N,Net-(D29-A)*%
X86710500Y40550000D03*
%TD*%
%TO.P,D30,1,K*%
%TO.N,ROW1_R*%
X66160500Y45350000D03*
%TO.P,D30,2,A*%
%TO.N,Net-(D30-A)*%
X69710500Y45350000D03*
%TD*%
%TO.P,D31,1,K*%
%TO.N,ROW1_R*%
X49160500Y47750000D03*
%TO.P,D31,2,A*%
%TO.N,Net-(D31-A)*%
X52710500Y47750000D03*
%TD*%
%TO.P,D32,1,K*%
%TO.N,ROW1_R*%
X32160500Y45350000D03*
%TO.P,D32,2,A*%
%TO.N,Net-(D32-A)*%
X35710500Y45350000D03*
%TD*%
%TO.P,D33,1,K*%
%TO.N,ROW1_R*%
X15160500Y42950000D03*
%TO.P,D33,2,A*%
%TO.N,Net-(D33-A)*%
X18710500Y42950000D03*
%TD*%
%TO.P,D34,1,K*%
%TO.N,ROW2_R*%
X100160500Y23550000D03*
%TO.P,D34,2,A*%
%TO.N,Net-(D34-A)*%
X103710500Y23550000D03*
%TD*%
%TO.P,D35,1,K*%
%TO.N,ROW2_R*%
X83160500Y23550000D03*
%TO.P,D35,2,A*%
%TO.N,Net-(D35-A)*%
X86710500Y23550000D03*
%TD*%
%TO.P,D36,1,K*%
%TO.N,ROW2_R*%
X66160500Y28350000D03*
%TO.P,D36,2,A*%
%TO.N,Net-(D36-A)*%
X69710500Y28350000D03*
%TD*%
%TO.P,D37,1,K*%
%TO.N,ROW2_R*%
X49160500Y30750000D03*
%TO.P,D37,2,A*%
%TO.N,Net-(D37-A)*%
X52710500Y30750000D03*
%TD*%
%TO.P,D38,1,K*%
%TO.N,ROW2_R*%
X32160500Y28350000D03*
%TO.P,D38,2,A*%
%TO.N,Net-(D38-A)*%
X35710500Y28350000D03*
%TD*%
%TO.P,D39,1,K*%
%TO.N,ROW2_R*%
X15160500Y25950000D03*
%TO.P,D39,2,A*%
%TO.N,Net-(D39-A)*%
X18710500Y25950000D03*
%TD*%
%TO.P,D40,1,K*%
%TO.N,ROW3_R*%
X43560500Y8750000D03*
%TO.P,D40,2,A*%
%TO.N,Net-(D40-A)*%
X47110500Y8750000D03*
%TD*%
D21*
%TO.P,D41,1,K*%
%TO.N,ROW3_R*%
X22020982Y5690596D03*
%TO.P,D41,2,A*%
%TO.N,Net-(D41-A)*%
X25450018Y6609404D03*
%TD*%
D22*
%TO.P,D42,1,K*%
%TO.N,ROW3_R*%
X5648000Y-2312805D03*
%TO.P,D42,2,A*%
%TO.N,Net-(D42-A)*%
X7423000Y-5387195D03*
%TD*%
D10*
%TO.P,D22,1,K*%
%TO.N,ROW0_R*%
X100160500Y57550000D03*
%TO.P,D22,2,A*%
%TO.N,Net-(D22-A)*%
X103710500Y57550000D03*
%TD*%
D13*
%TO.P,SW37,1,1*%
%TO.N,COL3_R*%
X47562400Y25580000D03*
%TO.P,SW37,2,2*%
%TO.N,Net-(D37-A)*%
X52562400Y25580000D03*
D14*
%TO.P,SW37,3*%
%TO.N,N/C*%
X43712400Y34230000D03*
X43712400Y22230000D03*
X56412400Y34230000D03*
X56412400Y22230000D03*
%TD*%
D13*
%TO.P,SW38,1,1*%
%TO.N,COL4_R*%
X30562400Y23205000D03*
%TO.P,SW38,2,2*%
%TO.N,Net-(D38-A)*%
X35562400Y23205000D03*
D14*
%TO.P,SW38,3*%
%TO.N,N/C*%
X26712400Y31855000D03*
X26712400Y19855000D03*
X39412400Y31855000D03*
X39412400Y19855000D03*
%TD*%
D13*
%TO.P,SW39,1,1*%
%TO.N,COL5_R*%
X13562400Y20830000D03*
%TO.P,SW39,2,2*%
%TO.N,Net-(D39-A)*%
X18562400Y20830000D03*
D14*
%TO.P,SW39,3*%
%TO.N,N/C*%
X9712400Y29480000D03*
X9712400Y17480000D03*
X22412400Y29480000D03*
X22412400Y17480000D03*
%TD*%
D13*
%TO.P,SW40,1,1*%
%TO.N,COL2_R*%
X42062400Y3580000D03*
%TO.P,SW40,2,2*%
%TO.N,Net-(D40-A)*%
X47062400Y3580000D03*
D14*
%TO.P,SW40,3*%
%TO.N,N/C*%
X38212400Y12230000D03*
X38212400Y230000D03*
X50912400Y12230000D03*
X50912400Y230000D03*
%TD*%
D23*
%TO.P,SW41,1,1*%
%TO.N,COL3_R*%
X21833456Y273249D03*
%TO.P,SW41,2,2*%
%TO.N,Net-(D41-A)*%
X26663085Y1567344D03*
D24*
%TO.P,SW41,3*%
%TO.N,N/C*%
X15875857Y7632054D03*
X18981685Y-3959056D03*
X28143115Y10919056D03*
X31248943Y-672054D03*
%TD*%
D13*
%TO.P,SW25,1,1*%
%TO.N,COL3_R*%
X47562400Y59580000D03*
%TO.P,SW25,2,2*%
%TO.N,Net-(D25-A)*%
X52562400Y59580000D03*
D14*
%TO.P,SW25,3*%
%TO.N,N/C*%
X43712400Y68230000D03*
X43712400Y56230000D03*
X56412400Y68230000D03*
X56412400Y56230000D03*
%TD*%
D13*
%TO.P,SW26,1,1*%
%TO.N,COL4_R*%
X30562400Y57205000D03*
%TO.P,SW26,2,2*%
%TO.N,Net-(D26-A)*%
X35562400Y57205000D03*
D14*
%TO.P,SW26,3*%
%TO.N,N/C*%
X26712400Y65855000D03*
X26712400Y53855000D03*
X39412400Y65855000D03*
X39412400Y53855000D03*
%TD*%
D13*
%TO.P,SW28,1,1*%
%TO.N,COL0_R*%
X98562400Y35455000D03*
%TO.P,SW28,2,2*%
%TO.N,Net-(D28-A)*%
X103562400Y35455000D03*
D14*
%TO.P,SW28,3*%
%TO.N,N/C*%
X94712400Y44105000D03*
X94712400Y32105000D03*
X107412400Y44105000D03*
X107412400Y32105000D03*
%TD*%
D13*
%TO.P,SW24,1,1*%
%TO.N,COL2_R*%
X64562400Y57205000D03*
%TO.P,SW24,2,2*%
%TO.N,Net-(D24-A)*%
X69562400Y57205000D03*
D14*
%TO.P,SW24,3*%
%TO.N,N/C*%
X60712400Y65855000D03*
X60712400Y53855000D03*
X73412400Y65855000D03*
X73412400Y53855000D03*
%TD*%
D13*
%TO.P,SW29,1,1*%
%TO.N,COL1_R*%
X81562400Y35455000D03*
%TO.P,SW29,2,2*%
%TO.N,Net-(D29-A)*%
X86562400Y35455000D03*
D14*
%TO.P,SW29,3*%
%TO.N,N/C*%
X77712400Y44105000D03*
X77712400Y32105000D03*
X90412400Y44105000D03*
X90412400Y32105000D03*
%TD*%
D13*
%TO.P,SW35,1,1*%
%TO.N,COL1_R*%
X81562400Y18455000D03*
%TO.P,SW35,2,2*%
%TO.N,Net-(D35-A)*%
X86562400Y18455000D03*
D14*
%TO.P,SW35,3*%
%TO.N,N/C*%
X77712400Y27105000D03*
X77712400Y15105000D03*
X90412400Y27105000D03*
X90412400Y15105000D03*
%TD*%
D13*
%TO.P,SW36,1,1*%
%TO.N,COL2_R*%
X64562400Y23205000D03*
%TO.P,SW36,2,2*%
%TO.N,Net-(D36-A)*%
X69562400Y23205000D03*
D14*
%TO.P,SW36,3*%
%TO.N,N/C*%
X60712400Y31855000D03*
X60712400Y19855000D03*
X73412400Y31855000D03*
X73412400Y19855000D03*
%TD*%
D13*
%TO.P,SW22,1,1*%
%TO.N,COL0_R*%
X98562400Y52455000D03*
%TO.P,SW22,2,2*%
%TO.N,Net-(D22-A)*%
X103562400Y52455000D03*
D14*
%TO.P,SW22,3*%
%TO.N,N/C*%
X94712400Y61105000D03*
X94712400Y49105000D03*
X107412400Y61105000D03*
X107412400Y49105000D03*
%TD*%
D13*
%TO.P,SW23,1,1*%
%TO.N,COL1_R*%
X81562400Y52455000D03*
%TO.P,SW23,2,2*%
%TO.N,Net-(D23-A)*%
X86562400Y52455000D03*
D14*
%TO.P,SW23,3*%
%TO.N,N/C*%
X77712400Y61105000D03*
X77712400Y49105000D03*
X90412400Y61105000D03*
X90412400Y49105000D03*
%TD*%
D13*
%TO.P,SW30,1,1*%
%TO.N,COL2_R*%
X64562400Y40205000D03*
%TO.P,SW30,2,2*%
%TO.N,Net-(D30-A)*%
X69562400Y40205000D03*
D14*
%TO.P,SW30,3*%
%TO.N,N/C*%
X60712400Y48855000D03*
X60712400Y36855000D03*
X73412400Y48855000D03*
X73412400Y36855000D03*
%TD*%
D13*
%TO.P,SW31,1,1*%
%TO.N,COL3_R*%
X47562400Y42580000D03*
%TO.P,SW31,2,2*%
%TO.N,Net-(D31-A)*%
X52562400Y42580000D03*
D14*
%TO.P,SW31,3*%
%TO.N,N/C*%
X43712400Y51230000D03*
X43712400Y39230000D03*
X56412400Y51230000D03*
X56412400Y39230000D03*
%TD*%
D13*
%TO.P,SW32,1,1*%
%TO.N,COL4_R*%
X30562400Y40205000D03*
%TO.P,SW32,2,2*%
%TO.N,Net-(D32-A)*%
X35562400Y40205000D03*
D14*
%TO.P,SW32,3*%
%TO.N,N/C*%
X26712400Y48855000D03*
X26712400Y36855000D03*
X39412400Y48855000D03*
X39412400Y36855000D03*
%TD*%
D13*
%TO.P,SW33,1,1*%
%TO.N,COL5_R*%
X13562400Y37830000D03*
%TO.P,SW33,2,2*%
%TO.N,Net-(D33-A)*%
X18562400Y37830000D03*
D14*
%TO.P,SW33,3*%
%TO.N,N/C*%
X9712400Y46480000D03*
X9712400Y34480000D03*
X22412400Y46480000D03*
X22412400Y34480000D03*
%TD*%
D13*
%TO.P,SW34,1,1*%
%TO.N,COL0_R*%
X98562400Y18455000D03*
%TO.P,SW34,2,2*%
%TO.N,Net-(D34-A)*%
X103562400Y18455000D03*
D14*
%TO.P,SW34,3*%
%TO.N,N/C*%
X94712400Y27105000D03*
X94712400Y15105000D03*
X107412400Y27105000D03*
X107412400Y15105000D03*
%TD*%
D10*
%TO.P,D26,1,K*%
%TO.N,ROW0_R*%
X32160500Y62350000D03*
%TO.P,D26,2,A*%
%TO.N,Net-(D26-A)*%
X35710500Y62350000D03*
%TD*%
D13*
%TO.P,SW1,1,1*%
%TO.N,COL0_L*%
X-137944600Y52450000D03*
%TO.P,SW1,2,2*%
%TO.N,Net-(D1-A)*%
X-132944600Y52450000D03*
D14*
%TO.P,SW1,3*%
%TO.N,N/C*%
X-141794600Y61100000D03*
X-141794600Y49100000D03*
X-129094600Y61100000D03*
X-129094600Y49100000D03*
%TD*%
D13*
%TO.P,SW6,1,1*%
%TO.N,COL5_L*%
X-52944600Y54824500D03*
%TO.P,SW6,2,2*%
%TO.N,Net-(D6-A)*%
X-47944600Y54824500D03*
D14*
%TO.P,SW6,3*%
%TO.N,N/C*%
X-56794600Y63474500D03*
X-56794600Y51474500D03*
X-44094600Y63474500D03*
X-44094600Y51474500D03*
%TD*%
D13*
%TO.P,SW27,1,1*%
%TO.N,COL5_R*%
X13555400Y54825000D03*
%TO.P,SW27,2,2*%
%TO.N,Net-(D27-A)*%
X18555400Y54825000D03*
D14*
%TO.P,SW27,3*%
%TO.N,N/C*%
X9705400Y63475000D03*
X9705400Y51475000D03*
X22405400Y63475000D03*
X22405400Y51475000D03*
%TD*%
D25*
%TO.P,U1,1,A2/0.02_H*%
%TO.N,ROW0_L*%
X-38875200Y63723100D03*
%TO.P,U1,2,A4/0.03_H*%
%TO.N,ROW1_L*%
X-38875200Y61183100D03*
%TO.P,U1,3,A10/0.28*%
%TO.N,ROW2_L*%
X-38875200Y58643100D03*
%TO.P,U1,4,A11/0.29*%
%TO.N,ROW3_L*%
X-38875200Y56103100D03*
%TO.P,U1,5,A8_SDA/0.04_H*%
%TO.N,SDA_L*%
X-38875200Y53563100D03*
%TO.P,U1,6,A9_SCL/0.05_H*%
%TO.N,SCL_L*%
X-38875200Y51023100D03*
%TO.P,U1,7,B8_TX/1.11*%
%TO.N,COL0_L*%
X-38875200Y48483100D03*
%TO.P,U1,8,B9_RX/1.12*%
%TO.N,COL4_L*%
X-22685200Y48483100D03*
%TO.P,U1,9,A7_SCK/1.13*%
%TO.N,COL3_L*%
X-22685200Y51023100D03*
%TO.P,U1,10,A5_MISO/1.14*%
%TO.N,COL2_L*%
X-22685200Y53563100D03*
%TO.P,U1,11,A6_MOSI/1.15*%
%TO.N,COL1_L*%
X-22685200Y56103100D03*
%TO.P,U1,12,3V3*%
%TO.N,VCC*%
X-22685200Y58643100D03*
%TO.P,U1,13,GND*%
%TO.N,GND*%
X-22685200Y61183100D03*
%TO.P,U1,14,5V*%
%TO.N,unconnected-(U1-5V-Pad14)*%
X-22685200Y63723100D03*
D26*
%TO.P,U1,15,BAT*%
%TO.N,BAT+_L*%
X-35225200Y56420100D03*
%TO.P,U1,16,NFC1/0.09_H*%
%TO.N,CS_L*%
X-26919400Y46857500D03*
%TO.P,U1,17,NFC2/0.10_H*%
%TO.N,COL5_L*%
X-25014400Y46857500D03*
%TD*%
D25*
%TO.P,U2,1,A2/0.02_H*%
%TO.N,ROW0_R*%
X-11580200Y63643100D03*
%TO.P,U2,2,A4/0.03_H*%
%TO.N,ROW1_R*%
X-11580200Y61103100D03*
%TO.P,U2,3,A10/0.28*%
%TO.N,ROW2_R*%
X-11580200Y58563100D03*
%TO.P,U2,4,A11/0.29*%
%TO.N,ROW3_R*%
X-11580200Y56023100D03*
%TO.P,U2,5,A8_SDA/0.04_H*%
%TO.N,SDA_R*%
X-11580200Y53483100D03*
%TO.P,U2,6,A9_SCL/0.05_H*%
%TO.N,SCL_R*%
X-11580200Y50943100D03*
%TO.P,U2,7,B8_TX/1.11*%
%TO.N,COL0_R*%
X-11580200Y48403100D03*
%TO.P,U2,8,B9_RX/1.12*%
%TO.N,COL4_R*%
X4609800Y48403100D03*
%TO.P,U2,9,A7_SCK/1.13*%
%TO.N,COL3_R*%
X4609800Y50943100D03*
%TO.P,U2,10,A5_MISO/1.14*%
%TO.N,COL2_R*%
X4609800Y53483100D03*
%TO.P,U2,11,A6_MOSI/1.15*%
%TO.N,COL1_R*%
X4609800Y56023100D03*
%TO.P,U2,12,3V3*%
%TO.N,VCCQ*%
X4609800Y58563100D03*
%TO.P,U2,13,GND*%
%TO.N,GND1*%
X4609800Y61103100D03*
%TO.P,U2,14,5V*%
%TO.N,unconnected-(U2-5V-Pad14)*%
X4609800Y63643100D03*
D26*
%TO.P,U2,15,BAT*%
%TO.N,BAT+_R*%
X-7930200Y56340100D03*
%TO.P,U2,16,NFC1/0.09_H*%
%TO.N,CS_R*%
X375600Y46777500D03*
%TO.P,U2,17,NFC2/0.10_H*%
%TO.N,COL5_R*%
X2280600Y46777500D03*
%TD*%
D27*
%TO.P,PSW1,*%
%TO.N,*%
X-24408634Y4971633D03*
X-25951936Y2398557D03*
D28*
%TO.P,PSW1,1,A*%
%TO.N,unconnected-(PSW1-A-Pad1)_1*%
X-27885781Y2649038D03*
%TO.P,PSW1,2,B*%
%TO.N,BAT+_L*%
X-26385781Y5247114D03*
%TO.P,PSW1,3,C*%
%TO.N,VBAT_L*%
X-25635781Y6546152D03*
D29*
%TO.P,PSW1,NC*%
%TO.N,N/C*%
X-27040333Y313397D03*
X-23065333Y7198299D03*
%TD*%
D30*
%TO.P,B2,1,Pin_1*%
%TO.N,VBAT_R*%
X-10604500Y39410000D03*
%TO.P,B2,2,Pin_2*%
%TO.N,GND1*%
X-10604500Y41410000D03*
%TD*%
%TO.P,B1,1,Pin_1*%
%TO.N,VBAT_L*%
X-23614500Y41550000D03*
%TO.P,B1,2,Pin_2*%
%TO.N,GND*%
X-23614500Y39550000D03*
%TD*%
D27*
%TO.P,PSW2,*%
%TO.N,*%
X-8670366Y2878367D03*
X-10127064Y5501443D03*
D31*
%TO.P,PSW2,1,A*%
%TO.N,unconnected-(PSW2-A-Pad1)_1*%
X-8943219Y7050962D03*
%TO.P,PSW2,2,B*%
%TO.N,BAT+_R*%
X-7443219Y4452886D03*
%TO.P,PSW2,3,C*%
%TO.N,VBAT_R*%
X-6693219Y3153848D03*
D32*
%TO.P,PSW2,NC*%
%TO.N,N/C*%
X-11388667Y7486603D03*
X-7413667Y601701D03*
%TD*%
D33*
%TO.N,*%
X70604250Y69384375D03*
X32885500Y69650000D03*
X-66989500Y69650000D03*
X-104708250Y69384375D03*
X-140833250Y12009375D03*
X-140036375Y12009375D03*
X-139239500Y12009375D03*
X-138442625Y12009375D03*
X-137645750Y12009375D03*
X-109223875Y12009375D03*
X-108427000Y12009375D03*
X-107630125Y12009375D03*
X-106833250Y12009375D03*
X-106036375Y12009375D03*
X-105239500Y12009375D03*
X71401125Y12009375D03*
X72198000Y12009375D03*
X72994875Y12009375D03*
X73791750Y12009375D03*
X74588625Y12009375D03*
X75385500Y12009375D03*
X103276125Y12009375D03*
X104073000Y12009375D03*
X104869875Y12009375D03*
X105666750Y12009375D03*
X106463625Y12009375D03*
X107260500Y12009375D03*
X69807375Y69384375D03*
X69010500Y69384375D03*
X68213625Y69384375D03*
X67416750Y69384375D03*
X66619875Y69384375D03*
X36869875Y69650000D03*
X36073000Y69650000D03*
X35276125Y69650000D03*
X34479250Y69650000D03*
X33682375Y69650000D03*
X-67786375Y69650000D03*
X-68583250Y69650000D03*
X-69380125Y69650000D03*
X-70177000Y69650000D03*
X-70973875Y69650000D03*
X-100723875Y69384375D03*
X-101520750Y69384375D03*
X-102317625Y69384375D03*
X-103114500Y69384375D03*
X-103911375Y69384375D03*
%TO.N,VBAT_L*%
X-29137938Y7892188D03*
%TO.N,VBAT_R*%
X-8169500Y8415700D03*
%TO.N,GND1*%
X-1375500Y42336700D03*
%TO.N,ROW1_L*%
X-45815500Y43995000D03*
X-41755125Y60263900D03*
%TO.N,ROW2_L*%
X-46442500Y25900000D03*
X-46442500Y58027800D03*
X-84786375Y27150000D03*
X-83491200Y31552500D03*
%TO.N,ROW3_L*%
X-52898500Y8018900D03*
%TO.N,ROW1_R*%
X-2025500Y43884375D03*
%TO.N,ROW2_R*%
X-4320500Y25950000D03*
%TO.N,ROW3_R*%
X-583250Y10946875D03*
X2194500Y-3039100D03*
%TO.N,BAT+_L*%
X-35114500Y12540625D03*
X-28739500Y5751000D03*
%TO.N,BAT+_R*%
X-6161375Y5900000D03*
%TO.N,COL0_L*%
X-136923700Y50937600D03*
X-136638100Y35384375D03*
X-136638100Y19776700D03*
%TO.N,COL1_L*%
X-118800200Y51123300D03*
X-120944600Y33916300D03*
X-40692625Y54833100D03*
X-43957500Y52984000D03*
X-122574100Y18882400D03*
%TO.N,COL2_L*%
X-94880125Y13603125D03*
X-101078000Y40377600D03*
X-100903500Y55260600D03*
X-101078000Y22727400D03*
%TO.N,COL3_L*%
X-86438000Y51569300D03*
X-85641700Y42575100D03*
X-85641700Y25575000D03*
X-70011000Y1478800D03*
X-86438000Y58061600D03*
%TO.N,COL4_L*%
X-68000500Y47048500D03*
X-67809600Y40377600D03*
X-67949000Y22727400D03*
X-49458250Y-2865625D03*
X-67809600Y57199100D03*
%TO.N,COL5_L*%
X-55229500Y46149200D03*
X-54770750Y21571875D03*
X-54505125Y38306250D03*
X-54505125Y54760300D03*
X-27614500Y44783700D03*
%TO.N,COL0_R*%
X96763500Y18495200D03*
X100413500Y52144400D03*
X100413500Y50431700D03*
X100413500Y36781700D03*
%TO.N,COL1_R*%
X82916500Y51379800D03*
X82916500Y35210000D03*
X82916500Y19781700D03*
%TO.N,COL2_R*%
X43010500Y54422600D03*
X63145500Y23205000D03*
X63145500Y13902300D03*
X45398500Y13902300D03*
X45398500Y3580000D03*
X63166750Y55571875D03*
X63145500Y40377600D03*
X41931500Y51377500D03*
%TO.N,COL3_R*%
X45571500Y16844000D03*
X45571500Y25580000D03*
X45763500Y42620200D03*
X19019500Y50221300D03*
X25016500Y16844000D03*
X45773500Y59525100D03*
X22587500Y1931600D03*
%TO.N,COL4_R*%
X28638100Y23140800D03*
X23968500Y49849400D03*
X6556500Y49594600D03*
X5011500Y-3926100D03*
X28462500Y40816700D03*
X6588625Y48134375D03*
X28638500Y57140800D03*
%TO.N,COL5_R*%
X12269500Y37830000D03*
X8448000Y48134375D03*
X12154500Y20543300D03*
X12151500Y55090100D03*
%TD*%
D34*
%TO.N,VBAT_L*%
X-29137938Y7892188D02*
X-26981788Y7892188D01*
X-26981788Y7892188D02*
X-25635800Y6546200D01*
%TO.N,VBAT_R*%
X-6693200Y3153800D02*
X-5098875Y4748125D01*
X-5098875Y8415700D02*
X-8169500Y8415700D01*
X-5098875Y4748125D02*
X-5098875Y8415700D01*
%TO.N,GND1*%
X-1375500Y42336700D02*
X-2302200Y41410000D01*
X-2302200Y41410000D02*
X-10604500Y41410000D01*
%TO.N,ROW0_L*%
X-131837800Y57650000D02*
X-132839500Y57650000D01*
X-109399575Y59290625D02*
X-116679925Y59290625D01*
X-92421125Y64071875D02*
X-98839500Y64071875D01*
X-40551900Y63723100D02*
X-42677600Y61597400D01*
X-49184600Y61150000D02*
X-64839500Y61150000D01*
X-64839500Y61150000D02*
X-64839500Y62399100D01*
X-80005125Y66462500D02*
X-90030500Y66462500D01*
X-98839500Y62400000D02*
X-98839500Y64071875D01*
X-64839500Y63200800D02*
X-78571099Y63200800D01*
X-64839500Y62399100D02*
X-64839500Y63200800D01*
X-130197175Y59290625D02*
X-131837800Y57650000D01*
X-98839500Y64071875D02*
X-104618325Y64071875D01*
X-98338600Y62400000D02*
X-98839500Y62400000D01*
X-116679925Y59290625D02*
X-130197175Y59290625D01*
X-47839500Y59899500D02*
X-47839500Y61572400D01*
X-104618325Y64071875D02*
X-109399575Y59290625D01*
X-48737200Y61597400D02*
X-49184600Y61150000D01*
X-115839500Y57650000D02*
X-115839500Y59290625D01*
X-78571099Y63200800D02*
X-80005125Y64634826D01*
X-81839500Y64649800D02*
X-81839500Y66437500D01*
X-90030500Y66462500D02*
X-92421125Y64071875D01*
X-42677600Y61597400D02*
X-47864500Y61597400D01*
X-80005125Y64634826D02*
X-80005125Y66462500D01*
X-47839500Y61572400D02*
X-47864500Y61597400D01*
X-47864500Y61597400D02*
X-48737200Y61597400D01*
X-38400200Y63723100D02*
X-40551900Y63723100D01*
%TO.N,Net-(D1-A)*%
X-136389500Y57650000D02*
X-136389500Y56848300D01*
X-132944600Y52450000D02*
X-132944600Y53403400D01*
X-132944600Y53403400D02*
X-133292900Y53751700D01*
X-133292900Y53751700D02*
X-136389500Y56848300D01*
%TO.N,Net-(D2-A)*%
X-115944600Y52450000D02*
X-117021300Y52450000D01*
X-119389500Y57650000D02*
X-119389500Y56848300D01*
X-117021300Y54480100D02*
X-119389500Y56848300D01*
X-117021300Y52450000D02*
X-117021300Y54480100D01*
%TO.N,Net-(D3-A)*%
X-100021300Y57200000D02*
X-100021300Y59230100D01*
X-100021300Y59230100D02*
X-102389500Y61598300D01*
X-102389500Y62400000D02*
X-102389500Y61598300D01*
X-98944600Y57200000D02*
X-100021300Y57200000D01*
%TO.N,Net-(D4-A)*%
X-85389500Y64649800D02*
X-85389500Y63848100D01*
X-83021300Y61479900D02*
X-85389500Y63848100D01*
X-81944600Y59574800D02*
X-83021300Y59574800D01*
X-83021300Y59574800D02*
X-83021300Y61479900D01*
%TO.N,Net-(D5-A)*%
X-64944600Y58500800D02*
X-65292900Y58500800D01*
X-68389500Y62399100D02*
X-68389500Y61597400D01*
X-64944600Y57199100D02*
X-64944600Y58500800D01*
X-65292900Y58500800D02*
X-68389500Y61597400D01*
%TO.N,Net-(D6-A)*%
X-47944600Y54824500D02*
X-49021300Y54824500D01*
X-49021300Y54824500D02*
X-49021300Y56729600D01*
X-49021300Y56729600D02*
X-51389500Y59097800D01*
X-51389500Y59899500D02*
X-51389500Y59097800D01*
%TO.N,ROW1_L*%
X-47598875Y43995000D02*
X-47598875Y43140525D01*
X-81864500Y48931250D02*
X-80270750Y48931250D01*
X-45815500Y43995000D02*
X-64236700Y43995000D01*
X-98839500Y46781250D02*
X-98864500Y46806250D01*
X-80270750Y47900751D02*
X-78627199Y46257200D01*
X-131938075Y42290625D02*
X-115067625Y42290625D01*
X-98598875Y47071875D02*
X-89567625Y47071875D01*
X-115067625Y42290625D02*
X-115067625Y46806250D01*
X-89567625Y47071875D02*
X-87708250Y48931250D01*
X-81839500Y48906250D02*
X-81864500Y48931250D01*
X-41471100Y60263900D02*
X-40551900Y61183100D01*
X-64839500Y45399500D02*
X-64839500Y44998700D01*
X-132777000Y40650000D02*
X-132777000Y41451700D01*
X-40551900Y61183100D02*
X-38400200Y61183100D01*
X-64839500Y44998700D02*
X-66098000Y46257200D01*
X-132777000Y41451700D02*
X-131938075Y42290625D01*
X-81839500Y47650100D02*
X-81839500Y48906250D01*
X-115067625Y46806250D02*
X-98864500Y46806250D01*
X-64839500Y44998700D02*
X-64839500Y44597800D01*
X-87708250Y48931250D02*
X-81864500Y48931250D01*
X-115839500Y40650000D02*
X-115864500Y40675000D01*
X-78627199Y46257200D02*
X-77083250Y46257200D01*
X-98839500Y45400000D02*
X-98839500Y46781250D01*
X-41755125Y60263900D02*
X-41471100Y60263900D01*
X-47598875Y43140525D02*
X-47839500Y42899900D01*
X-115864500Y40675000D02*
X-115864500Y42290625D01*
X-98864500Y46806250D02*
X-98598875Y47071875D01*
X-66098000Y46257200D02*
X-77083250Y46257200D01*
X-64236700Y43995000D02*
X-64839500Y44597800D01*
X-80270750Y48931250D02*
X-80270750Y47900751D01*
%TO.N,Net-(D7-A)*%
X-133230400Y36751700D02*
X-136327000Y39848300D01*
X-132944600Y35450000D02*
X-132944600Y36465900D01*
X-132944600Y36465900D02*
X-133230400Y36751700D01*
X-136327000Y40650000D02*
X-136327000Y39848300D01*
%TO.N,Net-(D8-A)*%
X-115944600Y35450000D02*
X-115944600Y36403400D01*
X-115944600Y36403400D02*
X-116292900Y36751700D01*
X-116292900Y36751700D02*
X-119389500Y39848300D01*
X-119389500Y40650000D02*
X-119389500Y39848300D01*
%TO.N,Net-(D9-A)*%
X-97682700Y44598300D02*
X-102389500Y44598300D01*
X-96683000Y43598600D02*
X-97682700Y44598300D01*
X-97867900Y40200000D02*
X-96683000Y41384900D01*
X-96683000Y41384900D02*
X-96683000Y43598600D01*
X-102389500Y45400000D02*
X-102389500Y44598300D01*
X-98944600Y40200000D02*
X-97867900Y40200000D01*
%TO.N,Net-(D10-A)*%
X-85389500Y46358500D02*
X-85389500Y47650100D01*
X-81944600Y42575100D02*
X-81944600Y43876800D01*
X-81944600Y43876800D02*
X-82907800Y43876800D01*
X-82907800Y43876800D02*
X-85389500Y46358500D01*
%TO.N,Net-(D11-A)*%
X-64944600Y41501200D02*
X-65292900Y41501200D01*
X-64944600Y40199500D02*
X-64944600Y41501200D01*
X-65292900Y41501200D02*
X-68389500Y44597800D01*
X-68389500Y45399500D02*
X-68389500Y44597800D01*
%TO.N,Net-(D12-A)*%
X-47944600Y39126600D02*
X-48417900Y39126600D01*
X-48417900Y39126600D02*
X-51389500Y42098200D01*
X-51389500Y42899900D02*
X-51389500Y42098200D01*
X-47944600Y37824900D02*
X-47944600Y39126600D01*
%TO.N,ROW2_L*%
X-81940300Y31552500D02*
X-81839500Y31451700D01*
X-64839500Y29540625D02*
X-81839500Y29540625D01*
X-63942900Y26701700D02*
X-64839500Y27598300D01*
X-64839500Y27999200D02*
X-64839500Y27598300D01*
X-113183800Y28610800D02*
X-104262400Y28610800D01*
X-98391200Y27150000D02*
X-98839500Y27598300D01*
X-46442500Y25900000D02*
X-47839500Y25900000D01*
X-98839500Y27999200D02*
X-98839500Y27598300D01*
X-64839500Y28400000D02*
X-64839500Y27999200D01*
X-131984975Y25290625D02*
X-115839500Y25290625D01*
X-47839500Y25900000D02*
X-47839500Y26701700D01*
X-64839500Y27999200D02*
X-64839500Y29540625D01*
X-98839500Y28400000D02*
X-98839500Y27999200D01*
X-84786375Y27150000D02*
X-98391200Y27150000D01*
X-132777000Y23696900D02*
X-132777000Y24498600D01*
X-98839500Y27999200D02*
X-100042000Y29201700D01*
X-132777000Y24498600D02*
X-131984975Y25290625D01*
X-81839500Y30650000D02*
X-81839500Y31451700D01*
X-46442500Y58027800D02*
X-45827200Y58643100D01*
X-45827200Y58643100D02*
X-38400200Y58643100D01*
X-103671500Y29201700D02*
X-104262400Y28610800D01*
X-83491200Y31552500D02*
X-81940300Y31552500D01*
X-47839500Y26701700D02*
X-63942900Y26701700D01*
X-115839500Y25290625D02*
X-115839500Y25955100D01*
X-115839500Y25290625D02*
X-115839500Y23650000D01*
X-115839500Y25955100D02*
X-113183800Y28610800D01*
X-81839500Y29540625D02*
X-81839500Y30650000D01*
X-100042000Y29201700D02*
X-103671500Y29201700D01*
%TO.N,Net-(D13-A)*%
X-133183500Y19751700D02*
X-136327000Y22895200D01*
X-132944600Y18450000D02*
X-132944600Y19751700D01*
X-136327000Y23696900D02*
X-136327000Y22895200D01*
X-132944600Y19751700D02*
X-133183500Y19751700D01*
%TO.N,Net-(D14-A)*%
X-115944600Y18450000D02*
X-115944600Y19403400D01*
X-119389500Y22848300D02*
X-119389500Y23650000D01*
X-115944600Y19403400D02*
X-119389500Y22848300D01*
%TO.N,Net-(D15-A)*%
X-102389500Y25568200D02*
X-102389500Y28400000D01*
X-100021300Y23200000D02*
X-102389500Y25568200D01*
X-98944600Y23200000D02*
X-100021300Y23200000D01*
%TO.N,Net-(D16-A)*%
X-81944600Y25575000D02*
X-83021300Y25575000D01*
X-83021300Y25575000D02*
X-83021300Y27480100D01*
X-85389500Y30650000D02*
X-85389500Y29848300D01*
X-83021300Y27480100D02*
X-85389500Y29848300D01*
%TO.N,Net-(D17-A)*%
X-65292900Y24501700D02*
X-68389500Y27598300D01*
X-64944600Y23200000D02*
X-64944600Y24501700D01*
X-64944600Y24501700D02*
X-65292900Y24501700D01*
X-68389500Y28400000D02*
X-68389500Y27598300D01*
%TO.N,Net-(D18-A)*%
X-49021300Y20825000D02*
X-49021300Y22730100D01*
X-49021300Y22730100D02*
X-51389500Y25098300D01*
X-47944600Y20825000D02*
X-49021300Y20825000D01*
X-51389500Y25900000D02*
X-51389500Y25098300D01*
%TO.N,ROW3_L*%
X-39903800Y-377800D02*
X-39903700Y-377700D01*
X-49024200Y-377800D02*
X-39903800Y-377800D01*
X-53574900Y4975700D02*
X-53574900Y4172900D01*
X-39903700Y-377700D02*
X-38977000Y-912800D01*
X-53973875Y7493750D02*
X-53574900Y7094775D01*
X-53574900Y7094775D02*
X-53574900Y4975700D01*
X-53423650Y7493750D02*
X-52898500Y8018900D01*
X-75337800Y8650000D02*
X-74181550Y7493750D01*
X-53574900Y4172900D02*
X-49024200Y-377800D01*
X-74181550Y7493750D02*
X-53423650Y7493750D01*
X-76339500Y8650000D02*
X-75337800Y8650000D01*
X-54750000Y5290600D02*
X-53574900Y4975700D01*
%TO.N,Net-(D19-A)*%
X-77521300Y3575000D02*
X-77521300Y5480100D01*
X-76444600Y3575000D02*
X-77521300Y3575000D01*
X-79889500Y8650000D02*
X-79889500Y7848300D01*
X-77521300Y5480100D02*
X-79889500Y7848300D01*
%TO.N,Net-(D20-A)*%
X-56215700Y268200D02*
X-55804100Y1804300D01*
X-55804100Y1804300D02*
X-55804200Y1804300D01*
X-55804200Y1804300D02*
X-58179000Y4179100D01*
X-58179000Y4179100D02*
X-58179000Y6209400D01*
%TO.N,Net-(D21-A)*%
X-35046793Y-3987195D02*
X-34569534Y-3509936D01*
X-40752000Y-3987195D02*
X-35046793Y-3987195D01*
%TO.N,ROW0_R*%
X31659700Y62350000D02*
X32160500Y62350000D01*
X48158800Y64750000D02*
X48659700Y64750000D01*
X73526125Y64071875D02*
X75119875Y62478125D01*
X83160500Y58782300D02*
X83668825Y59290625D01*
X75119875Y62478125D02*
X75119875Y58782300D01*
X83668825Y59290625D02*
X99221575Y59290625D01*
X-8701800Y62441400D02*
X8312300Y62441400D01*
X31659700Y62350000D02*
X31158800Y62350000D01*
X83160500Y58351700D02*
X83160500Y58782300D01*
X48659700Y64750000D02*
X50106575Y66196875D01*
X10803700Y59950000D02*
X15160500Y59950000D01*
X15160500Y59950000D02*
X15160500Y60751700D01*
X32160500Y63151700D02*
X33080675Y64071875D01*
X75119875Y58782300D02*
X83160500Y58782300D01*
X-9903500Y63643100D02*
X-8701800Y62441400D01*
X31158800Y62350000D02*
X30463200Y61654400D01*
X-11105200Y63643100D02*
X-9903500Y63643100D01*
X56526125Y66196875D02*
X60373000Y62350000D01*
X66160500Y64071875D02*
X73526125Y64071875D01*
X47480675Y64071875D02*
X48158800Y64750000D01*
X99221575Y59290625D02*
X100160500Y58351700D01*
X83160500Y57550000D02*
X83160500Y58351700D01*
X32160500Y62350000D02*
X32160500Y63151700D01*
X60373000Y62350000D02*
X66160500Y62350000D01*
X66160500Y62350000D02*
X66160500Y64071875D01*
X16063200Y61654400D02*
X15160500Y60751700D01*
X100160500Y58351700D02*
X100160500Y57550000D01*
X30463200Y61654400D02*
X16063200Y61654400D01*
X49160500Y64750000D02*
X48659700Y64750000D01*
X8312300Y62441400D02*
X10803700Y59950000D01*
X33080675Y64071875D02*
X47480675Y64071875D01*
X50106575Y66196875D02*
X56526125Y66196875D01*
%TO.N,Net-(D22-A)*%
X103710500Y53904800D02*
X103562400Y53756700D01*
X103710500Y57550000D02*
X103710500Y53904800D01*
X103562400Y52455000D02*
X103562400Y53756700D01*
%TO.N,Net-(D23-A)*%
X86710500Y57550000D02*
X86710500Y53904800D01*
X86710500Y53904800D02*
X86562400Y53756700D01*
X86562400Y52455000D02*
X86562400Y53756700D01*
%TO.N,Net-(D24-A)*%
X69710500Y58654800D02*
X69562400Y58506700D01*
X69710500Y62350000D02*
X69710500Y58654800D01*
X69562400Y57205000D02*
X69562400Y58506700D01*
%TO.N,Net-(D25-A)*%
X52710500Y64750000D02*
X52710500Y61029800D01*
X52710500Y61029800D02*
X52562400Y60881700D01*
X52562400Y59580000D02*
X52562400Y60881700D01*
%TO.N,Net-(D26-A)*%
X35562400Y57205000D02*
X35562400Y58506700D01*
X35710500Y58654800D02*
X35562400Y58506700D01*
X35710500Y62350000D02*
X35710500Y58654800D01*
%TO.N,Net-(D27-A)*%
X18710500Y56281800D02*
X18555400Y56126700D01*
X18555400Y54825000D02*
X18555400Y56126700D01*
X18710500Y59950000D02*
X18710500Y56281800D01*
%TO.N,ROW1_R*%
X66160500Y45650000D02*
X67582375Y47071875D01*
X32815050Y46806250D02*
X49018450Y46806250D01*
X75385500Y45212500D02*
X75385500Y40550000D01*
X49160500Y48551700D02*
X53583400Y48551700D01*
X100160500Y41351700D02*
X100160500Y40550000D01*
X32160500Y45350000D02*
X32160500Y46151700D01*
X56485100Y45650000D02*
X66160500Y45650000D01*
X15098000Y42950000D02*
X14163625Y43884375D01*
X66160500Y45350000D02*
X66160500Y45650000D01*
X-2025500Y43884375D02*
X14163625Y43884375D01*
X14960500Y44681250D02*
X30490050Y44681250D01*
X83160500Y41351700D02*
X84099425Y42290625D01*
X49160500Y46948300D02*
X49160500Y47750000D01*
X49160500Y47750000D02*
X49160500Y48551700D01*
X73526125Y47071875D02*
X75385500Y45212500D01*
X99221575Y42290625D02*
X100160500Y41351700D01*
X75385500Y40550000D02*
X83160500Y40550000D01*
X32160500Y46151700D02*
X32815050Y46806250D01*
X67582375Y47071875D02*
X73526125Y47071875D01*
X30490050Y44681250D02*
X31158800Y45350000D01*
X14163625Y43884375D02*
X14960500Y44681250D01*
X15160500Y42950000D02*
X15098000Y42950000D01*
X84099425Y42290625D02*
X99221575Y42290625D01*
X53583400Y48551700D02*
X56485100Y45650000D01*
X31158800Y45350000D02*
X32160500Y45350000D01*
X83160500Y40550000D02*
X83160500Y41351700D01*
X49018450Y46806250D02*
X49160500Y46948300D01*
%TO.N,Net-(D28-A)*%
X103562400Y35455000D02*
X103562400Y36756700D01*
X103710500Y40550000D02*
X103710500Y36904800D01*
X103710500Y36904800D02*
X103562400Y36756700D01*
%TO.N,Net-(D29-A)*%
X86710500Y36904800D02*
X86562400Y36756700D01*
X86562400Y35455000D02*
X86562400Y36756700D01*
X86710500Y40550000D02*
X86710500Y36904800D01*
%TO.N,Net-(D30-A)*%
X69710500Y41654800D02*
X69562400Y41506700D01*
X69562400Y40205000D02*
X69562400Y41506700D01*
X69710500Y45350000D02*
X69710500Y41654800D01*
%TO.N,Net-(D31-A)*%
X52710500Y47750000D02*
X52710500Y46948300D01*
X52562400Y42580000D02*
X52562400Y46800200D01*
X52562400Y46800200D02*
X52710500Y46948300D01*
%TO.N,Net-(D32-A)*%
X35710500Y45350000D02*
X35710500Y41654800D01*
X35562400Y40205000D02*
X35562400Y41506700D01*
X35710500Y41654800D02*
X35562400Y41506700D01*
%TO.N,Net-(D33-A)*%
X18562400Y37830000D02*
X18562400Y39131700D01*
X18710500Y42950000D02*
X18710500Y39279800D01*
X18710500Y39279800D02*
X18562400Y39131700D01*
%TO.N,ROW2_R*%
X50372200Y32462500D02*
X56260500Y32462500D01*
X60373000Y28350000D02*
X66160500Y28350000D01*
X47480675Y30071875D02*
X48158800Y30750000D01*
X100160500Y24351700D02*
X100160500Y23550000D01*
X31659700Y28350000D02*
X32160500Y28350000D01*
X66160500Y29151700D02*
X70606300Y29151700D01*
X33080675Y30071875D02*
X47480675Y30071875D01*
X15160500Y25950000D02*
X15160500Y26751700D01*
X66160500Y28350000D02*
X66160500Y29151700D01*
X32160500Y29151700D02*
X33080675Y30071875D01*
X83160500Y24786400D02*
X83664725Y25290625D01*
X16002300Y27593500D02*
X30402300Y27593500D01*
X48158800Y30750000D02*
X48659700Y30750000D01*
X83160500Y23550000D02*
X83160500Y24351700D01*
X74971600Y24786400D02*
X83160500Y24786400D01*
X49160500Y30750000D02*
X48659700Y30750000D01*
X70606300Y29151700D02*
X74971600Y24786400D01*
X31659700Y28350000D02*
X31158800Y28350000D01*
X83160500Y24351700D02*
X83160500Y24786400D01*
X32160500Y28350000D02*
X32160500Y29151700D01*
X30402300Y27593500D02*
X31158800Y28350000D01*
X48659700Y30750000D02*
X50372200Y32462500D01*
X15160500Y26751700D02*
X16002300Y27593500D01*
X56260500Y32462500D02*
X60373000Y28350000D01*
X-4320500Y25950000D02*
X15160500Y25950000D01*
X99221575Y25290625D02*
X100160500Y24351700D01*
X83664725Y25290625D02*
X99221575Y25290625D01*
%TO.N,Net-(D34-A)*%
X103710500Y19904800D02*
X103562400Y19756700D01*
X103562400Y18455000D02*
X103562400Y19756700D01*
X103710500Y23550000D02*
X103710500Y19904800D01*
%TO.N,Net-(D35-A)*%
X86710500Y23550000D02*
X86710500Y19904800D01*
X86562400Y18455000D02*
X86562400Y19756700D01*
X86710500Y19904800D02*
X86562400Y19756700D01*
%TO.N,Net-(D36-A)*%
X69562400Y23205000D02*
X69562400Y24506700D01*
X69710500Y24654800D02*
X69562400Y24506700D01*
X69710500Y28350000D02*
X69710500Y24654800D01*
%TO.N,Net-(D37-A)*%
X52710500Y27029800D02*
X52562400Y26881700D01*
X52562400Y25580000D02*
X52562400Y26881700D01*
X52710500Y30750000D02*
X52710500Y27029800D01*
%TO.N,Net-(D38-A)*%
X35562400Y23205000D02*
X35562400Y24506700D01*
X35710500Y24654800D02*
X35562400Y24506700D01*
X35710500Y28350000D02*
X35710500Y24654800D01*
%TO.N,Net-(D39-A)*%
X18710500Y22279800D02*
X18562400Y22131700D01*
X18562400Y20830000D02*
X18562400Y22131700D01*
X18710500Y25950000D02*
X18710500Y22279800D01*
%TO.N,ROW3_R*%
X23251125Y8750000D02*
X25940500Y8750000D01*
X4530100Y-3039100D02*
X4721300Y-2847900D01*
X20451500Y8750000D02*
X25940500Y8750000D01*
X2194500Y-3039100D02*
X4530100Y-3039100D01*
X-583250Y10946875D02*
X1149225Y9214400D01*
X43223000Y9087500D02*
X43560500Y8750000D01*
X5648000Y-2312800D02*
X4721300Y-2847900D01*
X26278000Y9087500D02*
X43223000Y9087500D01*
X23196000Y6005400D02*
X23196000Y8694875D01*
X23196000Y8694875D02*
X23251125Y8750000D01*
X25940500Y8750000D02*
X26278000Y9087500D01*
X1149225Y9214400D02*
X19987100Y9214400D01*
X22021000Y5690600D02*
X23196000Y6005400D01*
X19987100Y9214400D02*
X20451500Y8750000D01*
%TO.N,Net-(D40-A)*%
X47062400Y7900200D02*
X47062400Y3580000D01*
X47110500Y7948300D02*
X47062400Y7900200D01*
X47110500Y8750000D02*
X47110500Y7948300D01*
%TO.N,Net-(D41-A)*%
X25726900Y3628000D02*
X25726900Y5575800D01*
X26663100Y1567300D02*
X26251500Y3103400D01*
X26251500Y3103400D02*
X25726900Y3628000D01*
X25450000Y6609400D02*
X25726900Y5575800D01*
%TO.N,Net-(D42-A)*%
X6496200Y-5922200D02*
X5340400Y-5922200D01*
X6496300Y-5922300D02*
X6496200Y-5922200D01*
X2840500Y-7840100D02*
X4217700Y-7044900D01*
X7423000Y-5387200D02*
X6496300Y-5922300D01*
X5340400Y-5922200D02*
X4217700Y-7044900D01*
%TO.N,BAT+_L*%
X-27231300Y5735300D02*
X-26385800Y5247100D01*
X-28739500Y5751000D02*
X-28739500Y6165625D01*
X-27231400Y5735200D02*
X-27231300Y5735300D01*
X-28739500Y6165625D02*
X-35114500Y12540625D01*
X-28739500Y5751000D02*
X-28723700Y5735200D01*
X-28723700Y5735200D02*
X-27231400Y5735200D01*
%TO.N,BAT+_R*%
X-7443200Y4618175D02*
X-7443200Y4452900D01*
X-6161375Y5900000D02*
X-7443200Y4618175D01*
%TO.N,COL0_L*%
X-136923700Y50937600D02*
X-137134400Y51148300D01*
X-92924200Y50401700D02*
X-136387800Y50401700D01*
X-58899600Y48981200D02*
X-59626900Y49708500D01*
X-75615400Y49455400D02*
X-91977900Y49455400D01*
X-59969600Y50151200D02*
X-74919600Y50151200D01*
X-136638100Y35384375D02*
X-136703725Y35450000D01*
X-41050000Y48981200D02*
X-58899600Y48981200D01*
X-59626900Y49808500D02*
X-59969600Y50151200D01*
X-136703725Y35450000D02*
X-137944600Y35450000D01*
X-136638100Y19776700D02*
X-136663100Y19751700D01*
X-136663100Y19751700D02*
X-137944600Y19751700D01*
X-136387800Y50401700D02*
X-136923700Y50937600D01*
X-137944600Y52450000D02*
X-137944600Y51148300D01*
X-137134400Y51148300D02*
X-137944600Y51148300D01*
X-137944600Y18450000D02*
X-137944600Y19751700D01*
X-91977900Y49455400D02*
X-92924200Y50401700D01*
X-40551900Y48483100D02*
X-41050000Y48981200D01*
X-74919600Y50151200D02*
X-75615400Y49455400D01*
X-38400200Y48483100D02*
X-40551900Y48483100D01*
X-59626900Y49708500D02*
X-59626900Y49808500D01*
%TO.N,COL1_L*%
X-59533000Y52984000D02*
X-43957500Y52984000D01*
X-120944600Y18450000D02*
X-122021300Y18450000D01*
X-122453700Y18882400D02*
X-122021300Y18450000D01*
X-113645500Y52547400D02*
X-59969600Y52547400D01*
X-40692625Y54833100D02*
X-25631900Y54833100D01*
X-118800200Y51123300D02*
X-115069600Y51123300D01*
X-25631900Y54833100D02*
X-24361900Y56103100D01*
X-115069600Y51123300D02*
X-113645500Y52547400D01*
X-118800200Y51123300D02*
X-118800200Y51382300D01*
X-118800200Y51382300D02*
X-119867900Y52450000D01*
X-59969600Y52547400D02*
X-59533000Y52984000D01*
X-24361900Y56103100D02*
X-23160200Y56103100D01*
X-119867900Y52450000D02*
X-120944600Y52450000D01*
X-122574100Y18882400D02*
X-122453700Y18882400D01*
X-120944600Y33916300D02*
X-120944600Y35450000D01*
%TO.N,COL2_L*%
X-101078000Y22727400D02*
X-102395300Y22727400D01*
X-93741000Y54923100D02*
X-94078500Y55260600D01*
X-100928500Y55260600D02*
X-102867900Y57200000D01*
X-94078500Y55260600D02*
X-100903500Y55260600D01*
X-82521300Y3575000D02*
X-81444600Y3575000D01*
X-90458700Y11512400D02*
X-82521300Y3575000D01*
X-76741900Y55150800D02*
X-76969600Y54923100D01*
X-24361900Y53563100D02*
X-25563700Y52361300D01*
X-59969600Y55150800D02*
X-76741900Y55150800D01*
X-42002300Y52361300D02*
X-43265500Y53624500D01*
X-23160200Y53563100D02*
X-24361900Y53563100D01*
X-101078000Y40377600D02*
X-102690300Y40377600D01*
X-92789400Y11512400D02*
X-90458700Y11512400D01*
X-46942900Y53624500D02*
X-47113100Y53454300D01*
X-102395300Y22727400D02*
X-102867900Y23200000D01*
X-103944600Y23200000D02*
X-102867900Y23200000D01*
X-94880125Y13603125D02*
X-92789400Y11512400D01*
X-25563700Y52361300D02*
X-42002300Y52361300D01*
X-47113100Y53454300D02*
X-58273100Y53454300D01*
X-103944600Y57200000D02*
X-102867900Y57200000D01*
X-43265500Y53624500D02*
X-46942900Y53624500D01*
X-100903500Y55260600D02*
X-100928500Y55260600D01*
X-102690300Y40377600D02*
X-102867900Y40200000D01*
X-103944600Y40200000D02*
X-102867900Y40200000D01*
X-58273100Y53454300D02*
X-59969600Y55150800D01*
X-76969600Y54923100D02*
X-93741000Y54923100D01*
%TO.N,COL3_L*%
X-59803300Y50552900D02*
X-75294600Y50552900D01*
X-84790300Y49921600D02*
X-86438000Y51569300D01*
X-25576500Y49808500D02*
X-59058900Y49808500D01*
X-69650950Y1118750D02*
X-63234650Y1118750D01*
X-86649500Y58273100D02*
X-86944600Y58273100D01*
X-75294600Y50552900D02*
X-75925900Y49921600D01*
X-24361900Y51023100D02*
X-25576500Y49808500D01*
X-70011000Y1478800D02*
X-69650950Y1118750D01*
X-63270750Y1118750D02*
X-62827200Y1562300D01*
X-62827200Y1562300D02*
X-61045300Y1562300D01*
X-23160200Y51023100D02*
X-24361900Y51023100D01*
X-59058900Y49808500D02*
X-59803300Y50552900D01*
X-85641700Y25575000D02*
X-86944600Y25575000D01*
X-86944600Y59574800D02*
X-86944600Y58273100D01*
X-85641700Y42575100D02*
X-86944600Y42575100D01*
X-86438000Y58061600D02*
X-86649500Y58273100D01*
X-75925900Y49921600D02*
X-84790300Y49921600D01*
%TO.N,COL4_L*%
X-58019600Y48452400D02*
X-59423500Y47048500D01*
X-42442000Y47249000D02*
X-43645400Y48452400D01*
X-42817625Y-6584375D02*
X-42286375Y-6584375D01*
X-67949000Y22727400D02*
X-68395300Y22727400D01*
X-46536375Y-2865625D02*
X-42817625Y-6584375D01*
X-42286375Y-6584375D02*
X-42274762Y-6595988D01*
X-37710100Y47249000D02*
X-42442000Y47249000D01*
X-23160200Y48483100D02*
X-36476000Y48483100D01*
X-37069500Y-7840100D02*
X-38313613Y-6595988D01*
X-42274762Y-6595988D02*
X-38313613Y-6595988D01*
X-67809600Y57199100D02*
X-69944600Y57199100D01*
X-49458250Y-2865625D02*
X-46536375Y-2865625D01*
X-59423500Y47048500D02*
X-68000500Y47048500D01*
X-69944600Y23200000D02*
X-68867900Y23200000D01*
X-36476000Y48483100D02*
X-37710100Y47249000D01*
X-67809600Y40377600D02*
X-68689800Y40377600D01*
X-43645400Y48452400D02*
X-58019600Y48452400D01*
X-69944600Y40199500D02*
X-68867900Y40199500D01*
X-68689800Y40377600D02*
X-68867900Y40199500D01*
X-68395300Y22727400D02*
X-68867900Y23200000D01*
%TO.N,COL5_L*%
X-54505125Y38306250D02*
X-54502650Y38306250D01*
X-54021300Y37824900D02*
X-52944600Y37824900D01*
X-54770750Y21571875D02*
X-54768175Y21571875D01*
X-53864000Y44783700D02*
X-55229500Y46149200D01*
X-54085500Y54760300D02*
X-54021300Y54824500D01*
X-27614500Y44783700D02*
X-53864000Y44783700D01*
X-54021300Y54824500D02*
X-52944600Y54824500D01*
X-54505125Y54760300D02*
X-54085500Y54760300D01*
X-54021300Y20825000D02*
X-52944600Y20825000D01*
X-54502650Y38306250D02*
X-54021300Y37824900D01*
X-54768175Y21571875D02*
X-54021300Y20825000D01*
%TO.N,COL0_R*%
X-9881800Y49626500D02*
X-11105200Y48403100D01*
X97445500Y18495200D02*
X97485700Y18455000D01*
X99639100Y36007300D02*
X99639100Y35455000D01*
X59086200Y50431700D02*
X58409300Y49754800D01*
X5617400Y49626500D02*
X-9881800Y49626500D01*
X30223000Y45212500D02*
X26780600Y45212500D01*
X44387975Y47418100D02*
X32428600Y47418100D01*
X6344300Y48899600D02*
X5617400Y49626500D01*
X46724675Y49754800D02*
X44387975Y47418100D01*
X26780600Y45212500D02*
X23093500Y48899600D01*
X100413500Y52144400D02*
X99949700Y52144400D01*
X99949700Y52144400D02*
X99639100Y52455000D01*
X98562400Y35455000D02*
X99639100Y35455000D01*
X23093500Y48899600D02*
X6344300Y48899600D01*
X32428600Y47418100D02*
X30223000Y45212500D01*
X100413500Y36781700D02*
X99639100Y36007300D01*
X96763500Y18495200D02*
X97445500Y18495200D01*
X100413500Y50431700D02*
X59086200Y50431700D01*
X58409300Y49754800D02*
X46724675Y49754800D01*
X98562400Y18455000D02*
X97485700Y18455000D01*
X98562400Y52455000D02*
X99639100Y52455000D01*
%TO.N,COL1_R*%
X81562400Y52455000D02*
X82639100Y52455000D01*
X82884100Y35210000D02*
X82639100Y35455000D01*
X58119875Y52915625D02*
X42103725Y52915625D01*
X82639100Y51657200D02*
X82639100Y52455000D01*
X40965600Y51777500D02*
X25488386Y51777500D01*
X82639100Y19504300D02*
X82639100Y18455000D01*
X7317500Y56023100D02*
X4134800Y56023100D01*
X81562400Y35455000D02*
X82639100Y35455000D01*
X82629800Y51093100D02*
X59942400Y51093100D01*
X81562400Y18455000D02*
X82639100Y18455000D01*
X82916500Y19781700D02*
X82639100Y19504300D01*
X82916500Y35210000D02*
X82884100Y35210000D01*
X25488386Y51777500D02*
X23782786Y53483100D01*
X82916500Y51379800D02*
X82639100Y51657200D01*
X82916500Y51379800D02*
X82629800Y51093100D01*
X42103725Y52915625D02*
X40965600Y51777500D01*
X23782786Y53483100D02*
X9857500Y53483100D01*
X9857500Y53483100D02*
X7317500Y56023100D01*
X59942400Y51093100D02*
X58119875Y52915625D01*
%TO.N,COL2_R*%
X63145500Y40377600D02*
X63313100Y40377600D01*
X63145500Y13902300D02*
X45398500Y13902300D01*
X6286500Y53483100D02*
X6688200Y53081400D01*
X4134800Y53483100D02*
X6286500Y53483100D01*
X63313100Y40377600D02*
X63485700Y40205000D01*
X23618800Y53081400D02*
X25322700Y51377500D01*
X57807900Y54422600D02*
X43010500Y54422600D01*
X58957175Y55571875D02*
X57807900Y54422600D01*
X63485700Y57205000D02*
X64562400Y57205000D01*
X63166750Y56886050D02*
X63485700Y57205000D01*
X63145500Y23205000D02*
X64562400Y23205000D01*
X25322700Y51377500D02*
X41931500Y51377500D01*
X64562400Y40205000D02*
X63485700Y40205000D01*
X6688200Y53081400D02*
X23618800Y53081400D01*
X63166750Y55571875D02*
X63166750Y56886050D01*
X63166750Y55571875D02*
X58957175Y55571875D01*
X45398500Y3580000D02*
X42062400Y3580000D01*
%TO.N,COL3_R*%
X19019500Y50221300D02*
X18935500Y50137300D01*
X7768900Y50137300D02*
X6963100Y50943100D01*
X45773500Y59525100D02*
X46430800Y59525100D01*
X45763500Y42620200D02*
X46445500Y42620200D01*
X18935500Y50137300D02*
X7768900Y50137300D01*
X22465200Y1809300D02*
X21421900Y1809300D01*
X21833500Y273200D02*
X21421900Y1809300D01*
X45571500Y25580000D02*
X47562400Y25580000D01*
X47562400Y59580000D02*
X46485700Y59580000D01*
X6963100Y50943100D02*
X4134800Y50943100D01*
X46445500Y42620200D02*
X46485700Y42580000D01*
X22587500Y1931600D02*
X22465200Y1809300D01*
X47562400Y42580000D02*
X46485700Y42580000D01*
X45571500Y16844000D02*
X25016500Y16844000D01*
X46430800Y59525100D02*
X46485700Y59580000D01*
%TO.N,COL4_R*%
X30562400Y40205000D02*
X29485700Y40205000D01*
X28638500Y57140800D02*
X29421500Y57140800D01*
X23713700Y49594600D02*
X23968500Y49849400D01*
X28874000Y40816700D02*
X29485700Y40205000D01*
X340500Y-3509900D02*
X1053300Y-4744600D01*
X28462500Y40816700D02*
X28874000Y40816700D01*
X6588625Y48134375D02*
X6319900Y48403100D01*
X6556500Y49594600D02*
X23713700Y49594600D01*
X30562400Y23205000D02*
X29485700Y23205000D01*
X6319900Y48403100D02*
X4134800Y48403100D01*
X5011500Y-3926100D02*
X1871800Y-3926100D01*
X28638100Y23140800D02*
X29421500Y23140800D01*
X30562400Y57205000D02*
X29485700Y57205000D01*
X29421500Y23140800D02*
X29485700Y23205000D01*
X1871800Y-3926100D02*
X1053300Y-4744600D01*
X29421500Y57140800D02*
X29485700Y57205000D01*
%TO.N,COL5_R*%
X3048725Y46009375D02*
X2280600Y46777500D01*
X13555400Y54825000D02*
X12478700Y54825000D01*
X12213600Y55090100D02*
X12478700Y54825000D01*
X13562400Y20830000D02*
X12485700Y20830000D01*
X6323000Y46009375D02*
X3048725Y46009375D01*
X12269500Y37830000D02*
X13562400Y37830000D01*
X12199000Y20543300D02*
X12485700Y20830000D01*
X8448000Y48134375D02*
X6323000Y46009375D01*
X12151500Y55090100D02*
X12213600Y55090100D01*
X12154500Y20543300D02*
X12199000Y20543300D01*
%TD*%
%TA.AperFunction,Conductor*%
%TO.N,Net-(D20-A)*%
G36*
X-58171903Y6201117D02*
G01*
X-58171889Y6201099D01*
X-57685528Y5566300D01*
X-57683216Y5557648D01*
X-57686916Y5550553D01*
X-58027834Y5238584D01*
X-58073036Y5197218D01*
X-58075646Y5194830D01*
X-58083545Y5191761D01*
X-58272548Y5191761D01*
X-58280821Y5195188D01*
X-58282443Y5197218D01*
X-58673324Y5816724D01*
X-58674841Y5825549D01*
X-58670565Y5832239D01*
X-58188309Y6203257D01*
X-58179664Y6205585D01*
X-58171903Y6201117D01*
G37*
%TD.AperFunction*%
%TD*%
%TA.AperFunction,Conductor*%
%TO.N,ROW0_L*%
G36*
X-47736850Y60896073D02*
G01*
X-47735987Y60895109D01*
X-47346036Y60407670D01*
X-47343544Y60399069D01*
X-47346891Y60392096D01*
X-47831219Y59906798D01*
X-47839488Y59903363D01*
X-47847765Y59906782D01*
X-47847781Y59906798D01*
X-48332110Y60392096D01*
X-48335529Y60400373D01*
X-48332966Y60407668D01*
X-47943013Y60895110D01*
X-47935169Y60899428D01*
X-47933877Y60899500D01*
X-47745123Y60899500D01*
X-47736850Y60896073D01*
G37*
%TD.AperFunction*%
%TD*%
%TA.AperFunction,Conductor*%
%TO.N,ROW0_R*%
G36*
X65467698Y62844866D02*
G01*
X66148145Y62359525D01*
X66152891Y62351931D01*
X66150876Y62343206D01*
X66148145Y62340475D01*
X65467698Y61855135D01*
X65458973Y61853120D01*
X65453595Y61855524D01*
X64964891Y62246488D01*
X64960572Y62254332D01*
X64960500Y62255624D01*
X64960500Y62444377D01*
X64963927Y62452650D01*
X64964891Y62453513D01*
X65453596Y62844478D01*
X65462196Y62846969D01*
X65467698Y62844866D01*
G37*
%TD.AperFunction*%
%TD*%
%TA.AperFunction,Conductor*%
%TO.N,ROW2_L*%
G36*
X-47132596Y26394477D02*
G01*
X-46643891Y26003513D01*
X-46639572Y25995669D01*
X-46639500Y25994377D01*
X-46639500Y25805624D01*
X-46642927Y25797351D01*
X-46643891Y25796488D01*
X-47132596Y25405524D01*
X-47141197Y25403032D01*
X-47146699Y25405135D01*
X-47827146Y25890475D01*
X-47831892Y25898069D01*
X-47829877Y25906794D01*
X-47827146Y25909525D01*
X-47146698Y26394867D01*
X-47137974Y26396881D01*
X-47132596Y26394477D01*
G37*
%TD.AperFunction*%
%TD*%
%TA.AperFunction,Conductor*%
%TO.N,Net-(D31-A)*%
G36*
X52718836Y47741837D02*
G01*
X52718847Y47741825D01*
X53134910Y47258134D01*
X53137707Y47249627D01*
X53134408Y47242327D01*
X52649263Y46745837D01*
X52641030Y46742315D01*
X52632718Y46745646D01*
X52632622Y46745741D01*
X52499544Y46878819D01*
X52139640Y47241095D01*
X52136240Y47249379D01*
X52139694Y47257641D01*
X52140298Y47258200D01*
X52702336Y47743055D01*
X52710837Y47745863D01*
X52718836Y47741837D01*
G37*
%TD.AperFunction*%
%TD*%
%TA.AperFunction,Conductor*%
%TO.N,ROW2_R*%
G36*
X66356772Y29236168D02*
G01*
X66358800Y29229585D01*
X66358800Y29051701D01*
X66358800Y29051700D01*
X66781535Y28858010D01*
X66787628Y28851448D01*
X66787298Y28842499D01*
X66783867Y28838156D01*
X66168716Y28357207D01*
X66160088Y28354811D01*
X66152293Y28359218D01*
X65776278Y28840154D01*
X65773882Y28848782D01*
X65778289Y28856577D01*
X65778912Y28857032D01*
X66326306Y29229585D01*
X66340517Y29239258D01*
X66349285Y29241079D01*
X66356772Y29236168D01*
G37*
%TD.AperFunction*%
%TD*%
%TA.AperFunction,Conductor*%
%TO.N,Net-(D26-A)*%
G36*
X35718764Y62342720D02*
G01*
X35921305Y62139774D01*
X36203109Y61857405D01*
X36206528Y61849128D01*
X36203964Y61841831D01*
X35814013Y61354391D01*
X35806169Y61350072D01*
X35804877Y61350000D01*
X35616123Y61350000D01*
X35607850Y61353427D01*
X35606987Y61354391D01*
X35217035Y61841831D01*
X35214543Y61850432D01*
X35217890Y61857405D01*
X35702219Y62342704D01*
X35710488Y62346138D01*
X35718764Y62342720D01*
G37*
%TD.AperFunction*%
%TD*%
%TA.AperFunction,Conductor*%
%TO.N,ROW2_R*%
G36*
X65467698Y28844866D02*
G01*
X66148145Y28359525D01*
X66152891Y28351931D01*
X66150876Y28343206D01*
X66148145Y28340475D01*
X65467698Y27855135D01*
X65458973Y27853120D01*
X65453595Y27855524D01*
X64964891Y28246488D01*
X64960572Y28254332D01*
X64960500Y28255624D01*
X64960500Y28444377D01*
X64963927Y28452650D01*
X64964891Y28453513D01*
X65453596Y28844478D01*
X65462196Y28846969D01*
X65467698Y28844866D01*
G37*
%TD.AperFunction*%
%TD*%
%TA.AperFunction,Conductor*%
%TO.N,COL4_R*%
G36*
X5592430Y49144521D02*
G01*
X6649978Y48213326D01*
X6653922Y48205287D01*
X6651027Y48196813D01*
X6650519Y48196272D01*
X6519471Y48065224D01*
X6515894Y48062781D01*
X5589921Y47657016D01*
X5580968Y47656834D01*
X5579857Y47657336D01*
X4154280Y48393385D01*
X4148501Y48400225D01*
X4149252Y48409149D01*
X4154300Y48414187D01*
X5579353Y49146148D01*
X5588277Y49146879D01*
X5592430Y49144521D01*
G37*
%TD.AperFunction*%
%TD*%
%TA.AperFunction,Conductor*%
%TO.N,ROW2_R*%
G36*
X83263150Y24546573D02*
G01*
X83264013Y24545609D01*
X83653964Y24058170D01*
X83656456Y24049569D01*
X83653109Y24042596D01*
X83168781Y23557298D01*
X83160512Y23553863D01*
X83152235Y23557282D01*
X83152219Y23557298D01*
X82667890Y24042596D01*
X82664471Y24050873D01*
X82667034Y24058168D01*
X83056987Y24545610D01*
X83064831Y24549928D01*
X83066123Y24550000D01*
X83254877Y24550000D01*
X83263150Y24546573D01*
G37*
%TD.AperFunction*%
%TD*%
%TA.AperFunction,Conductor*%
%TO.N,Net-(D21-A)*%
G36*
X-39963314Y-3635915D02*
G01*
X-39678667Y-3883697D01*
X-39674677Y-3891714D01*
X-39674649Y-3892522D01*
X-39674649Y-4080010D01*
X-39678076Y-4088283D01*
X-39681057Y-4090445D01*
X-40453457Y-4482189D01*
X-40462385Y-4482875D01*
X-40468873Y-4477619D01*
X-40746526Y-3998369D01*
X-40747708Y-3989493D01*
X-40742267Y-3982380D01*
X-40741254Y-3981858D01*
X-39975834Y-3634087D01*
X-39966886Y-3633786D01*
X-39963314Y-3635915D01*
G37*
%TD.AperFunction*%
%TD*%
%TA.AperFunction,Conductor*%
%TO.N,Net-(D15-A)*%
G36*
X-102381236Y28392720D02*
G01*
X-102178695Y28189774D01*
X-101896891Y27907405D01*
X-101893472Y27899128D01*
X-101896036Y27891831D01*
X-102285987Y27404391D01*
X-102293831Y27400072D01*
X-102295123Y27400000D01*
X-102483877Y27400000D01*
X-102492150Y27403427D01*
X-102493013Y27404391D01*
X-102882965Y27891831D01*
X-102885457Y27900432D01*
X-102882110Y27907405D01*
X-102397781Y28392704D01*
X-102389512Y28396138D01*
X-102381236Y28392720D01*
G37*
%TD.AperFunction*%
%TD*%
%TA.AperFunction,Conductor*%
%TO.N,Net-(D2-A)*%
G36*
X-119381348Y57643065D02*
G01*
X-119381336Y57643054D01*
X-118819299Y57158200D01*
X-118815273Y57150201D01*
X-118818082Y57141699D01*
X-118818641Y57141095D01*
X-119178544Y56778819D01*
X-119178571Y56778792D01*
X-119311623Y56645741D01*
X-119319896Y56642314D01*
X-119328169Y56645741D01*
X-119328264Y56645837D01*
X-119813408Y57142327D01*
X-119816739Y57150639D01*
X-119813911Y57158133D01*
X-119397847Y57641826D01*
X-119389855Y57645862D01*
X-119381348Y57643065D01*
G37*
%TD.AperFunction*%
%TD*%
%TA.AperFunction,Conductor*%
%TO.N,ROW1_R*%
G36*
X49168836Y47741837D02*
G01*
X49168847Y47741825D01*
X49584910Y47258134D01*
X49587707Y47249627D01*
X49584408Y47242327D01*
X49099263Y46745837D01*
X49091030Y46742315D01*
X49082718Y46745646D01*
X49082622Y46745741D01*
X48949544Y46878819D01*
X48589640Y47241095D01*
X48586240Y47249379D01*
X48589694Y47257641D01*
X48590298Y47258200D01*
X49152336Y47743055D01*
X49160837Y47745863D01*
X49168836Y47741837D01*
G37*
%TD.AperFunction*%
%TD*%
%TA.AperFunction,Conductor*%
%TO.N,Net-(D28-A)*%
G36*
X103718764Y40542720D02*
G01*
X103921305Y40339774D01*
X104203109Y40057405D01*
X104206528Y40049128D01*
X104203964Y40041831D01*
X103814013Y39554391D01*
X103806169Y39550072D01*
X103804877Y39550000D01*
X103616123Y39550000D01*
X103607850Y39553427D01*
X103606987Y39554391D01*
X103217035Y40041831D01*
X103214543Y40050432D01*
X103217890Y40057405D01*
X103702219Y40542704D01*
X103710488Y40546138D01*
X103718764Y40542720D01*
G37*
%TD.AperFunction*%
%TD*%
%TA.AperFunction,Conductor*%
%TO.N,COL3_L*%
G36*
X-23653728Y51761492D02*
G01*
X-23652618Y51760082D01*
X-23162197Y51027844D01*
X-23160440Y51019063D01*
X-23160444Y51019043D01*
X-23333279Y50152932D01*
X-23338259Y50145490D01*
X-23347043Y50143748D01*
X-23348049Y50143996D01*
X-24699158Y50540715D01*
X-24704135Y50543668D01*
X-24834819Y50674352D01*
X-24838246Y50682625D01*
X-24834819Y50690898D01*
X-24834495Y50691210D01*
X-23670258Y51762183D01*
X-23661851Y51765261D01*
X-23653728Y51761492D01*
G37*
%TD.AperFunction*%
%TD*%
%TA.AperFunction,Conductor*%
%TO.N,Net-(D8-A)*%
G36*
X-119381348Y40643065D02*
G01*
X-119381336Y40643054D01*
X-118819299Y40158200D01*
X-118815273Y40150201D01*
X-118818082Y40141699D01*
X-118818641Y40141095D01*
X-119178544Y39778819D01*
X-119178571Y39778792D01*
X-119311623Y39645741D01*
X-119319896Y39642314D01*
X-119328169Y39645741D01*
X-119328264Y39645837D01*
X-119813408Y40142327D01*
X-119816739Y40150639D01*
X-119813911Y40158133D01*
X-119397847Y40641826D01*
X-119389855Y40645862D01*
X-119381348Y40643065D01*
G37*
%TD.AperFunction*%
%TD*%
%TA.AperFunction,Conductor*%
%TO.N,ROW1_L*%
G36*
X-39925468Y61846195D02*
G01*
X-38417506Y61191626D01*
X-38411282Y61185189D01*
X-38411433Y61176235D01*
X-38414944Y61171688D01*
X-39521043Y60304110D01*
X-39529668Y60301701D01*
X-39531560Y60302090D01*
X-40889158Y60700715D01*
X-40894135Y60703668D01*
X-41024791Y60834324D01*
X-41028218Y60842597D01*
X-41024791Y60850870D01*
X-41024448Y60851199D01*
X-39938018Y61844101D01*
X-39929601Y61847151D01*
X-39925468Y61846195D01*
G37*
%TD.AperFunction*%
%TD*%
%TA.AperFunction,Conductor*%
%TO.N,GND1*%
G36*
X-9989495Y41905774D02*
G01*
X-9147783Y41513151D01*
X-9141734Y41506548D01*
X-9141029Y41502548D01*
X-9141029Y41317453D01*
X-9144456Y41309180D01*
X-9147783Y41306850D01*
X-9989492Y40914228D01*
X-9998438Y40913836D01*
X-10001850Y40915778D01*
X-10482357Y41309180D01*
X-10594444Y41400948D01*
X-10598673Y41408840D01*
X-10596084Y41417412D01*
X-10594443Y41419053D01*
X-10001848Y41904224D01*
X-9993278Y41906812D01*
X-9989495Y41905774D01*
G37*
%TD.AperFunction*%
%TD*%
%TA.AperFunction,Conductor*%
%TO.N,COL2_L*%
G36*
X-23653728Y54301492D02*
G01*
X-23652618Y54300082D01*
X-23162197Y53567844D01*
X-23160440Y53559063D01*
X-23160444Y53559043D01*
X-23333279Y52692932D01*
X-23338259Y52685490D01*
X-23347043Y52683748D01*
X-23348049Y52683996D01*
X-24699158Y53080715D01*
X-24704135Y53083668D01*
X-24834819Y53214352D01*
X-24838246Y53222625D01*
X-24834819Y53230898D01*
X-24834495Y53231210D01*
X-23670258Y54302183D01*
X-23661851Y54305261D01*
X-23653728Y54301492D01*
G37*
%TD.AperFunction*%
%TD*%
%TA.AperFunction,Conductor*%
%TO.N,ROW3_L*%
G36*
X-53943763Y5588959D02*
G01*
X-53939190Y5585246D01*
X-53568328Y5081104D01*
X-53566186Y5072409D01*
X-53566452Y5071143D01*
X-53615309Y4888824D01*
X-53620760Y4881719D01*
X-53621915Y4881135D01*
X-54195145Y4630008D01*
X-54204098Y4629827D01*
X-54208868Y4633283D01*
X-54413189Y4881135D01*
X-54740515Y5278199D01*
X-54743132Y5286761D01*
X-54738928Y5294668D01*
X-54735590Y5296596D01*
X-53952711Y5589272D01*
X-53943763Y5588959D01*
G37*
%TD.AperFunction*%
%TD*%
%TA.AperFunction,Conductor*%
%TO.N,ROW1_L*%
G36*
X-81736850Y48646673D02*
G01*
X-81735987Y48645709D01*
X-81346036Y48158270D01*
X-81343544Y48149669D01*
X-81346891Y48142696D01*
X-81831219Y47657398D01*
X-81839488Y47653963D01*
X-81847765Y47657382D01*
X-81847781Y47657398D01*
X-82332110Y48142696D01*
X-82335529Y48150973D01*
X-82332966Y48158268D01*
X-81943013Y48645710D01*
X-81935169Y48650028D01*
X-81933877Y48650100D01*
X-81745123Y48650100D01*
X-81736850Y48646673D01*
G37*
%TD.AperFunction*%
%TD*%
%TA.AperFunction,Conductor*%
%TO.N,COL3_R*%
G36*
X5590138Y51688732D02*
G01*
X6861085Y51046346D01*
X6866923Y51039556D01*
X6867507Y51035904D01*
X6867507Y50850297D01*
X6864080Y50842024D01*
X6861085Y50839855D01*
X5590144Y50197472D01*
X5581214Y50196798D01*
X5579508Y50197513D01*
X4153962Y50932702D01*
X4148181Y50939539D01*
X4148927Y50948463D01*
X4153962Y50953499D01*
X5579506Y51688687D01*
X5588427Y51689432D01*
X5590138Y51688732D01*
G37*
%TD.AperFunction*%
%TD*%
%TA.AperFunction,Conductor*%
%TO.N,Net-(D25-A)*%
G36*
X52718764Y64742720D02*
G01*
X52921305Y64539774D01*
X53203109Y64257405D01*
X53206528Y64249128D01*
X53203964Y64241831D01*
X52814013Y63754391D01*
X52806169Y63750072D01*
X52804877Y63750000D01*
X52616123Y63750000D01*
X52607850Y63753427D01*
X52606987Y63754391D01*
X52217035Y64241831D01*
X52214543Y64250432D01*
X52217890Y64257405D01*
X52702219Y64742704D01*
X52710488Y64746138D01*
X52718764Y64742720D01*
G37*
%TD.AperFunction*%
%TD*%
%TA.AperFunction,Conductor*%
%TO.N,ROW2_L*%
G36*
X-64831348Y28393065D02*
G01*
X-64831336Y28393054D01*
X-64269299Y27908200D01*
X-64265273Y27900201D01*
X-64268082Y27891699D01*
X-64268641Y27891095D01*
X-64628544Y27528819D01*
X-64628571Y27528792D01*
X-64761623Y27395741D01*
X-64769896Y27392314D01*
X-64778169Y27395741D01*
X-64778264Y27395837D01*
X-65263408Y27892327D01*
X-65266739Y27900639D01*
X-65263911Y27908133D01*
X-64847847Y28391826D01*
X-64839855Y28395862D01*
X-64831348Y28393065D01*
G37*
%TD.AperFunction*%
%TD*%
%TA.AperFunction,Conductor*%
%TO.N,ROW2_R*%
G36*
X15238281Y26954355D02*
G01*
X15238377Y26954260D01*
X15371456Y26821181D01*
X15731359Y26458906D01*
X15734759Y26450622D01*
X15731305Y26442360D01*
X15730701Y26441801D01*
X15168664Y25956947D01*
X15160162Y25954138D01*
X15152163Y25958164D01*
X15152152Y25958176D01*
X14736090Y26441867D01*
X14733293Y26450374D01*
X14736591Y26457673D01*
X15221736Y26954165D01*
X15229969Y26957686D01*
X15238281Y26954355D01*
G37*
%TD.AperFunction*%
%TD*%
%TA.AperFunction,Conductor*%
%TO.N,ROW2_L*%
G36*
X-99816212Y29122247D02*
G01*
X-98709962Y28902467D01*
X-98702516Y28897494D01*
X-98700767Y28888712D01*
X-98700982Y28887815D01*
X-98836891Y28406039D01*
X-98842436Y28399007D01*
X-98845641Y28397789D01*
X-99531128Y28247194D01*
X-99539944Y28248765D01*
X-99543778Y28252782D01*
X-99627289Y28397789D01*
X-99909498Y28887815D01*
X-99959289Y28974272D01*
X-99960448Y28983151D01*
X-99957425Y28988382D01*
X-99826763Y29119044D01*
X-99818491Y29122470D01*
X-99816212Y29122247D01*
G37*
%TD.AperFunction*%
%TD*%
%TA.AperFunction,Conductor*%
%TO.N,ROW0_L*%
G36*
X-98736850Y63396573D02*
G01*
X-98735987Y63395609D01*
X-98346036Y62908170D01*
X-98343544Y62899569D01*
X-98346891Y62892596D01*
X-98831219Y62407298D01*
X-98839488Y62403863D01*
X-98847765Y62407282D01*
X-98847781Y62407298D01*
X-99332110Y62892596D01*
X-99335529Y62900873D01*
X-99332966Y62908168D01*
X-98943013Y63395610D01*
X-98935169Y63399928D01*
X-98933877Y63400000D01*
X-98745123Y63400000D01*
X-98736850Y63396573D01*
G37*
%TD.AperFunction*%
%TD*%
%TA.AperFunction,Conductor*%
%TO.N,ROW1_R*%
G36*
X100099168Y41554260D02*
G01*
X100099263Y41554164D01*
X100584408Y41057674D01*
X100587739Y41049362D01*
X100584910Y41041867D01*
X100168847Y40558176D01*
X100160854Y40554139D01*
X100152347Y40556936D01*
X100152335Y40556947D01*
X99590298Y41041801D01*
X99586272Y41049800D01*
X99589081Y41058302D01*
X99589630Y41058896D01*
X99949571Y41421208D01*
X100082623Y41554261D01*
X100090895Y41557687D01*
X100099168Y41554260D01*
G37*
%TD.AperFunction*%
%TD*%
%TA.AperFunction,Conductor*%
%TO.N,ROW0_R*%
G36*
X32238281Y63354355D02*
G01*
X32238377Y63354260D01*
X32371456Y63221181D01*
X32731359Y62858906D01*
X32734759Y62850622D01*
X32731305Y62842360D01*
X32730701Y62841801D01*
X32168664Y62356947D01*
X32160162Y62354138D01*
X32152163Y62358164D01*
X32152152Y62358176D01*
X31736090Y62841867D01*
X31733293Y62850374D01*
X31736591Y62857673D01*
X32221736Y63354165D01*
X32229969Y63357686D01*
X32238281Y63354355D01*
G37*
%TD.AperFunction*%
%TD*%
%TA.AperFunction,Conductor*%
%TO.N,Net-(D42-A)*%
G36*
X7412538Y-5383672D02*
G01*
X7419647Y-5389116D01*
X7420825Y-5397993D01*
X7420819Y-5398015D01*
X7242719Y-6060130D01*
X7237261Y-6067229D01*
X7229660Y-6068658D01*
X6612569Y-5974693D01*
X6604906Y-5970059D01*
X6604198Y-5968977D01*
X6509812Y-5805517D01*
X6508642Y-5796638D01*
X6509046Y-5795409D01*
X6664290Y-5398015D01*
X6736195Y-5213951D01*
X6742397Y-5207493D01*
X6750109Y-5206905D01*
X7412538Y-5383672D01*
G37*
%TD.AperFunction*%
%TD*%
%TA.AperFunction,Conductor*%
%TO.N,Net-(D30-A)*%
G36*
X69718764Y45342720D02*
G01*
X69921305Y45139774D01*
X70203109Y44857405D01*
X70206528Y44849128D01*
X70203964Y44841831D01*
X69814013Y44354391D01*
X69806169Y44350072D01*
X69804877Y44350000D01*
X69616123Y44350000D01*
X69607850Y44353427D01*
X69606987Y44354391D01*
X69217035Y44841831D01*
X69214543Y44850432D01*
X69217890Y44857405D01*
X69702219Y45342704D01*
X69710488Y45346138D01*
X69718764Y45342720D01*
G37*
%TD.AperFunction*%
%TD*%
%TA.AperFunction,Conductor*%
%TO.N,ROW0_L*%
G36*
X-132132613Y58144637D02*
G01*
X-131768862Y57861373D01*
X-131767778Y57860415D01*
X-131635354Y57727991D01*
X-131631927Y57719718D01*
X-131635354Y57711445D01*
X-131635564Y57711240D01*
X-132133072Y57238040D01*
X-132141428Y57234822D01*
X-132147122Y57236466D01*
X-132824826Y57640132D01*
X-132830180Y57647310D01*
X-132828891Y57656171D01*
X-132825646Y57659699D01*
X-132146602Y58144926D01*
X-132137881Y58146947D01*
X-132132613Y58144637D01*
G37*
%TD.AperFunction*%
%TD*%
%TA.AperFunction,Conductor*%
%TO.N,Net-(D19-A)*%
G36*
X-79881348Y8643065D02*
G01*
X-79881336Y8643054D01*
X-79319299Y8158200D01*
X-79315273Y8150201D01*
X-79318082Y8141699D01*
X-79318641Y8141095D01*
X-79678544Y7778819D01*
X-79678571Y7778792D01*
X-79811623Y7645741D01*
X-79819896Y7642314D01*
X-79828169Y7645741D01*
X-79828264Y7645837D01*
X-80313408Y8142327D01*
X-80316739Y8150639D01*
X-80313911Y8158133D01*
X-79897847Y8641826D01*
X-79889855Y8645862D01*
X-79881348Y8643065D01*
G37*
%TD.AperFunction*%
%TD*%
%TA.AperFunction,Conductor*%
%TO.N,Net-(D4-A)*%
G36*
X-85381348Y64642865D02*
G01*
X-85381336Y64642854D01*
X-84819299Y64158000D01*
X-84815273Y64150001D01*
X-84818082Y64141499D01*
X-84818641Y64140895D01*
X-85178544Y63778619D01*
X-85178571Y63778592D01*
X-85311623Y63645541D01*
X-85319896Y63642114D01*
X-85328169Y63645541D01*
X-85328264Y63645637D01*
X-85813408Y64142127D01*
X-85816739Y64150439D01*
X-85813911Y64157933D01*
X-85397847Y64641626D01*
X-85389855Y64645662D01*
X-85381348Y64642865D01*
G37*
%TD.AperFunction*%
%TD*%
%TA.AperFunction,Conductor*%
%TO.N,Net-(D6-A)*%
G36*
X-51381348Y59892565D02*
G01*
X-51381336Y59892554D01*
X-50819299Y59407700D01*
X-50815273Y59399701D01*
X-50818082Y59391199D01*
X-50818641Y59390595D01*
X-51178544Y59028319D01*
X-51178571Y59028292D01*
X-51311623Y58895241D01*
X-51319896Y58891814D01*
X-51328169Y58895241D01*
X-51328264Y58895337D01*
X-51813408Y59391827D01*
X-51816739Y59400139D01*
X-51813911Y59407633D01*
X-51397847Y59891326D01*
X-51389855Y59895362D01*
X-51381348Y59892565D01*
G37*
%TD.AperFunction*%
%TD*%
%TA.AperFunction,Conductor*%
%TO.N,COL0_L*%
G36*
X-39522657Y49363154D02*
G01*
X-39521046Y49362093D01*
X-38414944Y48494512D01*
X-38410550Y48486711D01*
X-38412959Y48478086D01*
X-38417506Y48474575D01*
X-39925467Y47820006D01*
X-39934421Y47819855D01*
X-39938019Y47822101D01*
X-41024412Y48814969D01*
X-41028206Y48823078D01*
X-41025155Y48831497D01*
X-41024814Y48831854D01*
X-40894133Y48962535D01*
X-40889161Y48965485D01*
X-39531558Y49364111D01*
X-39522657Y49363154D01*
G37*
%TD.AperFunction*%
%TD*%
%TA.AperFunction,Conductor*%
%TO.N,Net-(D40-A)*%
G36*
X47119232Y8742195D02*
G01*
X47119244Y8742183D01*
X47575233Y8258553D01*
X47578415Y8250183D01*
X47574746Y8242014D01*
X47574707Y8241977D01*
X47141374Y7837210D01*
X47132988Y7834067D01*
X47125114Y7837487D01*
X46991686Y7970915D01*
X46593672Y8241818D01*
X46588761Y8249306D01*
X46590583Y8258073D01*
X46592214Y8259988D01*
X47102695Y8742659D01*
X47111058Y8745852D01*
X47119232Y8742195D01*
G37*
%TD.AperFunction*%
%TD*%
%TA.AperFunction,Conductor*%
%TO.N,COL1_R*%
G36*
X5590138Y56768732D02*
G01*
X6861085Y56126346D01*
X6866923Y56119556D01*
X6867507Y56115904D01*
X6867507Y55930297D01*
X6864080Y55922024D01*
X6861085Y55919855D01*
X5590144Y55277472D01*
X5581214Y55276798D01*
X5579508Y55277513D01*
X4153962Y56012702D01*
X4148181Y56019539D01*
X4148927Y56028463D01*
X4153962Y56033499D01*
X5579506Y56768687D01*
X5588427Y56769432D01*
X5590138Y56768732D01*
G37*
%TD.AperFunction*%
%TD*%
%TA.AperFunction,Conductor*%
%TO.N,ROW0_R*%
G36*
X-10596551Y64383292D02*
G01*
X-10595143Y64382184D01*
X-9430934Y63311236D01*
X-9427165Y63303113D01*
X-9430244Y63294704D01*
X-9430582Y63294352D01*
X-9561266Y63163668D01*
X-9566243Y63160715D01*
X-10917352Y62763996D01*
X-10926255Y62764953D01*
X-10931874Y62771926D01*
X-10932118Y62772915D01*
X-11104957Y63639045D01*
X-11103215Y63647827D01*
X-10612783Y64380083D01*
X-10605332Y64385049D01*
X-10596551Y64383292D01*
G37*
%TD.AperFunction*%
%TD*%
%TA.AperFunction,Conductor*%
%TO.N,Net-(D14-A)*%
G36*
X-119381348Y23643065D02*
G01*
X-119381336Y23643054D01*
X-118819299Y23158200D01*
X-118815273Y23150201D01*
X-118818082Y23141699D01*
X-118818641Y23141095D01*
X-119178544Y22778819D01*
X-119178571Y22778792D01*
X-119311623Y22645741D01*
X-119319896Y22642314D01*
X-119328169Y22645741D01*
X-119328264Y22645837D01*
X-119813408Y23142327D01*
X-119816739Y23150639D01*
X-119813911Y23158133D01*
X-119397847Y23641826D01*
X-119389855Y23645862D01*
X-119381348Y23643065D01*
G37*
%TD.AperFunction*%
%TD*%
%TA.AperFunction,Conductor*%
%TO.N,ROW1_R*%
G36*
X83238281Y41554355D02*
G01*
X83238377Y41554260D01*
X83371456Y41421181D01*
X83731359Y41058906D01*
X83734759Y41050622D01*
X83731305Y41042360D01*
X83730701Y41041801D01*
X83168664Y40556947D01*
X83160162Y40554138D01*
X83152163Y40558164D01*
X83152152Y40558176D01*
X82736090Y41041867D01*
X82733293Y41050374D01*
X82736591Y41057673D01*
X83221736Y41554165D01*
X83229969Y41557686D01*
X83238281Y41554355D01*
G37*
%TD.AperFunction*%
%TD*%
%TA.AperFunction,Conductor*%
%TO.N,ROW2_L*%
G36*
X-64736850Y29396573D02*
G01*
X-64735987Y29395609D01*
X-64346036Y28908170D01*
X-64343544Y28899569D01*
X-64346891Y28892596D01*
X-64831219Y28407298D01*
X-64839488Y28403863D01*
X-64847765Y28407282D01*
X-64847781Y28407298D01*
X-65332110Y28892596D01*
X-65335529Y28900873D01*
X-65332966Y28908168D01*
X-64943013Y29395610D01*
X-64935169Y29399928D01*
X-64933877Y29400000D01*
X-64745123Y29400000D01*
X-64736850Y29396573D01*
G37*
%TD.AperFunction*%
%TD*%
%TA.AperFunction,Conductor*%
%TO.N,Net-(D32-A)*%
G36*
X35718764Y45342720D02*
G01*
X35921305Y45139774D01*
X36203109Y44857405D01*
X36206528Y44849128D01*
X36203964Y44841831D01*
X35814013Y44354391D01*
X35806169Y44350072D01*
X35804877Y44350000D01*
X35616123Y44350000D01*
X35607850Y44353427D01*
X35606987Y44354391D01*
X35217035Y44841831D01*
X35214543Y44850432D01*
X35217890Y44857405D01*
X35702219Y45342704D01*
X35710488Y45346138D01*
X35718764Y45342720D01*
G37*
%TD.AperFunction*%
%TD*%
%TA.AperFunction,Conductor*%
%TO.N,Net-(D39-A)*%
G36*
X18718764Y25942720D02*
G01*
X18921305Y25739774D01*
X19203109Y25457405D01*
X19206528Y25449128D01*
X19203964Y25441831D01*
X18814013Y24954391D01*
X18806169Y24950072D01*
X18804877Y24950000D01*
X18616123Y24950000D01*
X18607850Y24953427D01*
X18606987Y24954391D01*
X18217035Y25441831D01*
X18214543Y25450432D01*
X18217890Y25457405D01*
X18702219Y25942704D01*
X18710488Y25946138D01*
X18718764Y25942720D01*
G37*
%TD.AperFunction*%
%TD*%
%TA.AperFunction,Conductor*%
%TO.N,ROW2_R*%
G36*
X32238281Y29354355D02*
G01*
X32238377Y29354260D01*
X32371456Y29221181D01*
X32731359Y28858906D01*
X32734759Y28850622D01*
X32731305Y28842360D01*
X32730701Y28841801D01*
X32168664Y28356947D01*
X32160162Y28354138D01*
X32152163Y28358164D01*
X32152152Y28358176D01*
X31736090Y28841867D01*
X31733293Y28850374D01*
X31736591Y28857673D01*
X32221736Y29354165D01*
X32229969Y29357686D01*
X32238281Y29354355D01*
G37*
%TD.AperFunction*%
%TD*%
%TA.AperFunction,Conductor*%
%TO.N,ROW0_R*%
G36*
X15238281Y60954355D02*
G01*
X15238377Y60954260D01*
X15371456Y60821181D01*
X15731359Y60458906D01*
X15734759Y60450622D01*
X15731305Y60442360D01*
X15730701Y60441801D01*
X15168664Y59956947D01*
X15160162Y59954138D01*
X15152163Y59958164D01*
X15152152Y59958176D01*
X14736090Y60441867D01*
X14733293Y60450374D01*
X14736591Y60457673D01*
X15221736Y60954165D01*
X15229969Y60957686D01*
X15238281Y60954355D01*
G37*
%TD.AperFunction*%
%TD*%
%TA.AperFunction,Conductor*%
%TO.N,Net-(D12-A)*%
G36*
X-51381348Y42892965D02*
G01*
X-51381336Y42892954D01*
X-50819299Y42408100D01*
X-50815273Y42400101D01*
X-50818082Y42391599D01*
X-50818641Y42390995D01*
X-51178544Y42028719D01*
X-51178571Y42028692D01*
X-51311623Y41895641D01*
X-51319896Y41892214D01*
X-51328169Y41895641D01*
X-51328264Y41895737D01*
X-51813408Y42392227D01*
X-51816739Y42400539D01*
X-51813911Y42408033D01*
X-51397847Y42891726D01*
X-51389855Y42895762D01*
X-51381348Y42892965D01*
G37*
%TD.AperFunction*%
%TD*%
%TA.AperFunction,Conductor*%
%TO.N,ROW1_R*%
G36*
X31468119Y45763536D02*
G01*
X32009485Y45441078D01*
X32145825Y45359869D01*
X32151179Y45352691D01*
X32149890Y45343830D01*
X32146640Y45340298D01*
X31467603Y44855076D01*
X31458880Y44853054D01*
X31453612Y44855364D01*
X31089861Y45138628D01*
X31088777Y45139586D01*
X30956353Y45272010D01*
X30952926Y45280283D01*
X30956353Y45288556D01*
X30956495Y45288696D01*
X31454074Y45761963D01*
X31462427Y45765179D01*
X31468119Y45763536D01*
G37*
%TD.AperFunction*%
%TD*%
%TA.AperFunction,Conductor*%
%TO.N,ROW1_L*%
G36*
X-115764500Y41650000D02*
G01*
X-115964500Y41650000D01*
X-116352168Y41150000D01*
X-115839500Y40649000D01*
X-115351857Y41150000D01*
X-115764500Y41650000D01*
G37*
%TD.AperFunction*%
%TD*%
%TA.AperFunction,Conductor*%
%TO.N,ROW0_L*%
G36*
X-81736850Y65646373D02*
G01*
X-81735987Y65645409D01*
X-81346036Y65157970D01*
X-81343544Y65149369D01*
X-81346891Y65142396D01*
X-81831219Y64657098D01*
X-81839488Y64653663D01*
X-81847765Y64657082D01*
X-81847781Y64657098D01*
X-82332110Y65142396D01*
X-82335529Y65150673D01*
X-82332966Y65157968D01*
X-81943013Y65645410D01*
X-81935169Y65649728D01*
X-81933877Y65649800D01*
X-81745123Y65649800D01*
X-81736850Y65646373D01*
G37*
%TD.AperFunction*%
%TD*%
%TA.AperFunction,Conductor*%
%TO.N,ROW3_R*%
G36*
X5637538Y-2309282D02*
G01*
X5644648Y-2314726D01*
X5645825Y-2323603D01*
X5645819Y-2323625D01*
X5467717Y-2985737D01*
X5462259Y-2992836D01*
X5454658Y-2994265D01*
X4837565Y-2900295D01*
X4829902Y-2895661D01*
X4829194Y-2894579D01*
X4734808Y-2731120D01*
X4733638Y-2722241D01*
X4734042Y-2721012D01*
X4961193Y-2139557D01*
X4967395Y-2133099D01*
X4975106Y-2132511D01*
X5637538Y-2309282D01*
G37*
%TD.AperFunction*%
%TD*%
%TA.AperFunction,Conductor*%
%TO.N,ROW0_R*%
G36*
X14467698Y60444866D02*
G01*
X15148145Y59959525D01*
X15152891Y59951931D01*
X15150876Y59943206D01*
X15148145Y59940475D01*
X14467698Y59455135D01*
X14458973Y59453120D01*
X14453595Y59455524D01*
X13964891Y59846488D01*
X13960572Y59854332D01*
X13960500Y59855624D01*
X13960500Y60044377D01*
X13963927Y60052650D01*
X13964891Y60053513D01*
X14453596Y60444478D01*
X14462196Y60446969D01*
X14467698Y60444866D01*
G37*
%TD.AperFunction*%
%TD*%
%TA.AperFunction,Conductor*%
%TO.N,Net-(D35-A)*%
G36*
X86718764Y23542720D02*
G01*
X86921305Y23339774D01*
X87203109Y23057405D01*
X87206528Y23049128D01*
X87203964Y23041831D01*
X86814013Y22554391D01*
X86806169Y22550072D01*
X86804877Y22550000D01*
X86616123Y22550000D01*
X86607850Y22553427D01*
X86606987Y22554391D01*
X86217035Y23041831D01*
X86214543Y23050432D01*
X86217890Y23057405D01*
X86702219Y23542704D01*
X86710488Y23546138D01*
X86718764Y23542720D01*
G37*
%TD.AperFunction*%
%TD*%
%TA.AperFunction,Conductor*%
%TO.N,ROW0_R*%
G36*
X48468119Y65163536D02*
G01*
X49009485Y64841078D01*
X49145825Y64759869D01*
X49151179Y64752691D01*
X49149890Y64743830D01*
X49146640Y64740298D01*
X48467603Y64255076D01*
X48458880Y64253054D01*
X48453612Y64255364D01*
X48089861Y64538628D01*
X48088777Y64539586D01*
X47956353Y64672010D01*
X47952926Y64680283D01*
X47956353Y64688556D01*
X47956495Y64688696D01*
X48454074Y65161963D01*
X48462427Y65165179D01*
X48468119Y65163536D01*
G37*
%TD.AperFunction*%
%TD*%
%TA.AperFunction,Conductor*%
%TO.N,Net-(D33-A)*%
G36*
X18718764Y42942720D02*
G01*
X18921305Y42739774D01*
X19203109Y42457405D01*
X19206528Y42449128D01*
X19203964Y42441831D01*
X18814013Y41954391D01*
X18806169Y41950072D01*
X18804877Y41950000D01*
X18616123Y41950000D01*
X18607850Y41953427D01*
X18606987Y41954391D01*
X18217035Y42441831D01*
X18214543Y42450432D01*
X18217890Y42457405D01*
X18702219Y42942704D01*
X18710488Y42946138D01*
X18718764Y42942720D01*
G37*
%TD.AperFunction*%
%TD*%
%TA.AperFunction,Conductor*%
%TO.N,ROW2_L*%
G36*
X-98831348Y28393065D02*
G01*
X-98831336Y28393054D01*
X-98269299Y27908200D01*
X-98265273Y27900201D01*
X-98268082Y27891699D01*
X-98268641Y27891095D01*
X-98628544Y27528819D01*
X-98628571Y27528792D01*
X-98761623Y27395741D01*
X-98769896Y27392314D01*
X-98778169Y27395741D01*
X-98778264Y27395837D01*
X-99263408Y27892327D01*
X-99266739Y27900639D01*
X-99263911Y27908133D01*
X-98847847Y28391826D01*
X-98839855Y28395862D01*
X-98831348Y28393065D01*
G37*
%TD.AperFunction*%
%TD*%
%TA.AperFunction,Conductor*%
%TO.N,Net-(D10-A)*%
G36*
X-85381236Y47642820D02*
G01*
X-85178695Y47439874D01*
X-84896891Y47157505D01*
X-84893472Y47149228D01*
X-84896036Y47141931D01*
X-85285987Y46654491D01*
X-85293831Y46650172D01*
X-85295123Y46650100D01*
X-85483877Y46650100D01*
X-85492150Y46653527D01*
X-85493013Y46654491D01*
X-85882965Y47141931D01*
X-85885457Y47150532D01*
X-85882110Y47157505D01*
X-85397781Y47642804D01*
X-85389512Y47646238D01*
X-85381236Y47642820D01*
G37*
%TD.AperFunction*%
%TD*%
%TA.AperFunction,Conductor*%
%TO.N,ROW3_R*%
G36*
X42864216Y9247349D02*
G01*
X43545066Y8761722D01*
X43549812Y8754128D01*
X43547797Y8745403D01*
X43543160Y8741567D01*
X42868355Y8431238D01*
X42859407Y8430895D01*
X42854740Y8434075D01*
X42363473Y8984171D01*
X42360500Y8991964D01*
X42360500Y9177172D01*
X42363927Y9185445D01*
X42370746Y9188781D01*
X42855971Y9249434D01*
X42864216Y9247349D01*
G37*
%TD.AperFunction*%
%TD*%
%TA.AperFunction,Conductor*%
%TO.N,ROW1_R*%
G36*
X66649615Y46267991D02*
G01*
X66782546Y46135060D01*
X66785575Y46129813D01*
X66858403Y45857832D01*
X66857233Y45848954D01*
X66853903Y45845287D01*
X66170573Y45356997D01*
X66161850Y45354975D01*
X66154252Y45359714D01*
X66153486Y45360938D01*
X65894123Y45839874D01*
X65893197Y45848780D01*
X65898678Y45855644D01*
X66635609Y46269918D01*
X66644500Y46270984D01*
X66649615Y46267991D01*
G37*
%TD.AperFunction*%
%TD*%
%TA.AperFunction,Conductor*%
%TO.N,ROW1_R*%
G36*
X65464319Y45847269D02*
G01*
X65464623Y45847059D01*
X66145454Y45361445D01*
X66150200Y45353851D01*
X66148185Y45345126D01*
X66143769Y45341394D01*
X65468303Y45013529D01*
X65459364Y45013000D01*
X65454607Y45016108D01*
X64963613Y45546637D01*
X64960500Y45554584D01*
X64960500Y45740408D01*
X64963927Y45748681D01*
X64969905Y45751881D01*
X65455534Y45849007D01*
X65464319Y45847269D01*
G37*
%TD.AperFunction*%
%TD*%
%TA.AperFunction,Conductor*%
%TO.N,Net-(D24-A)*%
G36*
X69718764Y62342720D02*
G01*
X69921305Y62139774D01*
X70203109Y61857405D01*
X70206528Y61849128D01*
X70203964Y61841831D01*
X69814013Y61354391D01*
X69806169Y61350072D01*
X69804877Y61350000D01*
X69616123Y61350000D01*
X69607850Y61353427D01*
X69606987Y61354391D01*
X69217035Y61841831D01*
X69214543Y61850432D01*
X69217890Y61857405D01*
X69702219Y62342704D01*
X69710488Y62346138D01*
X69718764Y62342720D01*
G37*
%TD.AperFunction*%
%TD*%
%TA.AperFunction,Conductor*%
%TO.N,ROW1_R*%
G36*
X32238281Y46354355D02*
G01*
X32238377Y46354260D01*
X32371456Y46221181D01*
X32731359Y45858906D01*
X32734759Y45850622D01*
X32731305Y45842360D01*
X32730701Y45841801D01*
X32168664Y45356947D01*
X32160162Y45354138D01*
X32152163Y45358164D01*
X32152152Y45358176D01*
X31736090Y45841867D01*
X31733293Y45850374D01*
X31736591Y45857673D01*
X32221736Y46354165D01*
X32229969Y46357686D01*
X32238281Y46354355D01*
G37*
%TD.AperFunction*%
%TD*%
%TA.AperFunction,Conductor*%
%TO.N,ROW2_L*%
G36*
X-115736850Y24646573D02*
G01*
X-115735987Y24645609D01*
X-115346036Y24158170D01*
X-115343544Y24149569D01*
X-115346891Y24142596D01*
X-115831219Y23657298D01*
X-115839488Y23653863D01*
X-115847765Y23657282D01*
X-115847781Y23657298D01*
X-116332110Y24142596D01*
X-116335529Y24150873D01*
X-116332966Y24158168D01*
X-115943013Y24645610D01*
X-115935169Y24649928D01*
X-115933877Y24650000D01*
X-115745123Y24650000D01*
X-115736850Y24646573D01*
G37*
%TD.AperFunction*%
%TD*%
%TA.AperFunction,Conductor*%
%TO.N,Net-(D27-A)*%
G36*
X18718764Y59942720D02*
G01*
X18921305Y59739774D01*
X19203109Y59457405D01*
X19206528Y59449128D01*
X19203964Y59441831D01*
X18814013Y58954391D01*
X18806169Y58950072D01*
X18804877Y58950000D01*
X18616123Y58950000D01*
X18607850Y58953427D01*
X18606987Y58954391D01*
X18217035Y59441831D01*
X18214543Y59450432D01*
X18217890Y59457405D01*
X18702219Y59942704D01*
X18710488Y59946138D01*
X18718764Y59942720D01*
G37*
%TD.AperFunction*%
%TD*%
%TA.AperFunction,Conductor*%
%TO.N,ROW0_L*%
G36*
X-65019518Y63288358D02*
G01*
X-65005306Y63278685D01*
X-64457913Y62906132D01*
X-64453002Y62898645D01*
X-64454824Y62889877D01*
X-64455279Y62889254D01*
X-64831294Y62408318D01*
X-64839089Y62403911D01*
X-64847717Y62406307D01*
X-65462868Y62887256D01*
X-65467275Y62895051D01*
X-65464879Y62903679D01*
X-65460538Y62907109D01*
X-65037800Y63100800D01*
X-65037800Y63278685D01*
X-65034373Y63286958D01*
X-65026100Y63290385D01*
X-65019518Y63288358D01*
G37*
%TD.AperFunction*%
%TD*%
%TA.AperFunction,Conductor*%
%TO.N,ROW1_R*%
G36*
X49356772Y48636168D02*
G01*
X49358800Y48629585D01*
X49358800Y48451701D01*
X49358800Y48451700D01*
X49781535Y48258010D01*
X49787628Y48251448D01*
X49787298Y48242499D01*
X49783867Y48238156D01*
X49168716Y47757207D01*
X49160088Y47754811D01*
X49152293Y47759218D01*
X48776278Y48240154D01*
X48773882Y48248782D01*
X48778289Y48256577D01*
X48778912Y48257032D01*
X49326306Y48629585D01*
X49340517Y48639258D01*
X49349285Y48641079D01*
X49356772Y48636168D01*
G37*
%TD.AperFunction*%
%TD*%
%TA.AperFunction,Conductor*%
%TO.N,ROW0_R*%
G36*
X31468119Y62763536D02*
G01*
X32009485Y62441078D01*
X32145825Y62359869D01*
X32151179Y62352691D01*
X32149890Y62343830D01*
X32146640Y62340298D01*
X31467603Y61855076D01*
X31458880Y61853054D01*
X31453612Y61855364D01*
X31089861Y62138628D01*
X31088777Y62139586D01*
X30956353Y62272010D01*
X30952926Y62280283D01*
X30956353Y62288556D01*
X30956495Y62288696D01*
X31454074Y62761963D01*
X31462427Y62765179D01*
X31468119Y62763536D01*
G37*
%TD.AperFunction*%
%TD*%
%TA.AperFunction,Conductor*%
%TO.N,BAT+_L*%
G36*
X-26643456Y5796814D02*
G01*
X-26640294Y5792737D01*
X-26392010Y5261786D01*
X-26391609Y5252840D01*
X-26397652Y5246232D01*
X-26401601Y5245173D01*
X-26985556Y5194726D01*
X-26994093Y5197428D01*
X-26997213Y5201538D01*
X-27169405Y5580048D01*
X-27169711Y5588998D01*
X-27168887Y5590743D01*
X-27074902Y5753514D01*
X-27067798Y5758965D01*
X-27065902Y5759309D01*
X-26652020Y5799426D01*
X-26643456Y5796814D01*
G37*
%TD.AperFunction*%
%TD*%
%TA.AperFunction,Conductor*%
%TO.N,ROW0_R*%
G36*
X83263150Y58546573D02*
G01*
X83264013Y58545609D01*
X83653964Y58058170D01*
X83656456Y58049569D01*
X83653109Y58042596D01*
X83168781Y57557298D01*
X83160512Y57553863D01*
X83152235Y57557282D01*
X83152219Y57557298D01*
X82667890Y58042596D01*
X82664471Y58050873D01*
X82667034Y58058168D01*
X83056987Y58545610D01*
X83064831Y58549928D01*
X83066123Y58550000D01*
X83254877Y58550000D01*
X83263150Y58546573D01*
G37*
%TD.AperFunction*%
%TD*%
%TA.AperFunction,Conductor*%
%TO.N,ROW3_R*%
G36*
X22575824Y6351162D02*
G01*
X23149073Y6099991D01*
X23155276Y6093532D01*
X23155679Y6092303D01*
X23204525Y5909980D01*
X23203356Y5901102D01*
X23202648Y5900018D01*
X22831779Y5395928D01*
X22824116Y5391295D01*
X22818258Y5391903D01*
X22035382Y5684594D01*
X22028833Y5690701D01*
X22028520Y5699650D01*
X22030451Y5702995D01*
X22192877Y5900018D01*
X22562102Y6347889D01*
X22570008Y6352092D01*
X22575824Y6351162D01*
G37*
%TD.AperFunction*%
%TD*%
%TA.AperFunction,Conductor*%
%TO.N,Net-(D37-A)*%
G36*
X52718764Y30742720D02*
G01*
X52921305Y30539774D01*
X53203109Y30257405D01*
X53206528Y30249128D01*
X53203964Y30241831D01*
X52814013Y29754391D01*
X52806169Y29750072D01*
X52804877Y29750000D01*
X52616123Y29750000D01*
X52607850Y29753427D01*
X52606987Y29754391D01*
X52217035Y30241831D01*
X52214543Y30250432D01*
X52217890Y30257405D01*
X52702219Y30742704D01*
X52710488Y30746138D01*
X52718764Y30742720D01*
G37*
%TD.AperFunction*%
%TD*%
%TA.AperFunction,Conductor*%
%TO.N,Net-(D41-A)*%
G36*
X25459883Y6604511D02*
G01*
X26053303Y6261082D01*
X26058747Y6253974D01*
X26058159Y6246261D01*
X25807623Y5674489D01*
X25801164Y5668287D01*
X25799935Y5667884D01*
X25617611Y5619040D01*
X25608733Y5620209D01*
X25607650Y5620917D01*
X25104858Y5990825D01*
X25100224Y5998488D01*
X25101652Y6006087D01*
X25443909Y6600214D01*
X25451007Y6605670D01*
X25459883Y6604511D01*
G37*
%TD.AperFunction*%
%TD*%
%TA.AperFunction,Conductor*%
%TO.N,ROW2_R*%
G36*
X31468119Y28763536D02*
G01*
X32009485Y28441078D01*
X32145825Y28359869D01*
X32151179Y28352691D01*
X32149890Y28343830D01*
X32146640Y28340298D01*
X31467603Y27855076D01*
X31458880Y27853054D01*
X31453612Y27855364D01*
X31089861Y28138628D01*
X31088777Y28139586D01*
X30956353Y28272010D01*
X30952926Y28280283D01*
X30956353Y28288556D01*
X30956495Y28288696D01*
X31454074Y28761963D01*
X31462427Y28765179D01*
X31468119Y28763536D01*
G37*
%TD.AperFunction*%
%TD*%
%TA.AperFunction,Conductor*%
%TO.N,Net-(D18-A)*%
G36*
X-51381348Y25893065D02*
G01*
X-51381336Y25893054D01*
X-50819299Y25408200D01*
X-50815273Y25400201D01*
X-50818082Y25391699D01*
X-50818641Y25391095D01*
X-51178544Y25028819D01*
X-51178571Y25028792D01*
X-51311623Y24895741D01*
X-51319896Y24892314D01*
X-51328169Y24895741D01*
X-51328264Y24895837D01*
X-51813408Y25392327D01*
X-51816739Y25400639D01*
X-51813911Y25408133D01*
X-51397847Y25891826D01*
X-51389855Y25895862D01*
X-51381348Y25893065D01*
G37*
%TD.AperFunction*%
%TD*%
%TA.AperFunction,Conductor*%
%TO.N,Net-(D5-A)*%
G36*
X-68381348Y62392165D02*
G01*
X-68381336Y62392154D01*
X-67819299Y61907300D01*
X-67815273Y61899301D01*
X-67818082Y61890799D01*
X-67818641Y61890195D01*
X-68178544Y61527919D01*
X-68178571Y61527892D01*
X-68311623Y61394841D01*
X-68319896Y61391414D01*
X-68328169Y61394841D01*
X-68328264Y61394937D01*
X-68813408Y61891427D01*
X-68816739Y61899739D01*
X-68813911Y61907233D01*
X-68397847Y62390926D01*
X-68389855Y62394962D01*
X-68381348Y62392165D01*
G37*
%TD.AperFunction*%
%TD*%
%TA.AperFunction,Conductor*%
%TO.N,Net-(D34-A)*%
G36*
X103718764Y23542720D02*
G01*
X103921305Y23339774D01*
X104203109Y23057405D01*
X104206528Y23049128D01*
X104203964Y23041831D01*
X103814013Y22554391D01*
X103806169Y22550072D01*
X103804877Y22550000D01*
X103616123Y22550000D01*
X103607850Y22553427D01*
X103606987Y22554391D01*
X103217035Y23041831D01*
X103214543Y23050432D01*
X103217890Y23057405D01*
X103702219Y23542704D01*
X103710488Y23546138D01*
X103718764Y23542720D01*
G37*
%TD.AperFunction*%
%TD*%
%TA.AperFunction,Conductor*%
%TO.N,ROW1_R*%
G36*
X82467698Y41044866D02*
G01*
X83148145Y40559525D01*
X83152891Y40551931D01*
X83150876Y40543206D01*
X83148145Y40540475D01*
X82467698Y40055135D01*
X82458973Y40053120D01*
X82453595Y40055524D01*
X81964891Y40446488D01*
X81960572Y40454332D01*
X81960500Y40455624D01*
X81960500Y40644377D01*
X81963927Y40652650D01*
X81964891Y40653513D01*
X82453596Y41044478D01*
X82462196Y41046969D01*
X82467698Y41044866D01*
G37*
%TD.AperFunction*%
%TD*%
%TA.AperFunction,Conductor*%
%TO.N,ROW0_L*%
G36*
X-115736850Y58646573D02*
G01*
X-115735987Y58645609D01*
X-115346036Y58158170D01*
X-115343544Y58149569D01*
X-115346891Y58142596D01*
X-115831219Y57657298D01*
X-115839488Y57653863D01*
X-115847765Y57657282D01*
X-115847781Y57657298D01*
X-116332110Y58142596D01*
X-116335529Y58150873D01*
X-116332966Y58158168D01*
X-115943013Y58645610D01*
X-115935169Y58649928D01*
X-115933877Y58650000D01*
X-115745123Y58650000D01*
X-115736850Y58646573D01*
G37*
%TD.AperFunction*%
%TD*%
%TA.AperFunction,Conductor*%
%TO.N,ROW2_R*%
G36*
X48468119Y31163536D02*
G01*
X49009485Y30841078D01*
X49145825Y30759869D01*
X49151179Y30752691D01*
X49149890Y30743830D01*
X49146640Y30740298D01*
X48467603Y30255076D01*
X48458880Y30253054D01*
X48453612Y30255364D01*
X48089861Y30538628D01*
X48088777Y30539586D01*
X47956353Y30672010D01*
X47952926Y30680283D01*
X47956353Y30688556D01*
X47956495Y30688696D01*
X48454074Y31161963D01*
X48462427Y31165179D01*
X48468119Y31163536D01*
G37*
%TD.AperFunction*%
%TD*%
%TA.AperFunction,Conductor*%
%TO.N,BAT+_R*%
G36*
X-6953849Y5234826D02*
G01*
X-6823871Y5104848D01*
X-6820444Y5096575D01*
X-6820652Y5094378D01*
X-6922547Y4561399D01*
X-6927467Y4553916D01*
X-6931798Y4552113D01*
X-7437303Y4453472D01*
X-7446080Y4455251D01*
X-7448362Y4457265D01*
X-7670116Y4711536D01*
X-7672970Y4720021D01*
X-7668987Y4728042D01*
X-7668181Y4728685D01*
X-6968991Y5236024D01*
X-6960285Y5238108D01*
X-6953849Y5234826D01*
G37*
%TD.AperFunction*%
%TD*%
%TA.AperFunction,Conductor*%
%TO.N,Net-(D13-A)*%
G36*
X-136318848Y23689965D02*
G01*
X-136318836Y23689954D01*
X-135756799Y23205100D01*
X-135752773Y23197101D01*
X-135755582Y23188599D01*
X-135756141Y23187995D01*
X-136116044Y22825719D01*
X-136116071Y22825692D01*
X-136249123Y22692641D01*
X-136257396Y22689214D01*
X-136265669Y22692641D01*
X-136265764Y22692737D01*
X-136750908Y23189227D01*
X-136754239Y23197539D01*
X-136751411Y23205033D01*
X-136335347Y23688726D01*
X-136327355Y23692762D01*
X-136318848Y23689965D01*
G37*
%TD.AperFunction*%
%TD*%
%TA.AperFunction,Conductor*%
%TO.N,COL4_L*%
G36*
X-23654453Y49222820D02*
G01*
X-23163558Y48489609D01*
X-23161803Y48480828D01*
X-23163558Y48476591D01*
X-23654453Y47743381D01*
X-23661903Y47738413D01*
X-23669453Y47739448D01*
X-24936485Y48379855D01*
X-24942323Y48386645D01*
X-24942907Y48390297D01*
X-24942907Y48575904D01*
X-24939480Y48584177D01*
X-24936485Y48586346D01*
X-23669453Y49226753D01*
X-23660523Y49227427D01*
X-23654453Y49222820D01*
G37*
%TD.AperFunction*%
%TD*%
%TA.AperFunction,Conductor*%
%TO.N,Net-(D11-A)*%
G36*
X-68381348Y45392565D02*
G01*
X-68381336Y45392554D01*
X-67819299Y44907700D01*
X-67815273Y44899701D01*
X-67818082Y44891199D01*
X-67818641Y44890595D01*
X-68178544Y44528319D01*
X-68178571Y44528292D01*
X-68311623Y44395241D01*
X-68319896Y44391814D01*
X-68328169Y44395241D01*
X-68328264Y44395337D01*
X-68813408Y44891827D01*
X-68816739Y44900139D01*
X-68813911Y44907633D01*
X-68397847Y45391326D01*
X-68389855Y45395362D01*
X-68381348Y45392565D01*
G37*
%TD.AperFunction*%
%TD*%
%TA.AperFunction,Conductor*%
%TO.N,Net-(D1-A)*%
G36*
X-136381348Y57643065D02*
G01*
X-136381336Y57643054D01*
X-135819299Y57158200D01*
X-135815273Y57150201D01*
X-135818082Y57141699D01*
X-135818641Y57141095D01*
X-136178544Y56778819D01*
X-136178571Y56778792D01*
X-136311623Y56645741D01*
X-136319896Y56642314D01*
X-136328169Y56645741D01*
X-136328264Y56645837D01*
X-136813408Y57142327D01*
X-136816739Y57150639D01*
X-136813911Y57158133D01*
X-136397847Y57641826D01*
X-136389855Y57645862D01*
X-136381348Y57643065D01*
G37*
%TD.AperFunction*%
%TD*%
%TA.AperFunction,Conductor*%
%TO.N,Net-(D29-A)*%
G36*
X86718764Y40542720D02*
G01*
X86921305Y40339774D01*
X87203109Y40057405D01*
X87206528Y40049128D01*
X87203964Y40041831D01*
X86814013Y39554391D01*
X86806169Y39550072D01*
X86804877Y39550000D01*
X86616123Y39550000D01*
X86607850Y39553427D01*
X86606987Y39554391D01*
X86217035Y40041831D01*
X86214543Y40050432D01*
X86217890Y40057405D01*
X86702219Y40542704D01*
X86710488Y40546138D01*
X86718764Y40542720D01*
G37*
%TD.AperFunction*%
%TD*%
%TA.AperFunction,Conductor*%
%TO.N,VBAT_R*%
G36*
X-6144631Y3832267D02*
G01*
X-6013807Y3701443D01*
X-6010380Y3693170D01*
X-6010811Y3690022D01*
X-6143851Y3213779D01*
X-6149378Y3206733D01*
X-6153995Y3205281D01*
X-6673527Y3155111D01*
X-6682092Y3157727D01*
X-6686298Y3165632D01*
X-6685252Y3171709D01*
X-6437020Y3703075D01*
X-6431314Y3708749D01*
X-6157794Y3834624D01*
X-6148847Y3834968D01*
X-6144631Y3832267D01*
G37*
%TD.AperFunction*%
%TD*%
%TA.AperFunction,Conductor*%
%TO.N,Net-(D17-A)*%
G36*
X-68381348Y28393065D02*
G01*
X-68381336Y28393054D01*
X-67819299Y27908200D01*
X-67815273Y27900201D01*
X-67818082Y27891699D01*
X-67818641Y27891095D01*
X-68178544Y27528819D01*
X-68178571Y27528792D01*
X-68311623Y27395741D01*
X-68319896Y27392314D01*
X-68328169Y27395741D01*
X-68328264Y27395837D01*
X-68813408Y27892327D01*
X-68816739Y27900639D01*
X-68813911Y27908133D01*
X-68397847Y28391826D01*
X-68389855Y28395862D01*
X-68381348Y28393065D01*
G37*
%TD.AperFunction*%
%TD*%
%TA.AperFunction,Conductor*%
%TO.N,ROW0_L*%
G36*
X-64831236Y62391820D02*
G01*
X-64628695Y62188874D01*
X-64346891Y61906505D01*
X-64343472Y61898228D01*
X-64346036Y61890931D01*
X-64735987Y61403491D01*
X-64743831Y61399172D01*
X-64745123Y61399100D01*
X-64933877Y61399100D01*
X-64942150Y61402527D01*
X-64943013Y61403491D01*
X-65332965Y61890931D01*
X-65335457Y61899532D01*
X-65332110Y61906505D01*
X-64847781Y62391804D01*
X-64839512Y62395238D01*
X-64831236Y62391820D01*
G37*
%TD.AperFunction*%
%TD*%
%TA.AperFunction,Conductor*%
%TO.N,ROW1_L*%
G36*
X-65816212Y46121747D02*
G01*
X-64709962Y45901967D01*
X-64702516Y45896994D01*
X-64700767Y45888212D01*
X-64700982Y45887315D01*
X-64836891Y45405539D01*
X-64842436Y45398507D01*
X-64845641Y45397289D01*
X-65531128Y45246694D01*
X-65539944Y45248265D01*
X-65543778Y45252282D01*
X-65627289Y45397289D01*
X-65909498Y45887315D01*
X-65959289Y45973772D01*
X-65960448Y45982651D01*
X-65957425Y45987882D01*
X-65826763Y46118544D01*
X-65818491Y46121970D01*
X-65816212Y46121747D01*
G37*
%TD.AperFunction*%
%TD*%
%TA.AperFunction,Conductor*%
%TO.N,ROW1_R*%
G36*
X14322349Y43871337D02*
G01*
X14945595Y43617608D01*
X15346604Y43454353D01*
X15352974Y43448060D01*
X15353086Y43439250D01*
X15163983Y42956384D01*
X15157776Y42949931D01*
X15153598Y42948962D01*
X14469162Y42919178D01*
X14460747Y42922242D01*
X14457619Y42926978D01*
X14176184Y43725893D01*
X14176667Y43734834D01*
X14178943Y43738050D01*
X14309667Y43868774D01*
X14317939Y43872200D01*
X14322349Y43871337D01*
G37*
%TD.AperFunction*%
%TD*%
%TA.AperFunction,Conductor*%
%TO.N,ROW2_L*%
G36*
X-132699219Y24701255D02*
G01*
X-132699123Y24701160D01*
X-132566044Y24568081D01*
X-132206141Y24205806D01*
X-132202741Y24197522D01*
X-132206195Y24189260D01*
X-132206799Y24188701D01*
X-132768836Y23703847D01*
X-132777338Y23701038D01*
X-132785337Y23705064D01*
X-132785348Y23705076D01*
X-133201410Y24188767D01*
X-133204207Y24197274D01*
X-133200909Y24204573D01*
X-132715764Y24701065D01*
X-132707531Y24704586D01*
X-132699219Y24701255D01*
G37*
%TD.AperFunction*%
%TD*%
%TA.AperFunction,Conductor*%
%TO.N,ROW2_L*%
G36*
X-81831236Y30642720D02*
G01*
X-81628695Y30439774D01*
X-81346891Y30157405D01*
X-81343472Y30149128D01*
X-81346036Y30141831D01*
X-81735987Y29654391D01*
X-81743831Y29650072D01*
X-81745123Y29650000D01*
X-81933877Y29650000D01*
X-81942150Y29653427D01*
X-81943013Y29654391D01*
X-82332965Y30141831D01*
X-82335457Y30150432D01*
X-82332110Y30157405D01*
X-81847781Y30642704D01*
X-81839512Y30646138D01*
X-81831236Y30642720D01*
G37*
%TD.AperFunction*%
%TD*%
%TA.AperFunction,Conductor*%
%TO.N,ROW0_L*%
G36*
X-39925468Y64386195D02*
G01*
X-38417506Y63731626D01*
X-38411282Y63725189D01*
X-38411433Y63716235D01*
X-38414944Y63711688D01*
X-39521043Y62844110D01*
X-39529668Y62841701D01*
X-39531560Y62842090D01*
X-40889158Y63240715D01*
X-40894135Y63243668D01*
X-41024791Y63374324D01*
X-41028218Y63382597D01*
X-41024791Y63390870D01*
X-41024448Y63391199D01*
X-39938018Y64384101D01*
X-39929601Y64387151D01*
X-39925468Y64386195D01*
G37*
%TD.AperFunction*%
%TD*%
%TA.AperFunction,Conductor*%
%TO.N,COL2_R*%
G36*
X5667681Y54149040D02*
G01*
X6749873Y53160368D01*
X6753670Y53152259D01*
X6750620Y53143840D01*
X6750255Y53143458D01*
X6619564Y53012767D01*
X6614677Y53009841D01*
X5266202Y52602154D01*
X5257291Y52603040D01*
X5255595Y52604147D01*
X4149475Y53471742D01*
X4145081Y53479544D01*
X4147490Y53488169D01*
X4151992Y53491661D01*
X5655092Y54151116D01*
X5664044Y54151301D01*
X5667681Y54149040D01*
G37*
%TD.AperFunction*%
%TD*%
%TA.AperFunction,Conductor*%
%TO.N,ROW0_R*%
G36*
X100099168Y58554260D02*
G01*
X100099263Y58554164D01*
X100584408Y58057674D01*
X100587739Y58049362D01*
X100584910Y58041867D01*
X100168847Y57558176D01*
X100160854Y57554139D01*
X100152347Y57556936D01*
X100152335Y57556947D01*
X99590298Y58041801D01*
X99586272Y58049800D01*
X99589081Y58058302D01*
X99589630Y58058896D01*
X99949571Y58421208D01*
X100082623Y58554261D01*
X100090895Y58557687D01*
X100099168Y58554260D01*
G37*
%TD.AperFunction*%
%TD*%
%TA.AperFunction,Conductor*%
%TO.N,ROW3_L*%
G36*
X-39161646Y-233483D02*
G01*
X-39157281Y-239868D01*
X-38979181Y-901984D01*
X-38980341Y-910863D01*
X-38987440Y-916321D01*
X-38987462Y-916327D01*
X-39649890Y-1093093D01*
X-39658767Y-1091915D01*
X-39663805Y-1086046D01*
X-39890954Y-504590D01*
X-39890772Y-495637D01*
X-39890193Y-494490D01*
X-39795802Y-331021D01*
X-39788698Y-325571D01*
X-39787441Y-325307D01*
X-39170338Y-231340D01*
X-39161646Y-233483D01*
G37*
%TD.AperFunction*%
%TD*%
%TA.AperFunction,Conductor*%
%TO.N,VBAT_L*%
G36*
X-26171169Y7226985D02*
G01*
X-25897687Y7101054D01*
X-25891981Y7095379D01*
X-25643749Y6564015D01*
X-25643352Y6555069D01*
X-25649397Y6548463D01*
X-25655474Y6547417D01*
X-26174990Y6597615D01*
X-26182895Y6601822D01*
X-26185133Y6606112D01*
X-26318155Y7082388D01*
X-26317080Y7091278D01*
X-26315163Y7093804D01*
X-26184335Y7224632D01*
X-26176063Y7228058D01*
X-26171169Y7226985D01*
G37*
%TD.AperFunction*%
%TD*%
%TA.AperFunction,Conductor*%
%TO.N,Net-(D36-A)*%
G36*
X69718764Y28342720D02*
G01*
X69921305Y28139774D01*
X70203109Y27857405D01*
X70206528Y27849128D01*
X70203964Y27841831D01*
X69814013Y27354391D01*
X69806169Y27350072D01*
X69804877Y27350000D01*
X69616123Y27350000D01*
X69607850Y27353427D01*
X69606987Y27354391D01*
X69217035Y27841831D01*
X69214543Y27850432D01*
X69217890Y27857405D01*
X69702219Y28342704D01*
X69710488Y28346138D01*
X69718764Y28342720D01*
G37*
%TD.AperFunction*%
%TD*%
%TA.AperFunction,Conductor*%
%TO.N,Net-(D9-A)*%
G36*
X-102381284Y45392794D02*
G01*
X-101766133Y44911845D01*
X-101761726Y44904050D01*
X-101764122Y44895422D01*
X-101768465Y44891991D01*
X-102191200Y44698300D01*
X-102191200Y44520416D01*
X-102194627Y44512143D01*
X-102202900Y44508716D01*
X-102209483Y44510744D01*
X-102771088Y44892969D01*
X-102775999Y44900456D01*
X-102774177Y44909224D01*
X-102773734Y44909832D01*
X-102397706Y45390784D01*
X-102389912Y45395190D01*
X-102381284Y45392794D01*
G37*
%TD.AperFunction*%
%TD*%
%TA.AperFunction,Conductor*%
%TO.N,Net-(D3-A)*%
G36*
X-102381348Y62393065D02*
G01*
X-102381336Y62393054D01*
X-101819299Y61908200D01*
X-101815273Y61900201D01*
X-101818082Y61891699D01*
X-101818641Y61891095D01*
X-102178544Y61528819D01*
X-102178571Y61528792D01*
X-102311623Y61395741D01*
X-102319896Y61392314D01*
X-102328169Y61395741D01*
X-102328264Y61395837D01*
X-102813408Y61892327D01*
X-102816739Y61900639D01*
X-102813911Y61908133D01*
X-102397847Y62391826D01*
X-102389855Y62395862D01*
X-102381348Y62393065D01*
G37*
%TD.AperFunction*%
%TD*%
%TA.AperFunction,Conductor*%
%TO.N,COL1_L*%
G36*
X-23653728Y56841492D02*
G01*
X-23652618Y56840082D01*
X-23162197Y56107844D01*
X-23160440Y56099063D01*
X-23160444Y56099043D01*
X-23333279Y55232932D01*
X-23338259Y55225490D01*
X-23347043Y55223748D01*
X-23348049Y55223996D01*
X-24699158Y55620715D01*
X-24704135Y55623668D01*
X-24834819Y55754352D01*
X-24838246Y55762625D01*
X-24834819Y55770898D01*
X-24834495Y55771210D01*
X-23670258Y56842183D01*
X-23661851Y56845261D01*
X-23653728Y56841492D01*
G37*
%TD.AperFunction*%
%TD*%
%TA.AperFunction,Conductor*%
%TO.N,Net-(D22-A)*%
G36*
X103718764Y57542720D02*
G01*
X103921305Y57339774D01*
X104203109Y57057405D01*
X104206528Y57049128D01*
X104203964Y57041831D01*
X103814013Y56554391D01*
X103806169Y56550072D01*
X103804877Y56550000D01*
X103616123Y56550000D01*
X103607850Y56553427D01*
X103606987Y56554391D01*
X103217035Y57041831D01*
X103214543Y57050432D01*
X103217890Y57057405D01*
X103702219Y57542704D01*
X103710488Y57546138D01*
X103718764Y57542720D01*
G37*
%TD.AperFunction*%
%TD*%
%TA.AperFunction,Conductor*%
%TO.N,ROW3_L*%
G36*
X-75633075Y9061963D02*
G01*
X-75135564Y8588760D01*
X-75131931Y8580576D01*
X-75135149Y8572220D01*
X-75135354Y8572010D01*
X-75267778Y8439586D01*
X-75268862Y8438628D01*
X-75632613Y8155364D01*
X-75641246Y8152984D01*
X-75646604Y8155076D01*
X-75647007Y8155364D01*
X-76325642Y8640299D01*
X-76330380Y8647896D01*
X-76328358Y8656619D01*
X-76324828Y8659868D01*
X-75647120Y9063536D01*
X-75638261Y9064824D01*
X-75633075Y9061963D01*
G37*
%TD.AperFunction*%
%TD*%
%TA.AperFunction,Conductor*%
%TO.N,Net-(D16-A)*%
G36*
X-85381348Y30643065D02*
G01*
X-85381336Y30643054D01*
X-84819299Y30158200D01*
X-84815273Y30150201D01*
X-84818082Y30141699D01*
X-84818641Y30141095D01*
X-85178544Y29778819D01*
X-85178571Y29778792D01*
X-85311623Y29645741D01*
X-85319896Y29642314D01*
X-85328169Y29645741D01*
X-85328264Y29645837D01*
X-85813408Y30142327D01*
X-85816739Y30150639D01*
X-85813911Y30158133D01*
X-85397847Y30641826D01*
X-85389855Y30645862D01*
X-85381348Y30643065D01*
G37*
%TD.AperFunction*%
%TD*%
%TA.AperFunction,Conductor*%
%TO.N,ROW1_L*%
G36*
X-47497294Y43896473D02*
G01*
X-47495482Y43894131D01*
X-47209996Y43408694D01*
X-47208756Y43399826D01*
X-47212832Y43393579D01*
X-47830299Y42906164D01*
X-47838916Y42903728D01*
X-47846730Y42908098D01*
X-47953034Y43043336D01*
X-48226676Y43391461D01*
X-48229095Y43400083D01*
X-48225473Y43407233D01*
X-47702248Y43896744D01*
X-47694255Y43899900D01*
X-47505567Y43899900D01*
X-47497294Y43896473D01*
G37*
%TD.AperFunction*%
%TD*%
%TA.AperFunction,Conductor*%
%TO.N,Net-(D38-A)*%
G36*
X35718764Y28342720D02*
G01*
X35921305Y28139774D01*
X36203109Y27857405D01*
X36206528Y27849128D01*
X36203964Y27841831D01*
X35814013Y27354391D01*
X35806169Y27350072D01*
X35804877Y27350000D01*
X35616123Y27350000D01*
X35607850Y27353427D01*
X35606987Y27354391D01*
X35217035Y27841831D01*
X35214543Y27850432D01*
X35217890Y27857405D01*
X35702219Y28342704D01*
X35710488Y28346138D01*
X35718764Y28342720D01*
G37*
%TD.AperFunction*%
%TD*%
%TA.AperFunction,Conductor*%
%TO.N,ROW1_L*%
G36*
X-98736850Y46396573D02*
G01*
X-98735987Y46395609D01*
X-98346036Y45908170D01*
X-98343544Y45899569D01*
X-98346891Y45892596D01*
X-98831219Y45407298D01*
X-98839488Y45403863D01*
X-98847765Y45407282D01*
X-98847781Y45407298D01*
X-99332110Y45892596D01*
X-99335529Y45900873D01*
X-99332966Y45908168D01*
X-98943013Y46395610D01*
X-98935169Y46399928D01*
X-98933877Y46400000D01*
X-98745123Y46400000D01*
X-98736850Y46396573D01*
G37*
%TD.AperFunction*%
%TD*%
%TA.AperFunction,Conductor*%
%TO.N,ROW2_L*%
G36*
X-81861316Y31615015D02*
G01*
X-81399808Y31157817D01*
X-81396342Y31149560D01*
X-81399313Y31141714D01*
X-81830992Y30658035D01*
X-81839057Y30654145D01*
X-81847512Y30657097D01*
X-81847524Y30657108D01*
X-82388258Y31141091D01*
X-82392137Y31149162D01*
X-82389173Y31157612D01*
X-82388075Y31158687D01*
X-82011010Y31481788D01*
X-81877822Y31614977D01*
X-81869550Y31618403D01*
X-81861316Y31615015D01*
G37*
%TD.AperFunction*%
%TD*%
%TA.AperFunction,Conductor*%
%TO.N,Net-(D23-A)*%
G36*
X86718764Y57542720D02*
G01*
X86921305Y57339774D01*
X87203109Y57057405D01*
X87206528Y57049128D01*
X87203964Y57041831D01*
X86814013Y56554391D01*
X86806169Y56550072D01*
X86804877Y56550000D01*
X86616123Y56550000D01*
X86607850Y56553427D01*
X86606987Y56554391D01*
X86217035Y57041831D01*
X86214543Y57050432D01*
X86217890Y57057405D01*
X86702219Y57542704D01*
X86710488Y57546138D01*
X86718764Y57542720D01*
G37*
%TD.AperFunction*%
%TD*%
%TA.AperFunction,Conductor*%
%TO.N,COL5_R*%
G36*
X2924515Y47040511D02*
G01*
X2930647Y47034624D01*
X3358348Y46111717D01*
X3359433Y46106797D01*
X3359433Y45923059D01*
X3356006Y45914786D01*
X3347733Y45911359D01*
X3345916Y45911501D01*
X2290468Y46077449D01*
X2282827Y46082119D01*
X2280585Y46088988D01*
X2279611Y46769667D01*
X2283026Y46777944D01*
X2286837Y46780494D01*
X2915561Y47040516D01*
X2924515Y47040511D01*
G37*
%TD.AperFunction*%
%TD*%
%TA.AperFunction,Conductor*%
%TO.N,ROW2_R*%
G36*
X49449425Y31667381D02*
G01*
X49583914Y31532892D01*
X49584007Y31532798D01*
X49850956Y31259761D01*
X49854289Y31251450D01*
X49850769Y31243216D01*
X49849392Y31242063D01*
X49169624Y30756319D01*
X49160901Y30754297D01*
X49153303Y30759036D01*
X49153088Y30759346D01*
X48832254Y31240408D01*
X48830516Y31249190D01*
X48835355Y31256535D01*
X49434524Y31668748D01*
X49443279Y31670613D01*
X49449425Y31667381D01*
G37*
%TD.AperFunction*%
%TD*%
%TA.AperFunction,Conductor*%
%TO.N,Net-(D7-A)*%
G36*
X-136318848Y40643065D02*
G01*
X-136318836Y40643054D01*
X-135756799Y40158200D01*
X-135752773Y40150201D01*
X-135755582Y40141699D01*
X-135756141Y40141095D01*
X-136116044Y39778819D01*
X-136116071Y39778792D01*
X-136249123Y39645741D01*
X-136257396Y39642314D01*
X-136265669Y39645741D01*
X-136265764Y39645837D01*
X-136750908Y40142327D01*
X-136754239Y40150639D01*
X-136751411Y40158133D01*
X-136335347Y40641826D01*
X-136327355Y40645862D01*
X-136318848Y40643065D01*
G37*
%TD.AperFunction*%
%TD*%
%TA.AperFunction,Conductor*%
%TO.N,ROW2_L*%
G36*
X-48019518Y26789258D02*
G01*
X-48005306Y26779585D01*
X-47457913Y26407032D01*
X-47453002Y26399545D01*
X-47454824Y26390777D01*
X-47455279Y26390154D01*
X-47831294Y25909218D01*
X-47839089Y25904811D01*
X-47847717Y25907207D01*
X-48462868Y26388156D01*
X-48467275Y26395951D01*
X-48464879Y26404579D01*
X-48460538Y26408009D01*
X-48037800Y26601700D01*
X-48037800Y26779585D01*
X-48034373Y26787858D01*
X-48026100Y26791285D01*
X-48019518Y26789258D01*
G37*
%TD.AperFunction*%
%TD*%
%TA.AperFunction,Conductor*%
%TO.N,COL0_R*%
G36*
X-9835002Y49721473D02*
G01*
X-9829614Y49714320D01*
X-9829242Y49711393D01*
X-9829242Y49528232D01*
X-9829744Y49524842D01*
X-10219420Y48237673D01*
X-10225097Y48230748D01*
X-10232898Y48229587D01*
X-11099986Y48401866D01*
X-11107433Y48406840D01*
X-11108563Y48408981D01*
X-11462786Y49290743D01*
X-11462690Y49299697D01*
X-11456290Y49305961D01*
X-11454856Y49306432D01*
X-9843868Y49722721D01*
X-9835002Y49721473D01*
G37*
%TD.AperFunction*%
%TD*%
%TA.AperFunction,Conductor*%
%TO.N,ROW2_L*%
G36*
X-39844915Y59388691D02*
G01*
X-38599396Y58746346D01*
X-38419364Y58653499D01*
X-38413582Y58646661D01*
X-38414328Y58637737D01*
X-38419364Y58632701D01*
X-39844904Y57897515D01*
X-39853828Y57896769D01*
X-39855545Y57897472D01*
X-41126485Y58539855D01*
X-41132323Y58546645D01*
X-41132907Y58550297D01*
X-41132907Y58735904D01*
X-41129480Y58744177D01*
X-41126485Y58746346D01*
X-39855543Y59388730D01*
X-39846615Y59389403D01*
X-39844915Y59388691D01*
G37*
%TD.AperFunction*%
%TD*%
%TA.AperFunction,Conductor*%
%TO.N,ROW1_L*%
G36*
X-132699219Y41654355D02*
G01*
X-132699123Y41654260D01*
X-132566044Y41521181D01*
X-132206141Y41158906D01*
X-132202741Y41150622D01*
X-132206195Y41142360D01*
X-132206799Y41141801D01*
X-132768836Y40656947D01*
X-132777338Y40654138D01*
X-132785337Y40658164D01*
X-132785348Y40658176D01*
X-133201410Y41141867D01*
X-133204207Y41150374D01*
X-133200909Y41157673D01*
X-132715764Y41654165D01*
X-132707531Y41657686D01*
X-132699219Y41654355D01*
G37*
%TD.AperFunction*%
%TD*%
%TA.AperFunction,Conductor*%
%TO.N,ROW2_R*%
G36*
X100099168Y24554260D02*
G01*
X100099263Y24554164D01*
X100584408Y24057674D01*
X100587739Y24049362D01*
X100584910Y24041867D01*
X100168847Y23558176D01*
X100160854Y23554139D01*
X100152347Y23556936D01*
X100152335Y23556947D01*
X99590298Y24041801D01*
X99586272Y24049800D01*
X99589081Y24058302D01*
X99589630Y24058896D01*
X99949571Y24421208D01*
X100082623Y24554261D01*
X100090895Y24557687D01*
X100099168Y24554260D01*
G37*
%TD.AperFunction*%
%TD*%
%TA.AperFunction,Conductor*%
%TO.N,ROW0_R*%
G36*
X66263150Y63346573D02*
G01*
X66264013Y63345609D01*
X66653964Y62858170D01*
X66656456Y62849569D01*
X66653109Y62842596D01*
X66168781Y62357298D01*
X66160512Y62353863D01*
X66152235Y62357282D01*
X66152219Y62357298D01*
X65667890Y62842596D01*
X65664471Y62850873D01*
X65667034Y62858168D01*
X66056987Y63345610D01*
X66064831Y63349928D01*
X66066123Y63350000D01*
X66254877Y63350000D01*
X66263150Y63346573D01*
G37*
%TD.AperFunction*%
%TD*%
%TA.AperFunction,Conductor*%
%TO.N,ROW1_L*%
G36*
X-64831348Y45392565D02*
G01*
X-64831336Y45392554D01*
X-64269299Y44907700D01*
X-64265273Y44899701D01*
X-64268082Y44891199D01*
X-64268641Y44890595D01*
X-64628544Y44528319D01*
X-64628571Y44528292D01*
X-64761623Y44395241D01*
X-64769896Y44391814D01*
X-64778169Y44395241D01*
X-64778264Y44395337D01*
X-65263408Y44891827D01*
X-65266739Y44900139D01*
X-65263911Y44907633D01*
X-64847847Y45391326D01*
X-64839855Y45395362D01*
X-64831348Y45392565D01*
G37*
%TD.AperFunction*%
%TD*%
%TA.AperFunction,Conductor*%
%TO.N,ROW2_R*%
G36*
X14467698Y26444866D02*
G01*
X15148145Y25959525D01*
X15152891Y25951931D01*
X15150876Y25943206D01*
X15148145Y25940475D01*
X14467698Y25455135D01*
X14458973Y25453120D01*
X14453595Y25455524D01*
X13964891Y25846488D01*
X13960572Y25854332D01*
X13960500Y25855624D01*
X13960500Y26044377D01*
X13963927Y26052650D01*
X13964891Y26053513D01*
X14453596Y26444478D01*
X14462196Y26446969D01*
X14467698Y26444866D01*
G37*
%TD.AperFunction*%
%TD*%
%TA.AperFunction,Conductor*%
%TO.N,ROW0_R*%
G36*
X49449425Y65667381D02*
G01*
X49583914Y65532892D01*
X49584007Y65532798D01*
X49850956Y65259761D01*
X49854289Y65251450D01*
X49850769Y65243216D01*
X49849392Y65242063D01*
X49169624Y64756319D01*
X49160901Y64754297D01*
X49153303Y64759036D01*
X49153088Y64759346D01*
X48832254Y65240408D01*
X48830516Y65249190D01*
X48835355Y65256535D01*
X49434524Y65668748D01*
X49443279Y65670613D01*
X49449425Y65667381D01*
G37*
%TD.AperFunction*%
%TD*%
M02*
