%TF.GenerationSoftware,KiCad,Pcbnew,8.0.7*%
%TF.CreationDate,2025-01-03T21:23:36+01:00*%
%TF.ProjectId,_autosave-corne-xiao,5f617574-6f73-4617-9665-2d636f726e65,1.1*%
%TF.SameCoordinates,Original*%
%TF.FileFunction,Copper,L2,Bot*%
%TF.FilePolarity,Positive*%
%FSLAX46Y46*%
G04 Gerber Fmt 4.6, Leading zero omitted, Abs format (unit mm)*
G04 Created by KiCad (PCBNEW 8.0.7) date 2025-01-03 21:23:36*
%MOMM*%
%LPD*%
G01*
G04 APERTURE LIST*
G04 Aperture macros list*
%AMRotRect*
0 Rectangle, with rotation*
0 The origin of the aperture is its center*
0 $1 length*
0 $2 width*
0 $3 Rotation angle, in degrees counterclockwise*
0 Add horizontal line*
21,1,$1,$2,0,0,$3*%
G04 Aperture macros list end*
%TA.AperFunction,ComponentPad*%
%ADD10O,2.750000X1.800000*%
%TD*%
%TA.AperFunction,ComponentPad*%
%ADD11C,1.397000*%
%TD*%
%TA.AperFunction,WasherPad*%
%ADD12C,0.900000*%
%TD*%
%TA.AperFunction,SMDPad,CuDef*%
%ADD13RotRect,0.700000X1.000000X60.000000*%
%TD*%
%TA.AperFunction,SMDPad,CuDef*%
%ADD14RotRect,2.800000X1.000000X150.000000*%
%TD*%
%TA.AperFunction,ComponentPad*%
%ADD15O,1.750000X1.200000*%
%TD*%
%TA.AperFunction,SMDPad,CuDef*%
%ADD16RotRect,0.700000X1.000000X300.000000*%
%TD*%
%TA.AperFunction,SMDPad,CuDef*%
%ADD17RotRect,2.800000X1.000000X30.000000*%
%TD*%
%TA.AperFunction,ViaPad*%
%ADD18C,0.600000*%
%TD*%
%TA.AperFunction,Conductor*%
%ADD19C,0.200000*%
%TD*%
G04 APERTURE END LIST*
D10*
%TO.P,U1,1,A2/0.02_H*%
%TO.N,ROW0_L*%
X-38875200Y63723100D03*
%TO.P,U1,2,A4/0.03_H*%
%TO.N,ROW1_L*%
X-38875200Y61183100D03*
%TO.P,U1,3,A10/0.28*%
%TO.N,ROW2_L*%
X-38875200Y58643100D03*
%TO.P,U1,4,A11/0.29*%
%TO.N,ROW3_L*%
X-38875200Y56103100D03*
%TO.P,U1,5,A8_SDA/0.04_H*%
%TO.N,SDA_L*%
X-38875200Y53563100D03*
%TO.P,U1,6,A9_SCL/0.05_H*%
%TO.N,SCL_L*%
X-38875200Y51023100D03*
%TO.P,U1,7,B8_TX/1.11*%
%TO.N,COL0_L*%
X-38875200Y48483100D03*
%TO.P,U1,8,B9_RX/1.12*%
%TO.N,COL4_L*%
X-22685200Y48483100D03*
%TO.P,U1,9,A7_SCK/1.13*%
%TO.N,COL3_L*%
X-22685200Y51023100D03*
%TO.P,U1,10,A5_MISO/1.14*%
%TO.N,COL2_L*%
X-22685200Y53563100D03*
%TO.P,U1,11,A6_MOSI/1.15*%
%TO.N,COL1_L*%
X-22685200Y56103100D03*
%TO.P,U1,12,3V3*%
%TO.N,VCC*%
X-22685200Y58643100D03*
%TO.P,U1,13,GND*%
%TO.N,GND*%
X-22685200Y61183100D03*
%TO.P,U1,14,5V*%
%TO.N,unconnected-(U1-5V-Pad14)*%
X-22685200Y63723100D03*
D11*
%TO.P,U1,15,BAT*%
%TO.N,BAT+_L*%
X-35225200Y56420100D03*
%TO.P,U1,16,NFC1/0.09_H*%
%TO.N,CS_L*%
X-26919400Y46857500D03*
%TO.P,U1,17,NFC2/0.10_H*%
%TO.N,COL5_L*%
X-25014400Y46857500D03*
%TD*%
D10*
%TO.P,U2,1,A2/0.02_H*%
%TO.N,ROW0_R*%
X-11580200Y63643100D03*
%TO.P,U2,2,A4/0.03_H*%
%TO.N,ROW1_R*%
X-11580200Y61103100D03*
%TO.P,U2,3,A10/0.28*%
%TO.N,ROW2_R*%
X-11580200Y58563100D03*
%TO.P,U2,4,A11/0.29*%
%TO.N,ROW3_R*%
X-11580200Y56023100D03*
%TO.P,U2,5,A8_SDA/0.04_H*%
%TO.N,SDA_R*%
X-11580200Y53483100D03*
%TO.P,U2,6,A9_SCL/0.05_H*%
%TO.N,SCL_R*%
X-11580200Y50943100D03*
%TO.P,U2,7,B8_TX/1.11*%
%TO.N,COL0_R*%
X-11580200Y48403100D03*
%TO.P,U2,8,B9_RX/1.12*%
%TO.N,COL4_R*%
X4609800Y48403100D03*
%TO.P,U2,9,A7_SCK/1.13*%
%TO.N,COL3_R*%
X4609800Y50943100D03*
%TO.P,U2,10,A5_MISO/1.14*%
%TO.N,COL2_R*%
X4609800Y53483100D03*
%TO.P,U2,11,A6_MOSI/1.15*%
%TO.N,COL1_R*%
X4609800Y56023100D03*
%TO.P,U2,12,3V3*%
%TO.N,VCCQ*%
X4609800Y58563100D03*
%TO.P,U2,13,GND*%
%TO.N,GND1*%
X4609800Y61103100D03*
%TO.P,U2,14,5V*%
%TO.N,unconnected-(U2-5V-Pad14)*%
X4609800Y63643100D03*
D11*
%TO.P,U2,15,BAT*%
%TO.N,BAT+_R*%
X-7930200Y56340100D03*
%TO.P,U2,16,NFC1/0.09_H*%
%TO.N,CS_R*%
X375600Y46777500D03*
%TO.P,U2,17,NFC2/0.10_H*%
%TO.N,COL5_R*%
X2280600Y46777500D03*
%TD*%
D12*
%TO.P,PSW1,*%
%TO.N,*%
X-24408634Y4971633D03*
X-25951936Y2398557D03*
D13*
%TO.P,PSW1,1,A*%
%TO.N,unconnected-(PSW1-A-Pad1)*%
X-25635781Y6546152D03*
%TO.P,PSW1,2,B*%
%TO.N,BAT+_L*%
X-27135781Y3948076D03*
%TO.P,PSW1,3,C*%
%TO.N,VBAT_L*%
X-27885781Y2649038D03*
D14*
%TO.P,PSW1,NC*%
%TO.N,N/C*%
X-27040333Y313397D03*
X-23065333Y7198299D03*
%TD*%
D15*
%TO.P,B2,1,Pin_1*%
%TO.N,VBAT_R*%
X-10604500Y39410000D03*
%TO.P,B2,2,Pin_2*%
%TO.N,GND1*%
X-10604500Y41410000D03*
%TD*%
%TO.P,B1,1,Pin_1*%
%TO.N,VBAT_L*%
X-23614500Y41550000D03*
%TO.P,B1,2,Pin_2*%
%TO.N,GND*%
X-23614500Y39550000D03*
%TD*%
D12*
%TO.P,PSW2,*%
%TO.N,*%
X-8670366Y2878367D03*
X-10127064Y5501443D03*
D16*
%TO.P,PSW2,1,A*%
%TO.N,unconnected-(PSW2-A-Pad1)*%
X-6693219Y3153848D03*
%TO.P,PSW2,2,B*%
%TO.N,BAT+_R*%
X-8193219Y5751924D03*
%TO.P,PSW2,3,C*%
%TO.N,VBAT_R*%
X-8943219Y7050962D03*
D17*
%TO.P,PSW2,NC*%
%TO.N,N/C*%
X-11388667Y7486603D03*
X-7413667Y601701D03*
%TD*%
D18*
%TO.N,*%
X70604250Y69384375D03*
X32885500Y69650000D03*
X-66989500Y69650000D03*
X-104708250Y69384375D03*
X-140833250Y12009375D03*
X-140036375Y12009375D03*
X-139239500Y12009375D03*
X-138442625Y12009375D03*
X-137645750Y12009375D03*
X-109223875Y12009375D03*
X-108427000Y12009375D03*
X-107630125Y12009375D03*
X-106833250Y12009375D03*
X-106036375Y12009375D03*
X-105239500Y12009375D03*
X71401125Y12009375D03*
X72198000Y12009375D03*
X72994875Y12009375D03*
X73791750Y12009375D03*
X74588625Y12009375D03*
X75385500Y12009375D03*
X103276125Y12009375D03*
X104073000Y12009375D03*
X104869875Y12009375D03*
X105666750Y12009375D03*
X106463625Y12009375D03*
X107260500Y12009375D03*
X69807375Y69384375D03*
X69010500Y69384375D03*
X68213625Y69384375D03*
X67416750Y69384375D03*
X66619875Y69384375D03*
X36869875Y69650000D03*
X36073000Y69650000D03*
X35276125Y69650000D03*
X34479250Y69650000D03*
X33682375Y69650000D03*
X-67786375Y69650000D03*
X-68583250Y69650000D03*
X-69380125Y69650000D03*
X-70177000Y69650000D03*
X-70973875Y69650000D03*
X-100723875Y69384375D03*
X-101520750Y69384375D03*
X-102317625Y69384375D03*
X-103114500Y69384375D03*
X-103911375Y69384375D03*
%TO.N,VBAT_L*%
X-29137938Y7892188D03*
%TO.N,VBAT_R*%
X-8169500Y8415700D03*
%TO.N,GND1*%
X-1375500Y42336700D03*
%TO.N,ROW1_L*%
X-45815500Y43995000D03*
X-41755125Y60263900D03*
%TO.N,ROW2_L*%
X-46442500Y25900000D03*
X-46442500Y58027800D03*
X-84786375Y27150000D03*
X-83491200Y31552500D03*
%TO.N,ROW3_L*%
X-52898500Y8018900D03*
%TO.N,ROW1_R*%
X-2025500Y43884375D03*
%TO.N,ROW2_R*%
X-4320500Y25950000D03*
%TO.N,ROW3_R*%
X-583250Y10946875D03*
X2194500Y-3039100D03*
%TO.N,BAT+_L*%
X-35114500Y12540625D03*
X-28739500Y5751000D03*
%TO.N,BAT+_R*%
X-6161375Y5900000D03*
%TO.N,COL0_L*%
X-136923700Y50937600D03*
X-136638100Y35384375D03*
X-136638100Y19776700D03*
%TO.N,COL1_L*%
X-118800200Y51123300D03*
X-120944600Y33916300D03*
X-40692625Y54833100D03*
X-43957500Y52984000D03*
X-122574100Y18882400D03*
%TO.N,COL2_L*%
X-94880125Y13603125D03*
X-101078000Y40377600D03*
X-100903500Y55260600D03*
X-101078000Y22727400D03*
%TO.N,COL3_L*%
X-86438000Y51569300D03*
X-85641700Y42575100D03*
X-85641700Y25575000D03*
X-70011000Y1478800D03*
X-86438000Y58061600D03*
%TO.N,COL4_L*%
X-68000500Y47048500D03*
X-67809600Y40377600D03*
X-67949000Y22727400D03*
X-49458250Y-2865625D03*
X-67809600Y57199100D03*
%TO.N,COL5_L*%
X-55229500Y46149200D03*
X-54770750Y21571875D03*
X-54505125Y38306250D03*
X-54505125Y54760300D03*
X-27614500Y44783700D03*
%TO.N,COL0_R*%
X96763500Y18495200D03*
X100413500Y52144400D03*
X100413500Y50431700D03*
X100413500Y36781700D03*
%TO.N,COL1_R*%
X82916500Y51379800D03*
X82916500Y35210000D03*
X82916500Y19781700D03*
%TO.N,COL2_R*%
X43010500Y54422600D03*
X63145500Y23205000D03*
X63145500Y13902300D03*
X45398500Y13902300D03*
X45398500Y3580000D03*
X63166750Y55571875D03*
X63145500Y40377600D03*
X41931500Y51377500D03*
%TO.N,COL3_R*%
X45571500Y16844000D03*
X45571500Y25580000D03*
X45763500Y42620200D03*
X19019500Y50221300D03*
X25016500Y16844000D03*
X45773500Y59525100D03*
X22587500Y1931600D03*
%TO.N,COL4_R*%
X28638100Y23140800D03*
X23968500Y49849400D03*
X6556500Y49594600D03*
X5011500Y-3926100D03*
X28462500Y40816700D03*
X6588625Y48134375D03*
X28638500Y57140800D03*
%TO.N,COL5_R*%
X12269500Y37830000D03*
X8448000Y48134375D03*
X12154500Y20543300D03*
X12151500Y55090100D03*
%TD*%
D19*
%TO.N,GND*%
X-29005125Y39550000D02*
X-23614500Y39550000D01*
X-29005125Y56665270D02*
X-29005125Y39550000D01*
X-24487295Y61183100D02*
X-29005125Y56665270D01*
X-23160200Y61183100D02*
X-24487295Y61183100D01*
%TO.N,VBAT_L*%
X-23614500Y41550000D02*
X-21889500Y41550000D01*
X-30333250Y6696875D02*
X-30333250Y5096507D01*
X-30333250Y5096507D02*
X-27885781Y2649038D01*
X-29137938Y7892187D02*
X-30333250Y6696875D01*
X-21567625Y36712500D02*
X-26348875Y31931250D01*
X-26348875Y31931250D02*
X-26348875Y10681250D01*
X-29137937Y7892188D02*
X-29137938Y7892188D01*
X-29137938Y7892188D02*
X-29137938Y7892187D01*
X-21889500Y41550000D02*
X-21567625Y41228125D01*
X-21567625Y41228125D02*
X-21567625Y36712500D01*
X-26348875Y10681250D02*
X-29137937Y7892188D01*
%TO.N,VBAT_R*%
X-8169500Y8415700D02*
X-8169500Y36073300D01*
X-8097700Y7539200D02*
X-8169500Y7611000D01*
X-8943200Y7051000D02*
X-8097700Y7539200D01*
X-10604500Y39410000D02*
X-10604500Y38508300D01*
X-8169500Y7611000D02*
X-8169500Y8415700D01*
X-8169500Y36073300D02*
X-10604500Y38508300D01*
%TO.N,GND1*%
X-1375500Y42336700D02*
X-1375500Y56794500D01*
X4134800Y61103100D02*
X2933100Y61103100D01*
X-1375500Y56794500D02*
X2933100Y61103100D01*
%TO.N,ROW1_L*%
X-45815500Y56558375D02*
X-45815500Y43995000D01*
X-42109975Y60263900D02*
X-45815500Y56558375D01*
X-41755125Y60263900D02*
X-42109975Y60263900D01*
%TO.N,ROW2_L*%
X-84786375Y27150000D02*
X-83491200Y28445175D01*
X-46442500Y58027800D02*
X-46442500Y25900000D01*
X-83491200Y28445175D02*
X-83491200Y31552500D01*
%TO.N,ROW3_L*%
X-37198500Y23718900D02*
X-52898500Y8018900D01*
X-37198500Y56103100D02*
X-37198500Y23718900D01*
X-38400200Y56103100D02*
X-37198500Y56103100D01*
%TO.N,ROW1_R*%
X-9903500Y61103100D02*
X-11105200Y61103100D01*
X-2025500Y43884375D02*
X-2025500Y53225100D01*
X-2025500Y53225100D02*
X-9903500Y61103100D01*
%TO.N,ROW2_R*%
X-4320500Y25950000D02*
X-4320500Y54762900D01*
X-4320500Y54762900D02*
X-8120700Y58563100D01*
X-8120700Y58563100D02*
X-11105200Y58563100D01*
%TO.N,ROW3_R*%
X-8283300Y57643300D02*
X-9903500Y56023100D01*
X-583250Y10946875D02*
X-583250Y3775000D01*
X-583250Y3775000D02*
X2073000Y1118750D01*
X-6408100Y56282500D02*
X-7768900Y57643300D01*
X2073000Y-2917600D02*
X2194500Y-3039100D01*
X-7768900Y57643300D02*
X-8283300Y57643300D01*
X2073000Y1118750D02*
X2073000Y-2917600D01*
X-583250Y10946875D02*
X-6408100Y16771725D01*
X-9903500Y56023100D02*
X-11105200Y56023100D01*
X-6408100Y16771725D02*
X-6408100Y56282500D01*
%TO.N,BAT+_L*%
X-35114500Y12540625D02*
X-35225200Y12651325D01*
X-28739500Y5751000D02*
X-28739500Y5551800D01*
X-28739500Y5551800D02*
X-27135800Y3948100D01*
X-35225200Y12651325D02*
X-35225200Y56420100D01*
%TO.N,BAT+_R*%
X-7505500Y55915400D02*
X-7505500Y6439643D01*
X-6161375Y5900000D02*
X-6701018Y6439643D01*
X-7505500Y6439643D02*
X-8193219Y5751924D01*
X-7930200Y56340100D02*
X-7505500Y55915400D01*
X-6701018Y6439643D02*
X-7505500Y6439643D01*
%TO.N,COL0_L*%
X-136638100Y19776700D02*
X-136638100Y35384375D01*
X-136638100Y50652000D02*
X-136923700Y50937600D01*
X-136638100Y35384375D02*
X-136638100Y50652000D01*
%TO.N,COL1_L*%
X-42541725Y52984000D02*
X-43957500Y52984000D01*
X-122574100Y18882400D02*
X-122574100Y32286800D01*
X-120944600Y33916300D02*
X-118800200Y36060700D01*
X-122574100Y32286800D02*
X-120944600Y33916300D01*
X-40692625Y54833100D02*
X-42541725Y52984000D01*
X-118800200Y46261000D02*
X-118800200Y51123300D01*
X-118800200Y36060700D02*
X-118800200Y46261000D01*
%TO.N,COL2_L*%
X-101078000Y55086100D02*
X-100903500Y55260600D01*
X-101078000Y40377600D02*
X-101078000Y55086100D01*
X-102045700Y39409900D02*
X-101078000Y40377600D01*
X-97502400Y19151800D02*
X-101078000Y22727400D01*
X-101078000Y22727400D02*
X-102045700Y23695100D01*
X-102045700Y23695100D02*
X-102045700Y39409900D01*
X-94880125Y13603125D02*
X-97502400Y16225400D01*
X-97502400Y16225400D02*
X-97502400Y19151800D01*
%TO.N,COL3_L*%
X-85641700Y42575100D02*
X-86438000Y43371400D01*
X-85641700Y25575000D02*
X-85641700Y42575100D01*
X-86438000Y51569300D02*
X-86438000Y58061600D01*
X-70011000Y1478800D02*
X-85641700Y17109500D01*
X-86438000Y43371400D02*
X-86438000Y51569300D01*
X-85641700Y17109500D02*
X-85641700Y25575000D01*
%TO.N,COL4_L*%
X-57692625Y-1537500D02*
X-50786375Y-1537500D01*
X-68000500Y47048500D02*
X-67809600Y46857600D01*
X-57958250Y-1537500D02*
X-57692625Y-1537500D01*
X-60614500Y4571875D02*
X-58489500Y2446875D01*
X-67809600Y47239400D02*
X-68000500Y47048500D01*
X-58489500Y-1006250D02*
X-57958250Y-1537500D01*
X-67809600Y57199100D02*
X-67809600Y47239400D01*
X-67809600Y46857600D02*
X-67809600Y40377600D01*
X-67949000Y40238200D02*
X-67809600Y40377600D01*
X-67949000Y4571875D02*
X-60614500Y4571875D01*
X-67949000Y4571875D02*
X-67949000Y22727400D01*
X-58489500Y2446875D02*
X-58489500Y-1006250D01*
X-67949000Y22727400D02*
X-67949000Y40238200D01*
X-50786375Y-1537500D02*
X-49458250Y-2865625D01*
%TO.N,COL5_L*%
X-54505125Y54760300D02*
X-54505125Y51587500D01*
X-54505125Y51587500D02*
X-55100500Y50992125D01*
X-27088200Y44783700D02*
X-25014400Y46857500D01*
X-55229500Y39030625D02*
X-54505125Y38306250D01*
X-54505125Y21837500D02*
X-54770750Y21571875D01*
X-55100500Y47937300D02*
X-55229500Y47808300D01*
X-55229500Y47808300D02*
X-55229500Y46149200D01*
X-55100500Y50992125D02*
X-55100500Y47937300D01*
X-27614500Y44783700D02*
X-27088200Y44783700D01*
X-55229500Y46149200D02*
X-55229500Y39030625D01*
X-54505125Y38306250D02*
X-54505125Y21837500D01*
%TO.N,COL0_R*%
X100413500Y50431700D02*
X100413500Y52144400D01*
X96635500Y26543600D02*
X100413500Y30321600D01*
X96763500Y18495200D02*
X96635500Y18623200D01*
X100413500Y50431700D02*
X100413500Y45327100D01*
X100413500Y45327100D02*
X100413500Y36781700D01*
X96635500Y18623200D02*
X96635500Y26543600D01*
X100413500Y30321600D02*
X100413500Y36781700D01*
%TO.N,COL1_R*%
X82916500Y19781700D02*
X82916500Y35210000D01*
X82916500Y51379800D02*
X82916500Y35210000D01*
%TO.N,COL2_R*%
X63145500Y23205000D02*
X63145500Y40377600D01*
X63166750Y55571875D02*
X63145500Y55550625D01*
X63145500Y55550625D02*
X63145500Y40377600D01*
X41931500Y51377500D02*
X43010500Y52456500D01*
X43010500Y52456500D02*
X43010500Y54422600D01*
X63145500Y13902300D02*
X63145500Y23205000D01*
X45398500Y13902300D02*
X45398500Y3580000D01*
%TO.N,COL3_R*%
X25016500Y44224300D02*
X25016500Y16844000D01*
X22587500Y14415000D02*
X22587500Y1931600D01*
X45571500Y16844000D02*
X45571500Y25580000D01*
X19019500Y50221300D02*
X25016500Y44224300D01*
X45571500Y42428200D02*
X45571500Y25580000D01*
X45763500Y42620200D02*
X45773500Y42630200D01*
X25016500Y16844000D02*
X22587500Y14415000D01*
X45773500Y42630200D02*
X45773500Y59525100D01*
X45763500Y42620200D02*
X45571500Y42428200D01*
%TO.N,COL4_R*%
X28462500Y40816700D02*
X28462500Y45355400D01*
X23968500Y49849400D02*
X28638500Y54519400D01*
X6556500Y48166500D02*
X6588625Y48134375D01*
X5011500Y46557250D02*
X5011500Y-3926100D01*
X28462500Y40816700D02*
X28638100Y40641100D01*
X28638500Y54519400D02*
X28638500Y57140800D01*
X6588625Y48134375D02*
X5011500Y46557250D01*
X28462500Y45355400D02*
X23968500Y49849400D01*
X6556500Y49594600D02*
X6556500Y48166500D01*
X28638100Y40641100D02*
X28638100Y23140800D01*
%TO.N,COL5_R*%
X8448000Y48134375D02*
X9474500Y48134375D01*
X9510500Y48134375D02*
X12151500Y50775375D01*
X12151500Y50775375D02*
X12151500Y55090100D01*
X9474500Y48077100D02*
X12269500Y45282100D01*
X12269500Y37830000D02*
X12154500Y37715000D01*
X9474500Y48134375D02*
X9510500Y48134375D01*
X9474500Y48077100D02*
X9474500Y48134375D01*
X12269500Y45282100D02*
X12269500Y37830000D01*
X12154500Y37715000D02*
X12154500Y20543300D01*
%TD*%
%TA.AperFunction,Conductor*%
%TO.N,BAT+_L*%
G36*
X-34591292Y56157545D02*
G01*
X-34584970Y56151206D01*
X-34584982Y56142251D01*
X-34585248Y56141657D01*
X-35122007Y55029714D01*
X-35128690Y55023753D01*
X-35132544Y55023100D01*
X-35317856Y55023100D01*
X-35326129Y55026527D01*
X-35328393Y55029714D01*
X-35865153Y56141657D01*
X-35865663Y56150597D01*
X-35859702Y56157280D01*
X-35859145Y56157530D01*
X-35229691Y56419234D01*
X-35220739Y56419245D01*
X-34591292Y56157545D01*
G37*
%TD.AperFunction*%
%TD*%
%TA.AperFunction,Conductor*%
%TO.N,ROW2_R*%
G36*
X-10595948Y59306753D02*
G01*
X-9328915Y58666346D01*
X-9323077Y58659556D01*
X-9322493Y58655904D01*
X-9322493Y58470297D01*
X-9325920Y58462024D01*
X-9328915Y58459855D01*
X-10595948Y57819448D01*
X-10604878Y57818774D01*
X-10610948Y57823381D01*
X-11101844Y58556593D01*
X-11103598Y58565372D01*
X-11101845Y58569606D01*
X-10610946Y59302822D01*
X-10603498Y59307788D01*
X-10595948Y59306753D01*
G37*
%TD.AperFunction*%
%TD*%
%TA.AperFunction,Conductor*%
%TO.N,ROW1_R*%
G36*
X-10596551Y61843292D02*
G01*
X-10595143Y61842184D01*
X-9430934Y60771236D01*
X-9427165Y60763113D01*
X-9430244Y60754704D01*
X-9430582Y60754352D01*
X-9561266Y60623668D01*
X-9566243Y60620715D01*
X-10917352Y60223996D01*
X-10926255Y60224953D01*
X-10931874Y60231926D01*
X-10932118Y60232915D01*
X-11104957Y61099045D01*
X-11103215Y61107827D01*
X-10612783Y61840083D01*
X-10605332Y61845049D01*
X-10596551Y61843292D01*
G37*
%TD.AperFunction*%
%TD*%
%TA.AperFunction,Conductor*%
%TO.N,VBAT_R*%
G36*
X-8263124Y7563196D02*
G01*
X-8255221Y7558987D01*
X-8254121Y7557400D01*
X-8160136Y7394630D01*
X-8158967Y7385752D01*
X-8159618Y7383936D01*
X-8331803Y7005410D01*
X-8338348Y6999298D01*
X-8343460Y6998597D01*
X-8927400Y7049022D01*
X-8935347Y7053148D01*
X-8938050Y7061686D01*
X-8936993Y7065629D01*
X-8688707Y7596586D01*
X-8682099Y7602628D01*
X-8676984Y7603275D01*
X-8263124Y7563196D01*
G37*
%TD.AperFunction*%
%TD*%
%TA.AperFunction,Conductor*%
%TO.N,ROW3_R*%
G36*
X-10917352Y56902205D02*
G01*
X-10679690Y56832422D01*
X-9566242Y56505486D01*
X-9561266Y56502533D01*
X-9430582Y56371849D01*
X-9427155Y56363576D01*
X-9430582Y56355303D01*
X-9430934Y56354965D01*
X-10595141Y55284019D01*
X-10603550Y55280940D01*
X-10611673Y55284709D01*
X-10612783Y55286119D01*
X-11103204Y56018357D01*
X-11104961Y56027136D01*
X-10932121Y56893272D01*
X-10927142Y56900711D01*
X-10918358Y56902453D01*
X-10917352Y56902205D01*
G37*
%TD.AperFunction*%
%TD*%
%TA.AperFunction,Conductor*%
%TO.N,COL5_L*%
G36*
X-25648322Y47120096D02*
G01*
X-25018190Y46860063D01*
X-25011850Y46853740D01*
X-25011838Y46853711D01*
X-24751815Y46223606D01*
X-24751827Y46214651D01*
X-24758167Y46208328D01*
X-24758776Y46208096D01*
X-25924584Y45801382D01*
X-25933524Y45801892D01*
X-25936711Y45804156D01*
X-26067745Y45935190D01*
X-26071172Y45943463D01*
X-26070519Y45947317D01*
X-25978120Y46212170D01*
X-25663805Y47113127D01*
X-25657844Y47119808D01*
X-25648904Y47120318D01*
X-25648322Y47120096D01*
G37*
%TD.AperFunction*%
%TD*%
%TA.AperFunction,Conductor*%
%TO.N,GND1*%
G36*
X3641272Y61841492D02*
G01*
X3642382Y61840082D01*
X4132803Y61107844D01*
X4134560Y61099063D01*
X4134556Y61099043D01*
X3961721Y60232932D01*
X3956741Y60225490D01*
X3947957Y60223748D01*
X3946951Y60223996D01*
X2595842Y60620715D01*
X2590865Y60623668D01*
X2460181Y60754352D01*
X2456754Y60762625D01*
X2460181Y60770898D01*
X2460505Y60771210D01*
X3624742Y61842183D01*
X3633149Y61845261D01*
X3641272Y61841492D01*
G37*
%TD.AperFunction*%
%TD*%
%TA.AperFunction,Conductor*%
%TO.N,GND*%
G36*
X-23653715Y61921623D02*
G01*
X-23653043Y61920718D01*
X-23162197Y61187844D01*
X-23160440Y61179063D01*
X-23160444Y61179043D01*
X-23333149Y60313583D01*
X-23338129Y60306141D01*
X-23346913Y60304399D01*
X-23348480Y60304827D01*
X-24736226Y60789342D01*
X-24740642Y60792115D01*
X-24871038Y60922511D01*
X-24874465Y60930784D01*
X-24871038Y60939057D01*
X-24870181Y60939833D01*
X-24578290Y61179043D01*
X-23670178Y61923257D01*
X-23661609Y61925850D01*
X-23653715Y61921623D01*
G37*
%TD.AperFunction*%
%TD*%
%TA.AperFunction,Conductor*%
%TO.N,BAT+_R*%
G36*
X-7644654Y6430385D02*
G01*
X-7513831Y6299562D01*
X-7510404Y6291289D01*
X-7510835Y6288141D01*
X-7643863Y5811876D01*
X-7649389Y5804830D01*
X-7654007Y5803378D01*
X-8173527Y5753188D01*
X-8182091Y5755804D01*
X-8186298Y5763709D01*
X-8185253Y5769784D01*
X-7937020Y6301152D01*
X-7931317Y6306824D01*
X-7657820Y6432741D01*
X-7648872Y6433087D01*
X-7644654Y6430385D01*
G37*
%TD.AperFunction*%
%TD*%
%TA.AperFunction,Conductor*%
%TO.N,BAT+_R*%
G36*
X-7245137Y56340120D02*
G01*
X-7236870Y56336681D01*
X-7233455Y56328403D01*
X-7233568Y56326794D01*
X-7404086Y55111513D01*
X-7408630Y55103797D01*
X-7415673Y55101439D01*
X-7600975Y55101439D01*
X-7608848Y55104485D01*
X-8415050Y55837940D01*
X-8418864Y55846042D01*
X-8415831Y55854467D01*
X-8415459Y55854859D01*
X-7933633Y56337661D01*
X-7925369Y56341094D01*
X-7245137Y56340120D01*
G37*
%TD.AperFunction*%
%TD*%
%TA.AperFunction,Conductor*%
%TO.N,ROW3_L*%
G36*
X-37646576Y56592586D02*
G01*
X-37645895Y56591426D01*
X-37107218Y55539124D01*
X-37106499Y55530198D01*
X-37112302Y55523378D01*
X-37117633Y55522093D01*
X-37298501Y55522093D01*
X-38212088Y55224476D01*
X-38221016Y55225172D01*
X-38226837Y55231977D01*
X-38227188Y55233321D01*
X-38284563Y55522093D01*
X-38398676Y56096429D01*
X-38396927Y56105209D01*
X-38393693Y56108440D01*
X-37662800Y56595830D01*
X-37654017Y56597568D01*
X-37646576Y56592586D01*
G37*
%TD.AperFunction*%
%TD*%
%TA.AperFunction,Conductor*%
%TO.N,GND*%
G36*
X-24217151Y40044223D02*
G01*
X-23624558Y39559053D01*
X-23620328Y39551160D01*
X-23622917Y39542588D01*
X-23624558Y39540947D01*
X-24217151Y39055778D01*
X-24225723Y39053189D01*
X-24229509Y39054228D01*
X-25071217Y39446850D01*
X-25077266Y39453453D01*
X-25077971Y39457453D01*
X-25077971Y39642548D01*
X-25074544Y39650821D01*
X-25071220Y39653150D01*
X-24229507Y40045774D01*
X-24220563Y40046165D01*
X-24217151Y40044223D01*
G37*
%TD.AperFunction*%
%TD*%
%TA.AperFunction,Conductor*%
%TO.N,BAT+_L*%
G36*
X-27671179Y4628895D02*
G01*
X-27397686Y4502977D01*
X-27391980Y4497302D01*
X-27143749Y3965938D01*
X-27143352Y3956992D01*
X-27149397Y3950386D01*
X-27155474Y3949340D01*
X-27674994Y3999531D01*
X-27682899Y4003738D01*
X-27685138Y4008030D01*
X-27818164Y4484297D01*
X-27817089Y4493187D01*
X-27815172Y4495713D01*
X-27684344Y4626541D01*
X-27676072Y4629967D01*
X-27671179Y4628895D01*
G37*
%TD.AperFunction*%
%TD*%
%TA.AperFunction,Conductor*%
%TO.N,VBAT_R*%
G36*
X-10597103Y39405795D02*
G01*
X-9925287Y38998616D01*
X-9919988Y38991397D01*
X-9921345Y38982546D01*
X-9921557Y38982210D01*
X-10322197Y38369097D01*
X-10323718Y38367224D01*
X-10456044Y38234898D01*
X-10464317Y38231471D01*
X-10472554Y38234861D01*
X-11105045Y38861801D01*
X-11108508Y38870059D01*
X-11105337Y38878120D01*
X-10611695Y39403799D01*
X-10603535Y39407483D01*
X-10597103Y39405795D01*
G37*
%TD.AperFunction*%
%TD*%
%TA.AperFunction,Conductor*%
%TO.N,VBAT_L*%
G36*
X-28421181Y3329854D02*
G01*
X-28367662Y3305215D01*
X-28147686Y3203939D01*
X-28141980Y3198264D01*
X-27893749Y2666900D01*
X-27893352Y2657954D01*
X-27899397Y2651348D01*
X-27905474Y2650302D01*
X-28424995Y2700492D01*
X-28432900Y2704699D01*
X-28435139Y2708991D01*
X-28568166Y3185256D01*
X-28567091Y3194146D01*
X-28565174Y3196672D01*
X-28434346Y3327500D01*
X-28426074Y3330926D01*
X-28421181Y3329854D01*
G37*
%TD.AperFunction*%
%TD*%
%TA.AperFunction,Conductor*%
%TO.N,VBAT_L*%
G36*
X-22999495Y42045774D02*
G01*
X-22157783Y41653151D01*
X-22151734Y41646548D01*
X-22151029Y41642548D01*
X-22151029Y41457453D01*
X-22154456Y41449180D01*
X-22157783Y41446850D01*
X-22999492Y41054228D01*
X-23008438Y41053836D01*
X-23011850Y41055778D01*
X-23492357Y41449180D01*
X-23604444Y41540948D01*
X-23608673Y41548840D01*
X-23606084Y41557412D01*
X-23604443Y41559053D01*
X-23011848Y42044224D01*
X-23003278Y42046812D01*
X-22999495Y42045774D01*
G37*
%TD.AperFunction*%
%TD*%
M02*
