M48
INCH
T1C0.0118
T2C0.0157
T3C0.0295
T4C0.0394
T5C0.0400
%
G90
G05
T1
X-5.5446Y0.4728
X-5.5132Y0.4728
X-5.4819Y0.4728
X-5.4505Y0.4728
X-5.4191Y0.4728
X-4.3002Y0.4728
X-4.2688Y0.4728
X-4.2374Y0.4728
X-4.206Y0.4728
X-4.1747Y0.4728
X-4.1433Y0.4728
X-4.1224Y2.7317
X-4.091Y2.7317
X-4.0596Y2.7317
X-4.0283Y2.7317
X-3.9969Y2.7317
X-3.9655Y2.7317
X-2.7942Y2.7421
X-2.7629Y2.7421
X-2.7315Y2.7421
X-2.7001Y2.7421
X-2.6688Y2.7421
X-2.6374Y2.7421
X-1.9472Y-0.1128
X-1.3825Y0.4937
X-1.1472Y0.3107
X-0.023Y0.431
X1.1275Y0.9111
X1.2947Y2.7421
X1.3261Y2.7421
X1.3575Y2.7421
X1.3888Y2.7421
X1.4202Y2.7421
X1.4516Y2.7421
X2.6228Y2.7317
X2.6542Y2.7317
X2.6856Y2.7317
X2.7169Y2.7317
X2.7483Y2.7317
X2.7797Y2.7317
X2.8111Y0.4728
X2.8424Y0.4728
X2.8738Y0.4728
X2.9052Y0.4728
X2.9366Y0.4728
X2.9679Y0.4728
X4.066Y0.4728
X4.0974Y0.4728
X4.1287Y0.4728
X4.1601Y0.4728
X4.1915Y0.4728
X4.2229Y0.4728
T2
X-5.3907Y2.0054
X-5.3795Y1.3931
X-5.3795Y0.7786
X-4.8258Y0.7434
X-4.7616Y1.3353
X-4.6772Y2.0127
X-3.9794Y1.5897
X-3.9794Y0.8948
X-3.9726Y2.1756
X-3.7354Y0.5356
X-3.4031Y2.2859
X-3.4031Y2.0303
X-3.3717Y1.6762
X-3.3717Y1.0069
X-3.338Y1.0689
X-3.2871Y1.2422
X-2.7563Y0.0582
X-2.6772Y1.8523
X-2.6752Y0.8948
X-2.6697Y2.2519
X-2.6697Y1.5897
X-2.1744Y1.8169
X-2.1563Y0.8493
X-2.1459Y2.1559
X-2.1459Y1.5081
X-2.0826Y0.3157
X-1.8284Y2.2846
X-1.8284Y1.0197
X-1.8038Y1.7321
X-1.7306Y2.086
X-1.6439Y2.3726
X-1.6021Y2.1588
X-1.1315Y0.2264
X-1.0872Y1.7631
X-0.3216Y0.3313
X-0.2426Y0.2323
X-0.1701Y1.0217
X-0.0797Y1.7277
X-0.0542Y1.6668
X0.0864Y-0.1196
X0.1973Y-0.1546
X0.2581Y1.9525
X0.2594Y1.8951
X0.3326Y1.8951
X0.4784Y2.1689
X0.4785Y0.8088
X0.4831Y1.4894
X0.7488Y1.9772
X0.8893Y0.076
X0.9436Y1.9626
X0.9849Y0.6631
X1.1206Y1.607
X1.1275Y2.2496
X1.6508Y2.0227
X1.6933Y2.1426
X1.7873Y0.5473
X1.7873Y0.1409
X1.7942Y1.0071
X1.7942Y0.6631
X1.8017Y1.678
X1.8021Y2.3435
X2.486Y1.5897
X2.486Y0.9136
X2.486Y0.5473
X2.4869Y2.1879
X3.2644Y2.0228
X3.2644Y1.3862
X3.2644Y0.7788
X3.8096Y0.7282
X3.9533Y2.0529
X3.9533Y1.9855
X3.9533Y1.4481
T3
X-0.9297Y1.6358
X-0.9297Y1.5571
X-0.4175Y1.6303
X-0.4175Y1.5516
T4
X-1.5118Y2.5088
X-1.5118Y2.4088
X-1.5118Y2.3088
X-1.5118Y2.2088
X-1.5118Y2.1088
X-1.5118Y2.0088
X-1.5118Y1.9088
X-0.9118Y2.5088
X-0.9118Y2.4088
X-0.9118Y2.3088
X-0.9118Y2.2088
X-0.9118Y2.1088
X-0.9118Y2.0088
X-0.9118Y1.9088
X-0.4372Y2.5056
X-0.4372Y2.4056
X-0.4372Y2.3056
X-0.4372Y2.2056
X-0.4372Y2.1056
X-0.4372Y2.0056
X-0.4372Y1.9056
X0.1628Y2.5056
X0.1628Y2.4056
X0.1628Y2.3056
X0.1628Y2.2056
X0.1628Y2.1056
X0.1628Y2.0056
X0.1628Y1.9056
T5
X-1.3868Y2.2213
X-1.0598Y1.8448
X-0.9848Y1.8448
X-0.3122Y2.2181
X0.0148Y1.8416
X0.0898Y1.8416
M30
