<?xml version="1.0" standalone="no"?>
 <!DOCTYPE svg PUBLIC "-//W3C//DTD SVG 1.1//EN" 
 "http://www.w3.org/Graphics/SVG/1.1/DTD/svg11.dtd"> 
<svg
  xmlns:svg="http://www.w3.org/2000/svg"
  xmlns="http://www.w3.org/2000/svg"
  xmlns:xlink="http://www.w3.org/1999/xlink"
  version="1.1"
  width="254.8890mm" height="101.9048mm" viewBox="0.0000 0.0000 254.8890 101.9048">
<title>SVG Image created as _autosave-corne-xiao-F_Fab.svg date 2025/01/02 00:25:41 </title>
  <desc>Image generated by PCBNEW </desc>
<g style="fill:#000000; fill-opacity:1.0000;stroke:#000000; stroke-opacity:1.0000;
stroke-linecap:round; stroke-linejoin:round;"
 transform="translate(0 0) scale(1 1)">
</g>
<g style="fill:none; 
stroke:#000000; stroke-width:0.1500; stroke-opacity:1; 
stroke-linecap:round; stroke-linejoin:round;">
<g transform="rotate(-90.000000 141.2665 38.6447)">
<text x="141.2665" y="39.1447"
textLength="8.7738" font-size="1.3333" lengthAdjust="spacingAndGlyphs"
text-anchor="middle" opacity="0" stroke-opacity="0">JST Battery</text>
</g>
<g class="stroked-text"><desc>JST Battery</desc>
<path d="M140.7214 42.3828
L141.4356 42.3828
" />
<path d="M141.4356 42.3828
L141.5785 42.4304
" />
<path d="M141.5785 42.4304
L141.6737 42.5256
" />
<path d="M141.6737 42.5256
L141.7214 42.6685
" />
<path d="M141.7214 42.6685
L141.7214 42.7637
" />
<path d="M141.6737 41.9542
L141.7214 41.8114
" />
<path d="M141.7214 41.8114
L141.7214 41.5733
" />
<path d="M141.7214 41.5733
L141.6737 41.4780
" />
<path d="M141.6737 41.4780
L141.6261 41.4304
" />
<path d="M141.6261 41.4304
L141.5309 41.3828
" />
<path d="M141.5309 41.3828
L141.4356 41.3828
" />
<path d="M141.4356 41.3828
L141.3404 41.4304
" />
<path d="M141.3404 41.4304
L141.2928 41.4780
" />
<path d="M141.2928 41.4780
L141.2452 41.5733
" />
<path d="M141.2452 41.5733
L141.1975 41.7637
" />
<path d="M141.1975 41.7637
L141.1499 41.8590
" />
<path d="M141.1499 41.8590
L141.1023 41.9066
" />
<path d="M141.1023 41.9066
L141.0071 41.9542
" />
<path d="M141.0071 41.9542
L140.9118 41.9542
" />
<path d="M140.9118 41.9542
L140.8166 41.9066
" />
<path d="M140.8166 41.9066
L140.7690 41.8590
" />
<path d="M140.7690 41.8590
L140.7214 41.7637
" />
<path d="M140.7214 41.7637
L140.7214 41.5256
" />
<path d="M140.7214 41.5256
L140.7690 41.3828
" />
<path d="M140.7214 41.0971
L140.7214 40.5256
" />
<path d="M141.7214 40.8114
L140.7214 40.8114
" />
<path d="M141.1975 39.0971
L141.2452 38.9542
" />
<path d="M141.2452 38.9542
L141.2928 38.9066
" />
<path d="M141.2928 38.9066
L141.3880 38.8590
" />
<path d="M141.3880 38.8590
L141.5309 38.8590
" />
<path d="M141.5309 38.8590
L141.6261 38.9066
" />
<path d="M141.6261 38.9066
L141.6737 38.9542
" />
<path d="M141.6737 38.9542
L141.7214 39.0495
" />
<path d="M141.7214 39.0495
L141.7214 39.4304
" />
<path d="M141.7214 39.4304
L140.7214 39.4304
" />
<path d="M140.7214 39.4304
L140.7214 39.0971
" />
<path d="M140.7214 39.0971
L140.7690 39.0018
" />
<path d="M140.7690 39.0018
L140.8166 38.9542
" />
<path d="M140.8166 38.9542
L140.9118 38.9066
" />
<path d="M140.9118 38.9066
L141.0071 38.9066
" />
<path d="M141.0071 38.9066
L141.1023 38.9542
" />
<path d="M141.1023 38.9542
L141.1499 39.0018
" />
<path d="M141.1499 39.0018
L141.1975 39.0971
" />
<path d="M141.1975 39.0971
L141.1975 39.4304
" />
<path d="M141.7214 38.0018
L141.1975 38.0018
" />
<path d="M141.1975 38.0018
L141.1023 38.0495
" />
<path d="M141.1023 38.0495
L141.0547 38.1447
" />
<path d="M141.0547 38.1447
L141.0547 38.3352
" />
<path d="M141.0547 38.3352
L141.1023 38.4304
" />
<path d="M141.6737 38.0018
L141.7214 38.0971
" />
<path d="M141.7214 38.0971
L141.7214 38.3352
" />
<path d="M141.7214 38.3352
L141.6737 38.4304
" />
<path d="M141.6737 38.4304
L141.5785 38.4780
" />
<path d="M141.5785 38.4780
L141.4833 38.4780
" />
<path d="M141.4833 38.4780
L141.3880 38.4304
" />
<path d="M141.3880 38.4304
L141.3404 38.3352
" />
<path d="M141.3404 38.3352
L141.3404 38.0971
" />
<path d="M141.3404 38.0971
L141.2928 38.0018
" />
<path d="M141.0547 37.6685
L141.0547 37.2875
" />
<path d="M140.7214 37.5256
L141.5785 37.5256
" />
<path d="M141.5785 37.5256
L141.6737 37.4780
" />
<path d="M141.6737 37.4780
L141.7214 37.3828
" />
<path d="M141.7214 37.3828
L141.7214 37.2875
" />
<path d="M141.0547 37.0971
L141.0547 36.7161
" />
<path d="M140.7214 36.9542
L141.5785 36.9542
" />
<path d="M141.5785 36.9542
L141.6737 36.9066
" />
<path d="M141.6737 36.9066
L141.7214 36.8114
" />
<path d="M141.7214 36.8114
L141.7214 36.7161
" />
<path d="M141.6737 36.0018
L141.7214 36.0971
" />
<path d="M141.7214 36.0971
L141.7214 36.2875
" />
<path d="M141.7214 36.2875
L141.6737 36.3828
" />
<path d="M141.6737 36.3828
L141.5785 36.4304
" />
<path d="M141.5785 36.4304
L141.1975 36.4304
" />
<path d="M141.1975 36.4304
L141.1023 36.3828
" />
<path d="M141.1023 36.3828
L141.0547 36.2875
" />
<path d="M141.0547 36.2875
L141.0547 36.0971
" />
<path d="M141.0547 36.0971
L141.1023 36.0018
" />
<path d="M141.1023 36.0018
L141.1975 35.9542
" />
<path d="M141.1975 35.9542
L141.2928 35.9542
" />
<path d="M141.2928 35.9542
L141.3880 36.4304
" />
<path d="M141.7214 35.5256
L141.0547 35.5256
" />
<path d="M141.2452 35.5256
L141.1499 35.4780
" />
<path d="M141.1499 35.4780
L141.1023 35.4304
" />
<path d="M141.1023 35.4304
L141.0547 35.3352
" />
<path d="M141.0547 35.3352
L141.0547 35.2399
" />
<path d="M141.0547 35.0018
L141.7214 34.7637
" />
<path d="M141.0547 34.5256
L141.7214 34.7637
" />
<path d="M141.7214 34.7637
L141.9594 34.8590
" />
<path d="M141.9594 34.8590
L142.0071 34.9066
" />
<path d="M142.0071 34.9066
L142.0547 35.0018
" />
</g><g transform="rotate(-90.000000 136.3165 38.6447)">
<text x="136.3165" y="39.1447"
textLength="2.2024" font-size="1.3333" lengthAdjust="spacingAndGlyphs"
text-anchor="middle" opacity="0" stroke-opacity="0">B2</text>
</g>
<g class="stroked-text"><desc>B2</desc>
<path d="M136.2475 39.0494
L136.2952 38.9066
" />
<path d="M136.2952 38.9066
L136.3428 38.8590
" />
<path d="M136.3428 38.8590
L136.4380 38.8114
" />
<path d="M136.4380 38.8114
L136.5809 38.8114
" />
<path d="M136.5809 38.8114
L136.6761 38.8590
" />
<path d="M136.6761 38.8590
L136.7237 38.9066
" />
<path d="M136.7237 38.9066
L136.7714 39.0018
" />
<path d="M136.7714 39.0018
L136.7714 39.3828
" />
<path d="M136.7714 39.3828
L135.7714 39.3828
" />
<path d="M135.7714 39.3828
L135.7714 39.0494
" />
<path d="M135.7714 39.0494
L135.8190 38.9542
" />
<path d="M135.8190 38.9542
L135.8666 38.9066
" />
<path d="M135.8666 38.9066
L135.9618 38.8590
" />
<path d="M135.9618 38.8590
L136.0571 38.8590
" />
<path d="M136.0571 38.8590
L136.1523 38.9066
" />
<path d="M136.1523 38.9066
L136.1999 38.9542
" />
<path d="M136.1999 38.9542
L136.2475 39.0494
" />
<path d="M136.2475 39.0494
L136.2475 39.3828
" />
<path d="M135.8666 38.4304
L135.8190 38.3828
" />
<path d="M135.8190 38.3828
L135.7714 38.2875
" />
<path d="M135.7714 38.2875
L135.7714 38.0494
" />
<path d="M135.7714 38.0494
L135.8190 37.9542
" />
<path d="M135.8190 37.9542
L135.8666 37.9066
" />
<path d="M135.8666 37.9066
L135.9618 37.8590
" />
<path d="M135.9618 37.8590
L136.0571 37.8590
" />
<path d="M136.0571 37.8590
L136.1999 37.9066
" />
<path d="M136.1999 37.9066
L136.7714 38.4780
" />
<path d="M136.7714 38.4780
L136.7714 37.8590
" />
</g><g transform="rotate(-90.000000 113.3565 38.5047)">
<text x="113.3565" y="39.0047"
textLength="8.7738" font-size="1.3333" lengthAdjust="spacingAndGlyphs"
text-anchor="middle" opacity="0" stroke-opacity="0">JST Battery</text>
</g>
<g class="stroked-text"><desc>JST Battery</desc>
<path d="M112.8114 42.2428
L113.5256 42.2428
" />
<path d="M113.5256 42.2428
L113.6685 42.2904
" />
<path d="M113.6685 42.2904
L113.7637 42.3856
" />
<path d="M113.7637 42.3856
L113.8114 42.5285
" />
<path d="M113.8114 42.5285
L113.8114 42.6237
" />
<path d="M113.7637 41.8142
L113.8114 41.6714
" />
<path d="M113.8114 41.6714
L113.8114 41.4333
" />
<path d="M113.8114 41.4333
L113.7637 41.3380
" />
<path d="M113.7637 41.3380
L113.7161 41.2904
" />
<path d="M113.7161 41.2904
L113.6209 41.2428
" />
<path d="M113.6209 41.2428
L113.5256 41.2428
" />
<path d="M113.5256 41.2428
L113.4304 41.2904
" />
<path d="M113.4304 41.2904
L113.3828 41.3380
" />
<path d="M113.3828 41.3380
L113.3352 41.4333
" />
<path d="M113.3352 41.4333
L113.2875 41.6237
" />
<path d="M113.2875 41.6237
L113.2399 41.7190
" />
<path d="M113.2399 41.7190
L113.1923 41.7666
" />
<path d="M113.1923 41.7666
L113.0971 41.8142
" />
<path d="M113.0971 41.8142
L113.0018 41.8142
" />
<path d="M113.0018 41.8142
L112.9066 41.7666
" />
<path d="M112.9066 41.7666
L112.8590 41.7190
" />
<path d="M112.8590 41.7190
L112.8114 41.6237
" />
<path d="M112.8114 41.6237
L112.8114 41.3856
" />
<path d="M112.8114 41.3856
L112.8590 41.2428
" />
<path d="M112.8114 40.9571
L112.8114 40.3856
" />
<path d="M113.8114 40.6714
L112.8114 40.6714
" />
<path d="M113.2875 38.9571
L113.3352 38.8142
" />
<path d="M113.3352 38.8142
L113.3828 38.7666
" />
<path d="M113.3828 38.7666
L113.4780 38.7190
" />
<path d="M113.4780 38.7190
L113.6209 38.7190
" />
<path d="M113.6209 38.7190
L113.7161 38.7666
" />
<path d="M113.7161 38.7666
L113.7637 38.8142
" />
<path d="M113.7637 38.8142
L113.8114 38.9094
" />
<path d="M113.8114 38.9094
L113.8114 39.2904
" />
<path d="M113.8114 39.2904
L112.8114 39.2904
" />
<path d="M112.8114 39.2904
L112.8114 38.9571
" />
<path d="M112.8114 38.9571
L112.8590 38.8618
" />
<path d="M112.8590 38.8618
L112.9066 38.8142
" />
<path d="M112.9066 38.8142
L113.0018 38.7666
" />
<path d="M113.0018 38.7666
L113.0971 38.7666
" />
<path d="M113.0971 38.7666
L113.1923 38.8142
" />
<path d="M113.1923 38.8142
L113.2399 38.8618
" />
<path d="M113.2399 38.8618
L113.2875 38.9571
" />
<path d="M113.2875 38.9571
L113.2875 39.2904
" />
<path d="M113.8114 37.8618
L113.2875 37.8618
" />
<path d="M113.2875 37.8618
L113.1923 37.9094
" />
<path d="M113.1923 37.9094
L113.1447 38.0047
" />
<path d="M113.1447 38.0047
L113.1447 38.1952
" />
<path d="M113.1447 38.1952
L113.1923 38.2904
" />
<path d="M113.7637 37.8618
L113.8114 37.9571
" />
<path d="M113.8114 37.9571
L113.8114 38.1952
" />
<path d="M113.8114 38.1952
L113.7637 38.2904
" />
<path d="M113.7637 38.2904
L113.6685 38.3380
" />
<path d="M113.6685 38.3380
L113.5733 38.3380
" />
<path d="M113.5733 38.3380
L113.4780 38.2904
" />
<path d="M113.4780 38.2904
L113.4304 38.1952
" />
<path d="M113.4304 38.1952
L113.4304 37.9571
" />
<path d="M113.4304 37.9571
L113.3828 37.8618
" />
<path d="M113.1447 37.5285
L113.1447 37.1475
" />
<path d="M112.8114 37.3856
L113.6685 37.3856
" />
<path d="M113.6685 37.3856
L113.7637 37.3380
" />
<path d="M113.7637 37.3380
L113.8114 37.2428
" />
<path d="M113.8114 37.2428
L113.8114 37.1475
" />
<path d="M113.1447 36.9571
L113.1447 36.5761
" />
<path d="M112.8114 36.8142
L113.6685 36.8142
" />
<path d="M113.6685 36.8142
L113.7637 36.7666
" />
<path d="M113.7637 36.7666
L113.8114 36.6714
" />
<path d="M113.8114 36.6714
L113.8114 36.5761
" />
<path d="M113.7637 35.8618
L113.8114 35.9571
" />
<path d="M113.8114 35.9571
L113.8114 36.1475
" />
<path d="M113.8114 36.1475
L113.7637 36.2428
" />
<path d="M113.7637 36.2428
L113.6685 36.2904
" />
<path d="M113.6685 36.2904
L113.2875 36.2904
" />
<path d="M113.2875 36.2904
L113.1923 36.2428
" />
<path d="M113.1923 36.2428
L113.1447 36.1475
" />
<path d="M113.1447 36.1475
L113.1447 35.9571
" />
<path d="M113.1447 35.9571
L113.1923 35.8618
" />
<path d="M113.1923 35.8618
L113.2875 35.8142
" />
<path d="M113.2875 35.8142
L113.3828 35.8142
" />
<path d="M113.3828 35.8142
L113.4780 36.2904
" />
<path d="M113.8114 35.3856
L113.1447 35.3856
" />
<path d="M113.3352 35.3856
L113.2399 35.3380
" />
<path d="M113.2399 35.3380
L113.1923 35.2904
" />
<path d="M113.1923 35.2904
L113.1447 35.1952
" />
<path d="M113.1447 35.1952
L113.1447 35.0999
" />
<path d="M113.1447 34.8618
L113.8114 34.6237
" />
<path d="M113.1447 34.3856
L113.8114 34.6237
" />
<path d="M113.8114 34.6237
L114.0494 34.7190
" />
<path d="M114.0494 34.7190
L114.0971 34.7666
" />
<path d="M114.0971 34.7666
L114.1447 34.8618
" />
</g><g transform="rotate(-90.000000 118.3065 38.5047)">
<text x="118.3065" y="39.0047"
textLength="2.2024" font-size="1.3333" lengthAdjust="spacingAndGlyphs"
text-anchor="middle" opacity="0" stroke-opacity="0">B1</text>
</g>
<g class="stroked-text"><desc>B1</desc>
<path d="M118.2375 38.9094
L118.2852 38.7666
" />
<path d="M118.2852 38.7666
L118.3328 38.7190
" />
<path d="M118.3328 38.7190
L118.4280 38.6714
" />
<path d="M118.4280 38.6714
L118.5709 38.6714
" />
<path d="M118.5709 38.6714
L118.6661 38.7190
" />
<path d="M118.6661 38.7190
L118.7137 38.7666
" />
<path d="M118.7137 38.7666
L118.7614 38.8618
" />
<path d="M118.7614 38.8618
L118.7614 39.2428
" />
<path d="M118.7614 39.2428
L117.7614 39.2428
" />
<path d="M117.7614 39.2428
L117.7614 38.9094
" />
<path d="M117.7614 38.9094
L117.8090 38.8142
" />
<path d="M117.8090 38.8142
L117.8566 38.7666
" />
<path d="M117.8566 38.7666
L117.9518 38.7190
" />
<path d="M117.9518 38.7190
L118.0471 38.7190
" />
<path d="M118.0471 38.7190
L118.1423 38.7666
" />
<path d="M118.1423 38.7666
L118.1899 38.8142
" />
<path d="M118.1899 38.8142
L118.2375 38.9094
" />
<path d="M118.2375 38.9094
L118.2375 39.2428
" />
<path d="M118.7614 37.7190
L118.7614 38.2904
" />
<path d="M118.7614 38.0047
L117.7614 38.0047
" />
<path d="M117.7614 38.0047
L117.9042 38.0999
" />
<path d="M117.9042 38.0999
L117.9994 38.1952
" />
<path d="M117.9994 38.1952
L118.0471 38.2904
" />
</g><g transform="rotate(-30.000000 138.5051 79.1471)">
<text x="138.5051" y="79.6471"
textLength="6.8214" font-size="1.3333" lengthAdjust="spacingAndGlyphs"
text-anchor="middle" opacity="0" stroke-opacity="0">SW_SPDT</text>
</g>
<g class="stroked-text"><desc>SW_SPDT</desc>
<path d="M136.0281 81.0474
L136.1757 81.0172
" />
<path d="M136.1757 81.0172
L136.3819 80.8981
" />
<path d="M136.3819 80.8981
L136.4405 80.8093
" />
<path d="M136.4405 80.8093
L136.4580 80.7442
" />
<path d="M136.4580 80.7442
L136.4516 80.6380
" />
<path d="M136.4516 80.6380
L136.4040 80.5555
" />
<path d="M136.4040 80.5555
L136.3151 80.4968
" />
<path d="M136.3151 80.4968
L136.2501 80.4794
" />
<path d="M136.2501 80.4794
L136.1438 80.4858
" />
<path d="M136.1438 80.4858
L135.9550 80.5398
" />
<path d="M135.9550 80.5398
L135.8487 80.5461
" />
<path d="M135.8487 80.5461
L135.7837 80.5287
" />
<path d="M135.7837 80.5287
L135.6948 80.4700
" />
<path d="M135.6948 80.4700
L135.6472 80.3876
" />
<path d="M135.6472 80.3876
L135.6408 80.2813
" />
<path d="M135.6408 80.2813
L135.6582 80.2162
" />
<path d="M135.6582 80.2162
L135.7169 80.1274
" />
<path d="M135.7169 80.1274
L135.9231 80.0083
" />
<path d="M135.9231 80.0083
L136.0706 79.9781
" />
<path d="M136.3355 79.7702
L137.0417 80.5172
" />
<path d="M137.0417 80.5172
L136.8495 79.8034
" />
<path d="M136.8495 79.8034
L137.3716 80.3267
" />
<path d="M137.3716 80.3267
L137.0778 79.3416
" />
<path d="M137.7491 80.2187
L138.4090 79.8378
" />
<path d="M138.5025 79.6188
L138.6500 79.5886
" />
<path d="M138.6500 79.5886
L138.8562 79.4696
" />
<path d="M138.8562 79.4696
L138.9149 79.3807
" />
<path d="M138.9149 79.3807
L138.9323 79.3157
" />
<path d="M138.9323 79.3157
L138.9259 79.2094
" />
<path d="M138.9259 79.2094
L138.8783 79.1269
" />
<path d="M138.8783 79.1269
L138.7895 79.0682
" />
<path d="M138.7895 79.0682
L138.7244 79.0508
" />
<path d="M138.7244 79.0508
L138.6181 79.0572
" />
<path d="M138.6181 79.0572
L138.4294 79.1112
" />
<path d="M138.4294 79.1112
L138.3231 79.1176
" />
<path d="M138.3231 79.1176
L138.2580 79.1001
" />
<path d="M138.2580 79.1001
L138.1692 79.0415
" />
<path d="M138.1692 79.0415
L138.1215 78.9590
" />
<path d="M138.1215 78.9590
L138.1152 78.8527
" />
<path d="M138.1152 78.8527
L138.1326 78.7876
" />
<path d="M138.1326 78.7876
L138.1913 78.6988
" />
<path d="M138.1913 78.6988
L138.3975 78.5797
" />
<path d="M138.3975 78.5797
L138.5450 78.5496
" />
<path d="M139.3923 79.1601
L138.8923 78.2940
" />
<path d="M138.8923 78.2940
L139.2222 78.1036
" />
<path d="M139.2222 78.1036
L139.3285 78.0972
" />
<path d="M139.3285 78.0972
L139.3936 78.1146
" />
<path d="M139.3936 78.1146
L139.4824 78.1733
" />
<path d="M139.4824 78.1733
L139.5539 78.2970
" />
<path d="M139.5539 78.2970
L139.5602 78.4033
" />
<path d="M139.5602 78.4033
L139.5428 78.4683
" />
<path d="M139.5428 78.4683
L139.4841 78.5572
" />
<path d="M139.4841 78.5572
L139.1542 78.7477
" />
<path d="M140.2584 78.6601
L139.7584 77.7940
" />
<path d="M139.7584 77.7940
L139.9645 77.6750
" />
<path d="M139.9645 77.6750
L140.1121 77.6448
" />
<path d="M140.1121 77.6448
L140.2422 77.6797
" />
<path d="M140.2422 77.6797
L140.3310 77.7383
" />
<path d="M140.3310 77.7383
L140.4675 77.8795
" />
<path d="M140.4675 77.8795
L140.5389 78.0032
" />
<path d="M140.5389 78.0032
L140.5929 78.1920
" />
<path d="M140.5929 78.1920
L140.5993 78.2982
" />
<path d="M140.5993 78.2982
L140.5645 78.4283
" />
<path d="M140.5645 78.4283
L140.4645 78.5410
" />
<path d="M140.4645 78.5410
L140.2584 78.6601
" />
<path d="M140.5007 77.3655
L140.9955 77.0797
" />
<path d="M141.2481 78.0886
L140.7481 77.2226
" />
</g><g transform="rotate(30.000000 121.2080 70.2123)">
<text x="121.2080" y="70.7123"
textLength="6.8214" font-size="1.3333" lengthAdjust="spacingAndGlyphs"
text-anchor="middle" opacity="0" stroke-opacity="0">SW_SPDT</text>
</g>
<g class="stroked-text"><desc>SW_SPDT</desc>
<path d="M118.3238 69.0173
L118.4237 69.1299
" />
<path d="M118.4237 69.1299
L118.6299 69.2490
" />
<path d="M118.6299 69.2490
L118.7362 69.2554
" />
<path d="M118.7362 69.2554
L118.8013 69.2379
" />
<path d="M118.8013 69.2379
L118.8901 69.1793
" />
<path d="M118.8901 69.1793
L118.9377 69.0968
" />
<path d="M118.9377 69.0968
L118.9441 68.9905
" />
<path d="M118.9441 68.9905
L118.9267 68.9255
" />
<path d="M118.9267 68.9255
L118.8680 68.8366
" />
<path d="M118.8680 68.8366
L118.7269 68.7001
" />
<path d="M118.7269 68.7001
L118.6682 68.6113
" />
<path d="M118.6682 68.6113
L118.6508 68.5462
" />
<path d="M118.6508 68.5462
L118.6572 68.4399
" />
<path d="M118.6572 68.4399
L118.7048 68.3575
" />
<path d="M118.7048 68.3575
L118.7936 68.2988
" />
<path d="M118.7936 68.2988
L118.8587 68.2814
" />
<path d="M118.8587 68.2814
L118.9650 68.2877
" />
<path d="M118.9650 68.2877
L119.1712 68.4068
" />
<path d="M119.1712 68.4068
L119.2711 68.5194
" />
<path d="M119.5836 68.6449
L119.2898 69.6299
" />
<path d="M119.2898 69.6299
L119.8119 69.1066
" />
<path d="M119.8119 69.1066
L119.6197 69.8204
" />
<path d="M119.6197 69.8204
L120.3259 69.0734
" />
<path d="M119.9020 70.0934
L120.5618 70.4743
" />
<path d="M120.7982 70.4459
L120.8981 70.5585
" />
<path d="M120.8981 70.5585
L121.1043 70.6776
" />
<path d="M121.1043 70.6776
L121.2106 70.6839
" />
<path d="M121.2106 70.6839
L121.2756 70.6665
" />
<path d="M121.2756 70.6665
L121.3645 70.6078
" />
<path d="M121.3645 70.6078
L121.4121 70.5254
" />
<path d="M121.4121 70.5254
L121.4185 70.4191
" />
<path d="M121.4185 70.4191
L121.4010 70.3540
" />
<path d="M121.4010 70.3540
L121.3424 70.2652
" />
<path d="M121.3424 70.2652
L121.2012 70.1287
" />
<path d="M121.2012 70.1287
L121.1426 70.0398
" />
<path d="M121.1426 70.0398
L121.1251 69.9748
" />
<path d="M121.1251 69.9748
L121.1315 69.8685
" />
<path d="M121.1315 69.8685
L121.1791 69.7860
" />
<path d="M121.1791 69.7860
L121.2680 69.7274
" />
<path d="M121.2680 69.7274
L121.3330 69.7099
" />
<path d="M121.3330 69.7099
L121.4393 69.7163
" />
<path d="M121.4393 69.7163
L121.6455 69.8354
" />
<path d="M121.6455 69.8354
L121.7454 69.9480
" />
<path d="M121.6404 70.9871
L122.1404 70.1211
" />
<path d="M122.1404 70.1211
L122.4703 70.3115
" />
<path d="M122.4703 70.3115
L122.5290 70.4004
" />
<path d="M122.5290 70.4004
L122.5464 70.4654
" />
<path d="M122.5464 70.4654
L122.5400 70.5717
" />
<path d="M122.5400 70.5717
L122.4686 70.6955
" />
<path d="M122.4686 70.6955
L122.3797 70.7541
" />
<path d="M122.3797 70.7541
L122.3147 70.7716
" />
<path d="M122.3147 70.7716
L122.2084 70.7652
" />
<path d="M122.2084 70.7652
L121.8785 70.5747
" />
<path d="M122.5064 71.4871
L123.0064 70.6211
" />
<path d="M123.0064 70.6211
L123.2126 70.7401
" />
<path d="M123.2126 70.7401
L123.3125 70.8528
" />
<path d="M123.3125 70.8528
L123.3474 70.9829
" />
<path d="M123.3474 70.9829
L123.3410 71.0892
" />
<path d="M123.3410 71.0892
L123.2870 71.2779
" />
<path d="M123.2870 71.2779
L123.2156 71.4017
" />
<path d="M123.2156 71.4017
L123.0791 71.5428
" />
<path d="M123.0791 71.5428
L122.9902 71.6015
" />
<path d="M122.9902 71.6015
L122.8601 71.6363
" />
<path d="M122.8601 71.6363
L122.7126 71.6061
" />
<path d="M122.7126 71.6061
L122.5064 71.4871
" />
<path d="M123.7487 71.0496
L124.2436 71.3354
" />
<path d="M123.4962 72.0585
L123.9962 71.1925
" />
</g><path style="fill:none; 
stroke:#000000; stroke-width:0.1000; stroke-opacity:1; 
stroke-linecap:round; stroke-linejoin:round;fill:none"
d="M 17.9764,31.9547
33.9764,31.9547
33.9764,15.9547
17.9764,15.9547
Z" /> 
<path style="fill:none; 
stroke:#000000; stroke-width:0.1000; stroke-opacity:1; 
stroke-linecap:round; stroke-linejoin:round;fill:none"
d="M 19.2264,17.4547
32.7264,17.4547
32.7264,30.4547
19.2264,30.4547
Z" /> 
<path style="fill:none; 
stroke:#000000; stroke-width:0.1000; stroke-opacity:1; 
stroke-linecap:round; stroke-linejoin:round;fill:none"
d="M 34.9764,27.2047
50.9764,27.2047
50.9764,11.2047
34.9764,11.2047
Z" /> 
<path style="fill:none; 
stroke:#000000; stroke-width:0.1000; stroke-opacity:1; 
stroke-linecap:round; stroke-linejoin:round;fill:none"
d="M 36.2264,12.7047
49.7264,12.7047
49.7264,25.7047
36.2264,25.7047
Z" /> 
<path style="fill:none; 
stroke:#000000; stroke-width:0.1000; stroke-opacity:1; 
stroke-linecap:round; stroke-linejoin:round;fill:none"
d="M 51.9764,24.8299
67.9764,24.8299
67.9764,8.8299
51.9764,8.8299
Z" /> 
<path style="fill:none; 
stroke:#000000; stroke-width:0.1000; stroke-opacity:1; 
stroke-linecap:round; stroke-linejoin:round;fill:none"
d="M 53.2264,10.3299
66.7264,10.3299
66.7264,23.3299
53.2264,23.3299
Z" /> 
<path style="fill:none; 
stroke:#000000; stroke-width:0.1000; stroke-opacity:1; 
stroke-linecap:round; stroke-linejoin:round;fill:none"
d="M 68.9764,27.2056
84.9764,27.2056
84.9764,11.2056
68.9764,11.2056
Z" /> 
<path style="fill:none; 
stroke:#000000; stroke-width:0.1000; stroke-opacity:1; 
stroke-linecap:round; stroke-linejoin:round;fill:none"
d="M 70.2264,12.7056
83.7264,12.7056
83.7264,25.7056
70.2264,25.7056
Z" /> 
<path style="fill:none; 
stroke:#000000; stroke-width:0.1000; stroke-opacity:1; 
stroke-linecap:round; stroke-linejoin:round;fill:none"
d="M 0.9764,48.9547
16.9764,48.9547
16.9764,32.9547
0.9764,32.9547
Z" /> 
<path style="fill:none; 
stroke:#000000; stroke-width:0.1000; stroke-opacity:1; 
stroke-linecap:round; stroke-linejoin:round;fill:none"
d="M 2.2264,34.4547
15.7264,34.4547
15.7264,47.4547
2.2264,47.4547
Z" /> 
<path style="fill:none; 
stroke:#000000; stroke-width:0.1000; stroke-opacity:1; 
stroke-linecap:round; stroke-linejoin:round;fill:none"
d="M 19.2264,34.4547
32.7264,34.4547
32.7264,47.4547
19.2264,47.4547
Z" /> 
<path style="fill:none; 
stroke:#000000; stroke-width:0.1000; stroke-opacity:1; 
stroke-linecap:round; stroke-linejoin:round;fill:none"
d="M 17.9764,48.9547
33.9764,48.9547
33.9764,32.9547
17.9764,32.9547
Z" /> 
<path style="fill:none; 
stroke:#000000; stroke-width:0.1000; stroke-opacity:1; 
stroke-linecap:round; stroke-linejoin:round;fill:none"
d="M 34.9764,44.2047
50.9764,44.2047
50.9764,28.2047
34.9764,28.2047
Z" /> 
<path style="fill:none; 
stroke:#000000; stroke-width:0.1000; stroke-opacity:1; 
stroke-linecap:round; stroke-linejoin:round;fill:none"
d="M 36.2264,29.7047
49.7264,29.7047
49.7264,42.7047
36.2264,42.7047
Z" /> 
<path style="fill:none; 
stroke:#000000; stroke-width:0.1000; stroke-opacity:1; 
stroke-linecap:round; stroke-linejoin:round;fill:none"
d="M 51.9764,41.8296
67.9764,41.8296
67.9764,25.8296
51.9764,25.8296
Z" /> 
<path style="fill:none; 
stroke:#000000; stroke-width:0.1000; stroke-opacity:1; 
stroke-linecap:round; stroke-linejoin:round;fill:none"
d="M 53.2264,27.3296
66.7264,27.3296
66.7264,40.3296
53.2264,40.3296
Z" /> 
<path style="fill:none; 
stroke:#000000; stroke-width:0.1000; stroke-opacity:1; 
stroke-linecap:round; stroke-linejoin:round;fill:none"
d="M 68.9764,44.2052
84.9764,44.2052
84.9764,28.2052
68.9764,28.2052
Z" /> 
<path style="fill:none; 
stroke:#000000; stroke-width:0.1000; stroke-opacity:1; 
stroke-linecap:round; stroke-linejoin:round;fill:none"
d="M 70.2264,29.7052
83.7264,29.7052
83.7264,42.7052
70.2264,42.7052
Z" /> 
<path style="fill:none; 
stroke:#000000; stroke-width:0.1000; stroke-opacity:1; 
stroke-linecap:round; stroke-linejoin:round;fill:none"
d="M 85.9764,46.5798
101.9764,46.5798
101.9764,30.5798
85.9764,30.5798
Z" /> 
<path style="fill:none; 
stroke:#000000; stroke-width:0.1000; stroke-opacity:1; 
stroke-linecap:round; stroke-linejoin:round;fill:none"
d="M 87.2264,32.0798
100.7264,32.0798
100.7264,45.0798
87.2264,45.0798
Z" /> 
<path style="fill:none; 
stroke:#000000; stroke-width:0.1000; stroke-opacity:1; 
stroke-linecap:round; stroke-linejoin:round;fill:none"
d="M 0.9764,65.9547
16.9764,65.9547
16.9764,49.9547
0.9764,49.9547
Z" /> 
<path style="fill:none; 
stroke:#000000; stroke-width:0.1000; stroke-opacity:1; 
stroke-linecap:round; stroke-linejoin:round;fill:none"
d="M 2.2264,51.4547
15.7264,51.4547
15.7264,64.4547
2.2264,64.4547
Z" /> 
<path style="fill:none; 
stroke:#000000; stroke-width:0.1000; stroke-opacity:1; 
stroke-linecap:round; stroke-linejoin:round;fill:none"
d="M 17.9764,65.9547
33.9764,65.9547
33.9764,49.9547
17.9764,49.9547
Z" /> 
<path style="fill:none; 
stroke:#000000; stroke-width:0.1000; stroke-opacity:1; 
stroke-linecap:round; stroke-linejoin:round;fill:none"
d="M 19.2264,51.4547
32.7264,51.4547
32.7264,64.4547
19.2264,64.4547
Z" /> 
<path style="fill:none; 
stroke:#000000; stroke-width:0.1000; stroke-opacity:1; 
stroke-linecap:round; stroke-linejoin:round;fill:none"
d="M 34.9764,61.2047
50.9764,61.2047
50.9764,45.2047
34.9764,45.2047
Z" /> 
<path style="fill:none; 
stroke:#000000; stroke-width:0.1000; stroke-opacity:1; 
stroke-linecap:round; stroke-linejoin:round;fill:none"
d="M 36.2264,46.7047
49.7264,46.7047
49.7264,59.7047
36.2264,59.7047
Z" /> 
<path style="fill:none; 
stroke:#000000; stroke-width:0.1000; stroke-opacity:1; 
stroke-linecap:round; stroke-linejoin:round;fill:none"
d="M 51.9764,58.8297
67.9764,58.8297
67.9764,42.8297
51.9764,42.8297
Z" /> 
<path style="fill:none; 
stroke:#000000; stroke-width:0.1000; stroke-opacity:1; 
stroke-linecap:round; stroke-linejoin:round;fill:none"
d="M 53.2264,44.3297
66.7264,44.3297
66.7264,57.3297
53.2264,57.3297
Z" /> 
<path style="fill:none; 
stroke:#000000; stroke-width:0.1000; stroke-opacity:1; 
stroke-linecap:round; stroke-linejoin:round;fill:none"
d="M 68.9764,61.2047
84.9764,61.2047
84.9764,45.2047
68.9764,45.2047
Z" /> 
<path style="fill:none; 
stroke:#000000; stroke-width:0.1000; stroke-opacity:1; 
stroke-linecap:round; stroke-linejoin:round;fill:none"
d="M 70.2264,46.7047
83.7264,46.7047
83.7264,59.7047
70.2264,59.7047
Z" /> 
<path style="fill:none; 
stroke:#000000; stroke-width:0.1000; stroke-opacity:1; 
stroke-linecap:round; stroke-linejoin:round;fill:none"
d="M 85.9764,63.5797
101.9764,63.5797
101.9764,47.5797
85.9764,47.5797
Z" /> 
<path style="fill:none; 
stroke:#000000; stroke-width:0.1000; stroke-opacity:1; 
stroke-linecap:round; stroke-linejoin:round;fill:none"
d="M 87.2264,49.0797
100.7264,49.0797
100.7264,62.0797
87.2264,62.0797
Z" /> 
<path style="fill:none; 
stroke:#000000; stroke-width:0.1000; stroke-opacity:1; 
stroke-linecap:round; stroke-linejoin:round;fill:none"
d="M 57.4764,80.8297
73.4764,80.8297
73.4764,64.8297
57.4764,64.8297
Z" /> 
<path style="fill:none; 
stroke:#000000; stroke-width:0.1000; stroke-opacity:1; 
stroke-linecap:round; stroke-linejoin:round;fill:none"
d="M 58.7264,66.3297
72.2264,66.3297
72.2264,79.3297
58.7264,79.3297
Z" /> 
<path style="fill:none; 
stroke:#000000; stroke-width:0.1000; stroke-opacity:1; 
stroke-linecap:round; stroke-linejoin:round;fill:none"
d="M 94.6788,71.0482
91.3141,83.6052
78.2741,80.1112
81.6388,67.5541
Z" /> 
<path style="fill:none; 
stroke:#000000; stroke-width:0.1000; stroke-opacity:1; 
stroke-linecap:round; stroke-linejoin:round;fill:none"
d="M 96.2744,69.9228
92.1333,85.3776
76.6785,81.2365
80.8196,65.7817
Z" /> 
<path style="fill:none; 
stroke:#000000; stroke-width:0.1000; stroke-opacity:1; 
stroke-linecap:round; stroke-linejoin:round;fill:none"
d="M 117.2347,80.4765
109.2347,94.3329
95.3783,86.3329
103.3783,72.4765
Z" /> 
<path style="fill:none; 
stroke:#000000; stroke-width:0.1000; stroke-opacity:1; 
stroke-linecap:round; stroke-linejoin:round;fill:none"
d="M 115.3107,80.8090
108.5607,92.5004
97.3024,86.0004
104.0524,74.3090
Z" /> 
<path style="fill:none; 
stroke:#000000; stroke-width:0.1000; stroke-opacity:1; 
stroke-linecap:round; stroke-linejoin:round;fill:none"
d="M 159.2347,86.3329
145.3783,94.3329
137.3783,80.4765
151.2347,72.4765
Z" /> 
<path style="fill:none; 
stroke:#000000; stroke-width:0.1000; stroke-opacity:1; 
stroke-linecap:round; stroke-linejoin:round;fill:none"
d="M 157.3107,86.0004
146.0524,92.5004
139.3024,80.8090
150.5607,74.3090
Z" /> 
<path style="fill:none; 
stroke:#000000; stroke-width:0.1000; stroke-opacity:1; 
stroke-linecap:round; stroke-linejoin:round;fill:none"
d="M 186.4834,58.8247
202.4834,58.8247
202.4834,42.8247
186.4834,42.8247
Z" /> 
<path style="fill:none; 
stroke:#000000; stroke-width:0.1000; stroke-opacity:1; 
stroke-linecap:round; stroke-linejoin:round;fill:none"
d="M 187.7334,44.3247
201.2334,44.3247
201.2334,57.3247
187.7334,57.3247
Z" /> 
<path style="fill:none; 
stroke:#000000; stroke-width:0.1000; stroke-opacity:1; 
stroke-linecap:round; stroke-linejoin:round;fill:none"
d="M 169.4834,61.1997
185.4834,61.1997
185.4834,45.1997
169.4834,45.1997
Z" /> 
<path style="fill:none; 
stroke:#000000; stroke-width:0.1000; stroke-opacity:1; 
stroke-linecap:round; stroke-linejoin:round;fill:none"
d="M 170.7334,46.6997
184.2334,46.6997
184.2334,59.6997
170.7334,59.6997
Z" /> 
<path style="fill:none; 
stroke:#000000; stroke-width:0.1000; stroke-opacity:1; 
stroke-linecap:round; stroke-linejoin:round;fill:none"
d="M 152.4834,63.5747
168.4834,63.5747
168.4834,47.5747
152.4834,47.5747
Z" /> 
<path style="fill:none; 
stroke:#000000; stroke-width:0.1000; stroke-opacity:1; 
stroke-linecap:round; stroke-linejoin:round;fill:none"
d="M 153.7334,49.0747
167.2334,49.0747
167.2334,62.0747
153.7334,62.0747
Z" /> 
<path style="fill:none; 
stroke:#000000; stroke-width:0.1000; stroke-opacity:1; 
stroke-linecap:round; stroke-linejoin:round;fill:none"
d="M 180.9834,80.8247
196.9834,80.8247
196.9834,64.8247
180.9834,64.8247
Z" /> 
<path style="fill:none; 
stroke:#000000; stroke-width:0.1000; stroke-opacity:1; 
stroke-linecap:round; stroke-linejoin:round;fill:none"
d="M 182.2334,66.3247
195.7334,66.3247
195.7334,79.3247
182.2334,79.3247
Z" /> 
<path style="fill:none; 
stroke:#000000; stroke-width:0.1000; stroke-opacity:1; 
stroke-linecap:round; stroke-linejoin:round;fill:none"
d="M 176.1858,80.1062
163.1458,83.6002
159.7811,71.0432
172.8211,67.5491
Z" /> 
<path style="fill:none; 
stroke:#000000; stroke-width:0.1000; stroke-opacity:1; 
stroke-linecap:round; stroke-linejoin:round;fill:none"
d="M 177.7814,81.2315
162.3266,85.3726
158.1855,69.9178
173.6403,65.7767
Z" /> 
<path style="fill:none; 
stroke:#000000; stroke-width:0.1000; stroke-opacity:1; 
stroke-linecap:round; stroke-linejoin:round;fill:none"
d="M 186.4834,24.8247
202.4834,24.8247
202.4834,8.8247
186.4834,8.8247
Z" /> 
<path style="fill:none; 
stroke:#000000; stroke-width:0.1000; stroke-opacity:1; 
stroke-linecap:round; stroke-linejoin:round;fill:none"
d="M 187.7334,10.3247
201.2334,10.3247
201.2334,23.3247
187.7334,23.3247
Z" /> 
<path style="fill:none; 
stroke:#000000; stroke-width:0.1000; stroke-opacity:1; 
stroke-linecap:round; stroke-linejoin:round;fill:none"
d="M 169.4834,27.1997
185.4834,27.1997
185.4834,11.1997
169.4834,11.1997
Z" /> 
<path style="fill:none; 
stroke:#000000; stroke-width:0.1000; stroke-opacity:1; 
stroke-linecap:round; stroke-linejoin:round;fill:none"
d="M 170.7334,12.6997
184.2334,12.6997
184.2334,25.6997
170.7334,25.6997
Z" /> 
<path style="fill:none; 
stroke:#000000; stroke-width:0.1000; stroke-opacity:1; 
stroke-linecap:round; stroke-linejoin:round;fill:none"
d="M 237.4834,48.9497
253.4834,48.9497
253.4834,32.9497
237.4834,32.9497
Z" /> 
<path style="fill:none; 
stroke:#000000; stroke-width:0.1000; stroke-opacity:1; 
stroke-linecap:round; stroke-linejoin:round;fill:none"
d="M 238.7334,34.4497
252.2334,34.4497
252.2334,47.4497
238.7334,47.4497
Z" /> 
<path style="fill:none; 
stroke:#000000; stroke-width:0.1000; stroke-opacity:1; 
stroke-linecap:round; stroke-linejoin:round;fill:none"
d="M 203.4834,27.1997
219.4834,27.1997
219.4834,11.1997
203.4834,11.1997
Z" /> 
<path style="fill:none; 
stroke:#000000; stroke-width:0.1000; stroke-opacity:1; 
stroke-linecap:round; stroke-linejoin:round;fill:none"
d="M 204.7334,12.6997
218.2334,12.6997
218.2334,25.6997
204.7334,25.6997
Z" /> 
<path style="fill:none; 
stroke:#000000; stroke-width:0.1000; stroke-opacity:1; 
stroke-linecap:round; stroke-linejoin:round;fill:none"
d="M 220.4834,48.9497
236.4834,48.9497
236.4834,32.9497
220.4834,32.9497
Z" /> 
<path style="fill:none; 
stroke:#000000; stroke-width:0.1000; stroke-opacity:1; 
stroke-linecap:round; stroke-linejoin:round;fill:none"
d="M 221.7334,34.4497
235.2334,34.4497
235.2334,47.4497
221.7334,47.4497
Z" /> 
<path style="fill:none; 
stroke:#000000; stroke-width:0.1000; stroke-opacity:1; 
stroke-linecap:round; stroke-linejoin:round;fill:none"
d="M 220.4834,65.9497
236.4834,65.9497
236.4834,49.9497
220.4834,49.9497
Z" /> 
<path style="fill:none; 
stroke:#000000; stroke-width:0.1000; stroke-opacity:1; 
stroke-linecap:round; stroke-linejoin:round;fill:none"
d="M 221.7334,51.4497
235.2334,51.4497
235.2334,64.4497
221.7334,64.4497
Z" /> 
<path style="fill:none; 
stroke:#000000; stroke-width:0.1000; stroke-opacity:1; 
stroke-linecap:round; stroke-linejoin:round;fill:none"
d="M 203.4834,61.1997
219.4834,61.1997
219.4834,45.1997
203.4834,45.1997
Z" /> 
<path style="fill:none; 
stroke:#000000; stroke-width:0.1000; stroke-opacity:1; 
stroke-linecap:round; stroke-linejoin:round;fill:none"
d="M 204.7334,46.6997
218.2334,46.6997
218.2334,59.6997
204.7334,59.6997
Z" /> 
<path style="fill:none; 
stroke:#000000; stroke-width:0.1000; stroke-opacity:1; 
stroke-linecap:round; stroke-linejoin:round;fill:none"
d="M 237.4834,31.9497
253.4834,31.9497
253.4834,15.9497
237.4834,15.9497
Z" /> 
<path style="fill:none; 
stroke:#000000; stroke-width:0.1000; stroke-opacity:1; 
stroke-linecap:round; stroke-linejoin:round;fill:none"
d="M 238.7334,17.4497
252.2334,17.4497
252.2334,30.4497
238.7334,30.4497
Z" /> 
<path style="fill:none; 
stroke:#000000; stroke-width:0.1000; stroke-opacity:1; 
stroke-linecap:round; stroke-linejoin:round;fill:none"
d="M 220.4834,31.9497
236.4834,31.9497
236.4834,15.9497
220.4834,15.9497
Z" /> 
<path style="fill:none; 
stroke:#000000; stroke-width:0.1000; stroke-opacity:1; 
stroke-linecap:round; stroke-linejoin:round;fill:none"
d="M 221.7334,17.4497
235.2334,17.4497
235.2334,30.4497
221.7334,30.4497
Z" /> 
<path style="fill:none; 
stroke:#000000; stroke-width:0.1000; stroke-opacity:1; 
stroke-linecap:round; stroke-linejoin:round;fill:none"
d="M 203.4834,44.1997
219.4834,44.1997
219.4834,28.1997
203.4834,28.1997
Z" /> 
<path style="fill:none; 
stroke:#000000; stroke-width:0.1000; stroke-opacity:1; 
stroke-linecap:round; stroke-linejoin:round;fill:none"
d="M 204.7334,29.6997
218.2334,29.6997
218.2334,42.6997
204.7334,42.6997
Z" /> 
<path style="fill:none; 
stroke:#000000; stroke-width:0.1000; stroke-opacity:1; 
stroke-linecap:round; stroke-linejoin:round;fill:none"
d="M 186.4834,41.8247
202.4834,41.8247
202.4834,25.8247
186.4834,25.8247
Z" /> 
<path style="fill:none; 
stroke:#000000; stroke-width:0.1000; stroke-opacity:1; 
stroke-linecap:round; stroke-linejoin:round;fill:none"
d="M 187.7334,27.3247
201.2334,27.3247
201.2334,40.3247
187.7334,40.3247
Z" /> 
<path style="fill:none; 
stroke:#000000; stroke-width:0.1000; stroke-opacity:1; 
stroke-linecap:round; stroke-linejoin:round;fill:none"
d="M 169.4834,44.1997
185.4834,44.1997
185.4834,28.1997
169.4834,28.1997
Z" /> 
<path style="fill:none; 
stroke:#000000; stroke-width:0.1000; stroke-opacity:1; 
stroke-linecap:round; stroke-linejoin:round;fill:none"
d="M 170.7334,29.6997
184.2334,29.6997
184.2334,42.6997
170.7334,42.6997
Z" /> 
<path style="fill:none; 
stroke:#000000; stroke-width:0.1000; stroke-opacity:1; 
stroke-linecap:round; stroke-linejoin:round;fill:none"
d="M 152.4834,46.5747
168.4834,46.5747
168.4834,30.5747
152.4834,30.5747
Z" /> 
<path style="fill:none; 
stroke:#000000; stroke-width:0.1000; stroke-opacity:1; 
stroke-linecap:round; stroke-linejoin:round;fill:none"
d="M 153.7334,32.0747
167.2334,32.0747
167.2334,45.0747
153.7334,45.0747
Z" /> 
<path style="fill:none; 
stroke:#000000; stroke-width:0.1000; stroke-opacity:1; 
stroke-linecap:round; stroke-linejoin:round;fill:none"
d="M 237.4834,65.9497
253.4834,65.9497
253.4834,49.9497
237.4834,49.9497
Z" /> 
<path style="fill:none; 
stroke:#000000; stroke-width:0.1000; stroke-opacity:1; 
stroke-linecap:round; stroke-linejoin:round;fill:none"
d="M 238.7334,51.4497
252.2334,51.4497
252.2334,64.4497
238.7334,64.4497
Z" /> 
<path style="fill:none; 
stroke:#000000; stroke-width:0.1000; stroke-opacity:1; 
stroke-linecap:round; stroke-linejoin:round;fill:none"
d="M 0.9764,31.9547
16.9764,31.9547
16.9764,15.9547
0.9764,15.9547
Z" /> 
<path style="fill:none; 
stroke:#000000; stroke-width:0.1000; stroke-opacity:1; 
stroke-linecap:round; stroke-linejoin:round;fill:none"
d="M 2.2264,17.4547
15.7264,17.4547
15.7264,30.4547
2.2264,30.4547
Z" /> 
<path style="fill:none; 
stroke:#000000; stroke-width:0.1000; stroke-opacity:1; 
stroke-linecap:round; stroke-linejoin:round;fill:none"
d="M 85.9764,29.5802
101.9764,29.5802
101.9764,13.5802
85.9764,13.5802
Z" /> 
<path style="fill:none; 
stroke:#000000; stroke-width:0.1000; stroke-opacity:1; 
stroke-linecap:round; stroke-linejoin:round;fill:none"
d="M 87.2264,15.0802
100.7264,15.0802
100.7264,28.0802
87.2264,28.0802
Z" /> 
<path style="fill:none; 
stroke:#000000; stroke-width:0.1000; stroke-opacity:1; 
stroke-linecap:round; stroke-linejoin:round;fill:none"
d="M 152.4764,29.5797
168.4764,29.5797
168.4764,13.5797
152.4764,13.5797
Z" /> 
<path style="fill:none; 
stroke:#000000; stroke-width:0.1000; stroke-opacity:1; 
stroke-linecap:round; stroke-linejoin:round;fill:none"
d="M 153.7264,15.0797
167.2264,15.0797
167.2264,28.0797
153.7264,28.0797
Z" /> 
</g>
<g style="fill:none; 
stroke:#000000; stroke-width:0.1000; stroke-opacity:1; 
stroke-linecap:round; stroke-linejoin:round;">
<path d="M132.4665 35.6947
L140.0665 35.6947
" />
<path d="M132.4665 36.3947
L132.4665 35.6947
" />
<path d="M132.4665 40.8947
L134.0665 40.8947
" />
<path d="M132.4665 41.5947
L132.4665 40.8947
" />
<path d="M134.0665 36.3947
L132.4665 36.3947
" />
<path d="M134.0665 40.8947
L134.0665 36.3947
" />
<path d="M134.6915 39.6447
L135.1915 39.1447
" />
<path d="M135.1915 39.1447
L135.1915 40.1447
" />
<path d="M135.1915 40.1447
L134.6915 39.6447
" />
<path d="M140.0665 35.6947
L140.0665 41.5947
" />
<path d="M140.0665 41.5947
L132.4665 41.5947
" />
<path d="M114.5565 35.5547
L122.1565 35.5547
" />
<path d="M114.5565 41.4547
L114.5565 35.5547
" />
<path d="M119.4315 37.0047
L119.9315 37.5047
" />
<path d="M119.4315 38.0047
L119.4315 37.0047
" />
<path d="M119.9315 37.5047
L119.4315 38.0047
" />
<path d="M120.5565 36.2547
L120.5565 40.7547
" />
<path d="M120.5565 40.7547
L122.1565 40.7547
" />
<path d="M122.1565 35.5547
L122.1565 36.2547
" />
<path d="M122.1565 36.2547
L120.5565 36.2547
" />
<path d="M122.1565 40.7547
L122.1565 41.4547
" />
<path d="M122.1565 41.4547
L114.5565 41.4547
" />
</g>
<g style="fill:none; 
stroke:#000000; stroke-width:0.2000; stroke-opacity:1; 
stroke-linecap:round; stroke-linejoin:round;">
<path d="M0.4003 6.4047
L38.6503 6.4047
" />
<path d="M43.9628 9.9359
L50.6345 9.9359
" />
<path d="M69.6347 9.7329
L73.1815 9.7329
" />
<path d="M45.9128 67.3413
L56.4559 81.7985
" />
<path d="M56.8094 81.9448
L93.4799 86.7151
" />
<path d="M108.4285,95.1058 C109.0636,95.5338 109.9255,95.3660 110.3535,94.7309" />
<path d="M110.3566 94.7263
L123.5827 71.7939
" />
<path d="M86.1631,11.7329 C86.1632,12.0090 86.3871,12.2328 86.6632,12.2328" />
<path d="M86.1631,10.2328 C86.1630,9.9567 85.9393,9.7330 85.6632,9.7329" />
<path d="M69.1346,9.2328 C69.1345,9.5089 69.3583,9.7328 69.6345,9.7329" />
<path d="M69.1346,7.9828 C69.1347,7.7067 68.9109,7.4828 68.6347,7.4827" />
<path d="M51.6345,7.4827 C51.3584,7.4828 51.1346,7.7067 51.1347,7.9828" />
<path d="M50.6345,9.9359 C50.9107,9.9360 51.1346,9.7122 51.1347,9.4361" />
<path d="M34.2586,9.9359 C33.9826,9.9360 33.7588,10.1598 33.7587,10.4358" />
<path d="M33.2586,14.6860 C33.5347,14.6861 33.7587,14.4623 33.7587,14.1861" />
<path d="M0.6348,14.7172 C0.3586,14.7171 0.1347,14.9409 0.1347,15.2171" />
<path d="M0.1658,66.2798 C0.1659,66.5560 0.3898,66.7798 0.6659,66.7797" />
<path d="M94.1344 86.8447
L108.4285 95.1058
" />
<path d="M85.6632 9.7329
L78.4940 9.7314
" />
<path d="M123.8065,12.6547 C123.8065,12.3786 123.5827,12.1549 123.3066,12.1548" />
<path d="M123.3066 12.1548
L86.6632 12.2328
" />
<path d="M86.1616 11.7303
L86.1616 10.2317
" />
<path d="M123.5821,71.7924 C123.7349,71.5273 123.8133,71.2259 123.8092,70.9199" />
<path d="M56.4559,81.7985 C56.5496,81.8922 56.6768,81.9448 56.8094,81.9448" />
<path d="M94.1344,86.8447 C93.9210,86.7802 93.7018,86.7369 93.4799,86.7151" />
<path d="M78.4940 9.7314
L78.4940 6.4516
" />
<path d="M215.3243 68.5128
L210.5743 68.5148
" />
<path d="M254.8065 0.2797
L254.8065 6.3891
" />
<path d="M203.1187,7.4358 C203.3948,7.4359 203.6186,7.6598 203.6186,7.9359" />
<path d="M44.1789 68.5617
L44.1718 98.0947
" />
<path d="M168.5901,10.1859 C168.5902,9.9098 168.8140,9.6861 169.0900,9.6860" />
<path d="M254.6186 15.1702
L254.5874 66.2329
" />
<path d="M43.9628 9.9359
L43.9472 6.4097
" />
<path d="M73.1815 6.4047
L73.1815 9.7329
" />
<path d="M0.1000 101.8236
L254.5565 101.6547
" />
<path d="M216.1029 9.8890
L216.1029 6.4047
" />
<path d="M221.4946 14.6391
L254.1184 14.6703
" />
<path d="M204.1187,9.8890 C203.8425,9.8891 203.6186,9.6653 203.6186,9.3892" />
<path d="M220.9945 10.3889
L220.9945 14.1392
" />
<path d="M169.0900 9.6860
L176.2592 9.6845
" />
<path d="M220.0873 66.7328
L220.0873 68.4047
" />
<path d="M210.5743 68.5148
L210.5814 98.0478
" />
<path d="M185.1185 9.6860
L181.5717 9.6860
" />
<path d="M181.5717 9.6860
L181.5717 6.3947
" />
<path d="M0.1347 68.4047
L0.1000 101.8236
" />
<path d="M168.5917 11.6834
L168.5917 10.1848
" />
<path d="M185.6186,7.9359 C185.6185,7.6598 185.8423,7.4359 186.1185,7.4358" />
<path d="M220.4946,9.8890 C220.7707,9.8891 220.9944,10.1129 220.9945,10.3889" />
<path d="M33.2586 14.6860
L0.6348 14.7172
" />
<path d="M34.6659 68.4047
L7.0409 68.4047
" />
<path d="M210.7904 6.4047
L210.7904 9.8890
" />
<path d="M0.4003 0.1000
L254.8065 0.2797
" />
<path d="M7.0409 66.7797
L34.6659 66.7797
" />
<path d="M51.6345 7.4827
L68.6347 7.4827
" />
<path d="M7.0409 68.4047
L7.0409 66.7797
" />
<path d="M0.6659 66.7797
L2.7909 66.7797
" />
<path d="M247.7123 66.7328
L220.0873 66.7328
" />
<path d="M0.1347 15.2171
L0.1658 66.2798
" />
<path d="M44.1718 98.0947
L210.5814 98.0478
" />
<path d="M221.4946,14.6391 C221.2185,14.6392 220.9946,14.4154 220.9945,14.1392" />
<path d="M247.7123 68.4047
L247.7123 66.7328
" />
<path d="M181.5717 6.3947
L210.7904 6.4047
" />
<path d="M208.8404 67.2944
L198.2974 81.7516
" />
<path d="M43.9472 6.4097
L73.1815 6.4047
" />
<path d="M215.3061 66.7328
L209.4623 66.7328
" />
<path d="M203.6186 7.9359
L203.6186 9.3892
" />
<path d="M168.5901,11.6860 C168.5901,11.9621 168.3662,12.1859 168.0900,12.1859" />
<path d="M220.0873 68.4047
L247.7123 68.4047
" />
<path d="M2.7909 68.4047
L0.1347 68.4047
" />
<path d="M254.5874,66.2329 C254.5874,66.5091 254.3635,66.7329 254.0873,66.7328" />
<path d="M130.9467,12.6078 C130.9468,12.3317 131.1705,12.1080 131.4466,12.1079" />
<path d="M34.2586 9.9359
L38.6503 9.9359
" />
<path d="M160.6188,86.7978 C160.8322,86.7333 161.0515,86.6900 161.2734,86.6682" />
<path d="M45.9128 67.3413
L45.2909 66.7797
" />
<path d="M39.4472 66.7797
L39.4635 68.5605
" />
<path d="M39.4472 66.7797
L45.2909 66.7797
" />
<path d="M203.1187 7.4358
L186.1185 7.4358
" />
<path d="M38.6503 6.4047
L38.6503 9.9359
" />
<path d="M254.0873 66.7328
L251.9623 66.7328
" />
<path d="M33.7587 10.4358
L33.7587 14.1861
" />
<path d="M123.8065 12.6547
L123.8092 70.9199
" />
<path d="M69.1346 7.9828
L69.1346 9.2328
" />
<path d="M254.1184,14.6703 C254.3946,14.6702 254.6185,14.8940 254.6186,15.1702" />
<path d="M39.4635 68.5605
L44.1789 68.5617
" />
<path d="M215.3061 66.7328
L215.3243 68.5128
" />
<path d="M160.6188 86.7978
L146.3247 95.0589
" />
<path d="M131.4466 12.1079
L168.0900 12.1859
" />
<path d="M146.3247,95.0589 C145.6896,95.4869 144.8278,95.3191 144.3997,94.6840" />
<path d="M176.2592 6.4047
L176.2592 9.6845
" />
<path d="M131.1711,71.7455 C131.0184,71.4804 130.9399,71.1790 130.9440,70.8730" />
<path d="M198.2974,81.7516 C198.2036,81.8453 198.0764,81.8979 197.9438,81.8979" />
<path d="M208.8404 67.2944
L209.4623 66.7328
" />
<path d="M251.9623 66.7328
L251.9623 68.4047
" />
<path d="M144.3966 94.6794
L131.1706 71.7470
" />
<path d="M220.4946 9.8890
L216.1029 9.8890
" />
<path d="M51.1347 7.9828
L51.1347 9.4361
" />
<path d="M185.6186,9.1859 C185.6187,9.4620 185.3949,9.6859 185.1187,9.6860" />
<path d="M2.7909 66.7797
L2.7909 68.4047
" />
<path d="M254.6186 68.4047
L254.5565 101.6547
" />
<path d="M78.4940 6.4516
L176.2592 6.4047
" />
<path d="M0.4003 0.1000
L0.4003 6.4047
" />
<path d="M216.1029 6.4047
L254.8065 6.3891
" />
<path d="M210.7904 9.8890
L204.1187 9.8890
" />
<path d="M185.6186 7.9359
L185.6186 9.1859
" />
<path d="M130.9467 12.6078
L130.9440 70.8730
" />
<path d="M251.9623 68.4047
L254.6186 68.4047
" />
<path d="M34.6659 66.7797
L34.6659 68.4047
" />
<path d="M197.9438 81.8979
L161.2734 86.6682
" />
</g>
<g style="fill:none; 
stroke:#000000; stroke-width:0.1000; stroke-opacity:1; 
stroke-linecap:round; stroke-linejoin:round;">
<circle cx="20.1764" cy="26.7047" r="0.5000" /> 
<circle cx="31.7764" cy="21.2047" r="0.6000" /> 
<circle cx="37.1764" cy="21.9547" r="0.5000" /> 
<circle cx="48.7764" cy="16.4547" r="0.6000" /> 
<circle cx="54.1764" cy="19.5799" r="0.5000" /> 
<circle cx="65.7764" cy="14.0799" r="0.6000" /> 
<circle cx="71.1764" cy="21.9556" r="0.5000" /> 
<circle cx="82.7764" cy="16.4556" r="0.6000" /> 
<circle cx="3.1764" cy="43.7047" r="0.5000" /> 
<circle cx="14.7764" cy="38.2047" r="0.6000" /> 
<circle cx="31.7764" cy="38.2047" r="0.6000" /> 
<circle cx="20.1764" cy="43.7047" r="0.5000" /> 
<circle cx="37.1764" cy="38.9547" r="0.5000" /> 
<circle cx="48.7764" cy="33.4547" r="0.6000" /> 
<circle cx="54.1764" cy="36.5796" r="0.5000" /> 
<circle cx="65.7764" cy="31.0796" r="0.6000" /> 
<circle cx="71.1764" cy="38.9552" r="0.5000" /> 
<circle cx="82.7764" cy="33.4552" r="0.6000" /> 
<circle cx="88.1764" cy="41.3298" r="0.5000" /> 
<circle cx="99.7764" cy="35.8298" r="0.6000" /> 
<circle cx="3.1764" cy="60.7047" r="0.5000" /> 
<circle cx="14.7764" cy="55.2047" r="0.6000" /> 
<circle cx="20.1764" cy="60.7047" r="0.5000" /> 
<circle cx="31.7764" cy="55.2047" r="0.6000" /> 
<circle cx="37.1764" cy="55.9547" r="0.5000" /> 
<circle cx="48.7764" cy="50.4547" r="0.6000" /> 
<circle cx="54.1764" cy="53.5797" r="0.5000" /> 
<circle cx="65.7764" cy="48.0797" r="0.6000" /> 
<circle cx="71.1764" cy="55.9547" r="0.5000" /> 
<circle cx="82.7764" cy="50.4547" r="0.6000" /> 
<circle cx="88.1764" cy="58.3297" r="0.5000" /> 
<circle cx="99.7764" cy="52.8297" r="0.6000" /> 
<circle cx="59.6764" cy="75.5797" r="0.5000" /> 
<circle cx="71.2764" cy="70.0797" r="0.6000" /> 
<circle cx="92.7906" cy="74.4245" r="0.6000" /> 
<circle cx="80.1623" cy="76.7348" r="0.5000" /> 
<circle cx="106.8250" cy="77.0067" r="0.6000" /> 
<circle cx="105.7881" cy="89.8026" r="0.5000" /> 
<circle cx="143.0250" cy="79.7567" r="0.5000" /> 
<circle cx="153.5881" cy="87.0526" r="0.6000" /> 
<circle cx="188.6834" cy="53.5747" r="0.5000" /> 
<circle cx="200.2834" cy="48.0747" r="0.6000" /> 
<circle cx="171.6834" cy="55.9497" r="0.5000" /> 
<circle cx="183.2834" cy="50.4497" r="0.6000" /> 
<circle cx="154.6834" cy="58.3247" r="0.5000" /> 
<circle cx="166.2834" cy="52.8247" r="0.6000" /> 
<circle cx="183.1834" cy="75.5747" r="0.5000" /> 
<circle cx="194.7834" cy="70.0747" r="0.6000" /> 
<circle cx="163.0928" cy="79.7321" r="0.5000" /> 
<circle cx="172.8740" cy="71.4172" r="0.6000" /> 
<circle cx="188.6834" cy="19.5747" r="0.5000" /> 
<circle cx="200.2834" cy="14.0747" r="0.6000" /> 
<circle cx="171.6834" cy="21.9497" r="0.5000" /> 
<circle cx="183.2834" cy="16.4497" r="0.6000" /> 
<circle cx="239.6834" cy="43.6997" r="0.5000" /> 
<circle cx="251.2834" cy="38.1997" r="0.6000" /> 
<circle cx="205.6834" cy="21.9497" r="0.5000" /> 
<circle cx="217.2834" cy="16.4497" r="0.6000" /> 
<circle cx="222.6834" cy="43.6997" r="0.5000" /> 
<circle cx="234.2834" cy="38.1997" r="0.6000" /> 
<circle cx="222.6834" cy="60.6997" r="0.5000" /> 
<circle cx="234.2834" cy="55.1997" r="0.6000" /> 
<circle cx="205.6834" cy="55.9497" r="0.5000" /> 
<circle cx="217.2834" cy="50.4497" r="0.6000" /> 
<circle cx="239.6834" cy="26.6997" r="0.5000" /> 
<circle cx="251.2834" cy="21.1997" r="0.6000" /> 
<circle cx="222.6834" cy="26.6997" r="0.5000" /> 
<circle cx="234.2834" cy="21.1997" r="0.6000" /> 
<circle cx="205.6834" cy="38.9497" r="0.5000" /> 
<circle cx="217.2834" cy="33.4497" r="0.6000" /> 
<circle cx="188.6834" cy="36.5747" r="0.5000" /> 
<circle cx="200.2834" cy="31.0747" r="0.6000" /> 
<circle cx="171.6834" cy="38.9497" r="0.5000" /> 
<circle cx="183.2834" cy="33.4497" r="0.6000" /> 
<circle cx="154.6834" cy="41.3247" r="0.5000" /> 
<circle cx="166.2834" cy="35.8247" r="0.6000" /> 
<circle cx="239.6834" cy="60.6997" r="0.5000" /> 
<circle cx="251.2834" cy="55.1997" r="0.6000" /> 
<circle cx="3.1764" cy="26.7047" r="0.5000" /> 
<circle cx="14.7764" cy="21.2047" r="0.6000" /> 
<circle cx="88.1764" cy="24.3302" r="0.5000" /> 
<circle cx="99.7764" cy="18.8302" r="0.6000" /> 
<circle cx="154.6764" cy="24.3297" r="0.5000" /> 
<circle cx="166.2764" cy="18.8297" r="0.6000" /> 
</g> 
</svg>
