<?xml version="1.0" standalone="no"?>
 <!DOCTYPE svg PUBLIC "-//W3C//DTD SVG 1.1//EN" 
 "http://www.w3.org/Graphics/SVG/1.1/DTD/svg11.dtd"> 
<svg
  xmlns:svg="http://www.w3.org/2000/svg"
  xmlns="http://www.w3.org/2000/svg"
  xmlns:xlink="http://www.w3.org/1999/xlink"
  version="1.1"
  width="254.8890mm" height="101.9048mm" viewBox="0.0000 0.0000 254.8890 101.9048">
<title>SVG Image created as _autosave-corne-xiao-User_Drawings.svg date 2025/01/02 00:25:41 </title>
  <desc>Image generated by PCBNEW </desc>
<g style="fill:#000000; fill-opacity:1.0000;stroke:#000000; stroke-opacity:1.0000;
stroke-linecap:round; stroke-linejoin:round;"
 transform="translate(0 0) scale(1 1)">
<path style="fill:none; 
stroke:#000000; stroke-width:0.1000; stroke-opacity:1; 
stroke-linecap:round; stroke-linejoin:round;fill:none"
d="M 28.1764,20.4547
29.7764,20.4547
29.7764,22.3047
29.2764,22.8047
23.7764,22.8047
23.7764,20.0547
28.1764,20.0547
Z" /> 
<path style="fill:none; 
stroke:#000000; stroke-width:0.1000; stroke-opacity:1; 
stroke-linecap:round; stroke-linejoin:round;fill:none"
d="M 45.1764,15.7047
46.7764,15.7047
46.7764,17.5547
46.2764,18.0547
40.7764,18.0547
40.7764,15.3047
45.1764,15.3047
Z" /> 
<path style="fill:none; 
stroke:#000000; stroke-width:0.1000; stroke-opacity:1; 
stroke-linecap:round; stroke-linejoin:round;fill:none"
d="M 62.1764,13.3299
63.7764,13.3299
63.7764,15.1799
63.2764,15.6799
57.7764,15.6799
57.7764,12.9299
62.1764,12.9299
Z" /> 
<path style="fill:none; 
stroke:#000000; stroke-width:0.1000; stroke-opacity:1; 
stroke-linecap:round; stroke-linejoin:round;fill:none"
d="M 79.1764,15.7056
80.7764,15.7056
80.7764,17.5556
80.2764,18.0556
74.7764,18.0556
74.7764,15.3056
79.1764,15.3056
Z" /> 
<path style="fill:none; 
stroke:#000000; stroke-width:0.1000; stroke-opacity:1; 
stroke-linecap:round; stroke-linejoin:round;fill:none"
d="M 11.1764,37.4547
12.7764,37.4547
12.7764,39.3047
12.2764,39.8047
6.7764,39.8047
6.7764,37.0547
11.1764,37.0547
Z" /> 
<path style="fill:none; 
stroke:#000000; stroke-width:0.1000; stroke-opacity:1; 
stroke-linecap:round; stroke-linejoin:round;fill:none"
d="M 28.1764,37.4547
29.7764,37.4547
29.7764,39.3047
29.2764,39.8047
23.7764,39.8047
23.7764,37.0547
28.1764,37.0547
Z" /> 
<path style="fill:none; 
stroke:#000000; stroke-width:0.1000; stroke-opacity:1; 
stroke-linecap:round; stroke-linejoin:round;fill:none"
d="M 45.1764,32.7047
46.7764,32.7047
46.7764,34.5547
46.2764,35.0547
40.7764,35.0547
40.7764,32.3047
45.1764,32.3047
Z" /> 
<path style="fill:none; 
stroke:#000000; stroke-width:0.1000; stroke-opacity:1; 
stroke-linecap:round; stroke-linejoin:round;fill:none"
d="M 62.1764,30.3296
63.7764,30.3296
63.7764,32.1796
63.2764,32.6796
57.7764,32.6796
57.7764,29.9296
62.1764,29.9296
Z" /> 
<path style="fill:none; 
stroke:#000000; stroke-width:0.1000; stroke-opacity:1; 
stroke-linecap:round; stroke-linejoin:round;fill:none"
d="M 79.1764,32.7052
80.7764,32.7052
80.7764,34.5552
80.2764,35.0552
74.7764,35.0552
74.7764,32.3052
79.1764,32.3052
Z" /> 
<path style="fill:none; 
stroke:#000000; stroke-width:0.1000; stroke-opacity:1; 
stroke-linecap:round; stroke-linejoin:round;fill:none"
d="M 96.1764,35.0798
97.7764,35.0798
97.7764,36.9298
97.2764,37.4298
91.7764,37.4298
91.7764,34.6798
96.1764,34.6798
Z" /> 
<path style="fill:none; 
stroke:#000000; stroke-width:0.1000; stroke-opacity:1; 
stroke-linecap:round; stroke-linejoin:round;fill:none"
d="M 11.1764,54.4547
12.7764,54.4547
12.7764,56.3047
12.2764,56.8047
6.7764,56.8047
6.7764,54.0547
11.1764,54.0547
Z" /> 
<path style="fill:none; 
stroke:#000000; stroke-width:0.1000; stroke-opacity:1; 
stroke-linecap:round; stroke-linejoin:round;fill:none"
d="M 28.1764,54.4547
29.7764,54.4547
29.7764,56.3047
29.2764,56.8047
23.7764,56.8047
23.7764,54.0547
28.1764,54.0547
Z" /> 
<path style="fill:none; 
stroke:#000000; stroke-width:0.1000; stroke-opacity:1; 
stroke-linecap:round; stroke-linejoin:round;fill:none"
d="M 45.1764,49.7047
46.7764,49.7047
46.7764,51.5547
46.2764,52.0547
40.7764,52.0547
40.7764,49.3047
45.1764,49.3047
Z" /> 
<path style="fill:none; 
stroke:#000000; stroke-width:0.1000; stroke-opacity:1; 
stroke-linecap:round; stroke-linejoin:round;fill:none"
d="M 62.1764,47.3297
63.7764,47.3297
63.7764,49.1797
63.2764,49.6797
57.7764,49.6797
57.7764,46.9297
62.1764,46.9297
Z" /> 
<path style="fill:none; 
stroke:#000000; stroke-width:0.1000; stroke-opacity:1; 
stroke-linecap:round; stroke-linejoin:round;fill:none"
d="M 79.1764,49.7047
80.7764,49.7047
80.7764,51.5547
80.2764,52.0547
74.7764,52.0547
74.7764,49.3047
79.1764,49.3047
Z" /> 
<path style="fill:none; 
stroke:#000000; stroke-width:0.1000; stroke-opacity:1; 
stroke-linecap:round; stroke-linejoin:round;fill:none"
d="M 96.1764,52.0797
97.7764,52.0797
97.7764,53.9297
97.2764,54.4297
91.7764,54.4297
91.7764,51.6797
96.1764,51.6797
Z" /> 
<path style="fill:none; 
stroke:#000000; stroke-width:0.1000; stroke-opacity:1; 
stroke-linecap:round; stroke-linejoin:round;fill:none"
d="M 67.6764,69.3297
69.2764,69.3297
69.2764,71.1797
68.7764,71.6797
63.2764,71.6797
63.2764,68.9297
67.6764,68.9297
Z" /> 
<path style="fill:none; 
stroke:#000000; stroke-width:0.1000; stroke-opacity:1; 
stroke-linecap:round; stroke-linejoin:round;fill:none"
d="M 89.6109,72.3820
89.5073,72.7683
91.0528,73.1825
90.5740,74.9694
89.9616,75.3230
84.6490,73.8995
85.3608,71.2432
Z" /> 
<path style="fill:none; 
stroke:#000000; stroke-width:0.1000; stroke-opacity:1; 
stroke-linecap:round; stroke-linejoin:round;fill:none"
d="M 106.7776,79.2888
106.9606,79.9718
104.2106,84.7349
101.8290,83.3599
104.0290,79.5494
104.3754,79.7494
105.1754,78.3638
Z" /> 
<path style="fill:none; 
stroke:#000000; stroke-width:0.1000; stroke-opacity:1; 
stroke-linecap:round; stroke-linejoin:round;fill:none"
d="M 152.7840,83.3599
152.4376,83.5599
153.2376,84.9456
151.6355,85.8706
150.9525,85.6876
148.2025,80.9244
150.5840,79.5494
Z" /> 
<path style="fill:none; 
stroke:#000000; stroke-width:0.1000; stroke-opacity:1; 
stroke-linecap:round; stroke-linejoin:round;fill:none"
d="M 196.6834,47.3247
198.2834,47.3247
198.2834,49.1747
197.7834,49.6747
192.2834,49.6747
192.2834,46.9247
196.6834,46.9247
Z" /> 
<path style="fill:none; 
stroke:#000000; stroke-width:0.1000; stroke-opacity:1; 
stroke-linecap:round; stroke-linejoin:round;fill:none"
d="M 179.6834,49.6997
181.2834,49.6997
181.2834,51.5497
180.7834,52.0497
175.2834,52.0497
175.2834,49.2997
179.6834,49.2997
Z" /> 
<path style="fill:none; 
stroke:#000000; stroke-width:0.1000; stroke-opacity:1; 
stroke-linecap:round; stroke-linejoin:round;fill:none"
d="M 162.6834,52.0747
164.2834,52.0747
164.2834,53.9247
163.7834,54.4247
158.2834,54.4247
158.2834,51.6747
162.6834,51.6747
Z" /> 
<path style="fill:none; 
stroke:#000000; stroke-width:0.1000; stroke-opacity:1; 
stroke-linecap:round; stroke-linejoin:round;fill:none"
d="M 191.1834,69.3247
192.7834,69.3247
192.7834,71.1747
192.2834,71.6747
186.7834,71.6747
186.7834,68.9247
191.1834,68.9247
Z" /> 
<path style="fill:none; 
stroke:#000000; stroke-width:0.1000; stroke-opacity:1; 
stroke-linecap:round; stroke-linejoin:round;fill:none"
d="M 171.2269,72.9974
170.8733,73.6098
165.5608,75.0333
164.8490,72.3770
169.0991,71.2382
169.2026,71.6245
170.7481,71.2104
Z" /> 
<path style="fill:none; 
stroke:#000000; stroke-width:0.1000; stroke-opacity:1; 
stroke-linecap:round; stroke-linejoin:round;fill:none"
d="M 196.6834,13.3247
198.2834,13.3247
198.2834,15.1747
197.7834,15.6747
192.2834,15.6747
192.2834,12.9247
196.6834,12.9247
Z" /> 
<path style="fill:none; 
stroke:#000000; stroke-width:0.1000; stroke-opacity:1; 
stroke-linecap:round; stroke-linejoin:round;fill:none"
d="M 179.6834,15.6997
181.2834,15.6997
181.2834,17.5497
180.7834,18.0497
175.2834,18.0497
175.2834,15.2997
179.6834,15.2997
Z" /> 
<path style="fill:none; 
stroke:#000000; stroke-width:0.1000; stroke-opacity:1; 
stroke-linecap:round; stroke-linejoin:round;fill:none"
d="M 247.6834,37.4497
249.2834,37.4497
249.2834,39.2997
248.7834,39.7997
243.2834,39.7997
243.2834,37.0497
247.6834,37.0497
Z" /> 
<path style="fill:none; 
stroke:#000000; stroke-width:0.1000; stroke-opacity:1; 
stroke-linecap:round; stroke-linejoin:round;fill:none"
d="M 213.6834,15.6997
215.2834,15.6997
215.2834,17.5497
214.7834,18.0497
209.2834,18.0497
209.2834,15.2997
213.6834,15.2997
Z" /> 
<path style="fill:none; 
stroke:#000000; stroke-width:0.1000; stroke-opacity:1; 
stroke-linecap:round; stroke-linejoin:round;fill:none"
d="M 230.6834,37.4497
232.2834,37.4497
232.2834,39.2997
231.7834,39.7997
226.2834,39.7997
226.2834,37.0497
230.6834,37.0497
Z" /> 
<path style="fill:none; 
stroke:#000000; stroke-width:0.1000; stroke-opacity:1; 
stroke-linecap:round; stroke-linejoin:round;fill:none"
d="M 230.6834,54.4497
232.2834,54.4497
232.2834,56.2997
231.7834,56.7997
226.2834,56.7997
226.2834,54.0497
230.6834,54.0497
Z" /> 
<path style="fill:none; 
stroke:#000000; stroke-width:0.1000; stroke-opacity:1; 
stroke-linecap:round; stroke-linejoin:round;fill:none"
d="M 213.6834,49.6997
215.2834,49.6997
215.2834,51.5497
214.7834,52.0497
209.2834,52.0497
209.2834,49.2997
213.6834,49.2997
Z" /> 
<path style="fill:none; 
stroke:#000000; stroke-width:0.1000; stroke-opacity:1; 
stroke-linecap:round; stroke-linejoin:round;fill:none"
d="M 247.6834,20.4497
249.2834,20.4497
249.2834,22.2997
248.7834,22.7997
243.2834,22.7997
243.2834,20.0497
247.6834,20.0497
Z" /> 
<path style="fill:none; 
stroke:#000000; stroke-width:0.1000; stroke-opacity:1; 
stroke-linecap:round; stroke-linejoin:round;fill:none"
d="M 230.6834,20.4497
232.2834,20.4497
232.2834,22.2997
231.7834,22.7997
226.2834,22.7997
226.2834,20.0497
230.6834,20.0497
Z" /> 
<path style="fill:none; 
stroke:#000000; stroke-width:0.1000; stroke-opacity:1; 
stroke-linecap:round; stroke-linejoin:round;fill:none"
d="M 213.6834,32.6997
215.2834,32.6997
215.2834,34.5497
214.7834,35.0497
209.2834,35.0497
209.2834,32.2997
213.6834,32.2997
Z" /> 
<path style="fill:none; 
stroke:#000000; stroke-width:0.1000; stroke-opacity:1; 
stroke-linecap:round; stroke-linejoin:round;fill:none"
d="M 196.6834,30.3247
198.2834,30.3247
198.2834,32.1747
197.7834,32.6747
192.2834,32.6747
192.2834,29.9247
196.6834,29.9247
Z" /> 
<path style="fill:none; 
stroke:#000000; stroke-width:0.1000; stroke-opacity:1; 
stroke-linecap:round; stroke-linejoin:round;fill:none"
d="M 179.6834,32.6997
181.2834,32.6997
181.2834,34.5497
180.7834,35.0497
175.2834,35.0497
175.2834,32.2997
179.6834,32.2997
Z" /> 
<path style="fill:none; 
stroke:#000000; stroke-width:0.1000; stroke-opacity:1; 
stroke-linecap:round; stroke-linejoin:round;fill:none"
d="M 162.6834,35.0747
164.2834,35.0747
164.2834,36.9247
163.7834,37.4247
158.2834,37.4247
158.2834,34.6747
162.6834,34.6747
Z" /> 
<path style="fill:none; 
stroke:#000000; stroke-width:0.1000; stroke-opacity:1; 
stroke-linecap:round; stroke-linejoin:round;fill:none"
d="M 247.6834,54.4497
249.2834,54.4497
249.2834,56.2997
248.7834,56.7997
243.2834,56.7997
243.2834,54.0497
247.6834,54.0497
Z" /> 
<path style="fill:none; 
stroke:#000000; stroke-width:0.1000; stroke-opacity:1; 
stroke-linecap:round; stroke-linejoin:round;fill:none"
d="M 11.1764,20.4547
12.7764,20.4547
12.7764,22.3047
12.2764,22.8047
6.7764,22.8047
6.7764,20.0547
11.1764,20.0547
Z" /> 
<path style="fill:none; 
stroke:#000000; stroke-width:0.1000; stroke-opacity:1; 
stroke-linecap:round; stroke-linejoin:round;fill:none"
d="M 96.1764,18.0802
97.7764,18.0802
97.7764,19.9302
97.2764,20.4302
91.7764,20.4302
91.7764,17.6802
96.1764,17.6802
Z" /> 
<path style="fill:none; 
stroke:#000000; stroke-width:0.1000; stroke-opacity:1; 
stroke-linecap:round; stroke-linejoin:round;fill:none"
d="M 162.6764,18.0797
164.2764,18.0797
164.2764,19.9297
163.7764,20.4297
158.2764,20.4297
158.2764,17.6797
162.6764,17.6797
Z" /> 
</g>
<g style="fill:none; 
stroke:#000000; stroke-width:0.1200; stroke-opacity:1; 
stroke-linecap:round; stroke-linejoin:round;">
<path d="M132.0458 12.5316
L149.8258 12.5316
" />
<path d="M132.0458 14.4316
L132.0458 12.5316
" />
<path d="M132.0458 16.4066
L132.0458 16.9366
" />
<path d="M132.0458 18.9466
L132.0458 19.4766
" />
<path d="M132.0458 21.4866
L132.0458 22.0166
" />
<path d="M132.0458 24.0266
L132.0458 24.5566
" />
<path d="M132.0458 26.5666
L132.0458 27.0966
" />
<path d="M132.0458 29.1066
L132.0458 29.6366
" />
<path d="M132.0458 33.5316
L132.0458 31.6316
" />
<path d="M149.8258 12.5416
L149.8258 14.3816
" />
<path d="M149.8258 16.4216
L149.8258 16.9516
" />
<path d="M149.8258 18.9566
L149.8258 19.4866
" />
<path d="M149.8258 21.4966
L149.8258 22.0266
" />
<path d="M149.8258 24.0266
L149.8258 24.5566
" />
<path d="M149.8258 26.5766
L149.8258 27.1066
" />
<path d="M149.8258 29.1166
L149.8258 29.6466
" />
<path d="M149.8258 31.6416
L149.8258 33.5316
" />
<path d="M149.8258 33.5316
L132.0458 33.5316
" />
<path style="fill:none; 
stroke:#000000; stroke-width:0.1200; stroke-opacity:1; 
stroke-linecap:round; stroke-linejoin:round;fill:none"
d="M 132.0458,33.5316
149.8258,33.5316
149.8258,12.5316
132.0458,12.5316
Z" /> 
<path style="fill:none; 
stroke:#000000; stroke-width:0.1200; stroke-opacity:1; 
stroke-linecap:round; stroke-linejoin:round;fill:none"
d="M 135.6500,16.2458
137.4280,16.2458
137.4280,18.9128
135.6500,18.9128
Z" /> 
<path style="fill:none; 
stroke:#000000; stroke-width:0.1200; stroke-opacity:1; 
stroke-linecap:round; stroke-linejoin:round;fill:none"
d="M 137.4280,14.8488
135.6500,14.8488
135.6500,12.1818
137.4280,12.1818
Z" /> 
<path style="fill:none; 
stroke:#000000; stroke-width:0.1200; stroke-opacity:1; 
stroke-linecap:round; stroke-linejoin:round;fill:none"
d="M 144.2860,12.1818
146.0640,12.1818
146.0640,14.8488
144.2860,14.8488
Z" /> 
<path style="fill:none; 
stroke:#000000; stroke-width:0.1200; stroke-opacity:1; 
stroke-linecap:round; stroke-linejoin:round;fill:none"
d="M 144.2860,16.2458
146.0640,16.2458
146.0640,18.9128
144.2860,18.9128
Z" /> 
<path d="M104.7508 12.4516
L122.5308 12.4516
" />
<path d="M104.7508 14.3516
L104.7508 12.4516
" />
<path d="M104.7508 16.3266
L104.7508 16.8566
" />
<path d="M104.7508 18.8666
L104.7508 19.3966
" />
<path d="M104.7508 21.4066
L104.7508 21.9366
" />
<path d="M104.7508 23.9466
L104.7508 24.4766
" />
<path d="M104.7508 26.4866
L104.7508 27.0166
" />
<path d="M104.7508 29.0266
L104.7508 29.5566
" />
<path d="M104.7508 33.4516
L104.7508 31.5516
" />
<path d="M122.5308 12.4616
L122.5308 14.3016
" />
<path d="M122.5308 16.3416
L122.5308 16.8716
" />
<path d="M122.5308 18.8766
L122.5308 19.4066
" />
<path d="M122.5308 21.4166
L122.5308 21.9466
" />
<path d="M122.5308 23.9466
L122.5308 24.4766
" />
<path d="M122.5308 26.4966
L122.5308 27.0266
" />
<path d="M122.5308 29.0366
L122.5308 29.5666
" />
<path d="M122.5308 31.5616
L122.5308 33.4516
" />
<path d="M122.5308 33.4516
L104.7508 33.4516
" />
<path style="fill:none; 
stroke:#000000; stroke-width:0.1200; stroke-opacity:1; 
stroke-linecap:round; stroke-linejoin:round;fill:none"
d="M 104.7508,33.4516
122.5308,33.4516
122.5308,12.4516
104.7508,12.4516
Z" /> 
<path style="fill:none; 
stroke:#000000; stroke-width:0.1200; stroke-opacity:1; 
stroke-linecap:round; stroke-linejoin:round;fill:none"
d="M 108.3550,16.1658
110.1330,16.1658
110.1330,18.8328
108.3550,18.8328
Z" /> 
<path style="fill:none; 
stroke:#000000; stroke-width:0.1200; stroke-opacity:1; 
stroke-linecap:round; stroke-linejoin:round;fill:none"
d="M 110.1330,14.7688
108.3550,14.7688
108.3550,12.1018
110.1330,12.1018
Z" /> 
<path style="fill:none; 
stroke:#000000; stroke-width:0.1200; stroke-opacity:1; 
stroke-linecap:round; stroke-linejoin:round;fill:none"
d="M 116.9910,12.1018
118.7690,12.1018
118.7690,14.7688
116.9910,14.7688
Z" /> 
<path style="fill:none; 
stroke:#000000; stroke-width:0.1200; stroke-opacity:1; 
stroke-linecap:round; stroke-linejoin:round;fill:none"
d="M 116.9910,16.1658
118.7690,16.1658
118.7690,18.8328
116.9910,18.8328
Z" /> 
</g>
<g style="fill:none; 
stroke:#000000; stroke-width:0.2000; stroke-opacity:1; 
stroke-linecap:round; stroke-linejoin:round;">
<path d="M0.4003 6.4047
L38.6503 6.4047
" />
<path d="M43.9628 9.9359
L50.6345 9.9359
" />
<path d="M69.6347 9.7329
L73.1815 9.7329
" />
<path d="M45.9128 67.3413
L56.4559 81.7985
" />
<path d="M56.8094 81.9448
L93.4799 86.7151
" />
<path d="M108.4285,95.1058 C109.0636,95.5338 109.9255,95.3660 110.3535,94.7309" />
<path d="M110.3566 94.7263
L123.5827 71.7939
" />
<path d="M86.1631,11.7329 C86.1632,12.0090 86.3871,12.2328 86.6632,12.2328" />
<path d="M86.1631,10.2328 C86.1630,9.9567 85.9393,9.7330 85.6632,9.7329" />
<path d="M69.1346,9.2328 C69.1345,9.5089 69.3583,9.7328 69.6345,9.7329" />
<path d="M69.1346,7.9828 C69.1347,7.7067 68.9109,7.4828 68.6347,7.4827" />
<path d="M51.6345,7.4827 C51.3584,7.4828 51.1346,7.7067 51.1347,7.9828" />
<path d="M50.6345,9.9359 C50.9107,9.9360 51.1346,9.7122 51.1347,9.4361" />
<path d="M34.2586,9.9359 C33.9826,9.9360 33.7588,10.1598 33.7587,10.4358" />
<path d="M33.2586,14.6860 C33.5347,14.6861 33.7587,14.4623 33.7587,14.1861" />
<path d="M0.6348,14.7172 C0.3586,14.7171 0.1347,14.9409 0.1347,15.2171" />
<path d="M0.1658,66.2798 C0.1659,66.5560 0.3898,66.7798 0.6659,66.7797" />
<path d="M94.1344 86.8447
L108.4285 95.1058
" />
<path d="M85.6632 9.7329
L78.4940 9.7314
" />
<path d="M123.8065,12.6547 C123.8065,12.3786 123.5827,12.1549 123.3066,12.1548" />
<path d="M123.3066 12.1548
L86.6632 12.2328
" />
<path d="M86.1616 11.7303
L86.1616 10.2317
" />
<path d="M123.5821,71.7924 C123.7349,71.5273 123.8133,71.2259 123.8092,70.9199" />
<path d="M56.4559,81.7985 C56.5496,81.8922 56.6768,81.9448 56.8094,81.9448" />
<path d="M94.1344,86.8447 C93.9210,86.7802 93.7018,86.7369 93.4799,86.7151" />
<path d="M78.4940 9.7314
L78.4940 6.4516
" />
<path d="M215.3243 68.5128
L210.5743 68.5148
" />
<path d="M254.8065 0.2797
L254.8065 6.3891
" />
<path d="M203.1187,7.4358 C203.3948,7.4359 203.6186,7.6598 203.6186,7.9359" />
<path d="M44.1789 68.5617
L44.1718 98.0947
" />
<path d="M168.5901,10.1859 C168.5902,9.9098 168.8140,9.6861 169.0900,9.6860" />
<path d="M254.6186 15.1702
L254.5874 66.2329
" />
<path d="M43.9628 9.9359
L43.9472 6.4097
" />
<path d="M73.1815 6.4047
L73.1815 9.7329
" />
<path d="M0.1000 101.8236
L254.5565 101.6547
" />
<path d="M216.1029 9.8890
L216.1029 6.4047
" />
<path d="M221.4946 14.6391
L254.1184 14.6703
" />
<path d="M204.1187,9.8890 C203.8425,9.8891 203.6186,9.6653 203.6186,9.3892" />
<path d="M220.9945 10.3889
L220.9945 14.1392
" />
<path d="M169.0900 9.6860
L176.2592 9.6845
" />
<path d="M220.0873 66.7328
L220.0873 68.4047
" />
<path d="M210.5743 68.5148
L210.5814 98.0478
" />
<path d="M185.1185 9.6860
L181.5717 9.6860
" />
<path d="M181.5717 9.6860
L181.5717 6.3947
" />
<path d="M0.1347 68.4047
L0.1000 101.8236
" />
<path d="M168.5917 11.6834
L168.5917 10.1848
" />
<path d="M185.6186,7.9359 C185.6185,7.6598 185.8423,7.4359 186.1185,7.4358" />
<path d="M220.4946,9.8890 C220.7707,9.8891 220.9944,10.1129 220.9945,10.3889" />
<path d="M33.2586 14.6860
L0.6348 14.7172
" />
<path d="M34.6659 68.4047
L7.0409 68.4047
" />
<path d="M210.7904 6.4047
L210.7904 9.8890
" />
<path d="M0.4003 0.1000
L254.8065 0.2797
" />
<path d="M7.0409 66.7797
L34.6659 66.7797
" />
<path d="M51.6345 7.4827
L68.6347 7.4827
" />
<path d="M7.0409 68.4047
L7.0409 66.7797
" />
<path d="M0.6659 66.7797
L2.7909 66.7797
" />
<path d="M247.7123 66.7328
L220.0873 66.7328
" />
<path d="M0.1347 15.2171
L0.1658 66.2798
" />
<path d="M44.1718 98.0947
L210.5814 98.0478
" />
<path d="M221.4946,14.6391 C221.2185,14.6392 220.9946,14.4154 220.9945,14.1392" />
<path d="M247.7123 68.4047
L247.7123 66.7328
" />
<path d="M181.5717 6.3947
L210.7904 6.4047
" />
<path d="M208.8404 67.2944
L198.2974 81.7516
" />
<path d="M43.9472 6.4097
L73.1815 6.4047
" />
<path d="M215.3061 66.7328
L209.4623 66.7328
" />
<path d="M203.6186 7.9359
L203.6186 9.3892
" />
<path d="M168.5901,11.6860 C168.5901,11.9621 168.3662,12.1859 168.0900,12.1859" />
<path d="M220.0873 68.4047
L247.7123 68.4047
" />
<path d="M2.7909 68.4047
L0.1347 68.4047
" />
<path d="M254.5874,66.2329 C254.5874,66.5091 254.3635,66.7329 254.0873,66.7328" />
<path d="M130.9467,12.6078 C130.9468,12.3317 131.1705,12.1080 131.4466,12.1079" />
<path d="M34.2586 9.9359
L38.6503 9.9359
" />
<path d="M160.6188,86.7978 C160.8322,86.7333 161.0515,86.6900 161.2734,86.6682" />
<path d="M45.9128 67.3413
L45.2909 66.7797
" />
<path d="M39.4472 66.7797
L39.4635 68.5605
" />
<path d="M39.4472 66.7797
L45.2909 66.7797
" />
<path d="M203.1187 7.4358
L186.1185 7.4358
" />
<path d="M38.6503 6.4047
L38.6503 9.9359
" />
<path d="M254.0873 66.7328
L251.9623 66.7328
" />
<path d="M33.7587 10.4358
L33.7587 14.1861
" />
<path d="M123.8065 12.6547
L123.8092 70.9199
" />
<path d="M69.1346 7.9828
L69.1346 9.2328
" />
<path d="M254.1184,14.6703 C254.3946,14.6702 254.6185,14.8940 254.6186,15.1702" />
<path d="M39.4635 68.5605
L44.1789 68.5617
" />
<path d="M215.3061 66.7328
L215.3243 68.5128
" />
<path d="M160.6188 86.7978
L146.3247 95.0589
" />
<path d="M131.4466 12.1079
L168.0900 12.1859
" />
<path d="M146.3247,95.0589 C145.6896,95.4869 144.8278,95.3191 144.3997,94.6840" />
<path d="M176.2592 6.4047
L176.2592 9.6845
" />
<path d="M131.1711,71.7455 C131.0184,71.4804 130.9399,71.1790 130.9440,70.8730" />
<path d="M198.2974,81.7516 C198.2036,81.8453 198.0764,81.8979 197.9438,81.8979" />
<path d="M208.8404 67.2944
L209.4623 66.7328
" />
<path d="M251.9623 66.7328
L251.9623 68.4047
" />
<path d="M144.3966 94.6794
L131.1706 71.7470
" />
<path d="M220.4946 9.8890
L216.1029 9.8890
" />
<path d="M51.1347 7.9828
L51.1347 9.4361
" />
<path d="M185.6186,9.1859 C185.6187,9.4620 185.3949,9.6859 185.1187,9.6860" />
<path d="M2.7909 66.7797
L2.7909 68.4047
" />
<path d="M254.6186 68.4047
L254.5565 101.6547
" />
<path d="M78.4940 6.4516
L176.2592 6.4047
" />
<path d="M0.4003 0.1000
L0.4003 6.4047
" />
<path d="M216.1029 6.4047
L254.8065 6.3891
" />
<path d="M210.7904 9.8890
L204.1187 9.8890
" />
<path d="M185.6186 7.9359
L185.6186 9.1859
" />
<path d="M130.9467 12.6078
L130.9440 70.8730
" />
<path d="M251.9623 68.4047
L254.6186 68.4047
" />
<path d="M34.6659 66.7797
L34.6659 68.4047
" />
<path d="M197.9438 81.8979
L161.2734 86.6682
" />
</g>
<g style="fill:none; 
stroke:#000000; stroke-width:0.1000; stroke-opacity:1; 
stroke-linecap:round; stroke-linejoin:round;">
<circle cx="20.1764" cy="26.7047" r="0.5000" /> 
<circle cx="31.7764" cy="21.2047" r="0.6000" /> 
<circle cx="37.1764" cy="21.9547" r="0.5000" /> 
<circle cx="48.7764" cy="16.4547" r="0.6000" /> 
<circle cx="54.1764" cy="19.5799" r="0.5000" /> 
<circle cx="65.7764" cy="14.0799" r="0.6000" /> 
<circle cx="71.1764" cy="21.9556" r="0.5000" /> 
<circle cx="82.7764" cy="16.4556" r="0.6000" /> 
<circle cx="3.1764" cy="43.7047" r="0.5000" /> 
<circle cx="14.7764" cy="38.2047" r="0.6000" /> 
<circle cx="31.7764" cy="38.2047" r="0.6000" /> 
<circle cx="20.1764" cy="43.7047" r="0.5000" /> 
<circle cx="37.1764" cy="38.9547" r="0.5000" /> 
<circle cx="48.7764" cy="33.4547" r="0.6000" /> 
<circle cx="54.1764" cy="36.5796" r="0.5000" /> 
<circle cx="65.7764" cy="31.0796" r="0.6000" /> 
<circle cx="71.1764" cy="38.9552" r="0.5000" /> 
<circle cx="82.7764" cy="33.4552" r="0.6000" /> 
<circle cx="88.1764" cy="41.3298" r="0.5000" /> 
<circle cx="99.7764" cy="35.8298" r="0.6000" /> 
<circle cx="3.1764" cy="60.7047" r="0.5000" /> 
<circle cx="14.7764" cy="55.2047" r="0.6000" /> 
<circle cx="20.1764" cy="60.7047" r="0.5000" /> 
<circle cx="31.7764" cy="55.2047" r="0.6000" /> 
<circle cx="37.1764" cy="55.9547" r="0.5000" /> 
<circle cx="48.7764" cy="50.4547" r="0.6000" /> 
<circle cx="54.1764" cy="53.5797" r="0.5000" /> 
<circle cx="65.7764" cy="48.0797" r="0.6000" /> 
<circle cx="71.1764" cy="55.9547" r="0.5000" /> 
<circle cx="82.7764" cy="50.4547" r="0.6000" /> 
<circle cx="88.1764" cy="58.3297" r="0.5000" /> 
<circle cx="99.7764" cy="52.8297" r="0.6000" /> 
<circle cx="59.6764" cy="75.5797" r="0.5000" /> 
<circle cx="71.2764" cy="70.0797" r="0.6000" /> 
<circle cx="92.7906" cy="74.4245" r="0.6000" /> 
<circle cx="80.1623" cy="76.7348" r="0.5000" /> 
<circle cx="106.8250" cy="77.0067" r="0.6000" /> 
<circle cx="105.7881" cy="89.8026" r="0.5000" /> 
<circle cx="143.0250" cy="79.7567" r="0.5000" /> 
<circle cx="153.5881" cy="87.0526" r="0.6000" /> 
<circle cx="188.6834" cy="53.5747" r="0.5000" /> 
<circle cx="200.2834" cy="48.0747" r="0.6000" /> 
<circle cx="171.6834" cy="55.9497" r="0.5000" /> 
<circle cx="183.2834" cy="50.4497" r="0.6000" /> 
<circle cx="154.6834" cy="58.3247" r="0.5000" /> 
<circle cx="166.2834" cy="52.8247" r="0.6000" /> 
<circle cx="183.1834" cy="75.5747" r="0.5000" /> 
<circle cx="194.7834" cy="70.0747" r="0.6000" /> 
<circle cx="163.0928" cy="79.7321" r="0.5000" /> 
<circle cx="172.8740" cy="71.4172" r="0.6000" /> 
<circle cx="188.6834" cy="19.5747" r="0.5000" /> 
<circle cx="200.2834" cy="14.0747" r="0.6000" /> 
<circle cx="171.6834" cy="21.9497" r="0.5000" /> 
<circle cx="183.2834" cy="16.4497" r="0.6000" /> 
<circle cx="239.6834" cy="43.6997" r="0.5000" /> 
<circle cx="251.2834" cy="38.1997" r="0.6000" /> 
<circle cx="205.6834" cy="21.9497" r="0.5000" /> 
<circle cx="217.2834" cy="16.4497" r="0.6000" /> 
<circle cx="222.6834" cy="43.6997" r="0.5000" /> 
<circle cx="234.2834" cy="38.1997" r="0.6000" /> 
<circle cx="222.6834" cy="60.6997" r="0.5000" /> 
<circle cx="234.2834" cy="55.1997" r="0.6000" /> 
<circle cx="205.6834" cy="55.9497" r="0.5000" /> 
<circle cx="217.2834" cy="50.4497" r="0.6000" /> 
<circle cx="239.6834" cy="26.6997" r="0.5000" /> 
<circle cx="251.2834" cy="21.1997" r="0.6000" /> 
<circle cx="222.6834" cy="26.6997" r="0.5000" /> 
<circle cx="234.2834" cy="21.1997" r="0.6000" /> 
<circle cx="205.6834" cy="38.9497" r="0.5000" /> 
<circle cx="217.2834" cy="33.4497" r="0.6000" /> 
<circle cx="188.6834" cy="36.5747" r="0.5000" /> 
<circle cx="200.2834" cy="31.0747" r="0.6000" /> 
<circle cx="171.6834" cy="38.9497" r="0.5000" /> 
<circle cx="183.2834" cy="33.4497" r="0.6000" /> 
<circle cx="154.6834" cy="41.3247" r="0.5000" /> 
<circle cx="166.2834" cy="35.8247" r="0.6000" /> 
<circle cx="239.6834" cy="60.6997" r="0.5000" /> 
<circle cx="251.2834" cy="55.1997" r="0.6000" /> 
<circle cx="3.1764" cy="26.7047" r="0.5000" /> 
<circle cx="14.7764" cy="21.2047" r="0.6000" /> 
<circle cx="88.1764" cy="24.3302" r="0.5000" /> 
<circle cx="99.7764" cy="18.8302" r="0.6000" /> 
<circle cx="154.6764" cy="24.3297" r="0.5000" /> 
<circle cx="166.2764" cy="18.8297" r="0.6000" /> 
</g> 
</svg>
