<?xml version="1.0" standalone="no"?>
 <!DOCTYPE svg PUBLIC "-//W3C//DTD SVG 1.1//EN" 
 "http://www.w3.org/Graphics/SVG/1.1/DTD/svg11.dtd"> 
<svg
  xmlns:svg="http://www.w3.org/2000/svg"
  xmlns="http://www.w3.org/2000/svg"
  xmlns:xlink="http://www.w3.org/1999/xlink"
  version="1.1"
  width="254.8890mm" height="101.9048mm" viewBox="0.0000 0.0000 254.8890 101.9048">
<title>SVG Image created as corne-xiao-Edge_Cuts.svg date 2025/01/05 22:24:18 </title>
  <desc>Image generated by PCBNEW </desc>
<g style="fill:#000000; fill-opacity:1.0000;stroke:#000000; stroke-opacity:1.0000;
stroke-linecap:round; stroke-linejoin:round;"
 transform="translate(0 0) scale(1 1)">
</g>
<g style="fill:none; 
stroke:#000000; stroke-width:0.2000; stroke-opacity:1; 
stroke-linecap:round; stroke-linejoin:round;">
<path d="M0.4003 6.4047
L39.4472 6.4047
" />
<path d="M39.4472 9.9359
L50.6345 9.9359
" />
<path d="M69.6347 9.7329
L73.1815 9.7329
" />
<path d="M45.9128 67.3413
L56.4559 81.7985
" />
<path d="M56.8094 81.9448
L93.4799 86.7151
" />
<path d="M108.4285,95.1058 C109.0636,95.5338 109.9255,95.3660 110.3535,94.7309" />
<path d="M110.3566 94.7263
L123.5827 71.7939
" />
<path d="M86.1631,11.7329 C86.1632,12.0090 86.3871,12.2328 86.6632,12.2328" />
<path d="M86.1631,10.2328 C86.1630,9.9567 85.9393,9.7330 85.6632,9.7329" />
<path d="M69.1346,9.2328 C69.1345,9.5089 69.3583,9.7328 69.6345,9.7329" />
<path d="M69.1346,7.9828 C69.1347,7.7067 68.9109,7.4828 68.6347,7.4827" />
<path d="M51.6345,7.4827 C51.3584,7.4828 51.1346,7.7067 51.1347,7.9828" />
<path d="M50.6345,9.9359 C50.9107,9.9360 51.1346,9.7122 51.1347,9.4361" />
<path d="M34.2586,9.9359 C33.9826,9.9360 33.7588,10.1598 33.7587,10.4358" />
<path d="M33.2586,14.6860 C33.5347,14.6861 33.7587,14.4623 33.7587,14.1861" />
<path d="M0.6348,14.7172 C0.3586,14.7171 0.1347,14.9409 0.1347,15.2171" />
<path d="M0.1658,66.2798 C0.1659,66.5560 0.3898,66.7798 0.6659,66.7797" />
<path d="M94.1344 86.8447
L108.4285 95.1058
" />
<path d="M85.6632 9.7329
L73.1815 9.7329
" />
<path d="M123.8065,12.6547 C123.8065,12.3786 123.5827,12.1549 123.3066,12.1548" />
<path d="M123.3066 12.1548
L86.6632 12.2328
" />
<path d="M86.1616 11.7303
L86.1616 10.2317
" />
<path d="M123.5821,71.7924 C123.7349,71.5273 123.8133,71.2259 123.8092,70.9199" />
<path d="M56.4559,81.7985 C56.5496,81.8922 56.6768,81.9448 56.8094,81.9448" />
<path d="M94.1344,86.8447 C93.9210,86.7802 93.7018,86.7369 93.4799,86.7151" />
<path d="M215.5565 68.5128
L210.5743 68.5148
" />
<path d="M254.8065 0.2797
L254.8065 6.3891
" />
<path d="M203.1187,7.4358 C203.3948,7.4359 203.6186,7.6598 203.6186,7.9359" />
<path d="M44.1789 68.5617
L44.1718 98.0947
" />
<path d="M168.5901,10.1859 C168.5902,9.9098 168.8140,9.6861 169.0900,9.6860" />
<path d="M254.6186 15.1702
L254.5874 66.2329
" />
<path d="M0.1000 101.8236
L254.5565 101.6547
" />
<path d="M215.2909 9.8890
L215.2909 6.4047
" />
<path d="M221.4946 14.6391
L254.1184 14.6703
" />
<path d="M204.1187,9.8890 C203.8425,9.8891 203.6186,9.6653 203.6186,9.3892" />
<path d="M220.9945 10.3889
L220.9945 14.1392
" />
<path d="M169.0900 9.6860
L177.0409 9.6845
" />
<path d="M220.0873 66.7328
L220.0873 68.4047
" />
<path d="M210.5743 68.5148
L210.5814 98.0478
" />
<path d="M185.1185 9.6860
L181.5717 9.6860
" />
<path d="M181.5717 9.6860
L181.5717 6.3947
" />
<path d="M0.1347 68.4047
L0.1000 101.8236
" />
<path d="M168.5917 11.6834
L168.5917 10.1848
" />
<path d="M185.6186,7.9359 C185.6185,7.6598 185.8423,7.4359 186.1185,7.4358" />
<path d="M220.4946,9.8890 C220.7707,9.8891 220.9944,10.1129 220.9945,10.3889" />
<path d="M33.2586 14.6860
L0.6348 14.7172
" />
<path d="M34.9315 68.4047
L7.0409 68.4047
" />
<path d="M210.7904 6.4047
L210.7904 9.8890
" />
<path d="M0.4003 0.1000
L254.8065 0.2797
" />
<path d="M3.3222 66.7797
L34.9315 66.7797
" />
<path d="M51.6345 7.4827
L68.6347 7.4827
" />
<path d="M0.6659 66.7797
L3.3222 66.7797
" />
<path d="M247.4315 66.7328
L220.0873 66.7328
" />
<path d="M0.1347 15.2171
L0.1658 66.2798
" />
<path d="M44.1718 98.0947
L210.5814 98.0478
" />
<path d="M221.4946,14.6391 C221.2185,14.6392 220.9946,14.4154 220.9945,14.1392" />
<path d="M247.4315 68.4047
L247.4315 66.7328
" />
<path d="M181.5717 6.3947
L210.7904 6.4047
" />
<path d="M208.8404 67.2944
L198.2974 81.7516
" />
<path d="M43.9472 6.4097
L73.1815 6.4047
" />
<path d="M215.5565 66.7328
L209.4623 66.7328
" />
<path d="M203.6186 7.9359
L203.6186 9.3892
" />
<path d="M168.5901,11.6860 C168.5901,11.9621 168.3662,12.1859 168.0900,12.1859" />
<path d="M220.0873 68.4047
L247.4315 68.4047
" />
<path d="M3.3222 68.4047
L0.1347 68.4047
" />
<path d="M254.5874,66.2329 C254.5874,66.5091 254.3635,66.7329 254.0873,66.7328" />
<path d="M130.9467,12.6078 C130.9468,12.3317 131.1705,12.1080 131.4466,12.1079" />
<path d="M34.2586 9.9359
L39.4472 9.9359
" />
<path d="M160.6188,86.7978 C160.8322,86.7333 161.0515,86.6900 161.2734,86.6682" />
<path d="M45.9128 67.3413
L45.2909 66.7797
" />
<path d="M34.9315 66.7797
L45.2909 66.7797
" />
<path d="M203.1187 7.4358
L186.1185 7.4358
" />
<path d="M254.0873 66.7328
L251.9623 66.7328
" />
<path d="M33.7587 10.4358
L33.7587 14.1861
" />
<path d="M123.8065 12.6547
L123.8092 70.9199
" />
<path d="M69.1346 7.9828
L69.1346 9.2328
" />
<path d="M254.1184,14.6703 C254.3946,14.6702 254.6185,14.8940 254.6186,15.1702" />
<path d="M39.4635 68.5605
L44.1789 68.5617
" />
<path d="M215.5565 66.7328
L215.5565 68.5128
" />
<path d="M160.6188 86.7978
L146.3247 95.0589
" />
<path d="M131.4466 12.1079
L168.0900 12.1859
" />
<path d="M146.3247,95.0589 C145.6896,95.4869 144.8278,95.3191 144.3997,94.6840" />
<path d="M177.0409 6.4047
L177.0409 9.6845
" />
<path d="M131.1711,71.7455 C131.0184,71.4804 130.9399,71.1790 130.9440,70.8730" />
<path d="M198.2974,81.7516 C198.2036,81.8453 198.0764,81.8979 197.9438,81.8979" />
<path d="M208.8404 67.2944
L209.4623 66.7328
" />
<path d="M251.9623 66.7328
L251.9623 68.4047
" />
<path d="M144.3966 94.6794
L131.1706 71.7470
" />
<path d="M220.4946 9.8890
L215.2909 9.8890
" />
<path d="M51.1347 7.9828
L51.1347 9.4361
" />
<path d="M185.6186,9.1859 C185.6187,9.4620 185.3949,9.6859 185.1187,9.6860" />
<path d="M254.6186 68.4047
L254.5565 101.6547
" />
<path d="M77.6972 6.4516
L177.0409 6.4047
" />
<path d="M0.4003 0.1000
L0.4003 6.4047
" />
<path d="M215.2909 6.4047
L254.8065 6.3891
" />
<path d="M210.7904 9.8890
L204.1187 9.8890
" />
<path d="M185.6186 7.9359
L185.6186 9.1859
" />
<path d="M130.9467 12.6078
L130.9440 70.8730
" />
<path d="M251.9623 68.4047
L254.6186 68.4047
" />
<path d="M197.9438 81.8979
L161.2734 86.6682
" />
</g>
<g style="fill:none; 
stroke:#000000; stroke-width:0.1000; stroke-opacity:1; 
stroke-linecap:round; stroke-linejoin:round;">
<circle cx="20.1764" cy="26.7047" r="0.5000" /> 
<circle cx="31.7764" cy="21.2047" r="0.6000" /> 
<circle cx="37.1764" cy="21.9547" r="0.5000" /> 
<circle cx="48.7764" cy="16.4547" r="0.6000" /> 
<circle cx="54.1764" cy="19.5799" r="0.5000" /> 
<circle cx="65.7764" cy="14.0799" r="0.6000" /> 
<circle cx="71.1764" cy="21.9556" r="0.5000" /> 
<circle cx="82.7764" cy="16.4556" r="0.6000" /> 
<circle cx="3.1764" cy="43.7047" r="0.5000" /> 
<circle cx="14.7764" cy="38.2047" r="0.6000" /> 
<circle cx="20.1764" cy="43.7047" r="0.5000" /> 
<circle cx="31.7764" cy="38.2047" r="0.6000" /> 
<circle cx="37.1764" cy="38.9547" r="0.5000" /> 
<circle cx="48.7764" cy="33.4547" r="0.6000" /> 
<circle cx="54.1764" cy="36.5796" r="0.5000" /> 
<circle cx="65.7764" cy="31.0796" r="0.6000" /> 
<circle cx="71.1764" cy="38.9552" r="0.5000" /> 
<circle cx="82.7764" cy="33.4552" r="0.6000" /> 
<circle cx="88.1764" cy="41.3298" r="0.5000" /> 
<circle cx="99.7764" cy="35.8298" r="0.6000" /> 
<circle cx="3.1764" cy="60.7047" r="0.5000" /> 
<circle cx="14.7764" cy="55.2047" r="0.6000" /> 
<circle cx="20.1764" cy="60.7047" r="0.5000" /> 
<circle cx="31.7764" cy="55.2047" r="0.6000" /> 
<circle cx="37.1764" cy="55.9547" r="0.5000" /> 
<circle cx="48.7764" cy="50.4547" r="0.6000" /> 
<circle cx="54.1764" cy="53.5797" r="0.5000" /> 
<circle cx="65.7764" cy="48.0797" r="0.6000" /> 
<circle cx="71.1764" cy="55.9547" r="0.5000" /> 
<circle cx="82.7764" cy="50.4547" r="0.6000" /> 
<circle cx="88.1764" cy="58.3297" r="0.5000" /> 
<circle cx="99.7764" cy="52.8297" r="0.6000" /> 
<circle cx="59.6764" cy="75.5797" r="0.5000" /> 
<circle cx="71.2764" cy="70.0797" r="0.6000" /> 
<circle cx="80.1623" cy="76.7348" r="0.5000" /> 
<circle cx="92.7906" cy="74.4245" r="0.6000" /> 
<circle cx="105.7881" cy="89.8026" r="0.5000" /> 
<circle cx="106.8250" cy="77.0067" r="0.6000" /> 
<circle cx="143.0250" cy="79.7567" r="0.5000" /> 
<circle cx="153.5881" cy="87.0526" r="0.6000" /> 
<circle cx="188.6834" cy="53.5747" r="0.5000" /> 
<circle cx="200.2834" cy="48.0747" r="0.6000" /> 
<circle cx="171.6834" cy="55.9497" r="0.5000" /> 
<circle cx="183.2834" cy="50.4497" r="0.6000" /> 
<circle cx="154.6834" cy="58.3247" r="0.5000" /> 
<circle cx="166.2834" cy="52.8247" r="0.6000" /> 
<circle cx="183.1834" cy="75.5747" r="0.5000" /> 
<circle cx="194.7834" cy="70.0747" r="0.6000" /> 
<circle cx="163.0928" cy="79.7321" r="0.5000" /> 
<circle cx="172.8740" cy="71.4172" r="0.6000" /> 
<circle cx="188.6834" cy="19.5747" r="0.5000" /> 
<circle cx="200.2834" cy="14.0747" r="0.6000" /> 
<circle cx="171.6834" cy="21.9497" r="0.5000" /> 
<circle cx="183.2834" cy="16.4497" r="0.6000" /> 
<circle cx="239.6834" cy="43.6997" r="0.5000" /> 
<circle cx="251.2834" cy="38.1997" r="0.6000" /> 
<circle cx="205.6834" cy="21.9497" r="0.5000" /> 
<circle cx="217.2834" cy="16.4497" r="0.6000" /> 
<circle cx="222.6834" cy="43.6997" r="0.5000" /> 
<circle cx="234.2834" cy="38.1997" r="0.6000" /> 
<circle cx="222.6834" cy="60.6997" r="0.5000" /> 
<circle cx="234.2834" cy="55.1997" r="0.6000" /> 
<circle cx="205.6834" cy="55.9497" r="0.5000" /> 
<circle cx="217.2834" cy="50.4497" r="0.6000" /> 
<circle cx="239.6834" cy="26.6997" r="0.5000" /> 
<circle cx="251.2834" cy="21.1997" r="0.6000" /> 
<circle cx="222.6834" cy="26.6997" r="0.5000" /> 
<circle cx="234.2834" cy="21.1997" r="0.6000" /> 
<circle cx="205.6834" cy="38.9497" r="0.5000" /> 
<circle cx="217.2834" cy="33.4497" r="0.6000" /> 
<circle cx="188.6834" cy="36.5747" r="0.5000" /> 
<circle cx="200.2834" cy="31.0747" r="0.6000" /> 
<circle cx="171.6834" cy="38.9497" r="0.5000" /> 
<circle cx="183.2834" cy="33.4497" r="0.6000" /> 
<circle cx="154.6834" cy="41.3247" r="0.5000" /> 
<circle cx="166.2834" cy="35.8247" r="0.6000" /> 
<circle cx="239.6834" cy="60.6997" r="0.5000" /> 
<circle cx="251.2834" cy="55.1997" r="0.6000" /> 
<circle cx="3.1764" cy="26.7047" r="0.5000" /> 
<circle cx="14.7764" cy="21.2047" r="0.6000" /> 
<circle cx="88.1764" cy="24.3302" r="0.5000" /> 
<circle cx="99.7764" cy="18.8302" r="0.6000" /> 
<circle cx="154.6764" cy="24.3297" r="0.5000" /> 
<circle cx="166.2764" cy="18.8297" r="0.6000" /> 
</g>
<g style="fill:none; 
stroke:#000000; stroke-width:0.2000; stroke-opacity:1; 
stroke-linecap:round; stroke-linejoin:round;">
<path d="M0.4003 6.4047
L39.4472 6.4047
" />
<path d="M39.4472 9.9359
L50.6345 9.9359
" />
<path d="M69.6347 9.7329
L73.1815 9.7329
" />
<path d="M45.9128 67.3413
L56.4559 81.7985
" />
<path d="M56.8094 81.9448
L93.4799 86.7151
" />
<path d="M108.4285,95.1058 C109.0636,95.5338 109.9255,95.3660 110.3535,94.7309" />
<path d="M110.3566 94.7263
L123.5827 71.7939
" />
<path d="M86.1631,11.7329 C86.1632,12.0090 86.3871,12.2328 86.6632,12.2328" />
<path d="M86.1631,10.2328 C86.1630,9.9567 85.9393,9.7330 85.6632,9.7329" />
<path d="M69.1346,9.2328 C69.1345,9.5089 69.3583,9.7328 69.6345,9.7329" />
<path d="M69.1346,7.9828 C69.1347,7.7067 68.9109,7.4828 68.6347,7.4827" />
<path d="M51.6345,7.4827 C51.3584,7.4828 51.1346,7.7067 51.1347,7.9828" />
<path d="M50.6345,9.9359 C50.9107,9.9360 51.1346,9.7122 51.1347,9.4361" />
<path d="M34.2586,9.9359 C33.9826,9.9360 33.7588,10.1598 33.7587,10.4358" />
<path d="M33.2586,14.6860 C33.5347,14.6861 33.7587,14.4623 33.7587,14.1861" />
<path d="M0.6348,14.7172 C0.3586,14.7171 0.1347,14.9409 0.1347,15.2171" />
<path d="M0.1658,66.2798 C0.1659,66.5560 0.3898,66.7798 0.6659,66.7797" />
<path d="M94.1344 86.8447
L108.4285 95.1058
" />
<path d="M85.6632 9.7329
L73.1815 9.7329
" />
<path d="M123.8065,12.6547 C123.8065,12.3786 123.5827,12.1549 123.3066,12.1548" />
<path d="M123.3066 12.1548
L86.6632 12.2328
" />
<path d="M86.1616 11.7303
L86.1616 10.2317
" />
<path d="M123.5821,71.7924 C123.7349,71.5273 123.8133,71.2259 123.8092,70.9199" />
<path d="M56.4559,81.7985 C56.5496,81.8922 56.6768,81.9448 56.8094,81.9448" />
<path d="M94.1344,86.8447 C93.9210,86.7802 93.7018,86.7369 93.4799,86.7151" />
<path d="M215.5565 68.5128
L210.5743 68.5148
" />
<path d="M254.8065 0.2797
L254.8065 6.3891
" />
<path d="M203.1187,7.4358 C203.3948,7.4359 203.6186,7.6598 203.6186,7.9359" />
<path d="M44.1789 68.5617
L44.1718 98.0947
" />
<path d="M168.5901,10.1859 C168.5902,9.9098 168.8140,9.6861 169.0900,9.6860" />
<path d="M254.6186 15.1702
L254.5874 66.2329
" />
<path d="M0.1000 101.8236
L254.5565 101.6547
" />
<path d="M215.2909 9.8890
L215.2909 6.4047
" />
<path d="M221.4946 14.6391
L254.1184 14.6703
" />
<path d="M204.1187,9.8890 C203.8425,9.8891 203.6186,9.6653 203.6186,9.3892" />
<path d="M220.9945 10.3889
L220.9945 14.1392
" />
<path d="M169.0900 9.6860
L177.0409 9.6845
" />
<path d="M220.0873 66.7328
L220.0873 68.4047
" />
<path d="M210.5743 68.5148
L210.5814 98.0478
" />
<path d="M185.1185 9.6860
L181.5717 9.6860
" />
<path d="M181.5717 9.6860
L181.5717 6.3947
" />
<path d="M0.1347 68.4047
L0.1000 101.8236
" />
<path d="M168.5917 11.6834
L168.5917 10.1848
" />
<path d="M185.6186,7.9359 C185.6185,7.6598 185.8423,7.4359 186.1185,7.4358" />
<path d="M220.4946,9.8890 C220.7707,9.8891 220.9944,10.1129 220.9945,10.3889" />
<path d="M33.2586 14.6860
L0.6348 14.7172
" />
<path d="M34.9315 68.4047
L7.0409 68.4047
" />
<path d="M210.7904 6.4047
L210.7904 9.8890
" />
<path d="M0.4003 0.1000
L254.8065 0.2797
" />
<path d="M3.3222 66.7797
L34.9315 66.7797
" />
<path d="M51.6345 7.4827
L68.6347 7.4827
" />
<path d="M0.6659 66.7797
L3.3222 66.7797
" />
<path d="M247.4315 66.7328
L220.0873 66.7328
" />
<path d="M0.1347 15.2171
L0.1658 66.2798
" />
<path d="M44.1718 98.0947
L210.5814 98.0478
" />
<path d="M221.4946,14.6391 C221.2185,14.6392 220.9946,14.4154 220.9945,14.1392" />
<path d="M247.4315 68.4047
L247.4315 66.7328
" />
<path d="M181.5717 6.3947
L210.7904 6.4047
" />
<path d="M208.8404 67.2944
L198.2974 81.7516
" />
<path d="M43.9472 6.4097
L73.1815 6.4047
" />
<path d="M215.5565 66.7328
L209.4623 66.7328
" />
<path d="M203.6186 7.9359
L203.6186 9.3892
" />
<path d="M168.5901,11.6860 C168.5901,11.9621 168.3662,12.1859 168.0900,12.1859" />
<path d="M220.0873 68.4047
L247.4315 68.4047
" />
<path d="M3.3222 68.4047
L0.1347 68.4047
" />
<path d="M254.5874,66.2329 C254.5874,66.5091 254.3635,66.7329 254.0873,66.7328" />
<path d="M130.9467,12.6078 C130.9468,12.3317 131.1705,12.1080 131.4466,12.1079" />
<path d="M34.2586 9.9359
L39.4472 9.9359
" />
<path d="M160.6188,86.7978 C160.8322,86.7333 161.0515,86.6900 161.2734,86.6682" />
<path d="M45.9128 67.3413
L45.2909 66.7797
" />
<path d="M34.9315 66.7797
L45.2909 66.7797
" />
<path d="M203.1187 7.4358
L186.1185 7.4358
" />
<path d="M254.0873 66.7328
L251.9623 66.7328
" />
<path d="M33.7587 10.4358
L33.7587 14.1861
" />
<path d="M123.8065 12.6547
L123.8092 70.9199
" />
<path d="M69.1346 7.9828
L69.1346 9.2328
" />
<path d="M254.1184,14.6703 C254.3946,14.6702 254.6185,14.8940 254.6186,15.1702" />
<path d="M39.4635 68.5605
L44.1789 68.5617
" />
<path d="M215.5565 66.7328
L215.5565 68.5128
" />
<path d="M160.6188 86.7978
L146.3247 95.0589
" />
<path d="M131.4466 12.1079
L168.0900 12.1859
" />
<path d="M146.3247,95.0589 C145.6896,95.4869 144.8278,95.3191 144.3997,94.6840" />
<path d="M177.0409 6.4047
L177.0409 9.6845
" />
<path d="M131.1711,71.7455 C131.0184,71.4804 130.9399,71.1790 130.9440,70.8730" />
<path d="M198.2974,81.7516 C198.2036,81.8453 198.0764,81.8979 197.9438,81.8979" />
<path d="M208.8404 67.2944
L209.4623 66.7328
" />
<path d="M251.9623 66.7328
L251.9623 68.4047
" />
<path d="M144.3966 94.6794
L131.1706 71.7470
" />
<path d="M220.4946 9.8890
L215.2909 9.8890
" />
<path d="M51.1347 7.9828
L51.1347 9.4361
" />
<path d="M185.6186,9.1859 C185.6187,9.4620 185.3949,9.6859 185.1187,9.6860" />
<path d="M254.6186 68.4047
L254.5565 101.6547
" />
<path d="M77.6972 6.4516
L177.0409 6.4047
" />
<path d="M0.4003 0.1000
L0.4003 6.4047
" />
<path d="M215.2909 6.4047
L254.8065 6.3891
" />
<path d="M210.7904 9.8890
L204.1187 9.8890
" />
<path d="M185.6186 7.9359
L185.6186 9.1859
" />
<path d="M130.9467 12.6078
L130.9440 70.8730
" />
<path d="M251.9623 68.4047
L254.6186 68.4047
" />
<path d="M197.9438 81.8979
L161.2734 86.6682
" />
</g>
<g style="fill:none; 
stroke:#000000; stroke-width:0.1000; stroke-opacity:1; 
stroke-linecap:round; stroke-linejoin:round;">
<circle cx="20.1764" cy="26.7047" r="0.5000" /> 
<circle cx="31.7764" cy="21.2047" r="0.6000" /> 
<circle cx="37.1764" cy="21.9547" r="0.5000" /> 
<circle cx="48.7764" cy="16.4547" r="0.6000" /> 
<circle cx="54.1764" cy="19.5799" r="0.5000" /> 
<circle cx="65.7764" cy="14.0799" r="0.6000" /> 
<circle cx="71.1764" cy="21.9556" r="0.5000" /> 
<circle cx="82.7764" cy="16.4556" r="0.6000" /> 
<circle cx="3.1764" cy="43.7047" r="0.5000" /> 
<circle cx="14.7764" cy="38.2047" r="0.6000" /> 
<circle cx="20.1764" cy="43.7047" r="0.5000" /> 
<circle cx="31.7764" cy="38.2047" r="0.6000" /> 
<circle cx="37.1764" cy="38.9547" r="0.5000" /> 
<circle cx="48.7764" cy="33.4547" r="0.6000" /> 
<circle cx="54.1764" cy="36.5796" r="0.5000" /> 
<circle cx="65.7764" cy="31.0796" r="0.6000" /> 
<circle cx="71.1764" cy="38.9552" r="0.5000" /> 
<circle cx="82.7764" cy="33.4552" r="0.6000" /> 
<circle cx="88.1764" cy="41.3298" r="0.5000" /> 
<circle cx="99.7764" cy="35.8298" r="0.6000" /> 
<circle cx="3.1764" cy="60.7047" r="0.5000" /> 
<circle cx="14.7764" cy="55.2047" r="0.6000" /> 
<circle cx="20.1764" cy="60.7047" r="0.5000" /> 
<circle cx="31.7764" cy="55.2047" r="0.6000" /> 
<circle cx="37.1764" cy="55.9547" r="0.5000" /> 
<circle cx="48.7764" cy="50.4547" r="0.6000" /> 
<circle cx="54.1764" cy="53.5797" r="0.5000" /> 
<circle cx="65.7764" cy="48.0797" r="0.6000" /> 
<circle cx="71.1764" cy="55.9547" r="0.5000" /> 
<circle cx="82.7764" cy="50.4547" r="0.6000" /> 
<circle cx="88.1764" cy="58.3297" r="0.5000" /> 
<circle cx="99.7764" cy="52.8297" r="0.6000" /> 
<circle cx="59.6764" cy="75.5797" r="0.5000" /> 
<circle cx="71.2764" cy="70.0797" r="0.6000" /> 
<circle cx="80.1623" cy="76.7348" r="0.5000" /> 
<circle cx="92.7906" cy="74.4245" r="0.6000" /> 
<circle cx="105.7881" cy="89.8026" r="0.5000" /> 
<circle cx="106.8250" cy="77.0067" r="0.6000" /> 
<circle cx="143.0250" cy="79.7567" r="0.5000" /> 
<circle cx="153.5881" cy="87.0526" r="0.6000" /> 
<circle cx="188.6834" cy="53.5747" r="0.5000" /> 
<circle cx="200.2834" cy="48.0747" r="0.6000" /> 
<circle cx="171.6834" cy="55.9497" r="0.5000" /> 
<circle cx="183.2834" cy="50.4497" r="0.6000" /> 
<circle cx="154.6834" cy="58.3247" r="0.5000" /> 
<circle cx="166.2834" cy="52.8247" r="0.6000" /> 
<circle cx="183.1834" cy="75.5747" r="0.5000" /> 
<circle cx="194.7834" cy="70.0747" r="0.6000" /> 
<circle cx="163.0928" cy="79.7321" r="0.5000" /> 
<circle cx="172.8740" cy="71.4172" r="0.6000" /> 
<circle cx="188.6834" cy="19.5747" r="0.5000" /> 
<circle cx="200.2834" cy="14.0747" r="0.6000" /> 
<circle cx="171.6834" cy="21.9497" r="0.5000" /> 
<circle cx="183.2834" cy="16.4497" r="0.6000" /> 
<circle cx="239.6834" cy="43.6997" r="0.5000" /> 
<circle cx="251.2834" cy="38.1997" r="0.6000" /> 
<circle cx="205.6834" cy="21.9497" r="0.5000" /> 
<circle cx="217.2834" cy="16.4497" r="0.6000" /> 
<circle cx="222.6834" cy="43.6997" r="0.5000" /> 
<circle cx="234.2834" cy="38.1997" r="0.6000" /> 
<circle cx="222.6834" cy="60.6997" r="0.5000" /> 
<circle cx="234.2834" cy="55.1997" r="0.6000" /> 
<circle cx="205.6834" cy="55.9497" r="0.5000" /> 
<circle cx="217.2834" cy="50.4497" r="0.6000" /> 
<circle cx="239.6834" cy="26.6997" r="0.5000" /> 
<circle cx="251.2834" cy="21.1997" r="0.6000" /> 
<circle cx="222.6834" cy="26.6997" r="0.5000" /> 
<circle cx="234.2834" cy="21.1997" r="0.6000" /> 
<circle cx="205.6834" cy="38.9497" r="0.5000" /> 
<circle cx="217.2834" cy="33.4497" r="0.6000" /> 
<circle cx="188.6834" cy="36.5747" r="0.5000" /> 
<circle cx="200.2834" cy="31.0747" r="0.6000" /> 
<circle cx="171.6834" cy="38.9497" r="0.5000" /> 
<circle cx="183.2834" cy="33.4497" r="0.6000" /> 
<circle cx="154.6834" cy="41.3247" r="0.5000" /> 
<circle cx="166.2834" cy="35.8247" r="0.6000" /> 
<circle cx="239.6834" cy="60.6997" r="0.5000" /> 
<circle cx="251.2834" cy="55.1997" r="0.6000" /> 
<circle cx="3.1764" cy="26.7047" r="0.5000" /> 
<circle cx="14.7764" cy="21.2047" r="0.6000" /> 
<circle cx="88.1764" cy="24.3302" r="0.5000" /> 
<circle cx="99.7764" cy="18.8302" r="0.6000" /> 
<circle cx="154.6764" cy="24.3297" r="0.5000" /> 
<circle cx="166.2764" cy="18.8297" r="0.6000" /> 
</g> 
</svg>
