G04 #@! TF.GenerationSoftware,KiCad,Pcbnew,8.0.7*
G04 #@! TF.CreationDate,2025-01-01T00:18:55+01:00*
G04 #@! TF.ProjectId,corne-xiao,636f726e-652d-4786-9961-6f2e6b696361,1.1*
G04 #@! TF.SameCoordinates,Original*
G04 #@! TF.FileFunction,Profile,NP*
%FSLAX46Y46*%
G04 Gerber Fmt 4.6, Leading zero omitted, Abs format (unit mm)*
G04 Created by KiCad (PCBNEW 8.0.7) date 2025-01-01 00:18:55*
%MOMM*%
%LPD*%
G01*
G04 APERTURE LIST*
G04 #@! TA.AperFunction,Profile*
%ADD10C,0.200000*%
G04 #@! TD*
%ADD11C,0.200000*%
G04 #@! TA.AperFunction,Profile*
%ADD12C,0.100000*%
G04 #@! TD*
G04 APERTURE END LIST*
D10*
X277250000Y-16375000D02*
X277250000Y-22484387D01*
X238546412Y-25984350D02*
X238546412Y-22500000D01*
X233233912Y-22500000D02*
X233233912Y-25984350D01*
X204015162Y-25781317D02*
X204015162Y-22490000D01*
X198702662Y-22500000D02*
X198702662Y-25779780D01*
X100937500Y-25826680D02*
X100937500Y-22546900D01*
X95625000Y-22500000D02*
X95625000Y-25828217D01*
X66406250Y-26031250D02*
X66390625Y-22505000D01*
X61093750Y-22500000D02*
X61093750Y-26031250D01*
X22843750Y-16195312D02*
X22843750Y-22500000D01*
X22543468Y-117918947D02*
X277000000Y-117750000D01*
X238546412Y-22500000D02*
X277250000Y-22484387D01*
X204015162Y-22490000D02*
X233233912Y-22500000D01*
X100937500Y-22546900D02*
X198702662Y-22500000D01*
X277062037Y-84500000D02*
X277000000Y-117750000D01*
X231283862Y-83389723D02*
X231905787Y-82828100D01*
X237749537Y-82828100D02*
X231905787Y-82828100D01*
X242530787Y-82828100D02*
X242530787Y-84500000D01*
X270155787Y-82828100D02*
X242530787Y-82828100D01*
X276530787Y-82828100D02*
X274405787Y-82828100D01*
X242530787Y-84500000D02*
X270155787Y-84500000D01*
X274405787Y-82828100D02*
X274405787Y-84500000D01*
X243938090Y-30734399D02*
X276561910Y-30765600D01*
X277062037Y-31265468D02*
X277030909Y-82328227D01*
X153390162Y-28703100D02*
X153387467Y-86968322D01*
X274405787Y-84500000D02*
X277062037Y-84500000D01*
X270155787Y-84500000D02*
X270155787Y-82828100D01*
X237749537Y-82828100D02*
X237767767Y-84608094D01*
X242938095Y-25984350D02*
X238546412Y-25984350D01*
X237767767Y-84608094D02*
X233017767Y-84610076D01*
X208062087Y-24031259D02*
X208062087Y-25281191D01*
X225562163Y-23531133D02*
X208561960Y-23531133D01*
X243437968Y-26484224D02*
X243437968Y-30234525D01*
X226062037Y-24031259D02*
X226062037Y-25484477D01*
X191035132Y-27778758D02*
X191035132Y-26280160D01*
D11*
X220740838Y-97846883D02*
X220567283Y-97959713D01*
X220387273Y-97993181D01*
D10*
X191533477Y-25781303D02*
X198702662Y-25779780D01*
D11*
X183062267Y-102893094D02*
X183263961Y-102838866D01*
X183468481Y-102797089D01*
X183675250Y-102767878D01*
X183716823Y-102763554D01*
X153390162Y-28703100D02*
X153439487Y-28486406D01*
X153572105Y-28317408D01*
X153765130Y-28218987D01*
X153890045Y-28203227D01*
D10*
X183062267Y-102893094D02*
X168768184Y-111154178D01*
D11*
X276561910Y-30765600D02*
X276778692Y-30814849D01*
X276947780Y-30947453D01*
X277046263Y-31140515D01*
X277062037Y-31265468D01*
D10*
X233017767Y-84610076D02*
X233024899Y-114143094D01*
D11*
X277030909Y-82328227D02*
X276981549Y-82544986D01*
X276848859Y-82714005D01*
X276655748Y-82812390D01*
X276530787Y-82828100D01*
D10*
X153890045Y-28203227D02*
X190533482Y-28281172D01*
D11*
X153614558Y-87840811D02*
X153525075Y-87661942D01*
X153449593Y-87447325D01*
X153403419Y-87224683D01*
X153387325Y-86996990D01*
X153387467Y-86968322D01*
X243938090Y-30734399D02*
X243721306Y-30685147D01*
X243552221Y-30552541D01*
X243453740Y-30359478D01*
X243437968Y-30234525D01*
X242938095Y-25984350D02*
X243154787Y-26033678D01*
X243323784Y-26166291D01*
X243422206Y-26359310D01*
X243437968Y-26484224D01*
D10*
X220387273Y-97993181D02*
X183716823Y-102763554D01*
D11*
X226562158Y-25984350D02*
X226345374Y-25935099D01*
X226176289Y-25802493D01*
X226077809Y-25609429D01*
X226062037Y-25484477D01*
X225562163Y-23531133D02*
X225778922Y-23580492D01*
X225947942Y-23713181D01*
X226046327Y-23906293D01*
X226062037Y-24031254D01*
X208062087Y-24031259D02*
X208111336Y-23814476D01*
X208243941Y-23645389D01*
X208437005Y-23546905D01*
X208561960Y-23531133D01*
X208062087Y-25281191D02*
X208012836Y-25497973D01*
X207880231Y-25667060D01*
X207687167Y-25765544D01*
X207562213Y-25781317D01*
X191033604Y-27781298D02*
X190984244Y-27998055D01*
X190851556Y-28167075D01*
X190658444Y-28265461D01*
X190533482Y-28281172D01*
D10*
X207561965Y-25781317D02*
X204015162Y-25781317D01*
X166840067Y-110774706D02*
X153614043Y-87842339D01*
D11*
X168768184Y-111154178D02*
X168584127Y-111258966D01*
X168391379Y-111332965D01*
X168193204Y-111376811D01*
X167992868Y-111391141D01*
X167728037Y-111365432D01*
X167472910Y-111289888D01*
X167292589Y-111201432D01*
X167125348Y-111086428D01*
X166974450Y-110945512D01*
X166843163Y-110779320D01*
D10*
X231283862Y-83389723D02*
X220740838Y-97846883D01*
D11*
X191033604Y-26281177D02*
X191082931Y-26064484D01*
X191215544Y-25895487D01*
X191408563Y-25797065D01*
X191533477Y-25781303D01*
D10*
X233233912Y-25984350D02*
X226562158Y-25984350D01*
X56702067Y-26031250D02*
X61093750Y-26031250D01*
X146250000Y-28750000D02*
X146252695Y-87015222D01*
X22578125Y-84500000D02*
X22543468Y-117918947D01*
X25234375Y-84500000D02*
X22578125Y-84500000D01*
X68356300Y-83436623D02*
X67734375Y-82875000D01*
X61890625Y-82875000D02*
X61906978Y-84655768D01*
X61890625Y-82875000D02*
X67734375Y-82875000D01*
X57109375Y-84500000D02*
X29484375Y-84500000D01*
X57109375Y-82875000D02*
X57109375Y-84500000D01*
X29484375Y-82875000D02*
X57109375Y-82875000D01*
X29484375Y-84500000D02*
X29484375Y-82875000D01*
X25234375Y-82875000D02*
X25234375Y-84500000D01*
X23109375Y-82875000D02*
X25234375Y-82875000D01*
X22578125Y-31312368D02*
X22609253Y-82375127D01*
X55702072Y-30781299D02*
X23078252Y-30812500D01*
X22843750Y-22500000D02*
X61093750Y-22500000D01*
X66406250Y-26031250D02*
X73078004Y-26031250D01*
X92078197Y-25828217D02*
X95625000Y-25828217D01*
X68356300Y-83436623D02*
X78899324Y-97893783D01*
X79252889Y-98040081D02*
X115923339Y-102810454D01*
D11*
X130871978Y-111201078D02*
X131056034Y-111305866D01*
X131248782Y-111379865D01*
X131446957Y-111423711D01*
X131647293Y-111438041D01*
X131912124Y-111412332D01*
X132167251Y-111336788D01*
X132347572Y-111248332D01*
X132514813Y-111133328D01*
X132665711Y-110992412D01*
X132796999Y-110826220D01*
D10*
X132800095Y-110821606D02*
X146026119Y-87889239D01*
D11*
X108606558Y-27828198D02*
X108655917Y-28044955D01*
X108788605Y-28213975D01*
X108981717Y-28312361D01*
X109106680Y-28328072D01*
X108606558Y-26328077D02*
X108557230Y-26111384D01*
X108424617Y-25942387D01*
X108231598Y-25843965D01*
X108106685Y-25828203D01*
X91578075Y-25328091D02*
X91627325Y-25544873D01*
X91759930Y-25713960D01*
X91952994Y-25812444D01*
X92077949Y-25828217D01*
X91578075Y-24078159D02*
X91528825Y-23861376D01*
X91396220Y-23692289D01*
X91203156Y-23593805D01*
X91078202Y-23578033D01*
X74077999Y-23578033D02*
X73861239Y-23627392D01*
X73692219Y-23760081D01*
X73593834Y-23953193D01*
X73578125Y-24078154D01*
X73078004Y-26031250D02*
X73294787Y-25981999D01*
X73463872Y-25849393D01*
X73562352Y-25656329D01*
X73578125Y-25531377D01*
X56702067Y-26031250D02*
X56485374Y-26080578D01*
X56316377Y-26213191D01*
X56217955Y-26406210D01*
X56202194Y-26531124D01*
X55702072Y-30781299D02*
X55918855Y-30732047D01*
X56087940Y-30599441D01*
X56186421Y-30406378D01*
X56202194Y-30281425D01*
X23078252Y-30812500D02*
X22861469Y-30861749D01*
X22692381Y-30994353D01*
X22593898Y-31187415D01*
X22578125Y-31312368D01*
X22609253Y-82375127D02*
X22658612Y-82591886D01*
X22791302Y-82760905D01*
X22984413Y-82859290D01*
X23109375Y-82875000D01*
D10*
X116577895Y-102939994D02*
X130871978Y-111201078D01*
X108106685Y-25828203D02*
X100937500Y-25826680D01*
D11*
X146250000Y-28750000D02*
X146200674Y-28533306D01*
X146068056Y-28364308D01*
X145875031Y-28265887D01*
X145750117Y-28250127D01*
D10*
X145750117Y-28250127D02*
X109106680Y-28328072D01*
X108605030Y-27825658D02*
X108605030Y-26327060D01*
D11*
X146025604Y-87887711D02*
X146115086Y-87708842D01*
X146190568Y-87494225D01*
X146236742Y-87271583D01*
X146252836Y-87043890D01*
X146252695Y-87015222D01*
X78899324Y-97893783D02*
X79072878Y-98006613D01*
X79252889Y-98040081D01*
X116577895Y-102939994D02*
X116376200Y-102885766D01*
X116171680Y-102843989D01*
X115964911Y-102814778D01*
X115923339Y-102810454D01*
D10*
X66622395Y-84656976D02*
X66615263Y-114189994D01*
X22843750Y-16195312D02*
X277250000Y-16375000D01*
X74077999Y-23578033D02*
X91078202Y-23578033D01*
X66615263Y-114189994D02*
X233024899Y-114143094D01*
X66390625Y-22505000D02*
X95625000Y-22500000D01*
X56202194Y-26531124D02*
X56202194Y-30281425D01*
X91578075Y-24078159D02*
X91578075Y-25328091D01*
X61906978Y-84655768D02*
X66622395Y-84656976D01*
X73578125Y-24078159D02*
X73578125Y-25531377D01*
D12*
X43119900Y-42800000D02*
G75*
G02*
X42119900Y-42800000I-500000J0D01*
G01*
X42119900Y-42800000D02*
G75*
G02*
X43119900Y-42800000I500000J0D01*
G01*
X54819900Y-37300000D02*
G75*
G02*
X53619900Y-37300000I-600000J0D01*
G01*
X53619900Y-37300000D02*
G75*
G02*
X54819900Y-37300000I600000J0D01*
G01*
X60119900Y-38050000D02*
G75*
G02*
X59119900Y-38050000I-500000J0D01*
G01*
X59119900Y-38050000D02*
G75*
G02*
X60119900Y-38050000I500000J0D01*
G01*
X71819900Y-32550000D02*
G75*
G02*
X70619900Y-32550000I-600000J0D01*
G01*
X70619900Y-32550000D02*
G75*
G02*
X71819900Y-32550000I600000J0D01*
G01*
X77119900Y-35675200D02*
G75*
G02*
X76119900Y-35675200I-500000J0D01*
G01*
X76119900Y-35675200D02*
G75*
G02*
X77119900Y-35675200I500000J0D01*
G01*
X88819900Y-30175200D02*
G75*
G02*
X87619900Y-30175200I-600000J0D01*
G01*
X87619900Y-30175200D02*
G75*
G02*
X88819900Y-30175200I600000J0D01*
G01*
X94119900Y-38050900D02*
G75*
G02*
X93119900Y-38050900I-500000J0D01*
G01*
X93119900Y-38050900D02*
G75*
G02*
X94119900Y-38050900I500000J0D01*
G01*
X105819900Y-32550900D02*
G75*
G02*
X104619900Y-32550900I-600000J0D01*
G01*
X104619900Y-32550900D02*
G75*
G02*
X105819900Y-32550900I600000J0D01*
G01*
X37819900Y-54300000D02*
G75*
G02*
X36619900Y-54300000I-600000J0D01*
G01*
X36619900Y-54300000D02*
G75*
G02*
X37819900Y-54300000I600000J0D01*
G01*
X26119900Y-59800000D02*
G75*
G02*
X25119900Y-59800000I-500000J0D01*
G01*
X25119900Y-59800000D02*
G75*
G02*
X26119900Y-59800000I500000J0D01*
G01*
X43119900Y-59800000D02*
G75*
G02*
X42119900Y-59800000I-500000J0D01*
G01*
X42119900Y-59800000D02*
G75*
G02*
X43119900Y-59800000I500000J0D01*
G01*
X54819900Y-54300000D02*
G75*
G02*
X53619900Y-54300000I-600000J0D01*
G01*
X53619900Y-54300000D02*
G75*
G02*
X54819900Y-54300000I600000J0D01*
G01*
X60119900Y-55050000D02*
G75*
G02*
X59119900Y-55050000I-500000J0D01*
G01*
X59119900Y-55050000D02*
G75*
G02*
X60119900Y-55050000I500000J0D01*
G01*
X71819900Y-49550000D02*
G75*
G02*
X70619900Y-49550000I-600000J0D01*
G01*
X70619900Y-49550000D02*
G75*
G02*
X71819900Y-49550000I600000J0D01*
G01*
X77119900Y-52674900D02*
G75*
G02*
X76119900Y-52674900I-500000J0D01*
G01*
X76119900Y-52674900D02*
G75*
G02*
X77119900Y-52674900I500000J0D01*
G01*
X88819900Y-47174900D02*
G75*
G02*
X87619900Y-47174900I-600000J0D01*
G01*
X87619900Y-47174900D02*
G75*
G02*
X88819900Y-47174900I600000J0D01*
G01*
X105819900Y-49550500D02*
G75*
G02*
X104619900Y-49550500I-600000J0D01*
G01*
X104619900Y-49550500D02*
G75*
G02*
X105819900Y-49550500I600000J0D01*
G01*
X94119900Y-55050500D02*
G75*
G02*
X93119900Y-55050500I-500000J0D01*
G01*
X93119900Y-55050500D02*
G75*
G02*
X94119900Y-55050500I500000J0D01*
G01*
X111119900Y-57425100D02*
G75*
G02*
X110119900Y-57425100I-500000J0D01*
G01*
X110119900Y-57425100D02*
G75*
G02*
X111119900Y-57425100I500000J0D01*
G01*
X122819900Y-51925100D02*
G75*
G02*
X121619900Y-51925100I-600000J0D01*
G01*
X121619900Y-51925100D02*
G75*
G02*
X122819900Y-51925100I600000J0D01*
G01*
X37819900Y-71300000D02*
G75*
G02*
X36619900Y-71300000I-600000J0D01*
G01*
X36619900Y-71300000D02*
G75*
G02*
X37819900Y-71300000I600000J0D01*
G01*
X26119900Y-76800000D02*
G75*
G02*
X25119900Y-76800000I-500000J0D01*
G01*
X25119900Y-76800000D02*
G75*
G02*
X26119900Y-76800000I500000J0D01*
G01*
X43119900Y-76800000D02*
G75*
G02*
X42119900Y-76800000I-500000J0D01*
G01*
X42119900Y-76800000D02*
G75*
G02*
X43119900Y-76800000I500000J0D01*
G01*
X54819900Y-71300000D02*
G75*
G02*
X53619900Y-71300000I-600000J0D01*
G01*
X53619900Y-71300000D02*
G75*
G02*
X54819900Y-71300000I600000J0D01*
G01*
X60119900Y-72050000D02*
G75*
G02*
X59119900Y-72050000I-500000J0D01*
G01*
X59119900Y-72050000D02*
G75*
G02*
X60119900Y-72050000I500000J0D01*
G01*
X71819900Y-66550000D02*
G75*
G02*
X70619900Y-66550000I-600000J0D01*
G01*
X70619900Y-66550000D02*
G75*
G02*
X71819900Y-66550000I600000J0D01*
G01*
X77119900Y-69675000D02*
G75*
G02*
X76119900Y-69675000I-500000J0D01*
G01*
X76119900Y-69675000D02*
G75*
G02*
X77119900Y-69675000I500000J0D01*
G01*
X88819900Y-64175000D02*
G75*
G02*
X87619900Y-64175000I-600000J0D01*
G01*
X87619900Y-64175000D02*
G75*
G02*
X88819900Y-64175000I600000J0D01*
G01*
X94119900Y-72050000D02*
G75*
G02*
X93119900Y-72050000I-500000J0D01*
G01*
X93119900Y-72050000D02*
G75*
G02*
X94119900Y-72050000I500000J0D01*
G01*
X105819900Y-66550000D02*
G75*
G02*
X104619900Y-66550000I-600000J0D01*
G01*
X104619900Y-66550000D02*
G75*
G02*
X105819900Y-66550000I600000J0D01*
G01*
X111119900Y-74425000D02*
G75*
G02*
X110119900Y-74425000I-500000J0D01*
G01*
X110119900Y-74425000D02*
G75*
G02*
X111119900Y-74425000I500000J0D01*
G01*
X122819900Y-68925000D02*
G75*
G02*
X121619900Y-68925000I-600000J0D01*
G01*
X121619900Y-68925000D02*
G75*
G02*
X122819900Y-68925000I600000J0D01*
G01*
X82619900Y-91675000D02*
G75*
G02*
X81619900Y-91675000I-500000J0D01*
G01*
X81619900Y-91675000D02*
G75*
G02*
X82619900Y-91675000I500000J0D01*
G01*
X94319900Y-86175000D02*
G75*
G02*
X93119900Y-86175000I-600000J0D01*
G01*
X93119900Y-86175000D02*
G75*
G02*
X94319900Y-86175000I600000J0D01*
G01*
X103105778Y-92830146D02*
G75*
G02*
X102105778Y-92830146I-500000J0D01*
G01*
X102105778Y-92830146D02*
G75*
G02*
X103105778Y-92830146I500000J0D01*
G01*
X115834023Y-90519854D02*
G75*
G02*
X114634021Y-90519854I-600001J0D01*
G01*
X114634021Y-90519854D02*
G75*
G02*
X115834023Y-90519854I600001J0D01*
G01*
X128731569Y-105897947D02*
G75*
G02*
X127731571Y-105897947I-499999J0D01*
G01*
X127731571Y-105897947D02*
G75*
G02*
X128731569Y-105897947I499999J0D01*
G01*
X129868431Y-93102053D02*
G75*
G02*
X128668429Y-93102053I-600001J0D01*
G01*
X128668429Y-93102053D02*
G75*
G02*
X129868431Y-93102053I600001J0D01*
G01*
X165968429Y-95852053D02*
G75*
G02*
X164968431Y-95852053I-499999J0D01*
G01*
X164968431Y-95852053D02*
G75*
G02*
X165968429Y-95852053I499999J0D01*
G01*
X176631571Y-103147947D02*
G75*
G02*
X175431569Y-103147947I-600001J0D01*
G01*
X175431569Y-103147947D02*
G75*
G02*
X176631571Y-103147947I600001J0D01*
G01*
X223326900Y-64170000D02*
G75*
G02*
X222126900Y-64170000I-600000J0D01*
G01*
X222126900Y-64170000D02*
G75*
G02*
X223326900Y-64170000I600000J0D01*
G01*
X211626900Y-69670000D02*
G75*
G02*
X210626900Y-69670000I-500000J0D01*
G01*
X210626900Y-69670000D02*
G75*
G02*
X211626900Y-69670000I500000J0D01*
G01*
X206326900Y-66545000D02*
G75*
G02*
X205126900Y-66545000I-600000J0D01*
G01*
X205126900Y-66545000D02*
G75*
G02*
X206326900Y-66545000I600000J0D01*
G01*
X194626900Y-72045000D02*
G75*
G02*
X193626900Y-72045000I-500000J0D01*
G01*
X193626900Y-72045000D02*
G75*
G02*
X194626900Y-72045000I500000J0D01*
G01*
X177626900Y-74420000D02*
G75*
G02*
X176626900Y-74420000I-500000J0D01*
G01*
X176626900Y-74420000D02*
G75*
G02*
X177626900Y-74420000I500000J0D01*
G01*
X189326900Y-68920000D02*
G75*
G02*
X188126900Y-68920000I-600000J0D01*
G01*
X188126900Y-68920000D02*
G75*
G02*
X189326900Y-68920000I600000J0D01*
G01*
X206126900Y-91670000D02*
G75*
G02*
X205126900Y-91670000I-500000J0D01*
G01*
X205126900Y-91670000D02*
G75*
G02*
X206126900Y-91670000I500000J0D01*
G01*
X217826900Y-86170000D02*
G75*
G02*
X216626900Y-86170000I-600000J0D01*
G01*
X216626900Y-86170000D02*
G75*
G02*
X217826900Y-86170000I600000J0D01*
G01*
X186036282Y-95827446D02*
G75*
G02*
X185036286Y-95827446I-499998J0D01*
G01*
X185036286Y-95827446D02*
G75*
G02*
X186036282Y-95827446I499998J0D01*
G01*
X195917518Y-87512554D02*
G75*
G02*
X194717514Y-87512554I-600002J0D01*
G01*
X194717514Y-87512554D02*
G75*
G02*
X195917518Y-87512554I600002J0D01*
G01*
X223326900Y-30170000D02*
G75*
G02*
X222126900Y-30170000I-600000J0D01*
G01*
X222126900Y-30170000D02*
G75*
G02*
X223326900Y-30170000I600000J0D01*
G01*
X211626900Y-35670000D02*
G75*
G02*
X210626900Y-35670000I-500000J0D01*
G01*
X210626900Y-35670000D02*
G75*
G02*
X211626900Y-35670000I500000J0D01*
G01*
X206326900Y-32545000D02*
G75*
G02*
X205126900Y-32545000I-600000J0D01*
G01*
X205126900Y-32545000D02*
G75*
G02*
X206326900Y-32545000I600000J0D01*
G01*
X194626900Y-38045000D02*
G75*
G02*
X193626900Y-38045000I-500000J0D01*
G01*
X193626900Y-38045000D02*
G75*
G02*
X194626900Y-38045000I500000J0D01*
G01*
X262626900Y-59795000D02*
G75*
G02*
X261626900Y-59795000I-500000J0D01*
G01*
X261626900Y-59795000D02*
G75*
G02*
X262626900Y-59795000I500000J0D01*
G01*
X274326900Y-54295000D02*
G75*
G02*
X273126900Y-54295000I-600000J0D01*
G01*
X273126900Y-54295000D02*
G75*
G02*
X274326900Y-54295000I600000J0D01*
G01*
X240326900Y-32545000D02*
G75*
G02*
X239126900Y-32545000I-600000J0D01*
G01*
X239126900Y-32545000D02*
G75*
G02*
X240326900Y-32545000I600000J0D01*
G01*
X228626900Y-38045000D02*
G75*
G02*
X227626900Y-38045000I-500000J0D01*
G01*
X227626900Y-38045000D02*
G75*
G02*
X228626900Y-38045000I500000J0D01*
G01*
X245626900Y-59795000D02*
G75*
G02*
X244626900Y-59795000I-500000J0D01*
G01*
X244626900Y-59795000D02*
G75*
G02*
X245626900Y-59795000I500000J0D01*
G01*
X257326900Y-54295000D02*
G75*
G02*
X256126900Y-54295000I-600000J0D01*
G01*
X256126900Y-54295000D02*
G75*
G02*
X257326900Y-54295000I600000J0D01*
G01*
X245626900Y-76795000D02*
G75*
G02*
X244626900Y-76795000I-500000J0D01*
G01*
X244626900Y-76795000D02*
G75*
G02*
X245626900Y-76795000I500000J0D01*
G01*
X257326900Y-71295000D02*
G75*
G02*
X256126900Y-71295000I-600000J0D01*
G01*
X256126900Y-71295000D02*
G75*
G02*
X257326900Y-71295000I600000J0D01*
G01*
X228626900Y-72045000D02*
G75*
G02*
X227626900Y-72045000I-500000J0D01*
G01*
X227626900Y-72045000D02*
G75*
G02*
X228626900Y-72045000I500000J0D01*
G01*
X240326900Y-66545000D02*
G75*
G02*
X239126900Y-66545000I-600000J0D01*
G01*
X239126900Y-66545000D02*
G75*
G02*
X240326900Y-66545000I600000J0D01*
G01*
X262626900Y-42795000D02*
G75*
G02*
X261626900Y-42795000I-500000J0D01*
G01*
X261626900Y-42795000D02*
G75*
G02*
X262626900Y-42795000I500000J0D01*
G01*
X274326900Y-37295000D02*
G75*
G02*
X273126900Y-37295000I-600000J0D01*
G01*
X273126900Y-37295000D02*
G75*
G02*
X274326900Y-37295000I600000J0D01*
G01*
X245626900Y-42795000D02*
G75*
G02*
X244626900Y-42795000I-500000J0D01*
G01*
X244626900Y-42795000D02*
G75*
G02*
X245626900Y-42795000I500000J0D01*
G01*
X257326900Y-37295000D02*
G75*
G02*
X256126900Y-37295000I-600000J0D01*
G01*
X256126900Y-37295000D02*
G75*
G02*
X257326900Y-37295000I600000J0D01*
G01*
X240326900Y-49545000D02*
G75*
G02*
X239126900Y-49545000I-600000J0D01*
G01*
X239126900Y-49545000D02*
G75*
G02*
X240326900Y-49545000I600000J0D01*
G01*
X228626900Y-55045000D02*
G75*
G02*
X227626900Y-55045000I-500000J0D01*
G01*
X227626900Y-55045000D02*
G75*
G02*
X228626900Y-55045000I500000J0D01*
G01*
X223326900Y-47170000D02*
G75*
G02*
X222126900Y-47170000I-600000J0D01*
G01*
X222126900Y-47170000D02*
G75*
G02*
X223326900Y-47170000I600000J0D01*
G01*
X211626900Y-52670000D02*
G75*
G02*
X210626900Y-52670000I-500000J0D01*
G01*
X210626900Y-52670000D02*
G75*
G02*
X211626900Y-52670000I500000J0D01*
G01*
X206326900Y-49545000D02*
G75*
G02*
X205126900Y-49545000I-600000J0D01*
G01*
X205126900Y-49545000D02*
G75*
G02*
X206326900Y-49545000I600000J0D01*
G01*
X194626900Y-55045000D02*
G75*
G02*
X193626900Y-55045000I-500000J0D01*
G01*
X193626900Y-55045000D02*
G75*
G02*
X194626900Y-55045000I500000J0D01*
G01*
X189326900Y-51920000D02*
G75*
G02*
X188126900Y-51920000I-600000J0D01*
G01*
X188126900Y-51920000D02*
G75*
G02*
X189326900Y-51920000I600000J0D01*
G01*
X177626900Y-57420000D02*
G75*
G02*
X176626900Y-57420000I-500000J0D01*
G01*
X176626900Y-57420000D02*
G75*
G02*
X177626900Y-57420000I500000J0D01*
G01*
X262626900Y-76795000D02*
G75*
G02*
X261626900Y-76795000I-500000J0D01*
G01*
X261626900Y-76795000D02*
G75*
G02*
X262626900Y-76795000I500000J0D01*
G01*
X274326900Y-71295000D02*
G75*
G02*
X273126900Y-71295000I-600000J0D01*
G01*
X273126900Y-71295000D02*
G75*
G02*
X274326900Y-71295000I600000J0D01*
G01*
X37819900Y-37300000D02*
G75*
G02*
X36619900Y-37300000I-600000J0D01*
G01*
X36619900Y-37300000D02*
G75*
G02*
X37819900Y-37300000I600000J0D01*
G01*
X26119900Y-42800000D02*
G75*
G02*
X25119900Y-42800000I-500000J0D01*
G01*
X25119900Y-42800000D02*
G75*
G02*
X26119900Y-42800000I500000J0D01*
G01*
X122819900Y-34925500D02*
G75*
G02*
X121619900Y-34925500I-600000J0D01*
G01*
X121619900Y-34925500D02*
G75*
G02*
X122819900Y-34925500I600000J0D01*
G01*
X111119900Y-40425500D02*
G75*
G02*
X110119900Y-40425500I-500000J0D01*
G01*
X110119900Y-40425500D02*
G75*
G02*
X111119900Y-40425500I500000J0D01*
G01*
X177619900Y-40425000D02*
G75*
G02*
X176619900Y-40425000I-500000J0D01*
G01*
X176619900Y-40425000D02*
G75*
G02*
X177619900Y-40425000I500000J0D01*
G01*
X189319900Y-34925000D02*
G75*
G02*
X188119900Y-34925000I-600000J0D01*
G01*
X188119900Y-34925000D02*
G75*
G02*
X189319900Y-34925000I600000J0D01*
G01*
M02*
