G04 #@! TF.GenerationSoftware,KiCad,Pcbnew,8.0.7*
G04 #@! TF.CreationDate,2025-01-01T00:14:10+01:00*
G04 #@! TF.ProjectId,corne-xiao,636f726e-652d-4786-9961-6f2e6b696361,1.1*
G04 #@! TF.SameCoordinates,Original*
G04 #@! TF.FileFunction,Legend,Bot*
G04 #@! TF.FilePolarity,Positive*
%FSLAX46Y46*%
G04 Gerber Fmt 4.6, Leading zero omitted, Abs format (unit mm)*
G04 Created by KiCad (PCBNEW 8.0.7) date 2025-01-01 00:14:10*
%MOMM*%
%LPD*%
G01*
G04 APERTURE LIST*
G04 Aperture macros list*
%AMRoundRect*
0 Rectangle with rounded corners*
0 $1 Rounding radius*
0 $2 $3 $4 $5 $6 $7 $8 $9 X,Y pos of 4 corners*
0 Add a 4 corners polygon primitive as box body*
4,1,4,$2,$3,$4,$5,$6,$7,$8,$9,$2,$3,0*
0 Add four circle primitives for the rounded corners*
1,1,$1+$1,$2,$3*
1,1,$1+$1,$4,$5*
1,1,$1+$1,$6,$7*
1,1,$1+$1,$8,$9*
0 Add four rect primitives between the rounded corners*
20,1,$1+$1,$2,$3,$4,$5,0*
20,1,$1+$1,$4,$5,$6,$7,0*
20,1,$1+$1,$6,$7,$8,$9,0*
20,1,$1+$1,$8,$9,$2,$3,0*%
G04 Aperture macros list end*
%ADD10C,0.125000*%
%ADD11C,0.150000*%
%ADD12O,2.826000X1.876000*%
%ADD13C,1.473000*%
%ADD14C,0.976000*%
%ADD15RoundRect,0.038000X0.258013X-0.553109X0.608013X0.053109X-0.258013X0.553109X-0.608013X-0.053109X0*%
%ADD16RoundRect,0.038000X1.462436X-0.266987X-0.962436X1.133013X-1.462436X0.266987X0.962436X-1.133013X0*%
%ADD17C,2.276000*%
%ADD18O,1.826000X1.276000*%
%ADD19RoundRect,0.038000X-0.608013X0.053109X-0.258013X-0.553109X0.608013X-0.053109X0.258013X0.553109X0*%
%ADD20RoundRect,0.038000X-0.962436X-1.133013X1.462436X0.266987X0.962436X1.133013X-1.462436X-0.266987X0*%
G04 APERTURE END LIST*
D10*
X140170635Y-51612604D02*
X140218254Y-51660224D01*
X140218254Y-51660224D02*
X140361111Y-51707843D01*
X140361111Y-51707843D02*
X140456349Y-51707843D01*
X140456349Y-51707843D02*
X140599206Y-51660224D01*
X140599206Y-51660224D02*
X140694444Y-51564985D01*
X140694444Y-51564985D02*
X140742063Y-51469747D01*
X140742063Y-51469747D02*
X140789682Y-51279271D01*
X140789682Y-51279271D02*
X140789682Y-51136414D01*
X140789682Y-51136414D02*
X140742063Y-50945938D01*
X140742063Y-50945938D02*
X140694444Y-50850700D01*
X140694444Y-50850700D02*
X140599206Y-50755462D01*
X140599206Y-50755462D02*
X140456349Y-50707843D01*
X140456349Y-50707843D02*
X140361111Y-50707843D01*
X140361111Y-50707843D02*
X140218254Y-50755462D01*
X140218254Y-50755462D02*
X140170635Y-50803081D01*
X139789682Y-51660224D02*
X139646825Y-51707843D01*
X139646825Y-51707843D02*
X139408730Y-51707843D01*
X139408730Y-51707843D02*
X139313492Y-51660224D01*
X139313492Y-51660224D02*
X139265873Y-51612604D01*
X139265873Y-51612604D02*
X139218254Y-51517366D01*
X139218254Y-51517366D02*
X139218254Y-51422128D01*
X139218254Y-51422128D02*
X139265873Y-51326890D01*
X139265873Y-51326890D02*
X139313492Y-51279271D01*
X139313492Y-51279271D02*
X139408730Y-51231652D01*
X139408730Y-51231652D02*
X139599206Y-51184033D01*
X139599206Y-51184033D02*
X139694444Y-51136414D01*
X139694444Y-51136414D02*
X139742063Y-51088795D01*
X139742063Y-51088795D02*
X139789682Y-50993557D01*
X139789682Y-50993557D02*
X139789682Y-50898319D01*
X139789682Y-50898319D02*
X139742063Y-50803081D01*
X139742063Y-50803081D02*
X139694444Y-50755462D01*
X139694444Y-50755462D02*
X139599206Y-50707843D01*
X139599206Y-50707843D02*
X139361111Y-50707843D01*
X139361111Y-50707843D02*
X139218254Y-50755462D01*
X167420635Y-51662604D02*
X167468254Y-51710224D01*
X167468254Y-51710224D02*
X167611111Y-51757843D01*
X167611111Y-51757843D02*
X167706349Y-51757843D01*
X167706349Y-51757843D02*
X167849206Y-51710224D01*
X167849206Y-51710224D02*
X167944444Y-51614985D01*
X167944444Y-51614985D02*
X167992063Y-51519747D01*
X167992063Y-51519747D02*
X168039682Y-51329271D01*
X168039682Y-51329271D02*
X168039682Y-51186414D01*
X168039682Y-51186414D02*
X167992063Y-50995938D01*
X167992063Y-50995938D02*
X167944444Y-50900700D01*
X167944444Y-50900700D02*
X167849206Y-50805462D01*
X167849206Y-50805462D02*
X167706349Y-50757843D01*
X167706349Y-50757843D02*
X167611111Y-50757843D01*
X167611111Y-50757843D02*
X167468254Y-50805462D01*
X167468254Y-50805462D02*
X167420635Y-50853081D01*
X167039682Y-51710224D02*
X166896825Y-51757843D01*
X166896825Y-51757843D02*
X166658730Y-51757843D01*
X166658730Y-51757843D02*
X166563492Y-51710224D01*
X166563492Y-51710224D02*
X166515873Y-51662604D01*
X166515873Y-51662604D02*
X166468254Y-51567366D01*
X166468254Y-51567366D02*
X166468254Y-51472128D01*
X166468254Y-51472128D02*
X166515873Y-51376890D01*
X166515873Y-51376890D02*
X166563492Y-51329271D01*
X166563492Y-51329271D02*
X166658730Y-51281652D01*
X166658730Y-51281652D02*
X166849206Y-51234033D01*
X166849206Y-51234033D02*
X166944444Y-51186414D01*
X166944444Y-51186414D02*
X166992063Y-51138795D01*
X166992063Y-51138795D02*
X167039682Y-51043557D01*
X167039682Y-51043557D02*
X167039682Y-50948319D01*
X167039682Y-50948319D02*
X166992063Y-50853081D01*
X166992063Y-50853081D02*
X166944444Y-50805462D01*
X166944444Y-50805462D02*
X166849206Y-50757843D01*
X166849206Y-50757843D02*
X166611111Y-50757843D01*
X166611111Y-50757843D02*
X166468254Y-50805462D01*
D11*
X138894411Y-93606987D02*
X141405885Y-95056987D01*
X141405885Y-95056987D02*
X144780885Y-89211316D01*
X142312712Y-87786316D02*
X138894411Y-93606987D01*
X144780885Y-89211316D02*
X142312712Y-87786316D01*
X154494115Y-88923013D02*
X157869115Y-94768684D01*
X157005589Y-87473013D02*
X154494115Y-88923013D01*
X157869115Y-94768684D02*
X160337288Y-93343684D01*
X160337288Y-93343684D02*
X157005589Y-87473013D01*
%LPC*%
D12*
X127989300Y-32477000D03*
X127989300Y-35017000D03*
X127989300Y-37557000D03*
X127989300Y-40097000D03*
X127989300Y-42637000D03*
X127989300Y-45177000D03*
X127989300Y-47717000D03*
X144179300Y-47717000D03*
X144179300Y-45177000D03*
X144179300Y-42637000D03*
X144179300Y-40097000D03*
X144179300Y-37557000D03*
X144179300Y-35017000D03*
X144179300Y-32477000D03*
D13*
X131639300Y-39780000D03*
X139945100Y-49342600D03*
X141850100Y-49342600D03*
D12*
X155284300Y-32557000D03*
X155284300Y-35097000D03*
X155284300Y-37637000D03*
X155284300Y-40177000D03*
X155284300Y-42717000D03*
X155284300Y-45257000D03*
X155284300Y-47797000D03*
X171474300Y-47797000D03*
X171474300Y-45257000D03*
X171474300Y-42717000D03*
X171474300Y-40177000D03*
X171474300Y-37637000D03*
X171474300Y-35097000D03*
X171474300Y-32557000D03*
D13*
X158934300Y-39860000D03*
X167240100Y-49422600D03*
X169145100Y-49422600D03*
D14*
X142455866Y-90178367D03*
X140912564Y-92751443D03*
D15*
X141228719Y-88603848D03*
X139728719Y-91201924D03*
X138978719Y-92500962D03*
D16*
X139824167Y-94836603D03*
X143799167Y-87951701D03*
D17*
X143613900Y-83045000D03*
X170162900Y-74534000D03*
D18*
X156260000Y-55740000D03*
X156260000Y-53740000D03*
X143250000Y-53600000D03*
X143250000Y-55600000D03*
D17*
X155730900Y-83055000D03*
D14*
X158194134Y-92271633D03*
X156737436Y-89648557D03*
D19*
X160171281Y-91996152D03*
X158671281Y-89398076D03*
X157921281Y-88099038D03*
D20*
X155475833Y-87663397D03*
X159450833Y-94548299D03*
D17*
X129181900Y-74524000D03*
%LPD*%
M02*
