G04 #@! TF.GenerationSoftware,KiCad,Pcbnew,8.0.7*
G04 #@! TF.CreationDate,2025-01-01T00:14:10+01:00*
G04 #@! TF.ProjectId,corne-xiao,636f726e-652d-4786-9961-6f2e6b696361,1.1*
G04 #@! TF.SameCoordinates,Original*
G04 #@! TF.FileFunction,Copper,L2,Bot*
G04 #@! TF.FilePolarity,Positive*
%FSLAX46Y46*%
G04 Gerber Fmt 4.6, Leading zero omitted, Abs format (unit mm)*
G04 Created by KiCad (PCBNEW 8.0.7) date 2025-01-01 00:14:10*
%MOMM*%
%LPD*%
G01*
G04 APERTURE LIST*
G04 Aperture macros list*
%AMRotRect*
0 Rectangle, with rotation*
0 The origin of the aperture is its center*
0 $1 length*
0 $2 width*
0 $3 Rotation angle, in degrees counterclockwise*
0 Add horizontal line*
21,1,$1,$2,0,0,$3*%
G04 Aperture macros list end*
G04 #@! TA.AperFunction,ComponentPad*
%ADD10O,2.750000X1.800000*%
G04 #@! TD*
G04 #@! TA.AperFunction,ComponentPad*
%ADD11C,1.397000*%
G04 #@! TD*
G04 #@! TA.AperFunction,WasherPad*
%ADD12C,0.900000*%
G04 #@! TD*
G04 #@! TA.AperFunction,SMDPad,CuDef*
%ADD13RotRect,0.700000X1.000000X60.000000*%
G04 #@! TD*
G04 #@! TA.AperFunction,SMDPad,CuDef*
%ADD14RotRect,2.800000X1.000000X150.000000*%
G04 #@! TD*
G04 #@! TA.AperFunction,ComponentPad*
%ADD15O,1.750000X1.200000*%
G04 #@! TD*
G04 #@! TA.AperFunction,SMDPad,CuDef*
%ADD16RotRect,0.700000X1.000000X300.000000*%
G04 #@! TD*
G04 #@! TA.AperFunction,SMDPad,CuDef*
%ADD17RotRect,2.800000X1.000000X30.000000*%
G04 #@! TD*
G04 #@! TA.AperFunction,ViaPad*
%ADD18C,0.600000*%
G04 #@! TD*
G04 #@! TA.AperFunction,Conductor*
%ADD19C,0.250000*%
G04 #@! TD*
G04 APERTURE END LIST*
D10*
X127989300Y-32477000D03*
X127989300Y-35017000D03*
X127989300Y-37557000D03*
X127989300Y-40097000D03*
X127989300Y-42637000D03*
X127989300Y-45177000D03*
X127989300Y-47717000D03*
X144179300Y-47717000D03*
X144179300Y-45177000D03*
X144179300Y-42637000D03*
X144179300Y-40097000D03*
X144179300Y-37557000D03*
X144179300Y-35017000D03*
X144179300Y-32477000D03*
D11*
X131639300Y-39780000D03*
X139945100Y-49342600D03*
X141850100Y-49342600D03*
D10*
X155284300Y-32557000D03*
X155284300Y-35097000D03*
X155284300Y-37637000D03*
X155284300Y-40177000D03*
X155284300Y-42717000D03*
X155284300Y-45257000D03*
X155284300Y-47797000D03*
X171474300Y-47797000D03*
X171474300Y-45257000D03*
X171474300Y-42717000D03*
X171474300Y-40177000D03*
X171474300Y-37637000D03*
X171474300Y-35097000D03*
X171474300Y-32557000D03*
D11*
X158934300Y-39860000D03*
X167240100Y-49422600D03*
X169145100Y-49422600D03*
D12*
X142455866Y-90178367D03*
X140912564Y-92751443D03*
D13*
X141228719Y-88603848D03*
X139728719Y-91201924D03*
X138978719Y-92500962D03*
D14*
X139824167Y-94836603D03*
X143799167Y-87951701D03*
D15*
X156260000Y-55740000D03*
X156260000Y-53740000D03*
X143250000Y-53600000D03*
X143250000Y-55600000D03*
D12*
X158194134Y-92271633D03*
X156737436Y-89648557D03*
D16*
X160171281Y-91996152D03*
X158671281Y-89398076D03*
X157921281Y-88099038D03*
D17*
X155475833Y-87663397D03*
X159450833Y-94548299D03*
D18*
X238250000Y-25750000D03*
X237500000Y-25750000D03*
X236750000Y-25750000D03*
X236000000Y-25750000D03*
X235250000Y-25750000D03*
X234500000Y-25750000D03*
X233750000Y-25750000D03*
X233000000Y-25750000D03*
X203750000Y-25500000D03*
X203000000Y-25500000D03*
X202250000Y-25500000D03*
X201500000Y-25500000D03*
X200750000Y-25500000D03*
X200000000Y-25500000D03*
X199250000Y-25500000D03*
X198500000Y-25500000D03*
X100750000Y-25500000D03*
X100000000Y-25500000D03*
X99250000Y-25500000D03*
X98500000Y-25500000D03*
X97750000Y-25500000D03*
X97000000Y-25500000D03*
X96250000Y-25500000D03*
X95500000Y-25500000D03*
X66250000Y-25750000D03*
X65500000Y-25750000D03*
X64750000Y-25750000D03*
X64000000Y-25750000D03*
X63250000Y-25750000D03*
X62500000Y-25750000D03*
X61750000Y-25750000D03*
X61000000Y-25750000D03*
X29500000Y-83000000D03*
X28750000Y-83000000D03*
X28000000Y-83000000D03*
X27250000Y-83000000D03*
X26500000Y-83000000D03*
X25750000Y-83000000D03*
X25000000Y-83000000D03*
X62250000Y-83000000D03*
X61500000Y-83000000D03*
X60750000Y-83000000D03*
X60000000Y-83000000D03*
X59250000Y-83000000D03*
X58500000Y-83000000D03*
X57750000Y-83000000D03*
X57000000Y-83000000D03*
X242750000Y-83000000D03*
X242000000Y-83000000D03*
X241250000Y-83000000D03*
X240500000Y-83000000D03*
X239750000Y-83000000D03*
X239000000Y-83000000D03*
X238250000Y-83000000D03*
X237500000Y-83000000D03*
X274500000Y-83000000D03*
X273750000Y-83000000D03*
X273000000Y-83000000D03*
X272250000Y-83000000D03*
X271500000Y-83000000D03*
X270750000Y-83000000D03*
X270000000Y-83000000D03*
X249780900Y-43770200D03*
X249780900Y-59940000D03*
X249780900Y-75368300D03*
X98915500Y-98897900D03*
X98915500Y-72422600D03*
X99054900Y-54772400D03*
X99054900Y-37950900D03*
X98864000Y-48101500D03*
X81222800Y-69575000D03*
X81222800Y-52574900D03*
X80426500Y-37088400D03*
X96853500Y-93671200D03*
X80426500Y-43580700D03*
X69362100Y-83637600D03*
X65786500Y-72422600D03*
X65786500Y-54772400D03*
X65961000Y-39889400D03*
X29940800Y-44212400D03*
X30226400Y-60314500D03*
X30226400Y-75373300D03*
X158301200Y-90959200D03*
X169058700Y-98189100D03*
X162544300Y-69200000D03*
X164839400Y-51830700D03*
X165489200Y-52813300D03*
X158695400Y-86734300D03*
X120422500Y-69250000D03*
X120422500Y-37122200D03*
X81904100Y-67576700D03*
X83373300Y-63597500D03*
X65445400Y-68226200D03*
X62602100Y-66539200D03*
X53037700Y-66539200D03*
X53037700Y-71454600D03*
X113966200Y-89675100D03*
X113966200Y-87131100D03*
X121049200Y-52250100D03*
X123612300Y-34886100D03*
X121049200Y-51155000D03*
X82213900Y-48609900D03*
X81361700Y-49530500D03*
X69575500Y-51830700D03*
X69575500Y-49804900D03*
X43035500Y-53673300D03*
X66714900Y-53343700D03*
X85025000Y-31552200D03*
X69575500Y-31126300D03*
X69575500Y-32479800D03*
X48804300Y-37796500D03*
X40782500Y-38276100D03*
X209874800Y-40727400D03*
X208795800Y-43772500D03*
X228326400Y-39046700D03*
X230009800Y-54772400D03*
X230009800Y-71945000D03*
X212263100Y-91570000D03*
X212263100Y-81247700D03*
X230009800Y-81247700D03*
X212435800Y-69570000D03*
X212435800Y-78306000D03*
X191881400Y-78306000D03*
X189452200Y-93218400D03*
X212628000Y-42322900D03*
X212628000Y-52529800D03*
X212638500Y-35624900D03*
X213642100Y-61322900D03*
X185883600Y-44928700D03*
X174118400Y-47015800D03*
X174118400Y-49422600D03*
X176338600Y-47072900D03*
X179133900Y-57320000D03*
X179015600Y-40059900D03*
X179019100Y-74606700D03*
X45919900Y-61233700D03*
X48064300Y-43005600D03*
X48064300Y-44026700D03*
X122906700Y-42166000D03*
X122906700Y-38870300D03*
X44290400Y-76267600D03*
X48064300Y-48889000D03*
X262466200Y-69640400D03*
X263628000Y-76654800D03*
X267277600Y-49822900D03*
X267277600Y-43005600D03*
X267277600Y-58368300D03*
X267277600Y-44718300D03*
X200445100Y-47731900D03*
X199629000Y-47731900D03*
X110690500Y-58551200D03*
X111635000Y-74198100D03*
X111635000Y-47341700D03*
X111635000Y-56938100D03*
X111635000Y-49000800D03*
X139249800Y-50366300D03*
X111764500Y-40389700D03*
X138748700Y-88099800D03*
X135792000Y-77966300D03*
X140327100Y-77966300D03*
X140327100Y-53600000D03*
X139344300Y-89399000D03*
X131639300Y-35770600D03*
X173421400Y-45555400D03*
X173421400Y-47797000D03*
X171876500Y-99076100D03*
X190832800Y-45300600D03*
X195326900Y-54333300D03*
X193459100Y-44670600D03*
X195502600Y-38009200D03*
D19*
X249780900Y-59940000D02*
X249780900Y-43770200D01*
X249780900Y-59940000D02*
X249780900Y-75368300D01*
X98915500Y-98897900D02*
X98915500Y-72422600D01*
X99054900Y-72283200D02*
X99054900Y-54772400D01*
X98915500Y-72422600D02*
X99054900Y-72283200D01*
X99054900Y-48101500D02*
X98864000Y-48101500D01*
X99054900Y-54772400D02*
X99054900Y-48101500D01*
X99054900Y-48101500D02*
X99054900Y-37950900D01*
X81222800Y-52574900D02*
X81222800Y-69575000D01*
X81222800Y-78040500D02*
X96853500Y-93671200D01*
X81222800Y-69575000D02*
X81222800Y-78040500D01*
X80426500Y-51778600D02*
X80426500Y-43580700D01*
X81222800Y-52574900D02*
X80426500Y-51778600D01*
X80426500Y-43580700D02*
X80426500Y-37088400D01*
X69362100Y-75998200D02*
X65786500Y-72422600D01*
X69362100Y-83637600D02*
X69362100Y-75998200D01*
X65786500Y-40063900D02*
X65961000Y-39889400D01*
X65786500Y-54772400D02*
X65786500Y-40063900D01*
X66072100Y-55058000D02*
X65786500Y-54772400D01*
X66072100Y-72137000D02*
X66072100Y-55058000D01*
X65786500Y-72422600D02*
X66072100Y-72137000D01*
X29940800Y-60028900D02*
X29940800Y-44212400D01*
X30226400Y-60314500D02*
X29940800Y-60028900D01*
X30226400Y-60314500D02*
X30226400Y-75373300D01*
X158671300Y-89398100D02*
X157798400Y-89902100D01*
X158301200Y-90564400D02*
X158301200Y-90959200D01*
X157903100Y-90166300D02*
X158301200Y-90564400D01*
X157903100Y-90006800D02*
X157903100Y-90166300D01*
X157798400Y-89902100D02*
X157903100Y-90006800D01*
X158671300Y-89398100D02*
X159544200Y-88894100D01*
X159249000Y-40174700D02*
X158934300Y-39860000D01*
X159249000Y-86401600D02*
X159249000Y-40174700D01*
X159322100Y-86474700D02*
X159249000Y-86401600D01*
X159322100Y-88672000D02*
X159322100Y-86474700D01*
X159544200Y-88894100D02*
X159322100Y-88672000D01*
X160724800Y-89855200D02*
X169058700Y-98189100D01*
X160724800Y-40155800D02*
X160724800Y-89855200D01*
X159133600Y-38564600D02*
X160724800Y-40155800D01*
X158598400Y-38564600D02*
X159133600Y-38564600D01*
X156986000Y-40177000D02*
X158598400Y-38564600D01*
X155759300Y-40177000D02*
X156986000Y-40177000D01*
X158844800Y-37637000D02*
X155759300Y-37637000D01*
X162544300Y-41336500D02*
X158844800Y-37637000D01*
X162544300Y-69200000D02*
X162544300Y-41336500D01*
X164839400Y-42950400D02*
X164839400Y-51830700D01*
X156986000Y-35097000D02*
X164839400Y-42950400D01*
X155759300Y-35097000D02*
X156986000Y-35097000D01*
X170999300Y-35097000D02*
X169772600Y-35097000D01*
X165489200Y-39380400D02*
X165489200Y-52813300D01*
X169772600Y-35097000D02*
X165489200Y-39380400D01*
X157921300Y-88099000D02*
X158794200Y-87595000D01*
X156260000Y-55740000D02*
X156260000Y-56666700D01*
X158794300Y-87595100D02*
X158794200Y-87595000D01*
X158794300Y-86833200D02*
X158794300Y-87595100D01*
X158695400Y-86734300D02*
X158794300Y-86833200D01*
X158695400Y-59102100D02*
X158695400Y-86734300D01*
X156260000Y-56666700D02*
X158695400Y-59102100D01*
X142477600Y-48225200D02*
X142477600Y-35017000D01*
X142877800Y-48625400D02*
X142477600Y-48225200D01*
X142877800Y-51223600D02*
X142877800Y-48625400D01*
X142021300Y-52080100D02*
X142877800Y-51223600D01*
X142021300Y-54023800D02*
X142021300Y-52080100D01*
X142670800Y-54673300D02*
X142021300Y-54023800D01*
X143250000Y-54673300D02*
X142670800Y-54673300D01*
X143250000Y-55600000D02*
X143250000Y-54673300D01*
X143704300Y-35017000D02*
X142477600Y-35017000D01*
X83373300Y-66107500D02*
X81904100Y-67576700D01*
X83373300Y-63597500D02*
X83373300Y-66107500D01*
X53037700Y-71454600D02*
X53037700Y-66539200D01*
X120422500Y-37122200D02*
X120422500Y-69250000D01*
X62349700Y-66791700D02*
X62602100Y-66539300D01*
X61512300Y-66791700D02*
X62349700Y-66791700D01*
X63758500Y-66539300D02*
X62602100Y-66539300D01*
X65445400Y-68226200D02*
X63758500Y-66539300D01*
X62602100Y-66539300D02*
X62602100Y-66539200D01*
X133067200Y-43473200D02*
X129691000Y-40097000D01*
X133067200Y-85514700D02*
X133067200Y-43473200D01*
X135166800Y-87614300D02*
X133067200Y-85514700D01*
X128464300Y-40097000D02*
X129691000Y-40097000D01*
X113966200Y-89675100D02*
X113966200Y-87131100D01*
X121049200Y-37449200D02*
X121049200Y-51155000D01*
X123612300Y-34886100D02*
X121049200Y-37449200D01*
X121049200Y-51155000D02*
X121049200Y-52250100D01*
X81361700Y-49462100D02*
X82213900Y-48609900D01*
X81361700Y-49530500D02*
X81361700Y-49462100D01*
X69575500Y-49804900D02*
X69575500Y-51830700D01*
X43035500Y-53103600D02*
X43035500Y-53673300D01*
X42483200Y-52551300D02*
X43035500Y-53103600D01*
X68062500Y-53343700D02*
X66714900Y-53343700D01*
X69575500Y-51830700D02*
X68062500Y-53343700D01*
X85025000Y-31101100D02*
X85025000Y-31552200D01*
X85496800Y-30629300D02*
X85025000Y-31101100D01*
X69575500Y-32479800D02*
X69575500Y-31126300D01*
X44551600Y-33543800D02*
X48804300Y-37796500D01*
X42511700Y-33543800D02*
X44551600Y-33543800D01*
X40782500Y-35029300D02*
X40782500Y-38276100D01*
X42093600Y-33718200D02*
X40782500Y-35029300D01*
X230009800Y-40730100D02*
X228326400Y-39046700D01*
X230009800Y-54772400D02*
X230009800Y-40730100D01*
X230009800Y-54772400D02*
X230009800Y-71945000D01*
X230009800Y-71945000D02*
X230009800Y-81247700D01*
X212263100Y-81247700D02*
X212263100Y-91570000D01*
X209874800Y-42693500D02*
X208795800Y-43772500D01*
X209874800Y-40727400D02*
X209874800Y-42693500D01*
X212435800Y-78306000D02*
X212435800Y-69570000D01*
X212628000Y-52529800D02*
X212628000Y-42322900D01*
X212638500Y-42312400D02*
X212638500Y-35624900D01*
X212628000Y-42322900D02*
X212638500Y-42312400D01*
X212435800Y-62529200D02*
X213642100Y-61322900D01*
X212435800Y-69570000D02*
X212435800Y-62529200D01*
X189452200Y-80735200D02*
X189452200Y-93218400D01*
X191881400Y-78306000D02*
X189452200Y-80735200D01*
X185883600Y-72308200D02*
X185883600Y-44928700D01*
X191881400Y-78306000D02*
X185883600Y-72308200D01*
X176338600Y-42736900D02*
X179015600Y-40059900D01*
X176338600Y-47072900D02*
X176338600Y-42736900D01*
X179133900Y-57320000D02*
X179019100Y-57205200D01*
X179019100Y-57205200D02*
X179019100Y-74606700D01*
X176338600Y-54524700D02*
X176338600Y-47072900D01*
X179019100Y-57205200D02*
X176338600Y-54524700D01*
X174118400Y-49422600D02*
X174118400Y-47015800D01*
X122906700Y-38870300D02*
X122906700Y-42166000D01*
X48064300Y-44026700D02*
X48064300Y-43005600D01*
X44290400Y-62863200D02*
X44290400Y-76267600D01*
X45919900Y-61233700D02*
X44290400Y-62863200D01*
X48064300Y-59089300D02*
X48064300Y-48889000D01*
X45919900Y-61233700D02*
X48064300Y-59089300D01*
X48064300Y-48889000D02*
X48064300Y-44026700D01*
X262466200Y-75493000D02*
X262466200Y-69640400D01*
X263628000Y-76654800D02*
X262466200Y-75493000D01*
X267277600Y-49822900D02*
X267277600Y-58368300D01*
X200445100Y-47731900D02*
X199629000Y-47731900D01*
X267277600Y-49822900D02*
X267277600Y-44718300D01*
X267277600Y-44718300D02*
X267277600Y-43005600D01*
X141228700Y-87376900D02*
X141677800Y-87826000D01*
X141228700Y-79944500D02*
X141228700Y-87376900D01*
X139584500Y-78300300D02*
X141228700Y-79944500D01*
X139584500Y-53201700D02*
X139584500Y-78300300D01*
X136295900Y-49913100D02*
X139584500Y-53201700D01*
X136295900Y-31860000D02*
X136295900Y-49913100D01*
X141228700Y-88603800D02*
X141677800Y-87826000D01*
X110690500Y-73253600D02*
X111635000Y-74198100D01*
X110690500Y-58551200D02*
X110690500Y-73253600D01*
X139315500Y-50432000D02*
X139249800Y-50366300D01*
X140760700Y-50432000D02*
X139315500Y-50432000D01*
X141850100Y-49342600D02*
X140760700Y-50432000D01*
X111635000Y-56938100D02*
X111635000Y-49000800D01*
X111635000Y-49000800D02*
X111635000Y-47341700D01*
X111764500Y-47212200D02*
X111764500Y-40389700D01*
X111635000Y-47341700D02*
X111764500Y-47212200D01*
X138748700Y-80923000D02*
X135792000Y-77966300D01*
X138748700Y-88099800D02*
X138748700Y-80923000D01*
X138689100Y-91413700D02*
X138105800Y-91997000D01*
X138689100Y-88159400D02*
X138689100Y-91413700D01*
X138748700Y-88099800D02*
X138689100Y-88159400D01*
X138978700Y-92501000D02*
X138105800Y-91997000D01*
X140327100Y-53600000D02*
X140327100Y-77966300D01*
X139728700Y-91201900D02*
X140177800Y-90424100D01*
X139344300Y-89590600D02*
X139344300Y-89399000D01*
X140177800Y-90424100D02*
X139344300Y-89590600D01*
X131639300Y-39780000D02*
X131639300Y-35770600D01*
X139425500Y-89317800D02*
X139344300Y-89399000D01*
X139425500Y-79005300D02*
X139425500Y-89317800D01*
X133677900Y-73257700D02*
X139425500Y-79005300D01*
X133677900Y-41818600D02*
X133677900Y-73257700D01*
X131639300Y-39780000D02*
X133677900Y-41818600D01*
X171876500Y-48674200D02*
X171876500Y-99076100D01*
X170999300Y-47797000D02*
X171876500Y-48674200D01*
X193459100Y-40052700D02*
X193459100Y-44670600D01*
X195502600Y-38009200D02*
X193459100Y-40052700D01*
X173421400Y-47797000D02*
X173421400Y-45555400D01*
X190832800Y-49839200D02*
X190832800Y-45300600D01*
X195326900Y-54333300D02*
X190832800Y-49839200D01*
G04 #@! TA.AperFunction,Conductor*
G36*
X158642441Y-89395010D02*
G01*
X158655461Y-89396135D01*
X158663408Y-89400261D01*
X158666111Y-89408799D01*
X158665052Y-89412748D01*
X158416590Y-89944080D01*
X158409982Y-89950123D01*
X158405435Y-89950811D01*
X158004069Y-89931677D01*
X157995968Y-89927860D01*
X157994494Y-89925840D01*
X157875875Y-89720399D01*
X157874707Y-89711523D01*
X157875605Y-89709199D01*
X158059691Y-89351964D01*
X158066524Y-89346181D01*
X158071092Y-89345668D01*
X158642441Y-89395010D01*
G37*
G04 #@! TD.AperFunction*
G04 #@! TA.AperFunction,Conductor*
G36*
X159338523Y-88864527D02*
G01*
X159346624Y-88868345D01*
X159348097Y-88870364D01*
X159466714Y-89075802D01*
X159467883Y-89084680D01*
X159466982Y-89087012D01*
X159282887Y-89444212D01*
X159276051Y-89449996D01*
X159271480Y-89450509D01*
X158687100Y-89400017D01*
X158679152Y-89395890D01*
X158676450Y-89387353D01*
X158677507Y-89383408D01*
X158925973Y-88852075D01*
X158932581Y-88846033D01*
X158937127Y-88845345D01*
X159338523Y-88864527D01*
G37*
G04 #@! TD.AperFunction*
G04 #@! TA.AperFunction,Conductor*
G36*
X159618588Y-39859979D02*
G01*
X159626855Y-39863418D01*
X159630270Y-39871696D01*
X159630049Y-39873943D01*
X159375861Y-41162725D01*
X159370898Y-41170179D01*
X159364382Y-41172161D01*
X159129471Y-41172161D01*
X159121198Y-41168734D01*
X159120492Y-41167962D01*
X158447238Y-40362115D01*
X158444564Y-40353569D01*
X158447934Y-40346350D01*
X158930867Y-39862439D01*
X158939131Y-39859006D01*
X159618588Y-39859979D01*
G37*
G04 #@! TD.AperFunction*
G04 #@! TA.AperFunction,Conductor*
G36*
X155947150Y-39297923D02*
G01*
X157287915Y-39694612D01*
X157292869Y-39697558D01*
X157458684Y-39863373D01*
X157462111Y-39871646D01*
X157458684Y-39879919D01*
X157458098Y-39880466D01*
X156269328Y-40916593D01*
X156260840Y-40919446D01*
X156252821Y-40915460D01*
X156251920Y-40914284D01*
X155761296Y-40181743D01*
X155759539Y-40172964D01*
X155932374Y-39306853D01*
X155937353Y-39299414D01*
X155946137Y-39297672D01*
X155947150Y-39297923D01*
G37*
G04 #@! TD.AperFunction*
G04 #@! TA.AperFunction,Conductor*
G36*
X156268478Y-36893130D02*
G01*
X157535421Y-37508799D01*
X157541364Y-37515497D01*
X157542007Y-37519322D01*
X157542007Y-37754677D01*
X157538580Y-37762950D01*
X157535421Y-37765200D01*
X156268479Y-38380868D01*
X156259540Y-38381402D01*
X156253643Y-38376854D01*
X156195304Y-38289719D01*
X155762656Y-37643507D01*
X155760902Y-37634728D01*
X155762655Y-37630494D01*
X156253643Y-36897144D01*
X156261093Y-36892177D01*
X156268478Y-36893130D01*
G37*
G04 #@! TD.AperFunction*
G04 #@! TA.AperFunction,Conductor*
G36*
X156268152Y-34356505D02*
G01*
X156269327Y-34357405D01*
X157458098Y-35393534D01*
X157462084Y-35401552D01*
X157459231Y-35410040D01*
X157458684Y-35410626D01*
X157292869Y-35576441D01*
X157287915Y-35579387D01*
X155947166Y-35976072D01*
X155938261Y-35975133D01*
X155932628Y-35968172D01*
X155932377Y-35967159D01*
X155759543Y-35101055D01*
X155761285Y-35092273D01*
X156251920Y-34359714D01*
X156259371Y-34354748D01*
X156268152Y-34356505D01*
G37*
G04 #@! TD.AperFunction*
G04 #@! TA.AperFunction,Conductor*
G36*
X170505778Y-34358539D02*
G01*
X170506679Y-34359715D01*
X170997303Y-35092256D01*
X170999060Y-35101037D01*
X170999056Y-35101057D01*
X170826226Y-35967143D01*
X170821246Y-35974585D01*
X170812462Y-35976327D01*
X170811433Y-35976072D01*
X169470684Y-35579387D01*
X169465730Y-35576441D01*
X169299915Y-35410626D01*
X169296488Y-35402353D01*
X169299915Y-35394080D01*
X169300472Y-35393559D01*
X170489272Y-34357405D01*
X170497759Y-34354553D01*
X170505778Y-34358539D01*
G37*
G04 #@! TD.AperFunction*
G04 #@! TA.AperFunction,Conductor*
G36*
X158588497Y-87565442D02*
G01*
X158596597Y-87569259D01*
X158598071Y-87571279D01*
X158716689Y-87776718D01*
X158717858Y-87785596D01*
X158716957Y-87787927D01*
X158532873Y-88145150D01*
X158526037Y-88150935D01*
X158521466Y-88151448D01*
X157937100Y-88100979D01*
X157929153Y-88096853D01*
X157926450Y-88088315D01*
X157927508Y-88084369D01*
X158175972Y-87553031D01*
X158182579Y-87546990D01*
X158187123Y-87546302D01*
X158588497Y-87565442D01*
G37*
G04 #@! TD.AperFunction*
G04 #@! TA.AperFunction,Conductor*
G36*
X156267349Y-55744320D02*
G01*
X156931756Y-56158926D01*
X156936961Y-56166213D01*
X156935488Y-56175046D01*
X156935326Y-56175299D01*
X156542291Y-56770576D01*
X156540800Y-56772402D01*
X156373462Y-56939740D01*
X156365189Y-56943167D01*
X156356916Y-56939740D01*
X156356602Y-56939414D01*
X155750907Y-56284982D01*
X155747803Y-56276583D01*
X155751051Y-56268934D01*
X156252718Y-55746144D01*
X156260916Y-55742549D01*
X156267349Y-55744320D01*
G37*
G04 #@! TD.AperFunction*
G04 #@! TA.AperFunction,Conductor*
G36*
X142994909Y-54560495D02*
G01*
X143344746Y-54794793D01*
X143700280Y-55032908D01*
X143705247Y-55040359D01*
X143703490Y-55049140D01*
X143702809Y-55050056D01*
X143256953Y-55592753D01*
X143249054Y-55596970D01*
X143242632Y-55595766D01*
X142530045Y-55235282D01*
X142524209Y-55228490D01*
X142524886Y-55219561D01*
X142527355Y-55216277D01*
X142976700Y-54798300D01*
X142976700Y-54570217D01*
X142980127Y-54561944D01*
X142988400Y-54558517D01*
X142994909Y-54560495D01*
G37*
G04 #@! TD.AperFunction*
G04 #@! TA.AperFunction,Conductor*
G36*
X142965720Y-34523517D02*
G01*
X142966407Y-34523942D01*
X143697790Y-35011659D01*
X143702772Y-35019100D01*
X143702775Y-35023673D01*
X143531350Y-35886460D01*
X143526376Y-35893907D01*
X143517594Y-35895656D01*
X143515982Y-35895214D01*
X143512277Y-35893907D01*
X142602600Y-35573007D01*
X142602598Y-35573007D01*
X142372760Y-35573007D01*
X142364487Y-35569580D01*
X142361060Y-35561307D01*
X142362601Y-35555503D01*
X142670856Y-35016000D01*
X142949758Y-34527871D01*
X142956837Y-34522388D01*
X142965720Y-34523517D01*
G37*
G04 #@! TD.AperFunction*
G04 #@! TA.AperFunction,Conductor*
G36*
X128973152Y-39356505D02*
G01*
X128974327Y-39357405D01*
X130163098Y-40393534D01*
X130167084Y-40401552D01*
X130164231Y-40410040D01*
X130163684Y-40410626D01*
X129997869Y-40576441D01*
X129992915Y-40579387D01*
X128652166Y-40976072D01*
X128643261Y-40975133D01*
X128637628Y-40968172D01*
X128637377Y-40967159D01*
X128464543Y-40101055D01*
X128466285Y-40092273D01*
X128956920Y-39359714D01*
X128964371Y-39354748D01*
X128973152Y-39356505D01*
G37*
G04 #@! TD.AperFunction*
G04 #@! TA.AperFunction,Conductor*
G36*
X141475986Y-87938313D02*
G01*
X141681423Y-88056932D01*
X141686874Y-88064036D01*
X141687260Y-88066505D01*
X141706371Y-88466329D01*
X141703343Y-88474757D01*
X141697728Y-88478185D01*
X141239548Y-88601660D01*
X141230669Y-88600504D01*
X141225207Y-88593407D01*
X141225198Y-88593375D01*
X141103027Y-88134833D01*
X141104209Y-88125957D01*
X141108973Y-88121421D01*
X141464776Y-87938044D01*
X141473700Y-87937301D01*
X141475986Y-87938313D01*
G37*
G04 #@! TD.AperFunction*
G04 #@! TA.AperFunction,Conductor*
G36*
X141215962Y-49079914D02*
G01*
X141846310Y-49340037D01*
X141852650Y-49346360D01*
X141852662Y-49346389D01*
X142112770Y-49976700D01*
X142112758Y-49985655D01*
X142106418Y-49991978D01*
X142106008Y-49992138D01*
X140957689Y-50416220D01*
X140948741Y-50415872D01*
X140945363Y-50413518D01*
X140779181Y-50247336D01*
X140775754Y-50239063D01*
X140776478Y-50235014D01*
X141200562Y-49086689D01*
X141206641Y-49080117D01*
X141215589Y-49079769D01*
X141215962Y-49079914D01*
G37*
G04 #@! TD.AperFunction*
G04 #@! TA.AperFunction,Conductor*
G36*
X138721293Y-91951265D02*
G01*
X138724022Y-91954968D01*
X138972490Y-92486290D01*
X138972891Y-92495236D01*
X138966848Y-92501844D01*
X138962899Y-92502903D01*
X138378519Y-92553395D01*
X138369982Y-92550693D01*
X138367112Y-92547098D01*
X138183011Y-92189908D01*
X138182267Y-92180984D01*
X138183276Y-92178703D01*
X138301897Y-91973258D01*
X138309000Y-91967809D01*
X138311467Y-91967423D01*
X138712866Y-91948237D01*
X138721293Y-91951265D01*
G37*
G04 #@! TD.AperFunction*
G04 #@! TA.AperFunction,Conductor*
G36*
X139975996Y-90536395D02*
G01*
X140181433Y-90655014D01*
X140186884Y-90662118D01*
X140187270Y-90664588D01*
X140206376Y-91064408D01*
X140203348Y-91072835D01*
X140197733Y-91076263D01*
X139739548Y-91199736D01*
X139730668Y-91198580D01*
X139725207Y-91191483D01*
X139725198Y-91191451D01*
X139603032Y-90732912D01*
X139604214Y-90724036D01*
X139608977Y-90719500D01*
X139964786Y-90536126D01*
X139973710Y-90535383D01*
X139975996Y-90536395D01*
G37*
G04 #@! TD.AperFunction*
G04 #@! TA.AperFunction,Conductor*
G36*
X131765080Y-38386427D02*
G01*
X131767434Y-38389805D01*
X132279547Y-39501661D01*
X132279895Y-39510609D01*
X132273815Y-39517183D01*
X132273412Y-39517359D01*
X131643792Y-39779132D01*
X131634837Y-39779144D01*
X131634808Y-39779132D01*
X131005187Y-39517359D01*
X130998864Y-39511019D01*
X130998876Y-39502064D01*
X130999040Y-39501687D01*
X131511166Y-38389805D01*
X131517740Y-38383725D01*
X131521793Y-38383000D01*
X131756807Y-38383000D01*
X131765080Y-38386427D01*
G37*
G04 #@! TD.AperFunction*
G04 #@! TA.AperFunction,Conductor*
G36*
X132282355Y-39517341D02*
G01*
X132288678Y-39523681D01*
X132288838Y-39524091D01*
X132712920Y-40672410D01*
X132712572Y-40681358D01*
X132710218Y-40684736D01*
X132544036Y-40850918D01*
X132535763Y-40854345D01*
X132531710Y-40853620D01*
X131383391Y-40429538D01*
X131376817Y-40423458D01*
X131376469Y-40414510D01*
X131376607Y-40414154D01*
X131636738Y-39783787D01*
X131643058Y-39777450D01*
X132273402Y-39517329D01*
X132282355Y-39517341D01*
G37*
G04 #@! TD.AperFunction*
G04 #@! TA.AperFunction,Conductor*
G36*
X171008754Y-47801331D02*
G01*
X172370757Y-48569367D01*
X172376280Y-48576415D01*
X172375985Y-48583614D01*
X172004325Y-49589356D01*
X171998243Y-49595928D01*
X171993350Y-49597000D01*
X171755761Y-49597000D01*
X171748236Y-49594259D01*
X170507309Y-48552060D01*
X170503178Y-48544116D01*
X170505101Y-48536609D01*
X170993276Y-47805027D01*
X171000717Y-47800048D01*
X171008754Y-47801331D01*
G37*
G04 #@! TD.AperFunction*
M02*
