G04 #@! TF.GenerationSoftware,KiCad,Pcbnew,8.0.7*
G04 #@! TF.CreationDate,2025-01-01T00:14:10+01:00*
G04 #@! TF.ProjectId,corne-xiao,636f726e-652d-4786-9961-6f2e6b696361,1.1*
G04 #@! TF.SameCoordinates,Original*
G04 #@! TF.FileFunction,Soldermask,Bot*
G04 #@! TF.FilePolarity,Negative*
%FSLAX46Y46*%
G04 Gerber Fmt 4.6, Leading zero omitted, Abs format (unit mm)*
G04 Created by KiCad (PCBNEW 8.0.7) date 2025-01-01 00:14:10*
%MOMM*%
%LPD*%
G01*
G04 APERTURE LIST*
G04 APERTURE END LIST*
G36*
X138880731Y-93670681D02*
G01*
X141305603Y-95070681D01*
X141316750Y-95080458D01*
X141323308Y-95093755D01*
X141324277Y-95108550D01*
X141319512Y-95122590D01*
X140819512Y-95988616D01*
X140809735Y-95999763D01*
X140796438Y-96006321D01*
X140781643Y-96007290D01*
X140767603Y-96002525D01*
X138342731Y-94602525D01*
X138331584Y-94592748D01*
X138325026Y-94579451D01*
X138324057Y-94564656D01*
X138328822Y-94550616D01*
X138828822Y-93684590D01*
X138838599Y-93673443D01*
X138851896Y-93666885D01*
X138866691Y-93665916D01*
X138880731Y-93670681D01*
G37*
G36*
X160423104Y-93378581D02*
G01*
X160436401Y-93385139D01*
X160446178Y-93396286D01*
X160946178Y-94262312D01*
X160950943Y-94276352D01*
X160949974Y-94291147D01*
X160943416Y-94304444D01*
X160932269Y-94314221D01*
X158507397Y-95714221D01*
X158493357Y-95718986D01*
X158478562Y-95718017D01*
X158465265Y-95711459D01*
X158455488Y-95700312D01*
X157955488Y-94834286D01*
X157950723Y-94820246D01*
X157951692Y-94805451D01*
X157958250Y-94792154D01*
X157969397Y-94782377D01*
X159938597Y-93645459D01*
X160388726Y-93385577D01*
X160388727Y-93385576D01*
X160394269Y-93382377D01*
X160408309Y-93377612D01*
X160423104Y-93378581D01*
G37*
G36*
X140946037Y-92268410D02*
G01*
X140982014Y-92268410D01*
X141011257Y-92276996D01*
X141038724Y-92280613D01*
X141075619Y-92295895D01*
X141115287Y-92307543D01*
X141136224Y-92320998D01*
X141156283Y-92329307D01*
X141193037Y-92357510D01*
X141232136Y-92382637D01*
X141244741Y-92397183D01*
X141257235Y-92406771D01*
X141289625Y-92448983D01*
X141323096Y-92487610D01*
X141328728Y-92499942D01*
X141334699Y-92507724D01*
X141358272Y-92564635D01*
X141380797Y-92613958D01*
X141381910Y-92621704D01*
X141383393Y-92625283D01*
X141393907Y-92705146D01*
X141400564Y-92751443D01*
X141393907Y-92797739D01*
X141383393Y-92877603D01*
X141381910Y-92881181D01*
X141380797Y-92888928D01*
X141358272Y-92938250D01*
X141334699Y-92995162D01*
X141328728Y-93002943D01*
X141323096Y-93015276D01*
X141289621Y-93053907D01*
X141257235Y-93096114D01*
X141244743Y-93105699D01*
X141232136Y-93120249D01*
X141193029Y-93145381D01*
X141156283Y-93173578D01*
X141136228Y-93181884D01*
X141115287Y-93195343D01*
X141075610Y-93206993D01*
X141038724Y-93222272D01*
X141011263Y-93225887D01*
X140982014Y-93234476D01*
X140946029Y-93234476D01*
X140912564Y-93238882D01*
X140879098Y-93234476D01*
X140843114Y-93234476D01*
X140813864Y-93225887D01*
X140786403Y-93222272D01*
X140749513Y-93206992D01*
X140709841Y-93195343D01*
X140688901Y-93181885D01*
X140668844Y-93173578D01*
X140632092Y-93145377D01*
X140592992Y-93120249D01*
X140580386Y-93105701D01*
X140567892Y-93096114D01*
X140535497Y-93053896D01*
X140502032Y-93015276D01*
X140496401Y-93002946D01*
X140490428Y-92995162D01*
X140466844Y-92938226D01*
X140444331Y-92888928D01*
X140443217Y-92881185D01*
X140441734Y-92877603D01*
X140431208Y-92797657D01*
X140424564Y-92751443D01*
X140431208Y-92705228D01*
X140441734Y-92625283D01*
X140443217Y-92621700D01*
X140444331Y-92613958D01*
X140466844Y-92564659D01*
X140490428Y-92507724D01*
X140496401Y-92499939D01*
X140502032Y-92487610D01*
X140535493Y-92448993D01*
X140567892Y-92406771D01*
X140580388Y-92397181D01*
X140592992Y-92382637D01*
X140632088Y-92357511D01*
X140668845Y-92329307D01*
X140688903Y-92320998D01*
X140709841Y-92307543D01*
X140749508Y-92295895D01*
X140786404Y-92280613D01*
X140813870Y-92276996D01*
X140843114Y-92268410D01*
X140879091Y-92268410D01*
X140912564Y-92264003D01*
X140946037Y-92268410D01*
G37*
G36*
X138739706Y-91914944D02*
G01*
X139605732Y-92414944D01*
X139616879Y-92424721D01*
X139623437Y-92438018D01*
X139624406Y-92452813D01*
X139619641Y-92466853D01*
X139269641Y-93073071D01*
X139259864Y-93084218D01*
X139246567Y-93090776D01*
X139231772Y-93091745D01*
X139217732Y-93086980D01*
X138351706Y-92586980D01*
X138340559Y-92577203D01*
X138334001Y-92563906D01*
X138333032Y-92549111D01*
X138337797Y-92535071D01*
X138687797Y-91928853D01*
X138697574Y-91917706D01*
X138710871Y-91911148D01*
X138725666Y-91910179D01*
X138739706Y-91914944D01*
G37*
G36*
X158227607Y-91788600D02*
G01*
X158263584Y-91788600D01*
X158292827Y-91797186D01*
X158320294Y-91800803D01*
X158357189Y-91816085D01*
X158396857Y-91827733D01*
X158417794Y-91841188D01*
X158437853Y-91849497D01*
X158474607Y-91877700D01*
X158513706Y-91902827D01*
X158526311Y-91917373D01*
X158538805Y-91926961D01*
X158571195Y-91969173D01*
X158604666Y-92007800D01*
X158610298Y-92020132D01*
X158616269Y-92027914D01*
X158639842Y-92084825D01*
X158662367Y-92134148D01*
X158663480Y-92141894D01*
X158664963Y-92145473D01*
X158675477Y-92225336D01*
X158682134Y-92271633D01*
X158675477Y-92317929D01*
X158664963Y-92397793D01*
X158663480Y-92401371D01*
X158662367Y-92409118D01*
X158639842Y-92458440D01*
X158616269Y-92515352D01*
X158610298Y-92523133D01*
X158604666Y-92535466D01*
X158571191Y-92574097D01*
X158538805Y-92616304D01*
X158526313Y-92625889D01*
X158513706Y-92640439D01*
X158474599Y-92665571D01*
X158437853Y-92693768D01*
X158417798Y-92702074D01*
X158396857Y-92715533D01*
X158357180Y-92727183D01*
X158320294Y-92742462D01*
X158292833Y-92746077D01*
X158263584Y-92754666D01*
X158227599Y-92754666D01*
X158194134Y-92759072D01*
X158160668Y-92754666D01*
X158124684Y-92754666D01*
X158095434Y-92746077D01*
X158067973Y-92742462D01*
X158031083Y-92727182D01*
X157991411Y-92715533D01*
X157970471Y-92702075D01*
X157950414Y-92693768D01*
X157913662Y-92665567D01*
X157874562Y-92640439D01*
X157861956Y-92625891D01*
X157849462Y-92616304D01*
X157817067Y-92574086D01*
X157783602Y-92535466D01*
X157777971Y-92523136D01*
X157771998Y-92515352D01*
X157748414Y-92458416D01*
X157725901Y-92409118D01*
X157724787Y-92401375D01*
X157723304Y-92397793D01*
X157712778Y-92317847D01*
X157706134Y-92271633D01*
X157712778Y-92225418D01*
X157723304Y-92145473D01*
X157724787Y-92141890D01*
X157725901Y-92134148D01*
X157748414Y-92084849D01*
X157771998Y-92027914D01*
X157777971Y-92020129D01*
X157783602Y-92007800D01*
X157817063Y-91969183D01*
X157849462Y-91926961D01*
X157861958Y-91917371D01*
X157874562Y-91902827D01*
X157913658Y-91877701D01*
X157950415Y-91849497D01*
X157970473Y-91841188D01*
X157991411Y-91827733D01*
X158031078Y-91816085D01*
X158067974Y-91800803D01*
X158095440Y-91797186D01*
X158124684Y-91788600D01*
X158160661Y-91788600D01*
X158194134Y-91784193D01*
X158227607Y-91788600D01*
G37*
G36*
X160439129Y-91406338D02*
G01*
X160452426Y-91412896D01*
X160462203Y-91424043D01*
X160812203Y-92030261D01*
X160816968Y-92044301D01*
X160815999Y-92059096D01*
X160809441Y-92072393D01*
X160798294Y-92082170D01*
X159932268Y-92582170D01*
X159918228Y-92586935D01*
X159903433Y-92585966D01*
X159890136Y-92579408D01*
X159880359Y-92568261D01*
X159530359Y-91962043D01*
X159525594Y-91948003D01*
X159526563Y-91933208D01*
X159533121Y-91919911D01*
X159544268Y-91910134D01*
X160130201Y-91571845D01*
X160404754Y-91413332D01*
X160404756Y-91413331D01*
X160410294Y-91410134D01*
X160424334Y-91405369D01*
X160439129Y-91406338D01*
G37*
G36*
X139489706Y-90615906D02*
G01*
X140355732Y-91115906D01*
X140366879Y-91125683D01*
X140373437Y-91138980D01*
X140374406Y-91153775D01*
X140369641Y-91167815D01*
X140019641Y-91774033D01*
X140009864Y-91785180D01*
X139996567Y-91791738D01*
X139981772Y-91792707D01*
X139967732Y-91787942D01*
X139101706Y-91287942D01*
X139090559Y-91278165D01*
X139084001Y-91264868D01*
X139083032Y-91250073D01*
X139087797Y-91236033D01*
X139437797Y-90629815D01*
X139447574Y-90618668D01*
X139460871Y-90612110D01*
X139475666Y-90611141D01*
X139489706Y-90615906D01*
G37*
G36*
X142489339Y-89695334D02*
G01*
X142525316Y-89695334D01*
X142554559Y-89703920D01*
X142582026Y-89707537D01*
X142618921Y-89722819D01*
X142658589Y-89734467D01*
X142679526Y-89747922D01*
X142699585Y-89756231D01*
X142736339Y-89784434D01*
X142775438Y-89809561D01*
X142788043Y-89824107D01*
X142800537Y-89833695D01*
X142832927Y-89875907D01*
X142866398Y-89914534D01*
X142872030Y-89926866D01*
X142878001Y-89934648D01*
X142901574Y-89991559D01*
X142924099Y-90040882D01*
X142925212Y-90048628D01*
X142926695Y-90052207D01*
X142937209Y-90132070D01*
X142943866Y-90178367D01*
X142937209Y-90224663D01*
X142926695Y-90304527D01*
X142925212Y-90308105D01*
X142924099Y-90315852D01*
X142901574Y-90365174D01*
X142878001Y-90422086D01*
X142872030Y-90429867D01*
X142866398Y-90442200D01*
X142832923Y-90480831D01*
X142800537Y-90523038D01*
X142788045Y-90532623D01*
X142775438Y-90547173D01*
X142736331Y-90572305D01*
X142699585Y-90600502D01*
X142679530Y-90608808D01*
X142658589Y-90622267D01*
X142618912Y-90633917D01*
X142582026Y-90649196D01*
X142554565Y-90652811D01*
X142525316Y-90661400D01*
X142489331Y-90661400D01*
X142455866Y-90665806D01*
X142422400Y-90661400D01*
X142386416Y-90661400D01*
X142357166Y-90652811D01*
X142329705Y-90649196D01*
X142292815Y-90633916D01*
X142253143Y-90622267D01*
X142232203Y-90608809D01*
X142212146Y-90600502D01*
X142175394Y-90572301D01*
X142136294Y-90547173D01*
X142123688Y-90532625D01*
X142111194Y-90523038D01*
X142078799Y-90480820D01*
X142045334Y-90442200D01*
X142039703Y-90429870D01*
X142033730Y-90422086D01*
X142010146Y-90365150D01*
X141987633Y-90315852D01*
X141986519Y-90308109D01*
X141985036Y-90304527D01*
X141974510Y-90224581D01*
X141967866Y-90178367D01*
X141974510Y-90132152D01*
X141985036Y-90052207D01*
X141986519Y-90048624D01*
X141987633Y-90040882D01*
X142010146Y-89991583D01*
X142033730Y-89934648D01*
X142039703Y-89926863D01*
X142045334Y-89914534D01*
X142078795Y-89875917D01*
X142111194Y-89833695D01*
X142123690Y-89824105D01*
X142136294Y-89809561D01*
X142175390Y-89784435D01*
X142212147Y-89756231D01*
X142232205Y-89747922D01*
X142253143Y-89734467D01*
X142292810Y-89722819D01*
X142329706Y-89707537D01*
X142357172Y-89703920D01*
X142386416Y-89695334D01*
X142422393Y-89695334D01*
X142455866Y-89690927D01*
X142489339Y-89695334D01*
G37*
G36*
X156770909Y-89165524D02*
G01*
X156806886Y-89165524D01*
X156836129Y-89174110D01*
X156863596Y-89177727D01*
X156900491Y-89193009D01*
X156940159Y-89204657D01*
X156961096Y-89218112D01*
X156981155Y-89226421D01*
X157017909Y-89254624D01*
X157057008Y-89279751D01*
X157069613Y-89294297D01*
X157082107Y-89303885D01*
X157114497Y-89346097D01*
X157147968Y-89384724D01*
X157153600Y-89397056D01*
X157159571Y-89404838D01*
X157183144Y-89461749D01*
X157205669Y-89511072D01*
X157206782Y-89518818D01*
X157208265Y-89522397D01*
X157218779Y-89602260D01*
X157225436Y-89648557D01*
X157218779Y-89694853D01*
X157208265Y-89774717D01*
X157206782Y-89778295D01*
X157205669Y-89786042D01*
X157183144Y-89835364D01*
X157159571Y-89892276D01*
X157153600Y-89900057D01*
X157147968Y-89912390D01*
X157114493Y-89951021D01*
X157082107Y-89993228D01*
X157069615Y-90002813D01*
X157057008Y-90017363D01*
X157017901Y-90042495D01*
X156981155Y-90070692D01*
X156961100Y-90078998D01*
X156940159Y-90092457D01*
X156900482Y-90104107D01*
X156863596Y-90119386D01*
X156836135Y-90123001D01*
X156806886Y-90131590D01*
X156770901Y-90131590D01*
X156737436Y-90135996D01*
X156703970Y-90131590D01*
X156667986Y-90131590D01*
X156638736Y-90123001D01*
X156611275Y-90119386D01*
X156574385Y-90104106D01*
X156534713Y-90092457D01*
X156513773Y-90078999D01*
X156493716Y-90070692D01*
X156456964Y-90042491D01*
X156417864Y-90017363D01*
X156405258Y-90002815D01*
X156392764Y-89993228D01*
X156360369Y-89951010D01*
X156326904Y-89912390D01*
X156321273Y-89900060D01*
X156315300Y-89892276D01*
X156291716Y-89835340D01*
X156269203Y-89786042D01*
X156268089Y-89778299D01*
X156266606Y-89774717D01*
X156256080Y-89694771D01*
X156249436Y-89648557D01*
X156256080Y-89602342D01*
X156266606Y-89522397D01*
X156268089Y-89518814D01*
X156269203Y-89511072D01*
X156291716Y-89461773D01*
X156315300Y-89404838D01*
X156321273Y-89397053D01*
X156326904Y-89384724D01*
X156360365Y-89346107D01*
X156392764Y-89303885D01*
X156405260Y-89294295D01*
X156417864Y-89279751D01*
X156456960Y-89254625D01*
X156493717Y-89226421D01*
X156513775Y-89218112D01*
X156534713Y-89204657D01*
X156574380Y-89193009D01*
X156611276Y-89177727D01*
X156638742Y-89174110D01*
X156667986Y-89165524D01*
X156703963Y-89165524D01*
X156737436Y-89161117D01*
X156770909Y-89165524D01*
G37*
G36*
X158939129Y-88808262D02*
G01*
X158952426Y-88814820D01*
X158962203Y-88825967D01*
X159312203Y-89432185D01*
X159316968Y-89446225D01*
X159315999Y-89461020D01*
X159309441Y-89474317D01*
X159298294Y-89484094D01*
X158432268Y-89984094D01*
X158418228Y-89988859D01*
X158403433Y-89987890D01*
X158390136Y-89981332D01*
X158380359Y-89970185D01*
X158030359Y-89363967D01*
X158025594Y-89349927D01*
X158026563Y-89335132D01*
X158033121Y-89321835D01*
X158044268Y-89312058D01*
X158630201Y-88973769D01*
X158904754Y-88815256D01*
X158904756Y-88815255D01*
X158910294Y-88812058D01*
X158924334Y-88807293D01*
X158939129Y-88808262D01*
G37*
G36*
X140989706Y-88017830D02*
G01*
X141855732Y-88517830D01*
X141866879Y-88527607D01*
X141873437Y-88540904D01*
X141874406Y-88555699D01*
X141869641Y-88569739D01*
X141519641Y-89175957D01*
X141509864Y-89187104D01*
X141496567Y-89193662D01*
X141481772Y-89194631D01*
X141467732Y-89189866D01*
X140601706Y-88689866D01*
X140590559Y-88680089D01*
X140584001Y-88666792D01*
X140583032Y-88651997D01*
X140587797Y-88637957D01*
X140937797Y-88031739D01*
X140947574Y-88020592D01*
X140960871Y-88014034D01*
X140975666Y-88013065D01*
X140989706Y-88017830D01*
G37*
G36*
X142855731Y-86785779D02*
G01*
X145280603Y-88185779D01*
X145291750Y-88195556D01*
X145298308Y-88208853D01*
X145299277Y-88223648D01*
X145294512Y-88237688D01*
X144794512Y-89103714D01*
X144784735Y-89114861D01*
X144771438Y-89121419D01*
X144756643Y-89122388D01*
X144742603Y-89117623D01*
X142317731Y-87717623D01*
X142306584Y-87707846D01*
X142300026Y-87694549D01*
X142299057Y-87679754D01*
X142303822Y-87665714D01*
X142803822Y-86799688D01*
X142813599Y-86788541D01*
X142826896Y-86781983D01*
X142841691Y-86781014D01*
X142855731Y-86785779D01*
G37*
G36*
X156448104Y-86493679D02*
G01*
X156461401Y-86500237D01*
X156471178Y-86511384D01*
X156971178Y-87377410D01*
X156975943Y-87391450D01*
X156974974Y-87406245D01*
X156968416Y-87419542D01*
X156957269Y-87429319D01*
X154532397Y-88829319D01*
X154518357Y-88834084D01*
X154503562Y-88833115D01*
X154490265Y-88826557D01*
X154480488Y-88815410D01*
X153980488Y-87949384D01*
X153975723Y-87935344D01*
X153976692Y-87920549D01*
X153983250Y-87907252D01*
X153994397Y-87897475D01*
X155963597Y-86760557D01*
X156413726Y-86500675D01*
X156413727Y-86500674D01*
X156419269Y-86497475D01*
X156433309Y-86492710D01*
X156448104Y-86493679D01*
G37*
G36*
X158189129Y-87509224D02*
G01*
X158202426Y-87515782D01*
X158212203Y-87526929D01*
X158562203Y-88133147D01*
X158566968Y-88147187D01*
X158565999Y-88161982D01*
X158559441Y-88175279D01*
X158548294Y-88185056D01*
X157682268Y-88685056D01*
X157668228Y-88689821D01*
X157653433Y-88688852D01*
X157640136Y-88682294D01*
X157630359Y-88671147D01*
X157280359Y-88064929D01*
X157275594Y-88050889D01*
X157276563Y-88036094D01*
X157283121Y-88022797D01*
X157294268Y-88013020D01*
X157905419Y-87660172D01*
X158154754Y-87516218D01*
X158154756Y-87516217D01*
X158160294Y-87513020D01*
X158174334Y-87508255D01*
X158189129Y-87509224D01*
G37*
G36*
X156042328Y-81960442D02*
G01*
X156238150Y-82036304D01*
X156416698Y-82146856D01*
X156571892Y-82288334D01*
X156698447Y-82455920D01*
X156792053Y-82643907D01*
X156849523Y-82845893D01*
X156868900Y-83055000D01*
X156849523Y-83264107D01*
X156792053Y-83466093D01*
X156698447Y-83654080D01*
X156571892Y-83821666D01*
X156416698Y-83963144D01*
X156238150Y-84073696D01*
X156042328Y-84149558D01*
X155835901Y-84188145D01*
X155625899Y-84188145D01*
X155419472Y-84149558D01*
X155223650Y-84073696D01*
X155045102Y-83963144D01*
X154889908Y-83821666D01*
X154763353Y-83654080D01*
X154669747Y-83466093D01*
X154612277Y-83264107D01*
X154592900Y-83055000D01*
X154612277Y-82845893D01*
X154669747Y-82643907D01*
X154763353Y-82455920D01*
X154889908Y-82288334D01*
X155045102Y-82146856D01*
X155223650Y-82036304D01*
X155419472Y-81960442D01*
X155625899Y-81921855D01*
X155835901Y-81921855D01*
X156042328Y-81960442D01*
G37*
G36*
X143925328Y-81950442D02*
G01*
X144121150Y-82026304D01*
X144299698Y-82136856D01*
X144454892Y-82278334D01*
X144581447Y-82445920D01*
X144675053Y-82633907D01*
X144732523Y-82835893D01*
X144751900Y-83045000D01*
X144732523Y-83254107D01*
X144675053Y-83456093D01*
X144581447Y-83644080D01*
X144454892Y-83811666D01*
X144299698Y-83953144D01*
X144121150Y-84063696D01*
X143925328Y-84139558D01*
X143718901Y-84178145D01*
X143508899Y-84178145D01*
X143302472Y-84139558D01*
X143106650Y-84063696D01*
X142928102Y-83953144D01*
X142772908Y-83811666D01*
X142646353Y-83644080D01*
X142552747Y-83456093D01*
X142495277Y-83254107D01*
X142475900Y-83045000D01*
X142495277Y-82835893D01*
X142552747Y-82633907D01*
X142646353Y-82445920D01*
X142772908Y-82278334D01*
X142928102Y-82136856D01*
X143106650Y-82026304D01*
X143302472Y-81950442D01*
X143508899Y-81911855D01*
X143718901Y-81911855D01*
X143925328Y-81950442D01*
G37*
G36*
X170474328Y-73439442D02*
G01*
X170670150Y-73515304D01*
X170848698Y-73625856D01*
X171003892Y-73767334D01*
X171130447Y-73934920D01*
X171224053Y-74122907D01*
X171281523Y-74324893D01*
X171300900Y-74534000D01*
X171281523Y-74743107D01*
X171224053Y-74945093D01*
X171130447Y-75133080D01*
X171003892Y-75300666D01*
X170848698Y-75442144D01*
X170670150Y-75552696D01*
X170474328Y-75628558D01*
X170267901Y-75667145D01*
X170057899Y-75667145D01*
X169851472Y-75628558D01*
X169655650Y-75552696D01*
X169477102Y-75442144D01*
X169321908Y-75300666D01*
X169195353Y-75133080D01*
X169101747Y-74945093D01*
X169044277Y-74743107D01*
X169024900Y-74534000D01*
X169044277Y-74324893D01*
X169101747Y-74122907D01*
X169195353Y-73934920D01*
X169321908Y-73767334D01*
X169477102Y-73625856D01*
X169655650Y-73515304D01*
X169851472Y-73439442D01*
X170057899Y-73400855D01*
X170267901Y-73400855D01*
X170474328Y-73439442D01*
G37*
G36*
X129493328Y-73429442D02*
G01*
X129689150Y-73505304D01*
X129867698Y-73615856D01*
X130022892Y-73757334D01*
X130149447Y-73924920D01*
X130243053Y-74112907D01*
X130300523Y-74314893D01*
X130319900Y-74524000D01*
X130300523Y-74733107D01*
X130243053Y-74935093D01*
X130149447Y-75123080D01*
X130022892Y-75290666D01*
X129867698Y-75432144D01*
X129689150Y-75542696D01*
X129493328Y-75618558D01*
X129286901Y-75657145D01*
X129076899Y-75657145D01*
X128870472Y-75618558D01*
X128674650Y-75542696D01*
X128496102Y-75432144D01*
X128340908Y-75290666D01*
X128214353Y-75123080D01*
X128120747Y-74935093D01*
X128063277Y-74733107D01*
X128043900Y-74524000D01*
X128063277Y-74314893D01*
X128120747Y-74112907D01*
X128214353Y-73924920D01*
X128340908Y-73757334D01*
X128496102Y-73615856D01*
X128674650Y-73505304D01*
X128870472Y-73429442D01*
X129076899Y-73390855D01*
X129286901Y-73390855D01*
X129493328Y-73429442D01*
G37*
G36*
X156597535Y-55105072D02*
G01*
X156720202Y-55129472D01*
X156835751Y-55177334D01*
X156939743Y-55246819D01*
X157028181Y-55335257D01*
X157097666Y-55439249D01*
X157145528Y-55554798D01*
X157169928Y-55677465D01*
X157169928Y-55802535D01*
X157145528Y-55925202D01*
X157097666Y-56040751D01*
X157028181Y-56144743D01*
X156939743Y-56233181D01*
X156835751Y-56302666D01*
X156720202Y-56350528D01*
X156597535Y-56374928D01*
X156535000Y-56378000D01*
X156533399Y-56378000D01*
X155986601Y-56378000D01*
X155985000Y-56378000D01*
X155922465Y-56374928D01*
X155799798Y-56350528D01*
X155684249Y-56302666D01*
X155580257Y-56233181D01*
X155491819Y-56144743D01*
X155422334Y-56040751D01*
X155374472Y-55925202D01*
X155350072Y-55802535D01*
X155350072Y-55677465D01*
X155374472Y-55554798D01*
X155422334Y-55439249D01*
X155491819Y-55335257D01*
X155580257Y-55246819D01*
X155684249Y-55177334D01*
X155799798Y-55129472D01*
X155922465Y-55105072D01*
X155985000Y-55102000D01*
X156535000Y-55102000D01*
X156597535Y-55105072D01*
G37*
G36*
X143587535Y-54965072D02*
G01*
X143710202Y-54989472D01*
X143825751Y-55037334D01*
X143929743Y-55106819D01*
X144018181Y-55195257D01*
X144087666Y-55299249D01*
X144135528Y-55414798D01*
X144159928Y-55537465D01*
X144159928Y-55662535D01*
X144135528Y-55785202D01*
X144087666Y-55900751D01*
X144018181Y-56004743D01*
X143929743Y-56093181D01*
X143825751Y-56162666D01*
X143710202Y-56210528D01*
X143587535Y-56234928D01*
X143525000Y-56238000D01*
X143523399Y-56238000D01*
X142976601Y-56238000D01*
X142975000Y-56238000D01*
X142912465Y-56234928D01*
X142789798Y-56210528D01*
X142674249Y-56162666D01*
X142570257Y-56093181D01*
X142481819Y-56004743D01*
X142412334Y-55900751D01*
X142364472Y-55785202D01*
X142340072Y-55662535D01*
X142340072Y-55537465D01*
X142364472Y-55414798D01*
X142412334Y-55299249D01*
X142481819Y-55195257D01*
X142570257Y-55106819D01*
X142674249Y-55037334D01*
X142789798Y-54989472D01*
X142912465Y-54965072D01*
X142975000Y-54962000D01*
X143525000Y-54962000D01*
X143587535Y-54965072D01*
G37*
G36*
X156597535Y-53105072D02*
G01*
X156720202Y-53129472D01*
X156835751Y-53177334D01*
X156939743Y-53246819D01*
X157028181Y-53335257D01*
X157097666Y-53439249D01*
X157145528Y-53554798D01*
X157169928Y-53677465D01*
X157169928Y-53802535D01*
X157145528Y-53925202D01*
X157097666Y-54040751D01*
X157028181Y-54144743D01*
X156939743Y-54233181D01*
X156835751Y-54302666D01*
X156720202Y-54350528D01*
X156597535Y-54374928D01*
X156535000Y-54378000D01*
X156533399Y-54378000D01*
X155986601Y-54378000D01*
X155985000Y-54378000D01*
X155922465Y-54374928D01*
X155799798Y-54350528D01*
X155684249Y-54302666D01*
X155580257Y-54233181D01*
X155491819Y-54144743D01*
X155422334Y-54040751D01*
X155374472Y-53925202D01*
X155350072Y-53802535D01*
X155350072Y-53677465D01*
X155374472Y-53554798D01*
X155422334Y-53439249D01*
X155491819Y-53335257D01*
X155580257Y-53246819D01*
X155684249Y-53177334D01*
X155799798Y-53129472D01*
X155922465Y-53105072D01*
X155985000Y-53102000D01*
X156535000Y-53102000D01*
X156597535Y-53105072D01*
G37*
G36*
X143587535Y-52965072D02*
G01*
X143710202Y-52989472D01*
X143825751Y-53037334D01*
X143929743Y-53106819D01*
X144018181Y-53195257D01*
X144087666Y-53299249D01*
X144135528Y-53414798D01*
X144159928Y-53537465D01*
X144159928Y-53662535D01*
X144135528Y-53785202D01*
X144087666Y-53900751D01*
X144018181Y-54004743D01*
X143929743Y-54093181D01*
X143825751Y-54162666D01*
X143710202Y-54210528D01*
X143587535Y-54234928D01*
X143525000Y-54238000D01*
X143523399Y-54238000D01*
X142976601Y-54238000D01*
X142975000Y-54238000D01*
X142912465Y-54234928D01*
X142789798Y-54210528D01*
X142674249Y-54162666D01*
X142570257Y-54093181D01*
X142481819Y-54004743D01*
X142412334Y-53900751D01*
X142364472Y-53785202D01*
X142340072Y-53662535D01*
X142340072Y-53537465D01*
X142364472Y-53414798D01*
X142412334Y-53299249D01*
X142481819Y-53195257D01*
X142570257Y-53106819D01*
X142674249Y-53037334D01*
X142789798Y-52989472D01*
X142912465Y-52965072D01*
X142975000Y-52962000D01*
X143525000Y-52962000D01*
X143587535Y-52965072D01*
G37*
G36*
X167403987Y-48704566D02*
G01*
X167559655Y-48759036D01*
X167699300Y-48846781D01*
X167815919Y-48963400D01*
X167903664Y-49103045D01*
X167958134Y-49258713D01*
X167976600Y-49422600D01*
X167958134Y-49586487D01*
X167903664Y-49742155D01*
X167815919Y-49881800D01*
X167699300Y-49998419D01*
X167559655Y-50086164D01*
X167403987Y-50140634D01*
X167240100Y-50159100D01*
X167076213Y-50140634D01*
X166920545Y-50086164D01*
X166780900Y-49998419D01*
X166664281Y-49881800D01*
X166576536Y-49742155D01*
X166522066Y-49586487D01*
X166503600Y-49422600D01*
X166522066Y-49258713D01*
X166576536Y-49103045D01*
X166664281Y-48963400D01*
X166780900Y-48846781D01*
X166920545Y-48759036D01*
X167076213Y-48704566D01*
X167240100Y-48686100D01*
X167403987Y-48704566D01*
G37*
G36*
X169308987Y-48704566D02*
G01*
X169464655Y-48759036D01*
X169604300Y-48846781D01*
X169720919Y-48963400D01*
X169808664Y-49103045D01*
X169863134Y-49258713D01*
X169881600Y-49422600D01*
X169863134Y-49586487D01*
X169808664Y-49742155D01*
X169720919Y-49881800D01*
X169604300Y-49998419D01*
X169464655Y-50086164D01*
X169308987Y-50140634D01*
X169145100Y-50159100D01*
X168981213Y-50140634D01*
X168825545Y-50086164D01*
X168685900Y-49998419D01*
X168569281Y-49881800D01*
X168481536Y-49742155D01*
X168427066Y-49586487D01*
X168408600Y-49422600D01*
X168427066Y-49258713D01*
X168481536Y-49103045D01*
X168569281Y-48963400D01*
X168685900Y-48846781D01*
X168825545Y-48759036D01*
X168981213Y-48704566D01*
X169145100Y-48686100D01*
X169308987Y-48704566D01*
G37*
G36*
X140108987Y-48624566D02*
G01*
X140264655Y-48679036D01*
X140404300Y-48766781D01*
X140520919Y-48883400D01*
X140608664Y-49023045D01*
X140663134Y-49178713D01*
X140681600Y-49342600D01*
X140663134Y-49506487D01*
X140608664Y-49662155D01*
X140520919Y-49801800D01*
X140404300Y-49918419D01*
X140264655Y-50006164D01*
X140108987Y-50060634D01*
X139945100Y-50079100D01*
X139781213Y-50060634D01*
X139625545Y-50006164D01*
X139485900Y-49918419D01*
X139369281Y-49801800D01*
X139281536Y-49662155D01*
X139227066Y-49506487D01*
X139208600Y-49342600D01*
X139227066Y-49178713D01*
X139281536Y-49023045D01*
X139369281Y-48883400D01*
X139485900Y-48766781D01*
X139625545Y-48679036D01*
X139781213Y-48624566D01*
X139945100Y-48606100D01*
X140108987Y-48624566D01*
G37*
G36*
X142013987Y-48624566D02*
G01*
X142169655Y-48679036D01*
X142309300Y-48766781D01*
X142425919Y-48883400D01*
X142513664Y-49023045D01*
X142568134Y-49178713D01*
X142586600Y-49342600D01*
X142568134Y-49506487D01*
X142513664Y-49662155D01*
X142425919Y-49801800D01*
X142309300Y-49918419D01*
X142169655Y-50006164D01*
X142013987Y-50060634D01*
X141850100Y-50079100D01*
X141686213Y-50060634D01*
X141530545Y-50006164D01*
X141390900Y-49918419D01*
X141274281Y-49801800D01*
X141186536Y-49662155D01*
X141132066Y-49506487D01*
X141113600Y-49342600D01*
X141132066Y-49178713D01*
X141186536Y-49023045D01*
X141274281Y-48883400D01*
X141390900Y-48766781D01*
X141530545Y-48679036D01*
X141686213Y-48624566D01*
X141850100Y-48606100D01*
X142013987Y-48624566D01*
G37*
G36*
X155851240Y-46863517D02*
G01*
X156031587Y-46899390D01*
X156201470Y-46969758D01*
X156354361Y-47071916D01*
X156484384Y-47201939D01*
X156586542Y-47354830D01*
X156656910Y-47524713D01*
X156692783Y-47705060D01*
X156692783Y-47888940D01*
X156656910Y-48069287D01*
X156586542Y-48239170D01*
X156484384Y-48392061D01*
X156354361Y-48522084D01*
X156201470Y-48624242D01*
X156031587Y-48694610D01*
X155851240Y-48730483D01*
X155759300Y-48735000D01*
X155757698Y-48735000D01*
X154810902Y-48735000D01*
X154809300Y-48735000D01*
X154717360Y-48730483D01*
X154537013Y-48694610D01*
X154367130Y-48624242D01*
X154214239Y-48522084D01*
X154084216Y-48392061D01*
X153982058Y-48239170D01*
X153911690Y-48069287D01*
X153875817Y-47888940D01*
X153875817Y-47705060D01*
X153911690Y-47524713D01*
X153982058Y-47354830D01*
X154084216Y-47201939D01*
X154214239Y-47071916D01*
X154367130Y-46969758D01*
X154537013Y-46899390D01*
X154717360Y-46863517D01*
X154809300Y-46859000D01*
X155759300Y-46859000D01*
X155851240Y-46863517D01*
G37*
G36*
X172041240Y-46863517D02*
G01*
X172221587Y-46899390D01*
X172391470Y-46969758D01*
X172544361Y-47071916D01*
X172674384Y-47201939D01*
X172776542Y-47354830D01*
X172846910Y-47524713D01*
X172882783Y-47705060D01*
X172882783Y-47888940D01*
X172846910Y-48069287D01*
X172776542Y-48239170D01*
X172674384Y-48392061D01*
X172544361Y-48522084D01*
X172391470Y-48624242D01*
X172221587Y-48694610D01*
X172041240Y-48730483D01*
X171949300Y-48735000D01*
X171947698Y-48735000D01*
X171000902Y-48735000D01*
X170999300Y-48735000D01*
X170907360Y-48730483D01*
X170727013Y-48694610D01*
X170557130Y-48624242D01*
X170404239Y-48522084D01*
X170274216Y-48392061D01*
X170172058Y-48239170D01*
X170101690Y-48069287D01*
X170065817Y-47888940D01*
X170065817Y-47705060D01*
X170101690Y-47524713D01*
X170172058Y-47354830D01*
X170274216Y-47201939D01*
X170404239Y-47071916D01*
X170557130Y-46969758D01*
X170727013Y-46899390D01*
X170907360Y-46863517D01*
X170999300Y-46859000D01*
X171949300Y-46859000D01*
X172041240Y-46863517D01*
G37*
G36*
X128556240Y-46783517D02*
G01*
X128736587Y-46819390D01*
X128906470Y-46889758D01*
X129059361Y-46991916D01*
X129189384Y-47121939D01*
X129291542Y-47274830D01*
X129361910Y-47444713D01*
X129397783Y-47625060D01*
X129397783Y-47808940D01*
X129361910Y-47989287D01*
X129291542Y-48159170D01*
X129189384Y-48312061D01*
X129059361Y-48442084D01*
X128906470Y-48544242D01*
X128736587Y-48614610D01*
X128556240Y-48650483D01*
X128464300Y-48655000D01*
X128462698Y-48655000D01*
X127515902Y-48655000D01*
X127514300Y-48655000D01*
X127422360Y-48650483D01*
X127242013Y-48614610D01*
X127072130Y-48544242D01*
X126919239Y-48442084D01*
X126789216Y-48312061D01*
X126687058Y-48159170D01*
X126616690Y-47989287D01*
X126580817Y-47808940D01*
X126580817Y-47625060D01*
X126616690Y-47444713D01*
X126687058Y-47274830D01*
X126789216Y-47121939D01*
X126919239Y-46991916D01*
X127072130Y-46889758D01*
X127242013Y-46819390D01*
X127422360Y-46783517D01*
X127514300Y-46779000D01*
X128464300Y-46779000D01*
X128556240Y-46783517D01*
G37*
G36*
X144746240Y-46783517D02*
G01*
X144926587Y-46819390D01*
X145096470Y-46889758D01*
X145249361Y-46991916D01*
X145379384Y-47121939D01*
X145481542Y-47274830D01*
X145551910Y-47444713D01*
X145587783Y-47625060D01*
X145587783Y-47808940D01*
X145551910Y-47989287D01*
X145481542Y-48159170D01*
X145379384Y-48312061D01*
X145249361Y-48442084D01*
X145096470Y-48544242D01*
X144926587Y-48614610D01*
X144746240Y-48650483D01*
X144654300Y-48655000D01*
X144652698Y-48655000D01*
X143705902Y-48655000D01*
X143704300Y-48655000D01*
X143612360Y-48650483D01*
X143432013Y-48614610D01*
X143262130Y-48544242D01*
X143109239Y-48442084D01*
X142979216Y-48312061D01*
X142877058Y-48159170D01*
X142806690Y-47989287D01*
X142770817Y-47808940D01*
X142770817Y-47625060D01*
X142806690Y-47444713D01*
X142877058Y-47274830D01*
X142979216Y-47121939D01*
X143109239Y-46991916D01*
X143262130Y-46889758D01*
X143432013Y-46819390D01*
X143612360Y-46783517D01*
X143704300Y-46779000D01*
X144654300Y-46779000D01*
X144746240Y-46783517D01*
G37*
G36*
X155851240Y-44323517D02*
G01*
X156031587Y-44359390D01*
X156201470Y-44429758D01*
X156354361Y-44531916D01*
X156484384Y-44661939D01*
X156586542Y-44814830D01*
X156656910Y-44984713D01*
X156692783Y-45165060D01*
X156692783Y-45348940D01*
X156656910Y-45529287D01*
X156586542Y-45699170D01*
X156484384Y-45852061D01*
X156354361Y-45982084D01*
X156201470Y-46084242D01*
X156031587Y-46154610D01*
X155851240Y-46190483D01*
X155759300Y-46195000D01*
X155757698Y-46195000D01*
X154810902Y-46195000D01*
X154809300Y-46195000D01*
X154717360Y-46190483D01*
X154537013Y-46154610D01*
X154367130Y-46084242D01*
X154214239Y-45982084D01*
X154084216Y-45852061D01*
X153982058Y-45699170D01*
X153911690Y-45529287D01*
X153875817Y-45348940D01*
X153875817Y-45165060D01*
X153911690Y-44984713D01*
X153982058Y-44814830D01*
X154084216Y-44661939D01*
X154214239Y-44531916D01*
X154367130Y-44429758D01*
X154537013Y-44359390D01*
X154717360Y-44323517D01*
X154809300Y-44319000D01*
X155759300Y-44319000D01*
X155851240Y-44323517D01*
G37*
G36*
X172041240Y-44323517D02*
G01*
X172221587Y-44359390D01*
X172391470Y-44429758D01*
X172544361Y-44531916D01*
X172674384Y-44661939D01*
X172776542Y-44814830D01*
X172846910Y-44984713D01*
X172882783Y-45165060D01*
X172882783Y-45348940D01*
X172846910Y-45529287D01*
X172776542Y-45699170D01*
X172674384Y-45852061D01*
X172544361Y-45982084D01*
X172391470Y-46084242D01*
X172221587Y-46154610D01*
X172041240Y-46190483D01*
X171949300Y-46195000D01*
X171947698Y-46195000D01*
X171000902Y-46195000D01*
X170999300Y-46195000D01*
X170907360Y-46190483D01*
X170727013Y-46154610D01*
X170557130Y-46084242D01*
X170404239Y-45982084D01*
X170274216Y-45852061D01*
X170172058Y-45699170D01*
X170101690Y-45529287D01*
X170065817Y-45348940D01*
X170065817Y-45165060D01*
X170101690Y-44984713D01*
X170172058Y-44814830D01*
X170274216Y-44661939D01*
X170404239Y-44531916D01*
X170557130Y-44429758D01*
X170727013Y-44359390D01*
X170907360Y-44323517D01*
X170999300Y-44319000D01*
X171949300Y-44319000D01*
X172041240Y-44323517D01*
G37*
G36*
X128556240Y-44243517D02*
G01*
X128736587Y-44279390D01*
X128906470Y-44349758D01*
X129059361Y-44451916D01*
X129189384Y-44581939D01*
X129291542Y-44734830D01*
X129361910Y-44904713D01*
X129397783Y-45085060D01*
X129397783Y-45268940D01*
X129361910Y-45449287D01*
X129291542Y-45619170D01*
X129189384Y-45772061D01*
X129059361Y-45902084D01*
X128906470Y-46004242D01*
X128736587Y-46074610D01*
X128556240Y-46110483D01*
X128464300Y-46115000D01*
X128462698Y-46115000D01*
X127515902Y-46115000D01*
X127514300Y-46115000D01*
X127422360Y-46110483D01*
X127242013Y-46074610D01*
X127072130Y-46004242D01*
X126919239Y-45902084D01*
X126789216Y-45772061D01*
X126687058Y-45619170D01*
X126616690Y-45449287D01*
X126580817Y-45268940D01*
X126580817Y-45085060D01*
X126616690Y-44904713D01*
X126687058Y-44734830D01*
X126789216Y-44581939D01*
X126919239Y-44451916D01*
X127072130Y-44349758D01*
X127242013Y-44279390D01*
X127422360Y-44243517D01*
X127514300Y-44239000D01*
X128464300Y-44239000D01*
X128556240Y-44243517D01*
G37*
G36*
X144746240Y-44243517D02*
G01*
X144926587Y-44279390D01*
X145096470Y-44349758D01*
X145249361Y-44451916D01*
X145379384Y-44581939D01*
X145481542Y-44734830D01*
X145551910Y-44904713D01*
X145587783Y-45085060D01*
X145587783Y-45268940D01*
X145551910Y-45449287D01*
X145481542Y-45619170D01*
X145379384Y-45772061D01*
X145249361Y-45902084D01*
X145096470Y-46004242D01*
X144926587Y-46074610D01*
X144746240Y-46110483D01*
X144654300Y-46115000D01*
X144652698Y-46115000D01*
X143705902Y-46115000D01*
X143704300Y-46115000D01*
X143612360Y-46110483D01*
X143432013Y-46074610D01*
X143262130Y-46004242D01*
X143109239Y-45902084D01*
X142979216Y-45772061D01*
X142877058Y-45619170D01*
X142806690Y-45449287D01*
X142770817Y-45268940D01*
X142770817Y-45085060D01*
X142806690Y-44904713D01*
X142877058Y-44734830D01*
X142979216Y-44581939D01*
X143109239Y-44451916D01*
X143262130Y-44349758D01*
X143432013Y-44279390D01*
X143612360Y-44243517D01*
X143704300Y-44239000D01*
X144654300Y-44239000D01*
X144746240Y-44243517D01*
G37*
G36*
X155851240Y-41783517D02*
G01*
X156031587Y-41819390D01*
X156201470Y-41889758D01*
X156354361Y-41991916D01*
X156484384Y-42121939D01*
X156586542Y-42274830D01*
X156656910Y-42444713D01*
X156692783Y-42625060D01*
X156692783Y-42808940D01*
X156656910Y-42989287D01*
X156586542Y-43159170D01*
X156484384Y-43312061D01*
X156354361Y-43442084D01*
X156201470Y-43544242D01*
X156031587Y-43614610D01*
X155851240Y-43650483D01*
X155759300Y-43655000D01*
X155757698Y-43655000D01*
X154810902Y-43655000D01*
X154809300Y-43655000D01*
X154717360Y-43650483D01*
X154537013Y-43614610D01*
X154367130Y-43544242D01*
X154214239Y-43442084D01*
X154084216Y-43312061D01*
X153982058Y-43159170D01*
X153911690Y-42989287D01*
X153875817Y-42808940D01*
X153875817Y-42625060D01*
X153911690Y-42444713D01*
X153982058Y-42274830D01*
X154084216Y-42121939D01*
X154214239Y-41991916D01*
X154367130Y-41889758D01*
X154537013Y-41819390D01*
X154717360Y-41783517D01*
X154809300Y-41779000D01*
X155759300Y-41779000D01*
X155851240Y-41783517D01*
G37*
G36*
X172041240Y-41783517D02*
G01*
X172221587Y-41819390D01*
X172391470Y-41889758D01*
X172544361Y-41991916D01*
X172674384Y-42121939D01*
X172776542Y-42274830D01*
X172846910Y-42444713D01*
X172882783Y-42625060D01*
X172882783Y-42808940D01*
X172846910Y-42989287D01*
X172776542Y-43159170D01*
X172674384Y-43312061D01*
X172544361Y-43442084D01*
X172391470Y-43544242D01*
X172221587Y-43614610D01*
X172041240Y-43650483D01*
X171949300Y-43655000D01*
X171947698Y-43655000D01*
X171000902Y-43655000D01*
X170999300Y-43655000D01*
X170907360Y-43650483D01*
X170727013Y-43614610D01*
X170557130Y-43544242D01*
X170404239Y-43442084D01*
X170274216Y-43312061D01*
X170172058Y-43159170D01*
X170101690Y-42989287D01*
X170065817Y-42808940D01*
X170065817Y-42625060D01*
X170101690Y-42444713D01*
X170172058Y-42274830D01*
X170274216Y-42121939D01*
X170404239Y-41991916D01*
X170557130Y-41889758D01*
X170727013Y-41819390D01*
X170907360Y-41783517D01*
X170999300Y-41779000D01*
X171949300Y-41779000D01*
X172041240Y-41783517D01*
G37*
G36*
X128556240Y-41703517D02*
G01*
X128736587Y-41739390D01*
X128906470Y-41809758D01*
X129059361Y-41911916D01*
X129189384Y-42041939D01*
X129291542Y-42194830D01*
X129361910Y-42364713D01*
X129397783Y-42545060D01*
X129397783Y-42728940D01*
X129361910Y-42909287D01*
X129291542Y-43079170D01*
X129189384Y-43232061D01*
X129059361Y-43362084D01*
X128906470Y-43464242D01*
X128736587Y-43534610D01*
X128556240Y-43570483D01*
X128464300Y-43575000D01*
X128462698Y-43575000D01*
X127515902Y-43575000D01*
X127514300Y-43575000D01*
X127422360Y-43570483D01*
X127242013Y-43534610D01*
X127072130Y-43464242D01*
X126919239Y-43362084D01*
X126789216Y-43232061D01*
X126687058Y-43079170D01*
X126616690Y-42909287D01*
X126580817Y-42728940D01*
X126580817Y-42545060D01*
X126616690Y-42364713D01*
X126687058Y-42194830D01*
X126789216Y-42041939D01*
X126919239Y-41911916D01*
X127072130Y-41809758D01*
X127242013Y-41739390D01*
X127422360Y-41703517D01*
X127514300Y-41699000D01*
X128464300Y-41699000D01*
X128556240Y-41703517D01*
G37*
G36*
X144746240Y-41703517D02*
G01*
X144926587Y-41739390D01*
X145096470Y-41809758D01*
X145249361Y-41911916D01*
X145379384Y-42041939D01*
X145481542Y-42194830D01*
X145551910Y-42364713D01*
X145587783Y-42545060D01*
X145587783Y-42728940D01*
X145551910Y-42909287D01*
X145481542Y-43079170D01*
X145379384Y-43232061D01*
X145249361Y-43362084D01*
X145096470Y-43464242D01*
X144926587Y-43534610D01*
X144746240Y-43570483D01*
X144654300Y-43575000D01*
X144652698Y-43575000D01*
X143705902Y-43575000D01*
X143704300Y-43575000D01*
X143612360Y-43570483D01*
X143432013Y-43534610D01*
X143262130Y-43464242D01*
X143109239Y-43362084D01*
X142979216Y-43232061D01*
X142877058Y-43079170D01*
X142806690Y-42909287D01*
X142770817Y-42728940D01*
X142770817Y-42545060D01*
X142806690Y-42364713D01*
X142877058Y-42194830D01*
X142979216Y-42041939D01*
X143109239Y-41911916D01*
X143262130Y-41809758D01*
X143432013Y-41739390D01*
X143612360Y-41703517D01*
X143704300Y-41699000D01*
X144654300Y-41699000D01*
X144746240Y-41703517D01*
G37*
G36*
X155851240Y-39243517D02*
G01*
X156031587Y-39279390D01*
X156201470Y-39349758D01*
X156354361Y-39451916D01*
X156484384Y-39581939D01*
X156586542Y-39734830D01*
X156656910Y-39904713D01*
X156692783Y-40085060D01*
X156692783Y-40268940D01*
X156656910Y-40449287D01*
X156586542Y-40619170D01*
X156484384Y-40772061D01*
X156354361Y-40902084D01*
X156201470Y-41004242D01*
X156031587Y-41074610D01*
X155851240Y-41110483D01*
X155759300Y-41115000D01*
X155757698Y-41115000D01*
X154810902Y-41115000D01*
X154809300Y-41115000D01*
X154717360Y-41110483D01*
X154537013Y-41074610D01*
X154367130Y-41004242D01*
X154214239Y-40902084D01*
X154084216Y-40772061D01*
X153982058Y-40619170D01*
X153911690Y-40449287D01*
X153875817Y-40268940D01*
X153875817Y-40085060D01*
X153911690Y-39904713D01*
X153982058Y-39734830D01*
X154084216Y-39581939D01*
X154214239Y-39451916D01*
X154367130Y-39349758D01*
X154537013Y-39279390D01*
X154717360Y-39243517D01*
X154809300Y-39239000D01*
X155759300Y-39239000D01*
X155851240Y-39243517D01*
G37*
G36*
X172041240Y-39243517D02*
G01*
X172221587Y-39279390D01*
X172391470Y-39349758D01*
X172544361Y-39451916D01*
X172674384Y-39581939D01*
X172776542Y-39734830D01*
X172846910Y-39904713D01*
X172882783Y-40085060D01*
X172882783Y-40268940D01*
X172846910Y-40449287D01*
X172776542Y-40619170D01*
X172674384Y-40772061D01*
X172544361Y-40902084D01*
X172391470Y-41004242D01*
X172221587Y-41074610D01*
X172041240Y-41110483D01*
X171949300Y-41115000D01*
X171947698Y-41115000D01*
X171000902Y-41115000D01*
X170999300Y-41115000D01*
X170907360Y-41110483D01*
X170727013Y-41074610D01*
X170557130Y-41004242D01*
X170404239Y-40902084D01*
X170274216Y-40772061D01*
X170172058Y-40619170D01*
X170101690Y-40449287D01*
X170065817Y-40268940D01*
X170065817Y-40085060D01*
X170101690Y-39904713D01*
X170172058Y-39734830D01*
X170274216Y-39581939D01*
X170404239Y-39451916D01*
X170557130Y-39349758D01*
X170727013Y-39279390D01*
X170907360Y-39243517D01*
X170999300Y-39239000D01*
X171949300Y-39239000D01*
X172041240Y-39243517D01*
G37*
G36*
X128556240Y-39163517D02*
G01*
X128736587Y-39199390D01*
X128906470Y-39269758D01*
X129059361Y-39371916D01*
X129189384Y-39501939D01*
X129291542Y-39654830D01*
X129361910Y-39824713D01*
X129397783Y-40005060D01*
X129397783Y-40188940D01*
X129361910Y-40369287D01*
X129291542Y-40539170D01*
X129189384Y-40692061D01*
X129059361Y-40822084D01*
X128906470Y-40924242D01*
X128736587Y-40994610D01*
X128556240Y-41030483D01*
X128464300Y-41035000D01*
X128462698Y-41035000D01*
X127515902Y-41035000D01*
X127514300Y-41035000D01*
X127422360Y-41030483D01*
X127242013Y-40994610D01*
X127072130Y-40924242D01*
X126919239Y-40822084D01*
X126789216Y-40692061D01*
X126687058Y-40539170D01*
X126616690Y-40369287D01*
X126580817Y-40188940D01*
X126580817Y-40005060D01*
X126616690Y-39824713D01*
X126687058Y-39654830D01*
X126789216Y-39501939D01*
X126919239Y-39371916D01*
X127072130Y-39269758D01*
X127242013Y-39199390D01*
X127422360Y-39163517D01*
X127514300Y-39159000D01*
X128464300Y-39159000D01*
X128556240Y-39163517D01*
G37*
G36*
X144746240Y-39163517D02*
G01*
X144926587Y-39199390D01*
X145096470Y-39269758D01*
X145249361Y-39371916D01*
X145379384Y-39501939D01*
X145481542Y-39654830D01*
X145551910Y-39824713D01*
X145587783Y-40005060D01*
X145587783Y-40188940D01*
X145551910Y-40369287D01*
X145481542Y-40539170D01*
X145379384Y-40692061D01*
X145249361Y-40822084D01*
X145096470Y-40924242D01*
X144926587Y-40994610D01*
X144746240Y-41030483D01*
X144654300Y-41035000D01*
X144652698Y-41035000D01*
X143705902Y-41035000D01*
X143704300Y-41035000D01*
X143612360Y-41030483D01*
X143432013Y-40994610D01*
X143262130Y-40924242D01*
X143109239Y-40822084D01*
X142979216Y-40692061D01*
X142877058Y-40539170D01*
X142806690Y-40369287D01*
X142770817Y-40188940D01*
X142770817Y-40005060D01*
X142806690Y-39824713D01*
X142877058Y-39654830D01*
X142979216Y-39501939D01*
X143109239Y-39371916D01*
X143262130Y-39269758D01*
X143432013Y-39199390D01*
X143612360Y-39163517D01*
X143704300Y-39159000D01*
X144654300Y-39159000D01*
X144746240Y-39163517D01*
G37*
G36*
X159098187Y-39141966D02*
G01*
X159253855Y-39196436D01*
X159393500Y-39284181D01*
X159510119Y-39400800D01*
X159597864Y-39540445D01*
X159652334Y-39696113D01*
X159670800Y-39860000D01*
X159652334Y-40023887D01*
X159597864Y-40179555D01*
X159510119Y-40319200D01*
X159393500Y-40435819D01*
X159253855Y-40523564D01*
X159098187Y-40578034D01*
X158934300Y-40596500D01*
X158770413Y-40578034D01*
X158614745Y-40523564D01*
X158475100Y-40435819D01*
X158358481Y-40319200D01*
X158270736Y-40179555D01*
X158216266Y-40023887D01*
X158197800Y-39860000D01*
X158216266Y-39696113D01*
X158270736Y-39540445D01*
X158358481Y-39400800D01*
X158475100Y-39284181D01*
X158614745Y-39196436D01*
X158770413Y-39141966D01*
X158934300Y-39123500D01*
X159098187Y-39141966D01*
G37*
G36*
X131803187Y-39061966D02*
G01*
X131958855Y-39116436D01*
X132098500Y-39204181D01*
X132215119Y-39320800D01*
X132302864Y-39460445D01*
X132357334Y-39616113D01*
X132375800Y-39780000D01*
X132357334Y-39943887D01*
X132302864Y-40099555D01*
X132215119Y-40239200D01*
X132098500Y-40355819D01*
X131958855Y-40443564D01*
X131803187Y-40498034D01*
X131639300Y-40516500D01*
X131475413Y-40498034D01*
X131319745Y-40443564D01*
X131180100Y-40355819D01*
X131063481Y-40239200D01*
X130975736Y-40099555D01*
X130921266Y-39943887D01*
X130902800Y-39780000D01*
X130921266Y-39616113D01*
X130975736Y-39460445D01*
X131063481Y-39320800D01*
X131180100Y-39204181D01*
X131319745Y-39116436D01*
X131475413Y-39061966D01*
X131639300Y-39043500D01*
X131803187Y-39061966D01*
G37*
G36*
X155851240Y-36703517D02*
G01*
X156031587Y-36739390D01*
X156201470Y-36809758D01*
X156354361Y-36911916D01*
X156484384Y-37041939D01*
X156586542Y-37194830D01*
X156656910Y-37364713D01*
X156692783Y-37545060D01*
X156692783Y-37728940D01*
X156656910Y-37909287D01*
X156586542Y-38079170D01*
X156484384Y-38232061D01*
X156354361Y-38362084D01*
X156201470Y-38464242D01*
X156031587Y-38534610D01*
X155851240Y-38570483D01*
X155759300Y-38575000D01*
X155757698Y-38575000D01*
X154810902Y-38575000D01*
X154809300Y-38575000D01*
X154717360Y-38570483D01*
X154537013Y-38534610D01*
X154367130Y-38464242D01*
X154214239Y-38362084D01*
X154084216Y-38232061D01*
X153982058Y-38079170D01*
X153911690Y-37909287D01*
X153875817Y-37728940D01*
X153875817Y-37545060D01*
X153911690Y-37364713D01*
X153982058Y-37194830D01*
X154084216Y-37041939D01*
X154214239Y-36911916D01*
X154367130Y-36809758D01*
X154537013Y-36739390D01*
X154717360Y-36703517D01*
X154809300Y-36699000D01*
X155759300Y-36699000D01*
X155851240Y-36703517D01*
G37*
G36*
X172041240Y-36703517D02*
G01*
X172221587Y-36739390D01*
X172391470Y-36809758D01*
X172544361Y-36911916D01*
X172674384Y-37041939D01*
X172776542Y-37194830D01*
X172846910Y-37364713D01*
X172882783Y-37545060D01*
X172882783Y-37728940D01*
X172846910Y-37909287D01*
X172776542Y-38079170D01*
X172674384Y-38232061D01*
X172544361Y-38362084D01*
X172391470Y-38464242D01*
X172221587Y-38534610D01*
X172041240Y-38570483D01*
X171949300Y-38575000D01*
X171947698Y-38575000D01*
X171000902Y-38575000D01*
X170999300Y-38575000D01*
X170907360Y-38570483D01*
X170727013Y-38534610D01*
X170557130Y-38464242D01*
X170404239Y-38362084D01*
X170274216Y-38232061D01*
X170172058Y-38079170D01*
X170101690Y-37909287D01*
X170065817Y-37728940D01*
X170065817Y-37545060D01*
X170101690Y-37364713D01*
X170172058Y-37194830D01*
X170274216Y-37041939D01*
X170404239Y-36911916D01*
X170557130Y-36809758D01*
X170727013Y-36739390D01*
X170907360Y-36703517D01*
X170999300Y-36699000D01*
X171949300Y-36699000D01*
X172041240Y-36703517D01*
G37*
G36*
X128556240Y-36623517D02*
G01*
X128736587Y-36659390D01*
X128906470Y-36729758D01*
X129059361Y-36831916D01*
X129189384Y-36961939D01*
X129291542Y-37114830D01*
X129361910Y-37284713D01*
X129397783Y-37465060D01*
X129397783Y-37648940D01*
X129361910Y-37829287D01*
X129291542Y-37999170D01*
X129189384Y-38152061D01*
X129059361Y-38282084D01*
X128906470Y-38384242D01*
X128736587Y-38454610D01*
X128556240Y-38490483D01*
X128464300Y-38495000D01*
X128462698Y-38495000D01*
X127515902Y-38495000D01*
X127514300Y-38495000D01*
X127422360Y-38490483D01*
X127242013Y-38454610D01*
X127072130Y-38384242D01*
X126919239Y-38282084D01*
X126789216Y-38152061D01*
X126687058Y-37999170D01*
X126616690Y-37829287D01*
X126580817Y-37648940D01*
X126580817Y-37465060D01*
X126616690Y-37284713D01*
X126687058Y-37114830D01*
X126789216Y-36961939D01*
X126919239Y-36831916D01*
X127072130Y-36729758D01*
X127242013Y-36659390D01*
X127422360Y-36623517D01*
X127514300Y-36619000D01*
X128464300Y-36619000D01*
X128556240Y-36623517D01*
G37*
G36*
X144746240Y-36623517D02*
G01*
X144926587Y-36659390D01*
X145096470Y-36729758D01*
X145249361Y-36831916D01*
X145379384Y-36961939D01*
X145481542Y-37114830D01*
X145551910Y-37284713D01*
X145587783Y-37465060D01*
X145587783Y-37648940D01*
X145551910Y-37829287D01*
X145481542Y-37999170D01*
X145379384Y-38152061D01*
X145249361Y-38282084D01*
X145096470Y-38384242D01*
X144926587Y-38454610D01*
X144746240Y-38490483D01*
X144654300Y-38495000D01*
X144652698Y-38495000D01*
X143705902Y-38495000D01*
X143704300Y-38495000D01*
X143612360Y-38490483D01*
X143432013Y-38454610D01*
X143262130Y-38384242D01*
X143109239Y-38282084D01*
X142979216Y-38152061D01*
X142877058Y-37999170D01*
X142806690Y-37829287D01*
X142770817Y-37648940D01*
X142770817Y-37465060D01*
X142806690Y-37284713D01*
X142877058Y-37114830D01*
X142979216Y-36961939D01*
X143109239Y-36831916D01*
X143262130Y-36729758D01*
X143432013Y-36659390D01*
X143612360Y-36623517D01*
X143704300Y-36619000D01*
X144654300Y-36619000D01*
X144746240Y-36623517D01*
G37*
G36*
X155851240Y-34163517D02*
G01*
X156031587Y-34199390D01*
X156201470Y-34269758D01*
X156354361Y-34371916D01*
X156484384Y-34501939D01*
X156586542Y-34654830D01*
X156656910Y-34824713D01*
X156692783Y-35005060D01*
X156692783Y-35188940D01*
X156656910Y-35369287D01*
X156586542Y-35539170D01*
X156484384Y-35692061D01*
X156354361Y-35822084D01*
X156201470Y-35924242D01*
X156031587Y-35994610D01*
X155851240Y-36030483D01*
X155759300Y-36035000D01*
X155757698Y-36035000D01*
X154810902Y-36035000D01*
X154809300Y-36035000D01*
X154717360Y-36030483D01*
X154537013Y-35994610D01*
X154367130Y-35924242D01*
X154214239Y-35822084D01*
X154084216Y-35692061D01*
X153982058Y-35539170D01*
X153911690Y-35369287D01*
X153875817Y-35188940D01*
X153875817Y-35005060D01*
X153911690Y-34824713D01*
X153982058Y-34654830D01*
X154084216Y-34501939D01*
X154214239Y-34371916D01*
X154367130Y-34269758D01*
X154537013Y-34199390D01*
X154717360Y-34163517D01*
X154809300Y-34159000D01*
X155759300Y-34159000D01*
X155851240Y-34163517D01*
G37*
G36*
X172041240Y-34163517D02*
G01*
X172221587Y-34199390D01*
X172391470Y-34269758D01*
X172544361Y-34371916D01*
X172674384Y-34501939D01*
X172776542Y-34654830D01*
X172846910Y-34824713D01*
X172882783Y-35005060D01*
X172882783Y-35188940D01*
X172846910Y-35369287D01*
X172776542Y-35539170D01*
X172674384Y-35692061D01*
X172544361Y-35822084D01*
X172391470Y-35924242D01*
X172221587Y-35994610D01*
X172041240Y-36030483D01*
X171949300Y-36035000D01*
X171947698Y-36035000D01*
X171000902Y-36035000D01*
X170999300Y-36035000D01*
X170907360Y-36030483D01*
X170727013Y-35994610D01*
X170557130Y-35924242D01*
X170404239Y-35822084D01*
X170274216Y-35692061D01*
X170172058Y-35539170D01*
X170101690Y-35369287D01*
X170065817Y-35188940D01*
X170065817Y-35005060D01*
X170101690Y-34824713D01*
X170172058Y-34654830D01*
X170274216Y-34501939D01*
X170404239Y-34371916D01*
X170557130Y-34269758D01*
X170727013Y-34199390D01*
X170907360Y-34163517D01*
X170999300Y-34159000D01*
X171949300Y-34159000D01*
X172041240Y-34163517D01*
G37*
G36*
X128556240Y-34083517D02*
G01*
X128736587Y-34119390D01*
X128906470Y-34189758D01*
X129059361Y-34291916D01*
X129189384Y-34421939D01*
X129291542Y-34574830D01*
X129361910Y-34744713D01*
X129397783Y-34925060D01*
X129397783Y-35108940D01*
X129361910Y-35289287D01*
X129291542Y-35459170D01*
X129189384Y-35612061D01*
X129059361Y-35742084D01*
X128906470Y-35844242D01*
X128736587Y-35914610D01*
X128556240Y-35950483D01*
X128464300Y-35955000D01*
X128462698Y-35955000D01*
X127515902Y-35955000D01*
X127514300Y-35955000D01*
X127422360Y-35950483D01*
X127242013Y-35914610D01*
X127072130Y-35844242D01*
X126919239Y-35742084D01*
X126789216Y-35612061D01*
X126687058Y-35459170D01*
X126616690Y-35289287D01*
X126580817Y-35108940D01*
X126580817Y-34925060D01*
X126616690Y-34744713D01*
X126687058Y-34574830D01*
X126789216Y-34421939D01*
X126919239Y-34291916D01*
X127072130Y-34189758D01*
X127242013Y-34119390D01*
X127422360Y-34083517D01*
X127514300Y-34079000D01*
X128464300Y-34079000D01*
X128556240Y-34083517D01*
G37*
G36*
X144746240Y-34083517D02*
G01*
X144926587Y-34119390D01*
X145096470Y-34189758D01*
X145249361Y-34291916D01*
X145379384Y-34421939D01*
X145481542Y-34574830D01*
X145551910Y-34744713D01*
X145587783Y-34925060D01*
X145587783Y-35108940D01*
X145551910Y-35289287D01*
X145481542Y-35459170D01*
X145379384Y-35612061D01*
X145249361Y-35742084D01*
X145096470Y-35844242D01*
X144926587Y-35914610D01*
X144746240Y-35950483D01*
X144654300Y-35955000D01*
X144652698Y-35955000D01*
X143705902Y-35955000D01*
X143704300Y-35955000D01*
X143612360Y-35950483D01*
X143432013Y-35914610D01*
X143262130Y-35844242D01*
X143109239Y-35742084D01*
X142979216Y-35612061D01*
X142877058Y-35459170D01*
X142806690Y-35289287D01*
X142770817Y-35108940D01*
X142770817Y-34925060D01*
X142806690Y-34744713D01*
X142877058Y-34574830D01*
X142979216Y-34421939D01*
X143109239Y-34291916D01*
X143262130Y-34189758D01*
X143432013Y-34119390D01*
X143612360Y-34083517D01*
X143704300Y-34079000D01*
X144654300Y-34079000D01*
X144746240Y-34083517D01*
G37*
G36*
X155851240Y-31623517D02*
G01*
X156031587Y-31659390D01*
X156201470Y-31729758D01*
X156354361Y-31831916D01*
X156484384Y-31961939D01*
X156586542Y-32114830D01*
X156656910Y-32284713D01*
X156692783Y-32465060D01*
X156692783Y-32648940D01*
X156656910Y-32829287D01*
X156586542Y-32999170D01*
X156484384Y-33152061D01*
X156354361Y-33282084D01*
X156201470Y-33384242D01*
X156031587Y-33454610D01*
X155851240Y-33490483D01*
X155759300Y-33495000D01*
X155757698Y-33495000D01*
X154810902Y-33495000D01*
X154809300Y-33495000D01*
X154717360Y-33490483D01*
X154537013Y-33454610D01*
X154367130Y-33384242D01*
X154214239Y-33282084D01*
X154084216Y-33152061D01*
X153982058Y-32999170D01*
X153911690Y-32829287D01*
X153875817Y-32648940D01*
X153875817Y-32465060D01*
X153911690Y-32284713D01*
X153982058Y-32114830D01*
X154084216Y-31961939D01*
X154214239Y-31831916D01*
X154367130Y-31729758D01*
X154537013Y-31659390D01*
X154717360Y-31623517D01*
X154809300Y-31619000D01*
X155759300Y-31619000D01*
X155851240Y-31623517D01*
G37*
G36*
X172041240Y-31623517D02*
G01*
X172221587Y-31659390D01*
X172391470Y-31729758D01*
X172544361Y-31831916D01*
X172674384Y-31961939D01*
X172776542Y-32114830D01*
X172846910Y-32284713D01*
X172882783Y-32465060D01*
X172882783Y-32648940D01*
X172846910Y-32829287D01*
X172776542Y-32999170D01*
X172674384Y-33152061D01*
X172544361Y-33282084D01*
X172391470Y-33384242D01*
X172221587Y-33454610D01*
X172041240Y-33490483D01*
X171949300Y-33495000D01*
X171947698Y-33495000D01*
X171000902Y-33495000D01*
X170999300Y-33495000D01*
X170907360Y-33490483D01*
X170727013Y-33454610D01*
X170557130Y-33384242D01*
X170404239Y-33282084D01*
X170274216Y-33152061D01*
X170172058Y-32999170D01*
X170101690Y-32829287D01*
X170065817Y-32648940D01*
X170065817Y-32465060D01*
X170101690Y-32284713D01*
X170172058Y-32114830D01*
X170274216Y-31961939D01*
X170404239Y-31831916D01*
X170557130Y-31729758D01*
X170727013Y-31659390D01*
X170907360Y-31623517D01*
X170999300Y-31619000D01*
X171949300Y-31619000D01*
X172041240Y-31623517D01*
G37*
G36*
X128556240Y-31543517D02*
G01*
X128736587Y-31579390D01*
X128906470Y-31649758D01*
X129059361Y-31751916D01*
X129189384Y-31881939D01*
X129291542Y-32034830D01*
X129361910Y-32204713D01*
X129397783Y-32385060D01*
X129397783Y-32568940D01*
X129361910Y-32749287D01*
X129291542Y-32919170D01*
X129189384Y-33072061D01*
X129059361Y-33202084D01*
X128906470Y-33304242D01*
X128736587Y-33374610D01*
X128556240Y-33410483D01*
X128464300Y-33415000D01*
X128462698Y-33415000D01*
X127515902Y-33415000D01*
X127514300Y-33415000D01*
X127422360Y-33410483D01*
X127242013Y-33374610D01*
X127072130Y-33304242D01*
X126919239Y-33202084D01*
X126789216Y-33072061D01*
X126687058Y-32919170D01*
X126616690Y-32749287D01*
X126580817Y-32568940D01*
X126580817Y-32385060D01*
X126616690Y-32204713D01*
X126687058Y-32034830D01*
X126789216Y-31881939D01*
X126919239Y-31751916D01*
X127072130Y-31649758D01*
X127242013Y-31579390D01*
X127422360Y-31543517D01*
X127514300Y-31539000D01*
X128464300Y-31539000D01*
X128556240Y-31543517D01*
G37*
G36*
X144746240Y-31543517D02*
G01*
X144926587Y-31579390D01*
X145096470Y-31649758D01*
X145249361Y-31751916D01*
X145379384Y-31881939D01*
X145481542Y-32034830D01*
X145551910Y-32204713D01*
X145587783Y-32385060D01*
X145587783Y-32568940D01*
X145551910Y-32749287D01*
X145481542Y-32919170D01*
X145379384Y-33072061D01*
X145249361Y-33202084D01*
X145096470Y-33304242D01*
X144926587Y-33374610D01*
X144746240Y-33410483D01*
X144654300Y-33415000D01*
X144652698Y-33415000D01*
X143705902Y-33415000D01*
X143704300Y-33415000D01*
X143612360Y-33410483D01*
X143432013Y-33374610D01*
X143262130Y-33304242D01*
X143109239Y-33202084D01*
X142979216Y-33072061D01*
X142877058Y-32919170D01*
X142806690Y-32749287D01*
X142770817Y-32568940D01*
X142770817Y-32385060D01*
X142806690Y-32204713D01*
X142877058Y-32034830D01*
X142979216Y-31881939D01*
X143109239Y-31751916D01*
X143262130Y-31649758D01*
X143432013Y-31579390D01*
X143612360Y-31543517D01*
X143704300Y-31539000D01*
X144654300Y-31539000D01*
X144746240Y-31543517D01*
G37*
M02*
